<svg xmlns="http://www.w3.org/2000/svg" width="648.77" height="255.183" viewBox="0 0 648.77 255.183">
  <g id="Grupo_13279" data-name="Grupo 13279" transform="translate(-2502 4076.049)">
    <g id="Grupo_13278" data-name="Grupo 13278" transform="translate(2502 -4073.04)">
      <path id="Trazado_19553" data-name="Trazado 19553" d="M194.271,174.161a64.49,64.49,0,0,1,48.756-62.532,31.3,31.3,0,0,0-3.057-13A30.129,30.129,0,0,0,214.6,81.389l-482.683-15.55c-19.1-1.11-34.37,16.051-31.519,35.43l26.383,179.336c2.332,15.852,16.119,27.239,31.738,26.214,0,0,413.467-3.984,423.664-4.342,17.234-.606,34.434-.307,40.822-20.9L229,231.356A64.448,64.448,0,0,1,194.271,174.161Z" transform="translate(299.943 -54.709)" fill="#ecd048"/>
      <circle id="Elipse_501" data-name="Elipse 501" cx="48.822" cy="48.822" r="48.822" transform="translate(509.862 70.63)" fill="#ecd048"/>
      <path id="Trazado_19554" data-name="Trazado 19554" d="M157.784,60.657l89.275,2.827a30.582,30.582,0,0,1,28.806,32.433M145.933,60.282,136.911,60M-178.732,50l299.924,9.5M-190.06,49.646l-49.562-1.57a30.6,30.6,0,0,0-31.99,35.108l26.778,177.707a30.6,30.6,0,0,0,32.212,25.975s416.431-3.947,426.78-4.3c17.492-.6,34.949-.3,41.433-20.708,9.445-29.72-29.33-36.551-34.813-17.2-4.251,15,18.588,25.864,32.16,12.185,4.239-4.272,4.317-8.9,5.541-13.948s2.343-10.193,2.343-10.193a8.432,8.432,0,0,1,8.6-6.571,58.2,58.2,0,1,0-34.148-13.288,12.016,12.016,0,0,0,19.18-5.957l9.836-34.083c2.519-8.729-10.112-12.516-12.671-3.656-2.489,8.623,10.512,12.907,16.235,14.558s19.009,4.953,21.5-3.67c2.556-8.861-10.151-12.385-12.67-3.657s-12.454,42.39-12.454,42.39" transform="translate(289.413 -48.025)" fill="none" stroke="#2f2f2f" stroke-linecap="round" stroke-linejoin="round" stroke-width="6"/>
      <g id="Grupo_13183" data-name="Grupo 13183" transform="translate(606.916 45)">
        <line id="Línea_200" data-name="Línea 200" x1="7.486" y2="15.125" fill="none" stroke="#2f2f2f" stroke-linecap="round" stroke-linejoin="round" stroke-width="6"/>
        <line id="Línea_201" data-name="Línea 201" x1="12.771" y2="11.032" transform="translate(12.799 16.265)" fill="none" stroke="#2f2f2f" stroke-linecap="round" stroke-linejoin="round" stroke-width="6"/>
        <line id="Línea_202" data-name="Línea 202" x1="16.077" y2="5.13" transform="translate(22.006 37.864)" fill="none" stroke="#2f2f2f" stroke-linecap="round" stroke-linejoin="round" stroke-width="6"/>
      </g>
    </g>
    <path id="Trazado_19695" data-name="Trazado 19695" d="M7,4.938a3.867,3.867,0,0,1,2.046.543,3.666,3.666,0,0,1,1.373,1.452,4.261,4.261,0,0,1,.478,2.013,3.964,3.964,0,0,1-1.081,2.844A3.709,3.709,0,0,1,7,12.925H3.711V18H2.05V4.938Zm-.241,6.541a2.375,2.375,0,0,0,1.818-.7,2.592,2.592,0,0,0,.659-1.851,2.6,2.6,0,0,0-.659-1.842,2.359,2.359,0,0,0-1.818-.71H3.711v5.1Zm7.923,6.7a3.1,3.1,0,0,1-2-.626,2.249,2.249,0,0,1-.784-1.869,2.656,2.656,0,0,1,.25-1.192,2.1,2.1,0,0,1,.742-.83,4.452,4.452,0,0,1,1.072-.515,9.9,9.9,0,0,1,1.387-.329l1.475-.241q.807-.148.807-.844a1.594,1.594,0,0,0-.571-1.359,2.325,2.325,0,0,0-1.443-.431,2.368,2.368,0,0,0-1.429.417,1.747,1.747,0,0,0-.677,1.28l-1.447-.306A2.785,2.785,0,0,1,13.2,9.377a4.263,4.263,0,0,1,2.486-.654,5.043,5.043,0,0,1,1.322.162,3.593,3.593,0,0,1,1.1.51,2.288,2.288,0,0,1,.789.983,3.659,3.659,0,0,1,.283,1.5v3.767a1.541,1.541,0,0,0,.209.951.9.9,0,0,0,.719.246h.148V18h-.8a1.522,1.522,0,0,1-1.726-1.234h-.074A3.485,3.485,0,0,1,14.677,18.176Zm.371-1.3A2.433,2.433,0,0,0,17.005,16a3.628,3.628,0,0,0,.742-2.412l-2.412.464a3.247,3.247,0,0,0-1.415.506,1.176,1.176,0,0,0-.459,1,1.162,1.162,0,0,0,.441,1A1.884,1.884,0,0,0,15.048,16.877Zm9.045-6.392a2.757,2.757,0,0,1,1.132-1.225,3.409,3.409,0,0,1,1.753-.482v1.512a3,3,0,0,0-2.12.677,2.829,2.829,0,0,0-.728,2.162V18h-1.6V8.88h1.568Zm6.763,7.691a3.1,3.1,0,0,1-2-.626,2.249,2.249,0,0,1-.784-1.869,2.656,2.656,0,0,1,.25-1.192,2.1,2.1,0,0,1,.742-.83,4.452,4.452,0,0,1,1.072-.515,9.9,9.9,0,0,1,1.387-.329L33,12.573q.807-.148.807-.844a1.594,1.594,0,0,0-.571-1.359,2.325,2.325,0,0,0-1.443-.431,2.368,2.368,0,0,0-1.429.417,1.747,1.747,0,0,0-.677,1.28L28.24,11.33a2.785,2.785,0,0,1,1.141-1.953,4.263,4.263,0,0,1,2.486-.654,5.043,5.043,0,0,1,1.322.162,3.593,3.593,0,0,1,1.1.51,2.288,2.288,0,0,1,.789.983,3.659,3.659,0,0,1,.283,1.5v3.767a1.541,1.541,0,0,0,.209.951.9.9,0,0,0,.719.246h.148V18h-.8a1.522,1.522,0,0,1-1.726-1.234h-.074A3.485,3.485,0,0,1,30.856,18.176Zm.371-1.3A2.433,2.433,0,0,0,33.185,16a3.628,3.628,0,0,0,.742-2.412l-2.412.464a3.247,3.247,0,0,0-1.415.506,1.176,1.176,0,0,0-.459,1,1.162,1.162,0,0,0,.441,1A1.884,1.884,0,0,0,31.228,16.877ZM48.456,8.7a4.148,4.148,0,0,1,1.651.334,4.062,4.062,0,0,1,1.354.937,4.379,4.379,0,0,1,.914,1.5,5.542,5.542,0,0,1,.339,1.967,4.822,4.822,0,0,1-1.229,3.442,3.992,3.992,0,0,1-3.029,1.308,3.61,3.61,0,0,1-1.906-.52,3.4,3.4,0,0,1-1.3-1.4v6.318h-1.6V8.88H45.19l.037,1.772a3.338,3.338,0,0,1,1.3-1.424A3.643,3.643,0,0,1,48.456,8.7Zm-.315,8.1a2.769,2.769,0,0,0,2.111-.923,3.434,3.434,0,0,0,.858-2.435,3.417,3.417,0,0,0-.858-2.431A2.878,2.878,0,0,0,46,11.056a3.42,3.42,0,0,0-.872,2.389,3.433,3.433,0,0,0,.872,2.4A2.783,2.783,0,0,0,48.14,16.8Zm8.674-6.318a2.757,2.757,0,0,1,1.132-1.225A3.409,3.409,0,0,1,59.7,8.778v1.512a3,3,0,0,0-2.12.677,2.829,2.829,0,0,0-.728,2.162V18h-1.6V8.88h1.568Zm8.5,7.691a4.807,4.807,0,0,1-2.338-.566,4.121,4.121,0,0,1-1.647-1.656,5.087,5.087,0,0,1-.608-2.519A4.646,4.646,0,0,1,62.014,10a4.855,4.855,0,0,1,6.6,0,4.655,4.655,0,0,1,1.29,3.437,4.658,4.658,0,0,1-1.294,3.447A4.467,4.467,0,0,1,65.313,18.176ZM65.3,16.84A2.8,2.8,0,0,0,67.46,15.9a3.511,3.511,0,0,0,.858-2.468,3.5,3.5,0,0,0-.858-2.458A2.8,2.8,0,0,0,65.3,10.04a2.762,2.762,0,0,0-2.138.937,3.521,3.521,0,0,0-.849,2.458,3.534,3.534,0,0,0,.849,2.468A2.762,2.762,0,0,0,65.3,16.84ZM76.6,5.1h-.348q-.107,0-.334.019a2.141,2.141,0,0,0-.334.046q-.107.028-.288.093a.734.734,0,0,0-.274.158q-.093.093-.213.237a.969.969,0,0,0-.181.334,3.193,3.193,0,0,0-.1.445A3.551,3.551,0,0,0,74.488,7V8.88H76.6v1.28H74.488V18h-1.6V10.161H71.129V8.88h1.763V6.969a5.245,5.245,0,0,1,.1-1.062,3.445,3.445,0,0,1,.26-.8,1.907,1.907,0,0,1,.431-.58,2.538,2.538,0,0,1,.561-.394,2.786,2.786,0,0,1,.691-.232,6.487,6.487,0,0,1,.784-.116q.385-.032.886-.032ZM84.136,8.88h1.6V18H84.2l-.037-1.206a2.847,2.847,0,0,1-1.132,1.025,3.481,3.481,0,0,1-1.6.357,3.172,3.172,0,0,1-2.3-.826,3.08,3.08,0,0,1-.858-2.329V8.88h1.6v5.78a2.164,2.164,0,0,0,.561,1.633,1.987,1.987,0,0,0,1.433.538A2.182,2.182,0,0,0,83.5,16.2a2.57,2.57,0,0,0,.635-1.865ZM93.312,8.7a3.172,3.172,0,0,1,2.3.826,3.08,3.08,0,0,1,.858,2.329V18h-1.6V12.22a2.156,2.156,0,0,0-.557-1.633,1.99,1.99,0,0,0-1.429-.529,2.206,2.206,0,0,0-1.624.626,2.541,2.541,0,0,0-.64,1.86V18h-1.6V8.88h1.6v1.169A3.046,3.046,0,0,1,93.312,8.7ZM106.3,3.75h1.6V18h-1.549l-.037-1.772a3.356,3.356,0,0,1-1.3,1.438,3.619,3.619,0,0,1-1.93.529,4.144,4.144,0,0,1-3.01-1.285,4.391,4.391,0,0,1-.918-1.508,5.515,5.515,0,0,1-.339-1.958,4.8,4.8,0,0,1,1.239-3.423A4,4,0,0,1,103.09,8.7,3.635,3.635,0,0,1,105,9.219a3.375,3.375,0,0,1,1.3,1.4ZM103.424,16.8a2.731,2.731,0,0,0,2.12-.96,3.466,3.466,0,0,0,.858-2.4,3.459,3.459,0,0,0-.863-2.394,2.729,2.729,0,0,0-2.115-.965,2.791,2.791,0,0,0-2.134.932,3.43,3.43,0,0,0-.863,2.426,3.43,3.43,0,0,0,.863,2.426A2.791,2.791,0,0,0,103.424,16.8Zm8.563-10.066A1.093,1.093,0,0,1,110.9,5.652a1.029,1.029,0,0,1,.32-.761,1.052,1.052,0,0,1,.765-.315,1.041,1.041,0,0,1,.756.315,1.029,1.029,0,0,1,.32.761,1.044,1.044,0,0,1-.32.765A1.034,1.034,0,0,1,111.987,6.737ZM111.17,18V8.88h1.614V18Zm6.142-1.3h4.861V18H114.9l4.806-7.812h-4.527V8.88h6.986Zm8.869,1.475a3.1,3.1,0,0,1-2-.626,2.249,2.249,0,0,1-.784-1.869,2.656,2.656,0,0,1,.25-1.192,2.1,2.1,0,0,1,.742-.83,4.452,4.452,0,0,1,1.072-.515,9.9,9.9,0,0,1,1.387-.329l1.475-.241q.807-.148.807-.844a1.594,1.594,0,0,0-.571-1.359,2.325,2.325,0,0,0-1.443-.431,2.368,2.368,0,0,0-1.429.417,1.747,1.747,0,0,0-.677,1.28l-1.447-.306a2.785,2.785,0,0,1,1.141-1.953,4.263,4.263,0,0,1,2.486-.654,5.043,5.043,0,0,1,1.322.162,3.593,3.593,0,0,1,1.1.51,2.288,2.288,0,0,1,.789.983,3.659,3.659,0,0,1,.283,1.5v3.767a1.541,1.541,0,0,0,.209.951.9.9,0,0,0,.719.246h.148V18h-.8a1.522,1.522,0,0,1-1.726-1.234h-.074A3.485,3.485,0,0,1,126.181,18.176Zm.371-1.3A2.433,2.433,0,0,0,128.51,16a3.628,3.628,0,0,0,.742-2.412l-2.412.464a3.247,3.247,0,0,0-1.415.506,1.176,1.176,0,0,0-.459,1,1.162,1.162,0,0,0,.441,1A1.884,1.884,0,0,0,126.552,16.877Zm9.045-6.392a2.757,2.757,0,0,1,1.132-1.225,3.409,3.409,0,0,1,1.753-.482v1.512a3,3,0,0,0-2.12.677,2.829,2.829,0,0,0-.728,2.162V18h-1.6V8.88H135.6Zm17.683,2.774-.019.436h-7.125a3.223,3.223,0,0,0,.872,2.333,2.863,2.863,0,0,0,2.078.812A2.734,2.734,0,0,0,150.6,16.4a2.829,2.829,0,0,0,1.039-1.206l1.447.306a4.114,4.114,0,0,1-1.559,1.958,4.252,4.252,0,0,1-2.421.714,4.406,4.406,0,0,1-3.284-1.271,4.728,4.728,0,0,1-1.252-3.47,4.705,4.705,0,0,1,1.257-3.46A4.351,4.351,0,0,1,149.059,8.7a4.117,4.117,0,0,1,3.066,1.169A4.619,4.619,0,0,1,153.28,13.259Zm-4.221-3.321a2.844,2.844,0,0,0-1.9.645,2.954,2.954,0,0,0-.96,1.879h5.464a2.71,2.71,0,0,0-.8-1.879A2.577,2.577,0,0,0,149.059,9.938ZM160.1,8.7a3.172,3.172,0,0,1,2.3.826,3.08,3.08,0,0,1,.858,2.329V18h-1.6V12.22a2.156,2.156,0,0,0-.557-1.633,1.99,1.99,0,0,0-1.429-.529,2.206,2.206,0,0,0-1.624.626,2.541,2.541,0,0,0-.64,1.86V18h-1.6V8.88h1.6v1.169A3.046,3.046,0,0,1,160.1,8.7Zm19.167,4.555-.019.436h-7.125a3.223,3.223,0,0,0,.872,2.333,2.863,2.863,0,0,0,2.078.812,2.734,2.734,0,0,0,1.512-.436,2.829,2.829,0,0,0,1.039-1.206l1.447.306a4.114,4.114,0,0,1-1.559,1.958,4.252,4.252,0,0,1-2.421.714,4.406,4.406,0,0,1-3.284-1.271,4.728,4.728,0,0,1-1.252-3.47,4.705,4.705,0,0,1,1.257-3.46A4.351,4.351,0,0,1,175.045,8.7a4.117,4.117,0,0,1,3.066,1.169A4.619,4.619,0,0,1,179.266,13.259Zm-4.221-3.321a2.844,2.844,0,0,0-1.9.645,2.954,2.954,0,0,0-.96,1.879h5.464a2.71,2.71,0,0,0-.8-1.879A2.577,2.577,0,0,0,175.045,9.938Zm9.621,8.238a4.323,4.323,0,0,1-2.458-.659,2.724,2.724,0,0,1-1.2-1.874l1.4-.4a1.954,1.954,0,0,0,.747,1.266,2.423,2.423,0,0,0,1.5.45,2.99,2.99,0,0,0,.877-.121,1.405,1.405,0,0,0,.673-.45,1.255,1.255,0,0,0,.195-1.206,1.611,1.611,0,0,0-.148-.3.919.919,0,0,0-.26-.25,3.425,3.425,0,0,0-.315-.195,3.238,3.238,0,0,0-.413-.172q-.274-.1-.441-.148t-.51-.148q-.343-.1-.529-.153a9.891,9.891,0,0,1-.946-.334,4.15,4.15,0,0,1-.77-.441,1.773,1.773,0,0,1-.6-.719,2.433,2.433,0,0,1-.2-1.021,2.358,2.358,0,0,1,.445-1.457,2.506,2.506,0,0,1,1.155-.858,4.617,4.617,0,0,1,1.619-.264,3.963,3.963,0,0,1,2.222.594A2.534,2.534,0,0,1,187.82,11.1l-1.317.334a1.747,1.747,0,0,0-.7-1.155,2.215,2.215,0,0,0-1.308-.385,2.258,2.258,0,0,0-1.225.32,1.076,1.076,0,0,0-.51.979.974.974,0,0,0,.135.506,1.606,1.606,0,0,0,.274.357,1.682,1.682,0,0,0,.5.274q.362.144.538.195t.668.172q.093.028.139.037.538.139.877.246a5.389,5.389,0,0,1,.789.334,2.622,2.622,0,0,1,.71.5,2.3,2.3,0,0,1,.445.705,2.489,2.489,0,0,1,.186.983,2.656,2.656,0,0,1-.274,1.229,2.141,2.141,0,0,1-.747.84,3.612,3.612,0,0,1-1.062.459A5.061,5.061,0,0,1,184.666,18.176ZM193.46,18a2.4,2.4,0,0,1-1.781-.654,2.474,2.474,0,0,1-.649-1.823V10.161h-1.865V8.88h.687a1.318,1.318,0,0,0,1.007-.32,1.575,1.575,0,0,0,.292-1.072V5.837h1.494V8.88h2.1v1.28h-2.1v5.2a1.383,1.383,0,0,0,.348,1.007,1.218,1.218,0,0,0,.914.357h.835V18Zm11.467-4.741-.019.436h-7.125a3.223,3.223,0,0,0,.872,2.333,2.863,2.863,0,0,0,2.078.812,2.734,2.734,0,0,0,1.512-.436,2.829,2.829,0,0,0,1.039-1.206l1.447.306a4.114,4.114,0,0,1-1.559,1.958,4.252,4.252,0,0,1-2.421.714,4.406,4.406,0,0,1-3.284-1.271,4.728,4.728,0,0,1-1.252-3.47,4.705,4.705,0,0,1,1.257-3.46A4.351,4.351,0,0,1,200.706,8.7a4.117,4.117,0,0,1,3.066,1.169A4.619,4.619,0,0,1,204.927,13.259Zm-4.221-3.321a2.844,2.844,0,0,0-1.9.645,2.954,2.954,0,0,0-.96,1.879h5.464a2.71,2.71,0,0,0-.8-1.879A2.577,2.577,0,0,0,200.706,9.938ZM215.29,18a2.4,2.4,0,0,1-1.781-.654,2.474,2.474,0,0,1-.649-1.823V10.161h-1.865V8.88h.687a1.318,1.318,0,0,0,1.007-.32,1.575,1.575,0,0,0,.292-1.072V5.837h1.494V8.88h2.1v1.28h-2.1v5.2a1.383,1.383,0,0,0,.348,1.007,1.218,1.218,0,0,0,.914.357h.835V18Zm11.467-4.741-.019.436h-7.125a3.223,3.223,0,0,0,.872,2.333,2.863,2.863,0,0,0,2.078.812,2.734,2.734,0,0,0,1.512-.436,2.829,2.829,0,0,0,1.039-1.206l1.447.306A4.114,4.114,0,0,1,225,17.462a4.252,4.252,0,0,1-2.421.714,4.406,4.406,0,0,1-3.284-1.271,4.728,4.728,0,0,1-1.252-3.47,4.705,4.705,0,0,1,1.257-3.46A4.351,4.351,0,0,1,222.536,8.7,4.117,4.117,0,0,1,225.6,9.873,4.619,4.619,0,0,1,226.757,13.259Zm-4.221-3.321a2.844,2.844,0,0,0-1.9.645,2.954,2.954,0,0,0-.96,1.879h5.464a2.71,2.71,0,0,0-.8-1.879A2.577,2.577,0,0,0,222.536,9.938ZM238.595,8.7a2.94,2.94,0,0,1,2.125.775,2.873,2.873,0,0,1,.807,2.176V18h-1.6V12.072a2.061,2.061,0,0,0-.5-1.5,1.706,1.706,0,0,0-1.271-.51,1.8,1.8,0,0,0-1.392.575,2.473,2.473,0,0,0-.529,1.726V18H234.6V12.137a2.156,2.156,0,0,0-.506-1.554,1.72,1.72,0,0,0-1.294-.524,1.784,1.784,0,0,0-1.387.589,2.559,2.559,0,0,0-.533,1.767V18h-1.6V8.88h1.6v1.178a2.77,2.77,0,0,1,1.044-1,2.976,2.976,0,0,1,1.452-.353,3.1,3.1,0,0,1,1.559.385,2.4,2.4,0,0,1,1.011,1.109,2.838,2.838,0,0,1,1.095-1.109A3.131,3.131,0,0,1,238.595,8.7Zm8.146,9.472a3.1,3.1,0,0,1-2-.626,2.249,2.249,0,0,1-.784-1.869,2.656,2.656,0,0,1,.25-1.192,2.1,2.1,0,0,1,.742-.83,4.452,4.452,0,0,1,1.072-.515,9.9,9.9,0,0,1,1.387-.329l1.475-.241q.807-.148.807-.844a1.594,1.594,0,0,0-.571-1.359,2.325,2.325,0,0,0-1.443-.431,2.368,2.368,0,0,0-1.429.417,1.747,1.747,0,0,0-.677,1.28l-1.447-.306a2.785,2.785,0,0,1,1.141-1.953,4.263,4.263,0,0,1,2.486-.654,5.043,5.043,0,0,1,1.322.162,3.593,3.593,0,0,1,1.1.51,2.288,2.288,0,0,1,.789.983,3.659,3.659,0,0,1,.283,1.5v3.767a1.541,1.541,0,0,0,.209.951.9.9,0,0,0,.719.246h.148V18h-.8a1.522,1.522,0,0,1-1.726-1.234h-.074A3.485,3.485,0,0,1,246.74,18.176Zm.371-1.3A2.433,2.433,0,0,0,249.069,16a3.628,3.628,0,0,0,.742-2.412l-2.412.464a3.247,3.247,0,0,0-1.415.506,1.176,1.176,0,0,0-.459,1,1.162,1.162,0,0,0,.441,1A1.884,1.884,0,0,0,247.111,16.877Zm8.73,4.472h-1.169L255.8,15.6h1.679Zm9.7-3.349V3.75h1.624V18Zm8.73.176a4.807,4.807,0,0,1-2.338-.566,4.121,4.121,0,0,1-1.647-1.656,5.087,5.087,0,0,1-.608-2.519A4.646,4.646,0,0,1,270.977,10a4.855,4.855,0,0,1,6.6,0,4.655,4.655,0,0,1,1.29,3.437,4.658,4.658,0,0,1-1.294,3.447A4.467,4.467,0,0,1,274.275,18.176Zm-.009-1.336a2.8,2.8,0,0,0,2.157-.937,3.511,3.511,0,0,0,.858-2.468,3.5,3.5,0,0,0-.858-2.458,2.8,2.8,0,0,0-2.157-.937,2.762,2.762,0,0,0-2.138.937,3.521,3.521,0,0,0-.849,2.458,3.534,3.534,0,0,0,.849,2.468A2.762,2.762,0,0,0,274.266,16.84Zm12.868-10.1a1.093,1.093,0,0,1-1.085-1.085,1.029,1.029,0,0,1,.32-.761,1.052,1.052,0,0,1,.765-.315,1.041,1.041,0,0,1,.756.315,1.029,1.029,0,0,1,.32.761,1.044,1.044,0,0,1-.32.765A1.034,1.034,0,0,1,287.134,6.737ZM286.317,18V8.88h1.614V18ZM295.5,8.7a3.172,3.172,0,0,1,2.3.826,3.08,3.08,0,0,1,.858,2.329V18h-1.6V12.22a2.156,2.156,0,0,0-.557-1.633,1.99,1.99,0,0,0-1.429-.529,2.206,2.206,0,0,0-1.624.626,2.541,2.541,0,0,0-.64,1.86V18h-1.6V8.88h1.6v1.169A3.046,3.046,0,0,1,295.5,8.7Zm11.634.176h1.716L305.141,18h-1.364l-3.692-9.12h1.707l2.672,7.255Zm4.435-2.143a1.093,1.093,0,0,1-1.085-1.085,1.029,1.029,0,0,1,.32-.761,1.052,1.052,0,0,1,.765-.315,1.041,1.041,0,0,1,.756.315,1.029,1.029,0,0,1,.32.761,1.044,1.044,0,0,1-.32.765A1.034,1.034,0,0,1,311.57,6.737ZM310.754,18V8.88h1.614V18Zm7.793,0a2.4,2.4,0,0,1-1.781-.654,2.474,2.474,0,0,1-.649-1.823V10.161h-1.865V8.88h.687a1.318,1.318,0,0,0,1.007-.32,1.575,1.575,0,0,0,.292-1.072V5.837h1.494V8.88h2.1v1.28h-2.1v5.2a1.383,1.383,0,0,0,.348,1.007,1.218,1.218,0,0,0,.914.357h.835V18Zm5.594.176a3.1,3.1,0,0,1-2-.626,2.249,2.249,0,0,1-.784-1.869,2.656,2.656,0,0,1,.25-1.192,2.1,2.1,0,0,1,.742-.83,4.452,4.452,0,0,1,1.072-.515,9.906,9.906,0,0,1,1.387-.329l1.475-.241q.807-.148.807-.844a1.594,1.594,0,0,0-.571-1.359,2.325,2.325,0,0,0-1.443-.431,2.368,2.368,0,0,0-1.429.417,1.747,1.747,0,0,0-.677,1.28l-1.447-.306a2.785,2.785,0,0,1,1.141-1.953,4.263,4.263,0,0,1,2.486-.654,5.043,5.043,0,0,1,1.322.162,3.593,3.593,0,0,1,1.1.51,2.288,2.288,0,0,1,.789.983,3.659,3.659,0,0,1,.283,1.5v3.767a1.541,1.541,0,0,0,.209.951.9.9,0,0,0,.719.246h.148V18h-.8a1.522,1.522,0,0,1-1.726-1.234h-.074A3.485,3.485,0,0,1,324.141,18.176Zm.371-1.3A2.433,2.433,0,0,0,326.47,16a3.629,3.629,0,0,0,.742-2.412l-2.412.464a3.247,3.247,0,0,0-1.415.506,1.176,1.176,0,0,0-.459,1,1.162,1.162,0,0,0,.441,1A1.884,1.884,0,0,0,324.512,16.877Zm16.8-8.173a2.94,2.94,0,0,1,2.125.775,2.873,2.873,0,0,1,.807,2.176V18h-1.6V12.072a2.061,2.061,0,0,0-.5-1.5,1.706,1.706,0,0,0-1.271-.51,1.8,1.8,0,0,0-1.392.575,2.473,2.473,0,0,0-.529,1.726V18h-1.633V12.137a2.156,2.156,0,0,0-.506-1.554,1.72,1.72,0,0,0-1.294-.524,1.784,1.784,0,0,0-1.387.589,2.559,2.559,0,0,0-.533,1.767V18h-1.6V8.88h1.6v1.178a2.771,2.771,0,0,1,1.044-1A2.976,2.976,0,0,1,336.09,8.7a3.1,3.1,0,0,1,1.559.385A2.4,2.4,0,0,1,338.66,10.2a2.838,2.838,0,0,1,1.095-1.109A3.131,3.131,0,0,1,341.313,8.7Zm9.88,9.472a4.807,4.807,0,0,1-2.338-.566,4.121,4.121,0,0,1-1.647-1.656,5.087,5.087,0,0,1-.608-2.519A4.646,4.646,0,0,1,347.9,10a4.855,4.855,0,0,1,6.6,0,4.655,4.655,0,0,1,1.29,3.437,4.658,4.658,0,0,1-1.294,3.447A4.467,4.467,0,0,1,351.194,18.176Zm-.009-1.336a2.8,2.8,0,0,0,2.157-.937,3.511,3.511,0,0,0,.858-2.468,3.5,3.5,0,0,0-.858-2.458,2.8,2.8,0,0,0-2.157-.937,2.762,2.762,0,0,0-2.138.937,3.521,3.521,0,0,0-.849,2.458,3.534,3.534,0,0,0,.849,2.468A2.762,2.762,0,0,0,351.185,16.84Zm10,1.336a4.323,4.323,0,0,1-2.458-.659,2.724,2.724,0,0,1-1.2-1.874l1.4-.4a1.954,1.954,0,0,0,.747,1.266,2.423,2.423,0,0,0,1.5.45,2.99,2.99,0,0,0,.877-.121,1.405,1.405,0,0,0,.673-.45,1.255,1.255,0,0,0,.195-1.206,1.612,1.612,0,0,0-.148-.3.919.919,0,0,0-.26-.25,3.427,3.427,0,0,0-.315-.195,3.237,3.237,0,0,0-.413-.172q-.274-.1-.441-.148t-.51-.148q-.343-.1-.529-.153a9.894,9.894,0,0,1-.946-.334,4.15,4.15,0,0,1-.77-.441,1.773,1.773,0,0,1-.6-.719,2.433,2.433,0,0,1-.2-1.021,2.358,2.358,0,0,1,.445-1.457,2.506,2.506,0,0,1,1.155-.858,4.617,4.617,0,0,1,1.619-.264,3.963,3.963,0,0,1,2.222.594A2.534,2.534,0,0,1,364.34,11.1l-1.317.334a1.747,1.747,0,0,0-.7-1.155,2.215,2.215,0,0,0-1.308-.385,2.258,2.258,0,0,0-1.225.32,1.076,1.076,0,0,0-.51.979.974.974,0,0,0,.135.506,1.606,1.606,0,0,0,.274.357,1.682,1.682,0,0,0,.5.274q.362.144.538.195t.668.172q.093.028.139.037.538.139.877.246a5.389,5.389,0,0,1,.789.334,2.622,2.622,0,0,1,.71.5,2.3,2.3,0,0,1,.445.705,2.489,2.489,0,0,1,.186.983,2.656,2.656,0,0,1-.274,1.229,2.141,2.141,0,0,1-.747.84,3.612,3.612,0,0,1-1.062.459A5.061,5.061,0,0,1,361.186,18.176Zm12.923,0a3.1,3.1,0,0,1-2-.626,2.249,2.249,0,0,1-.784-1.869,2.656,2.656,0,0,1,.25-1.192,2.1,2.1,0,0,1,.742-.83,4.452,4.452,0,0,1,1.072-.515,9.906,9.906,0,0,1,1.387-.329l1.475-.241q.807-.148.807-.844a1.594,1.594,0,0,0-.571-1.359,2.325,2.325,0,0,0-1.443-.431,2.368,2.368,0,0,0-1.429.417,1.747,1.747,0,0,0-.677,1.28l-1.447-.306a2.785,2.785,0,0,1,1.141-1.953,4.263,4.263,0,0,1,2.486-.654,5.043,5.043,0,0,1,1.322.162,3.593,3.593,0,0,1,1.1.51,2.288,2.288,0,0,1,.789.983,3.659,3.659,0,0,1,.283,1.5v3.767a1.541,1.541,0,0,0,.209.951.9.9,0,0,0,.719.246h.148V18h-.8a1.522,1.522,0,0,1-1.726-1.234H377.1A3.485,3.485,0,0,1,374.109,18.176Zm.371-1.3A2.433,2.433,0,0,0,376.438,16a3.629,3.629,0,0,0,.742-2.412l-2.412.464a3.247,3.247,0,0,0-1.415.506,1.176,1.176,0,0,0-.459,1,1.162,1.162,0,0,0,.441,1A1.884,1.884,0,0,0,374.48,16.877ZM5.418,42.167a4.392,4.392,0,0,1-3.266-1.308,4.666,4.666,0,0,1-1.29-3.423,4.676,4.676,0,0,1,1.285-3.423A4.388,4.388,0,0,1,5.418,32.7a4.424,4.424,0,0,1,2.639.8,4.026,4.026,0,0,1,1.535,2.217l-1.5.241a2.776,2.776,0,0,0-1.03-1.419,2.8,2.8,0,0,0-1.651-.5,2.7,2.7,0,0,0-2.111.937,4.048,4.048,0,0,0,0,4.912,2.7,2.7,0,0,0,2.111.932,2.8,2.8,0,0,0,1.651-.5A2.776,2.776,0,0,0,8.09,38.9l1.5.25a4.031,4.031,0,0,1-1.545,2.213A4.418,4.418,0,0,1,5.418,42.167Zm10.381.009a4.807,4.807,0,0,1-2.338-.566,4.121,4.121,0,0,1-1.647-1.656,5.087,5.087,0,0,1-.608-2.519A4.646,4.646,0,0,1,12.5,34,4.467,4.467,0,0,1,15.8,32.7,4.463,4.463,0,0,1,19.1,34a4.655,4.655,0,0,1,1.29,3.437A4.658,4.658,0,0,1,19.1,40.882,4.467,4.467,0,0,1,15.8,42.176ZM15.79,40.84a2.8,2.8,0,0,0,2.157-.937,3.964,3.964,0,0,0,0-4.926,2.8,2.8,0,0,0-2.157-.937,2.762,2.762,0,0,0-2.138.937,4,4,0,0,0,0,4.926A2.762,2.762,0,0,0,15.79,40.84ZM27.21,32.7a3.172,3.172,0,0,1,2.3.826,3.08,3.08,0,0,1,.858,2.329V42h-1.6V36.22a2.156,2.156,0,0,0-.557-1.633,1.99,1.99,0,0,0-1.429-.529,2.206,2.206,0,0,0-1.624.626,2.541,2.541,0,0,0-.64,1.86V42h-1.6V32.88h1.6v1.169A3.046,3.046,0,0,1,27.21,32.7Zm9.138,9.472a4.323,4.323,0,0,1-2.458-.659,2.724,2.724,0,0,1-1.2-1.874l1.4-.4a1.954,1.954,0,0,0,.747,1.266,2.423,2.423,0,0,0,1.5.45,2.99,2.99,0,0,0,.877-.121,1.405,1.405,0,0,0,.673-.45,1.255,1.255,0,0,0,.195-1.206,1.611,1.611,0,0,0-.148-.3.919.919,0,0,0-.26-.25,3.426,3.426,0,0,0-.315-.195,3.238,3.238,0,0,0-.413-.172q-.274-.1-.441-.148T36,37.969q-.343-.1-.529-.153a9.891,9.891,0,0,1-.946-.334,4.15,4.15,0,0,1-.77-.441,1.773,1.773,0,0,1-.6-.719,2.433,2.433,0,0,1-.2-1.021,2.358,2.358,0,0,1,.445-1.457,2.506,2.506,0,0,1,1.155-.858,4.617,4.617,0,0,1,1.619-.264,3.963,3.963,0,0,1,2.222.594A2.534,2.534,0,0,1,39.5,35.1l-1.317.334a1.747,1.747,0,0,0-.7-1.155,2.215,2.215,0,0,0-1.308-.385,2.258,2.258,0,0,0-1.225.32,1.076,1.076,0,0,0-.51.979.974.974,0,0,0,.135.506,1.606,1.606,0,0,0,.274.357,1.682,1.682,0,0,0,.5.274q.362.144.538.195t.668.172q.093.028.139.037.538.139.877.246a5.388,5.388,0,0,1,.789.334,2.622,2.622,0,0,1,.71.5,2.3,2.3,0,0,1,.445.705,2.489,2.489,0,0,1,.186.983,2.656,2.656,0,0,1-.274,1.229,2.141,2.141,0,0,1-.747.84,3.612,3.612,0,0,1-1.062.459A5.061,5.061,0,0,1,36.349,42.176Zm11.56-9.3h1.6V42h-1.54l-.037-1.206A2.847,2.847,0,0,1,46.8,41.819a3.481,3.481,0,0,1-1.6.357,3.172,3.172,0,0,1-2.3-.826,3.08,3.08,0,0,1-.858-2.329V32.88h1.6v5.78a2.164,2.164,0,0,0,.561,1.633,1.987,1.987,0,0,0,1.433.538,2.182,2.182,0,0,0,1.619-.631,2.57,2.57,0,0,0,.635-1.865ZM52.779,42V27.75H54.4V42Zm7.8,0a2.4,2.4,0,0,1-1.781-.654,2.474,2.474,0,0,1-.649-1.823V34.161H56.286V32.88h.687a1.318,1.318,0,0,0,1.007-.32,1.575,1.575,0,0,0,.292-1.072V29.837h1.494V32.88h2.1v1.28h-2.1v5.2a1.383,1.383,0,0,0,.348,1.007,1.218,1.218,0,0,0,.914.357h.835V42Zm5.594.176a3.1,3.1,0,0,1-2-.626,2.249,2.249,0,0,1-.784-1.869,2.656,2.656,0,0,1,.25-1.192,2.1,2.1,0,0,1,.742-.83,4.452,4.452,0,0,1,1.072-.515,9.906,9.906,0,0,1,1.387-.329l1.475-.241q.807-.148.807-.844a1.594,1.594,0,0,0-.571-1.359,2.325,2.325,0,0,0-1.443-.431,2.368,2.368,0,0,0-1.429.417,1.747,1.747,0,0,0-.677,1.28l-1.447-.306A2.785,2.785,0,0,1,64.7,33.377a4.263,4.263,0,0,1,2.486-.654,5.043,5.043,0,0,1,1.322.162,3.593,3.593,0,0,1,1.1.51,2.288,2.288,0,0,1,.789.983,3.659,3.659,0,0,1,.283,1.5v3.767a1.541,1.541,0,0,0,.209.951.9.9,0,0,0,.719.246h.148V42h-.8a1.522,1.522,0,0,1-1.726-1.234h-.074A3.485,3.485,0,0,1,66.175,42.176Zm.371-1.3A2.433,2.433,0,0,0,68.5,40a3.628,3.628,0,0,0,.742-2.412l-2.412.464a3.247,3.247,0,0,0-1.415.506,1.176,1.176,0,0,0-.459,1,1.162,1.162,0,0,0,.441,1A1.884,1.884,0,0,0,66.546,40.877Zm9.045-6.392a2.757,2.757,0,0,1,1.132-1.225,3.409,3.409,0,0,1,1.753-.482v1.512a3,3,0,0,0-2.12.677,2.829,2.829,0,0,0-.728,2.162V42h-1.6V32.88h1.568Zm17.683,2.774-.019.436H86.131A3.223,3.223,0,0,0,87,40.029a2.863,2.863,0,0,0,2.078.812,2.734,2.734,0,0,0,1.512-.436A2.829,2.829,0,0,0,91.632,39.2l1.447.306a4.114,4.114,0,0,1-1.559,1.958,4.252,4.252,0,0,1-2.421.714,4.406,4.406,0,0,1-3.284-1.271,4.728,4.728,0,0,1-1.252-3.47,4.705,4.705,0,0,1,1.257-3.46A4.351,4.351,0,0,1,89.053,32.7a4.117,4.117,0,0,1,3.066,1.169A4.619,4.619,0,0,1,93.274,37.259Zm-4.221-3.321a2.844,2.844,0,0,0-1.9.645,2.954,2.954,0,0,0-.96,1.879H91.66a2.71,2.71,0,0,0-.8-1.879A2.577,2.577,0,0,0,89.053,33.938ZM95.789,42V27.75h1.624V42ZM106.68,28.594h1.911l-1.16,6.067h-2.746Zm4.286,0h1.911l-1.16,6.067h-2.746Zm15.669,3.683a3.644,3.644,0,0,1,2.458.775,2.772,2.772,0,0,1,.9,2.222V42h-2.672V36.035a1.593,1.593,0,0,0-.427-1.206,1.5,1.5,0,0,0-1.076-.408,1.724,1.724,0,0,0-1.3.52,2.36,2.36,0,0,0-.5,1.679V42h-2.7V36.063a1.635,1.635,0,0,0-.427-1.229,1.521,1.521,0,0,0-1.1-.413,1.669,1.669,0,0,0-1.29.547,2.614,2.614,0,0,0-.5,1.791V42h-2.663V32.463H118v1.123a3.243,3.243,0,0,1,2.765-1.308,4.078,4.078,0,0,1,1.8.366,2.443,2.443,0,0,1,1.127,1.062A3.372,3.372,0,0,1,126.636,32.277Zm13.777,7.134a8.922,8.922,0,0,0,.232,2.329V42h-2.5l-.213-1.039a3.1,3.1,0,0,1-1.336.918,4.924,4.924,0,0,1-1.726.306,4.538,4.538,0,0,1-.891-.083,3.028,3.028,0,0,1-.8-.283,2.435,2.435,0,0,1-.663-.5,2.177,2.177,0,0,1-.445-.756,3.012,3.012,0,0,1-.167-1.034,2.869,2.869,0,0,1,.176-1.034,2.424,2.424,0,0,1,.464-.775,2.814,2.814,0,0,1,.751-.566,5.75,5.75,0,0,1,.946-.408,11.306,11.306,0,0,1,1.132-.3l1.568-.353a1.729,1.729,0,0,0,.71-.3.6.6,0,0,0,.209-.478.984.984,0,0,0-.469-.918,2.188,2.188,0,0,0-1.136-.278,1.635,1.635,0,0,0-1.865,1.457l-2.366-.427a3.2,3.2,0,0,1,1.382-2.176,5.494,5.494,0,0,1,3-.7q4.008,0,4.008,3.442Zm-4.7.965a2.149,2.149,0,0,0,1.651-.691A2.913,2.913,0,0,0,138,37.64l-2.264.64a2.675,2.675,0,0,0-.951.39.8.8,0,0,0-.329.687.888.888,0,0,0,.353.756A1.459,1.459,0,0,0,135.709,40.376Zm12.933-8.1a3.718,3.718,0,0,1,2.635.858,3.182,3.182,0,0,1,.918,2.445V42h-2.681V36.155a1.661,1.661,0,0,0-.478-1.317,1.8,1.8,0,0,0-1.229-.417,2.511,2.511,0,0,0-.8.121,2.05,2.05,0,0,0-.668.376,1.661,1.661,0,0,0-.478.719,3.325,3.325,0,0,0-.181,1.1V42H143.01V32.463h2.672v1.058A3.675,3.675,0,0,1,148.642,32.277Zm12.459.186h2.672V42H161.24l-.065-1.15a3.642,3.642,0,0,1-3.034,1.336,3.718,3.718,0,0,1-2.635-.858,3.182,3.182,0,0,1-.918-2.445v-6.42h2.681v5.845a1.649,1.649,0,0,0,.478,1.308,1.814,1.814,0,0,0,1.239.417,2.151,2.151,0,0,0,1.517-.543,2.331,2.331,0,0,0,.6-1.767Zm13.257,6.949a8.922,8.922,0,0,0,.232,2.329V42h-2.5l-.213-1.039a3.1,3.1,0,0,1-1.336.918,4.924,4.924,0,0,1-1.726.306,4.538,4.538,0,0,1-.891-.083,3.028,3.028,0,0,1-.8-.283,2.435,2.435,0,0,1-.663-.5,2.177,2.177,0,0,1-.445-.756,3.012,3.012,0,0,1-.167-1.034,2.869,2.869,0,0,1,.176-1.034,2.424,2.424,0,0,1,.464-.775,2.814,2.814,0,0,1,.751-.566,5.75,5.75,0,0,1,.946-.408,11.306,11.306,0,0,1,1.132-.3l1.568-.353a1.729,1.729,0,0,0,.71-.3.6.6,0,0,0,.209-.478.984.984,0,0,0-.469-.918,2.188,2.188,0,0,0-1.136-.278,1.635,1.635,0,0,0-1.865,1.457l-2.366-.427a3.2,3.2,0,0,1,1.382-2.176,5.494,5.494,0,0,1,3-.7q4.008,0,4.008,3.442Zm-4.7.965a2.149,2.149,0,0,0,1.651-.691,2.913,2.913,0,0,0,.64-2.046l-2.264.64a2.675,2.675,0,0,0-.951.39.8.8,0,0,0-.329.687.888.888,0,0,0,.353.756A1.459,1.459,0,0,0,169.655,40.376Zm7.3,1.624V27.75h2.7V42Zm17.163-14.25h2.672V42h-2.533l-.065-1.243a2.724,2.724,0,0,1-1.211,1.081,4.075,4.075,0,0,1-1.786.385,4.638,4.638,0,0,1-1.781-.343,4.29,4.29,0,0,1-2.449-2.542,5.8,5.8,0,0,1-.362-2.087,5.422,5.422,0,0,1,.631-2.658,4.323,4.323,0,0,1,1.665-1.73,4.586,4.586,0,0,1,2.3-.584,4.177,4.177,0,0,1,1.73.348,2.7,2.7,0,0,1,1.192.988Zm-2.31,12.255a2.379,2.379,0,0,0,1.8-.761,3.125,3.125,0,0,0,0-3.994,2.376,2.376,0,0,0-1.8-.765,2.4,2.4,0,0,0-1.814.751,3.165,3.165,0,0,0,0,4.017A2.4,2.4,0,0,0,191.809,40.005Zm16.718-2.913-.028.64H201.43a2.469,2.469,0,0,0,.761,1.744,2.433,2.433,0,0,0,1.679.6,2.345,2.345,0,0,0,1.257-.329,2.024,2.024,0,0,0,.8-.96l2.449.362a4.164,4.164,0,0,1-1.67,2.236,4.965,4.965,0,0,1-2.82.8,5.163,5.163,0,0,1-3.716-1.313,4.79,4.79,0,0,1-1.378-3.641,4.818,4.818,0,0,1,1.382-3.641,5.01,5.01,0,0,1,3.627-1.331,4.366,4.366,0,0,1,4.722,4.833Zm-4.7-2.941a2.111,2.111,0,0,0-2.319,1.837h4.379a2.009,2.009,0,0,0-.659-1.364A2.088,2.088,0,0,0,203.823,34.151Zm17.265-1.874a4.638,4.638,0,0,1,1.781.343,4.458,4.458,0,0,1,1.461.965,4.365,4.365,0,0,1,.988,1.573,6.229,6.229,0,0,1,0,4.184,4.365,4.365,0,0,1-.988,1.573,4.458,4.458,0,0,1-1.461.965,4.638,4.638,0,0,1-1.781.343,4.139,4.139,0,0,1-1.726-.353,2.7,2.7,0,0,1-1.2-1v5.771h-2.672V32.463h2.533l.074,1.28a2.612,2.612,0,0,1,1.192-1.081A4.1,4.1,0,0,1,221.088,32.277Zm-.6,7.728a2.4,2.4,0,0,0,1.8-.747,3.165,3.165,0,0,0,0-4.017,2.553,2.553,0,0,0-3.623.014,3.111,3.111,0,0,0,0,3.989A2.4,2.4,0,0,0,220.485,40.005Zm15.029-.594a8.922,8.922,0,0,0,.232,2.329V42h-2.5l-.213-1.039a3.1,3.1,0,0,1-1.336.918,4.924,4.924,0,0,1-1.726.306,4.538,4.538,0,0,1-.891-.083,3.028,3.028,0,0,1-.8-.283,2.435,2.435,0,0,1-.663-.5,2.177,2.177,0,0,1-.445-.756,3.012,3.012,0,0,1-.167-1.034,2.869,2.869,0,0,1,.176-1.034,2.424,2.424,0,0,1,.464-.775,2.814,2.814,0,0,1,.751-.566,5.75,5.75,0,0,1,.946-.408,11.306,11.306,0,0,1,1.132-.3l1.568-.353a1.729,1.729,0,0,0,.71-.3.6.6,0,0,0,.209-.478.984.984,0,0,0-.469-.918,2.188,2.188,0,0,0-1.136-.278,1.635,1.635,0,0,0-1.865,1.457l-2.366-.427a3.2,3.2,0,0,1,1.382-2.176,5.494,5.494,0,0,1,3-.7q4.008,0,4.008,3.442Zm-4.7.965a2.149,2.149,0,0,0,1.651-.691,2.913,2.913,0,0,0,.64-2.046l-2.264.64a2.675,2.675,0,0,0-.951.39.8.8,0,0,0-.329.687.888.888,0,0,0,.353.756A1.459,1.459,0,0,0,230.811,40.376ZM241.536,42a2.88,2.88,0,0,1-2.152-.775,3.013,3.013,0,0,1-.761-2.2V34.513h-1.874v-2.05h.6a1.573,1.573,0,0,0,1.188-.4,2.054,2.054,0,0,0,.38-1.419V29.383h2.412v3.08H243.3v2.05h-1.967v4.221q0,1.234,1.1,1.234h.863V42Zm6.392-8.025a3.1,3.1,0,0,1,1.252-1.146,3.821,3.821,0,0,1,1.865-.478v2.384a3.613,3.613,0,0,0-2.282.575,2.511,2.511,0,0,0-.705,2.041V42h-2.69V32.463h2.561ZM257,42.186a6,6,0,0,1-2.7-.584,4.368,4.368,0,0,1-1.851-1.716,5.115,5.115,0,0,1-.673-2.663,4.665,4.665,0,0,1,1.447-3.618,6.05,6.05,0,0,1,7.561,0,4.665,4.665,0,0,1,1.447,3.618,4.691,4.691,0,0,1-1.447,3.632A5.371,5.371,0,0,1,257,42.186Zm-.028-2.125a2.448,2.448,0,0,0,1.888-.779,3.309,3.309,0,0,0,0-4.119,2.448,2.448,0,0,0-1.888-.779,2.358,2.358,0,0,0-1.832.784,3.33,3.33,0,0,0,0,4.11A2.358,2.358,0,0,0,256.973,40.061Zm12.877-7.784a3.718,3.718,0,0,1,2.635.858,3.182,3.182,0,0,1,.918,2.445V42h-2.681V36.155a1.661,1.661,0,0,0-.478-1.317,1.8,1.8,0,0,0-1.229-.417,2.511,2.511,0,0,0-.8.121,2.05,2.05,0,0,0-.668.376,1.66,1.66,0,0,0-.478.719,3.326,3.326,0,0,0-.181,1.1V42h-2.672V32.463h2.672v1.058A3.675,3.675,0,0,1,269.85,32.277Zm13.962,7.134a8.922,8.922,0,0,0,.232,2.329V42h-2.5l-.213-1.039a3.1,3.1,0,0,1-1.336.918,4.923,4.923,0,0,1-1.726.306,4.538,4.538,0,0,1-.891-.083,3.028,3.028,0,0,1-.8-.283,2.435,2.435,0,0,1-.663-.5,2.177,2.177,0,0,1-.445-.756,3.012,3.012,0,0,1-.167-1.034,2.868,2.868,0,0,1,.176-1.034,2.424,2.424,0,0,1,.464-.775,2.814,2.814,0,0,1,.751-.566,5.749,5.749,0,0,1,.946-.408,11.306,11.306,0,0,1,1.132-.3l1.568-.353a1.729,1.729,0,0,0,.71-.3.6.6,0,0,0,.209-.478.984.984,0,0,0-.469-.918,2.188,2.188,0,0,0-1.136-.278,1.635,1.635,0,0,0-1.865,1.457l-2.366-.427a3.2,3.2,0,0,1,1.382-2.176,5.494,5.494,0,0,1,3-.7q4.008,0,4.008,3.442Zm-4.7.965a2.149,2.149,0,0,0,1.651-.691,2.913,2.913,0,0,0,.64-2.046l-2.264.64a2.675,2.675,0,0,0-.951.39.8.8,0,0,0-.329.687.888.888,0,0,0,.353.756A1.459,1.459,0,0,0,279.109,40.376Zm8.674-9.342a1.5,1.5,0,0,1-1.095-.45,1.477,1.477,0,0,1-.455-1.09,1.459,1.459,0,0,1,.459-1.081,1.5,1.5,0,0,1,1.09-.45,1.535,1.535,0,0,1,0,3.071Zm-3.321,15.438V44.384a3.073,3.073,0,0,0,1-.135,1.12,1.12,0,0,0,.594-.478,2.116,2.116,0,0,0,.283-.821,9.257,9.257,0,0,0,.07-1.276V32.463h2.709v9.212a5.18,5.18,0,0,1-1.085,3.646A4.736,4.736,0,0,1,284.462,46.472Zm16.4-9.379-.028.64h-7.069a2.469,2.469,0,0,0,.761,1.744,2.433,2.433,0,0,0,1.679.6,2.345,2.345,0,0,0,1.257-.329,2.024,2.024,0,0,0,.8-.96l2.449.362a4.164,4.164,0,0,1-1.67,2.236,4.965,4.965,0,0,1-2.82.8,5.163,5.163,0,0,1-3.716-1.313,4.79,4.79,0,0,1-1.378-3.641,4.818,4.818,0,0,1,1.382-3.641,5.01,5.01,0,0,1,3.627-1.331,4.366,4.366,0,0,1,4.722,4.833Zm-4.7-2.941a2.111,2.111,0,0,0-2.319,1.837h4.379a2.008,2.008,0,0,0-.659-1.364A2.088,2.088,0,0,0,296.161,34.151Zm17.274-1.874a4.614,4.614,0,0,1,1.772.343,4.29,4.29,0,0,1,2.449,2.542,6.2,6.2,0,0,1,0,4.175,4.29,4.29,0,0,1-2.449,2.542,4.614,4.614,0,0,1-1.772.343,4.119,4.119,0,0,1-1.8-.385,2.667,2.667,0,0,1-1.2-1.081L310.364,42h-2.533V27.75H310.5v5.873a2.663,2.663,0,0,1,1.192-.993A4.194,4.194,0,0,1,313.435,32.277Zm-.622,7.728a2.4,2.4,0,0,0,1.814-.751,3.165,3.165,0,0,0,0-4.017,2.4,2.4,0,0,0-1.814-.751,2.376,2.376,0,0,0-1.8.765,3.125,3.125,0,0,0,0,3.994A2.379,2.379,0,0,0,312.813,40.005Zm14-11.337-2.106,2.486h-1.642l2.431-3.414Zm1.039,10.743a8.922,8.922,0,0,0,.232,2.329V42h-2.5l-.213-1.039a3.1,3.1,0,0,1-1.336.918,4.923,4.923,0,0,1-1.726.306,4.538,4.538,0,0,1-.891-.083,3.028,3.028,0,0,1-.8-.283,2.435,2.435,0,0,1-.663-.5,2.177,2.177,0,0,1-.445-.756,3.012,3.012,0,0,1-.167-1.034,2.868,2.868,0,0,1,.176-1.034,2.424,2.424,0,0,1,.464-.775,2.814,2.814,0,0,1,.751-.566,5.749,5.749,0,0,1,.946-.408,11.306,11.306,0,0,1,1.132-.3l1.568-.353a1.729,1.729,0,0,0,.71-.3.6.6,0,0,0,.209-.478.984.984,0,0,0-.469-.918,2.188,2.188,0,0,0-1.136-.278,1.635,1.635,0,0,0-1.865,1.457l-2.366-.427a3.2,3.2,0,0,1,1.382-2.176,5.494,5.494,0,0,1,3-.7q4.008,0,4.008,3.442Zm-4.7.965a2.149,2.149,0,0,0,1.651-.691,2.913,2.913,0,0,0,.64-2.046l-2.264.64a2.675,2.675,0,0,0-.951.39.8.8,0,0,0-.329.687.888.888,0,0,0,.353.756A1.459,1.459,0,0,0,323.148,40.376Zm10.66,1.809a5.33,5.33,0,0,1-2.783-.668,2.823,2.823,0,0,1-1.364-1.985L331.9,38.9a1.8,1.8,0,0,0,1.911,1.419,1.974,1.974,0,0,0,.974-.218.759.759,0,0,0,.38-.738.78.78,0,0,0-.158-.492,1.249,1.249,0,0,0-.487-.353,6.069,6.069,0,0,0-.649-.25q-.32-.1-.849-.246t-.881-.274a5.9,5.9,0,0,1-.84-.357,3.581,3.581,0,0,1-.7-.492,1.982,1.982,0,0,1-.52-.747,2.694,2.694,0,0,1-.181-1.021A2.437,2.437,0,0,1,330.937,33a4.622,4.622,0,0,1,2.7-.724,4.739,4.739,0,0,1,2.5.612,2.771,2.771,0,0,1,1.28,1.911l-2.069.464a1.62,1.62,0,0,0-1.7-1.206,1.859,1.859,0,0,0-.937.213.686.686,0,0,0-.371.631.723.723,0,0,0,.056.288.569.569,0,0,0,.195.232,2.843,2.843,0,0,0,.269.176,2.029,2.029,0,0,0,.38.153q.25.079.417.121l.487.125.5.13q.51.139.9.278a5.242,5.242,0,0,1,.821.39,2.947,2.947,0,0,1,.719.561,2.5,2.5,0,0,1,.469.789,2.913,2.913,0,0,1,.186,1.062,2.869,2.869,0,0,1-.32,1.382,2.4,2.4,0,0,1-.877.932,4.267,4.267,0,0,1-1.239.5A6.425,6.425,0,0,1,333.808,42.186Zm7.208-11.151a1.5,1.5,0,0,1-1.095-.45,1.477,1.477,0,0,1-.455-1.09,1.459,1.459,0,0,1,.459-1.081,1.5,1.5,0,0,1,1.09-.45,1.535,1.535,0,0,1,0,3.071ZM339.653,42V32.463h2.69V42Zm9.769.176a5.1,5.1,0,0,1-3.683-1.373,4.742,4.742,0,0,1-1.429-3.581,4.732,4.732,0,0,1,1.424-3.581,5.662,5.662,0,0,1,6.777-.445,4.1,4.1,0,0,1,1.6,2.588l-2.468.269a2.114,2.114,0,0,0-.8-1.252,2.426,2.426,0,0,0-1.447-.417,2.188,2.188,0,0,0-1.744.779,3.5,3.5,0,0,0,0,4.115,2.182,2.182,0,0,0,1.744.784,2.4,2.4,0,0,0,1.443-.417,2.163,2.163,0,0,0,.8-1.252l2.468.269a4.112,4.112,0,0,1-1.61,2.588A5.061,5.061,0,0,1,349.422,42.176Zm11.031.009a6,6,0,0,1-2.7-.584,4.368,4.368,0,0,1-1.851-1.716,5.115,5.115,0,0,1-.673-2.663,4.665,4.665,0,0,1,1.447-3.618,6.05,6.05,0,0,1,7.561,0,4.665,4.665,0,0,1,1.447,3.618,4.691,4.691,0,0,1-1.447,3.632A5.371,5.371,0,0,1,360.453,42.186Zm-.028-2.125a2.448,2.448,0,0,0,1.888-.779,3.309,3.309,0,0,0,0-4.119,2.448,2.448,0,0,0-1.888-.779,2.358,2.358,0,0,0-1.832.784,3.33,3.33,0,0,0,0,4.11A2.358,2.358,0,0,0,360.425,40.061Zm21.152-2.969-.028.64H374.48a2.469,2.469,0,0,0,.761,1.744,2.433,2.433,0,0,0,1.679.6,2.345,2.345,0,0,0,1.257-.329,2.024,2.024,0,0,0,.8-.96l2.449.362a4.164,4.164,0,0,1-1.67,2.236,4.965,4.965,0,0,1-2.82.8,5.163,5.163,0,0,1-3.716-1.313,4.79,4.79,0,0,1-1.378-3.641,4.818,4.818,0,0,1,1.382-3.641,5.01,5.01,0,0,1,3.627-1.331,4.366,4.366,0,0,1,4.722,4.833Zm-4.7-2.941a2.111,2.111,0,0,0-2.319,1.837h4.379a2.008,2.008,0,0,0-.659-1.364A2.088,2.088,0,0,0,376.874,34.151ZM2.746,55.034a1.5,1.5,0,0,1-1.095-.45,1.477,1.477,0,0,1-.455-1.09,1.459,1.459,0,0,1,.459-1.081,1.5,1.5,0,0,1,1.09-.45,1.478,1.478,0,0,1,1.076.45,1.523,1.523,0,0,1,0,2.171A1.478,1.478,0,0,1,2.746,55.034ZM1.382,66V56.463h2.69V66Zm11.086-9.723a3.718,3.718,0,0,1,2.635.858,3.182,3.182,0,0,1,.918,2.445V66H13.341V60.155a1.661,1.661,0,0,0-.478-1.317,1.8,1.8,0,0,0-1.229-.417,2.511,2.511,0,0,0-.8.121,2.05,2.05,0,0,0-.668.376,1.661,1.661,0,0,0-.478.719,3.325,3.325,0,0,0-.181,1.1V66H6.837V56.463H9.509v1.058A3.675,3.675,0,0,1,12.469,56.277ZM22.164,66a2.88,2.88,0,0,1-2.152-.775,3.013,3.013,0,0,1-.761-2.2V58.513H17.376v-2.05h.6a1.573,1.573,0,0,0,1.188-.4,2.054,2.054,0,0,0,.38-1.419V53.383h2.412v3.08h1.967v2.05H21.959v4.221q0,1.234,1.1,1.234h.863V66Zm12.766-4.908-.028.64H27.832a2.469,2.469,0,0,0,.761,1.744,2.433,2.433,0,0,0,1.679.6,2.345,2.345,0,0,0,1.257-.329,2.024,2.024,0,0,0,.8-.96l2.449.362a4.164,4.164,0,0,1-1.67,2.236,4.965,4.965,0,0,1-2.82.8,5.163,5.163,0,0,1-3.716-1.313,5.494,5.494,0,0,1,0-7.283,5.01,5.01,0,0,1,3.627-1.331,4.366,4.366,0,0,1,4.722,4.833Zm-4.7-2.941a2.111,2.111,0,0,0-2.319,1.837h4.379a2.008,2.008,0,0,0-.659-1.364A2.088,2.088,0,0,0,30.226,58.151Zm9.3-.176a3.1,3.1,0,0,1,1.252-1.146,3.822,3.822,0,0,1,1.865-.478v2.384a3.613,3.613,0,0,0-2.282.575,2.511,2.511,0,0,0-.705,2.041V66h-2.69V56.463h2.561Zm10.279-1.7a4.638,4.638,0,0,1,1.781.343,4.458,4.458,0,0,1,1.461.965,4.365,4.365,0,0,1,.988,1.573,6.229,6.229,0,0,1,0,4.184,4.365,4.365,0,0,1-.988,1.573,4.458,4.458,0,0,1-1.461.965,4.638,4.638,0,0,1-1.781.343,4.139,4.139,0,0,1-1.726-.353,2.7,2.7,0,0,1-1.2-1v5.771H44.207V56.463h2.533l.074,1.28a2.612,2.612,0,0,1,1.192-1.081A4.1,4.1,0,0,1,49.8,56.277Zm-.6,7.728a2.4,2.4,0,0,0,1.8-.747,3.165,3.165,0,0,0,0-4.017,2.553,2.553,0,0,0-3.623.014,3.111,3.111,0,0,0,0,3.989A2.4,2.4,0,0,0,49.2,64.005Zm9.769-6.03a3.1,3.1,0,0,1,1.252-1.146,3.822,3.822,0,0,1,1.865-.478v2.384a3.613,3.613,0,0,0-2.282.575,2.511,2.511,0,0,0-.705,2.041V66h-2.69V56.463h2.561Zm13.6,3.117-.028.64H65.47a2.469,2.469,0,0,0,.761,1.744,2.433,2.433,0,0,0,1.679.6,2.345,2.345,0,0,0,1.257-.329,2.024,2.024,0,0,0,.8-.96l2.449.362a4.164,4.164,0,0,1-1.67,2.236,4.965,4.965,0,0,1-2.82.8,5.163,5.163,0,0,1-3.716-1.313,5.494,5.494,0,0,1,0-7.283,5.01,5.01,0,0,1,3.627-1.331,4.366,4.366,0,0,1,4.722,4.833Zm-4.7-2.941a2.111,2.111,0,0,0-2.319,1.837h4.379a2.008,2.008,0,0,0-.659-1.364A2.088,2.088,0,0,0,67.864,58.151ZM78.152,66A2.88,2.88,0,0,1,76,65.225a3.013,3.013,0,0,1-.761-2.2V58.513H73.365v-2.05h.6a1.573,1.573,0,0,0,1.188-.4,2.054,2.054,0,0,0,.38-1.419V53.383h2.412v3.08h1.967v2.05H77.948v4.221q0,1.234,1.1,1.234h.863V66Zm11.615-2.588A8.922,8.922,0,0,0,90,65.74V66H87.5l-.213-1.039a3.1,3.1,0,0,1-1.336.918,4.923,4.923,0,0,1-1.726.306,4.538,4.538,0,0,1-.891-.083,3.028,3.028,0,0,1-.8-.283,2.435,2.435,0,0,1-.663-.5,2.177,2.177,0,0,1-.445-.756,3.012,3.012,0,0,1-.167-1.034,2.869,2.869,0,0,1,.176-1.034,2.424,2.424,0,0,1,.464-.775,2.814,2.814,0,0,1,.751-.566,5.75,5.75,0,0,1,.946-.408,11.306,11.306,0,0,1,1.132-.3L86.3,60.1a1.729,1.729,0,0,0,.71-.3.6.6,0,0,0,.209-.478.984.984,0,0,0-.469-.918,2.188,2.188,0,0,0-1.136-.278,1.635,1.635,0,0,0-1.865,1.457l-2.366-.427a3.2,3.2,0,0,1,1.382-2.176,5.494,5.494,0,0,1,3-.7q4.008,0,4.008,3.442Zm-4.7.965a2.149,2.149,0,0,0,1.651-.691,2.913,2.913,0,0,0,.64-2.046l-2.264.64a2.675,2.675,0,0,0-.951.39.8.8,0,0,0-.329.687.888.888,0,0,0,.353.756A1.459,1.459,0,0,0,85.064,64.376Zm11.4,1.8A5.1,5.1,0,0,1,92.783,64.8a5.208,5.208,0,0,1,0-7.162,5.662,5.662,0,0,1,6.777-.445,4.1,4.1,0,0,1,1.6,2.588l-2.468.269a2.114,2.114,0,0,0-.8-1.252,2.426,2.426,0,0,0-1.447-.417,2.188,2.188,0,0,0-1.744.779,3.5,3.5,0,0,0,0,4.115,2.182,2.182,0,0,0,1.744.784,2.4,2.4,0,0,0,1.443-.417,2.163,2.163,0,0,0,.8-1.252l2.468.269a4.112,4.112,0,0,1-1.61,2.588A5.061,5.061,0,0,1,96.466,66.176Zm7.951-11.142a1.5,1.5,0,0,1-1.095-.45,1.477,1.477,0,0,1-.455-1.09,1.459,1.459,0,0,1,.459-1.081,1.5,1.5,0,0,1,1.09-.45,1.535,1.535,0,0,1,0,3.071ZM103.053,66V56.463h2.69V66Zm9.073-10.836,2.431-3.414,1.317.928-2.106,2.486Zm.826,11.021a6,6,0,0,1-2.7-.584,4.368,4.368,0,0,1-1.851-1.716,5.115,5.115,0,0,1-.673-2.663,4.665,4.665,0,0,1,1.447-3.618,6.05,6.05,0,0,1,7.561,0,5.264,5.264,0,0,1,0,7.25A5.371,5.371,0,0,1,112.952,66.186Zm-.028-2.125a2.448,2.448,0,0,0,1.888-.779,3.309,3.309,0,0,0,0-4.119,2.448,2.448,0,0,0-1.888-.779,2.358,2.358,0,0,0-1.832.784,3.33,3.33,0,0,0,0,4.11A2.358,2.358,0,0,0,112.924,64.061ZM125.8,56.277a3.718,3.718,0,0,1,2.635.858,3.182,3.182,0,0,1,.918,2.445V66h-2.681V60.155a1.661,1.661,0,0,0-.478-1.317,1.8,1.8,0,0,0-1.229-.417,2.511,2.511,0,0,0-.8.121,2.05,2.05,0,0,0-.668.376,1.661,1.661,0,0,0-.478.719,3.325,3.325,0,0,0-.181,1.1V66h-2.672V56.463h2.672v1.058A3.675,3.675,0,0,1,125.8,56.277Zm17.84-4.527h2.672V66H143.78l-.065-1.243a2.724,2.724,0,0,1-1.211,1.081,4.075,4.075,0,0,1-1.786.385,4.638,4.638,0,0,1-1.781-.343,4.29,4.29,0,0,1-2.449-2.542,5.8,5.8,0,0,1-.362-2.087,5.422,5.422,0,0,1,.631-2.658,4.323,4.323,0,0,1,1.665-1.73,4.586,4.586,0,0,1,2.3-.584,4.177,4.177,0,0,1,1.73.348,2.7,2.7,0,0,1,1.192.988Zm-2.31,12.255a2.379,2.379,0,0,0,1.8-.761,3.125,3.125,0,0,0,0-3.994,2.376,2.376,0,0,0-1.8-.765,2.4,2.4,0,0,0-1.814.751,3.165,3.165,0,0,0,0,4.017A2.4,2.4,0,0,0,141.331,64.005Zm16.718-2.913-.028.64h-7.069a2.469,2.469,0,0,0,.761,1.744,2.433,2.433,0,0,0,1.679.6,2.345,2.345,0,0,0,1.257-.329,2.024,2.024,0,0,0,.8-.96l2.449.362a4.164,4.164,0,0,1-1.67,2.236,4.965,4.965,0,0,1-2.82.8,5.163,5.163,0,0,1-3.716-1.313,5.494,5.494,0,0,1,0-7.283,5.01,5.01,0,0,1,3.627-1.331,4.366,4.366,0,0,1,4.722,4.833Zm-4.7-2.941a2.111,2.111,0,0,0-2.319,1.837H155.4a2.009,2.009,0,0,0-.659-1.364A2.088,2.088,0,0,0,153.345,58.151Zm18.434-6.4h2.672V66h-2.533l-.065-1.243a2.724,2.724,0,0,1-1.211,1.081,4.075,4.075,0,0,1-1.786.385,4.638,4.638,0,0,1-1.781-.343,4.29,4.29,0,0,1-2.449-2.542,5.8,5.8,0,0,1-.362-2.087,5.422,5.422,0,0,1,.631-2.658,4.323,4.323,0,0,1,1.665-1.73,4.586,4.586,0,0,1,2.3-.584,4.177,4.177,0,0,1,1.73.348,2.7,2.7,0,0,1,1.192.988Zm-2.31,12.255a2.379,2.379,0,0,0,1.8-.761,3.125,3.125,0,0,0,0-3.994,2.376,2.376,0,0,0-1.8-.765,2.4,2.4,0,0,0-1.814.751,3.165,3.165,0,0,0,0,4.017A2.4,2.4,0,0,0,169.469,64.005Zm9.11-8.971a1.5,1.5,0,0,1-1.095-.45,1.477,1.477,0,0,1-.455-1.09,1.459,1.459,0,0,1,.459-1.081,1.5,1.5,0,0,1,1.09-.45,1.535,1.535,0,0,1,0,3.071ZM177.216,66V56.463h2.69V66Zm8.813.186a5.33,5.33,0,0,1-2.783-.668,2.823,2.823,0,0,1-1.364-1.985l2.236-.631a1.8,1.8,0,0,0,1.911,1.419A1.974,1.974,0,0,0,187,64.1a.759.759,0,0,0,.38-.738.78.78,0,0,0-.158-.492,1.249,1.249,0,0,0-.487-.353,6.068,6.068,0,0,0-.649-.25q-.32-.1-.849-.246t-.881-.274a5.9,5.9,0,0,1-.84-.357,3.582,3.582,0,0,1-.7-.492,1.982,1.982,0,0,1-.52-.747,2.694,2.694,0,0,1-.181-1.021A2.437,2.437,0,0,1,183.158,57a4.622,4.622,0,0,1,2.7-.724,4.739,4.739,0,0,1,2.5.612,2.771,2.771,0,0,1,1.28,1.911l-2.069.464a1.62,1.62,0,0,0-1.7-1.206,1.859,1.859,0,0,0-.937.213.686.686,0,0,0-.371.631.723.723,0,0,0,.056.288.569.569,0,0,0,.195.232,2.841,2.841,0,0,0,.269.176,2.03,2.03,0,0,0,.38.153q.25.079.417.121l.487.125.5.13q.51.139.9.278a5.244,5.244,0,0,1,.821.39,2.947,2.947,0,0,1,.719.561,2.5,2.5,0,0,1,.469.789,2.912,2.912,0,0,1,.186,1.062,2.869,2.869,0,0,1-.32,1.382,2.4,2.4,0,0,1-.877.932,4.267,4.267,0,0,1-1.239.5A6.425,6.425,0,0,1,186.029,66.186Zm14.816-5.093-.028.64h-7.069a2.469,2.469,0,0,0,.761,1.744,2.433,2.433,0,0,0,1.679.6,2.345,2.345,0,0,0,1.257-.329,2.024,2.024,0,0,0,.8-.96l2.449.362a4.164,4.164,0,0,1-1.67,2.236,4.965,4.965,0,0,1-2.82.8,5.163,5.163,0,0,1-3.716-1.313,5.494,5.494,0,0,1,0-7.283,5.01,5.01,0,0,1,3.627-1.331,4.366,4.366,0,0,1,4.722,4.833Zm-4.7-2.941a2.111,2.111,0,0,0-2.319,1.837H198.2a2.009,2.009,0,0,0-.659-1.364A2.088,2.088,0,0,0,196.142,58.151Zm10.279-4.24a.523.523,0,0,0-.482.325,1.9,1.9,0,0,0-.167.863H204.5a2.855,2.855,0,0,1,.506-1.753,1.618,1.618,0,0,1,1.368-.677,1.814,1.814,0,0,1,1.624.956.649.649,0,0,0,.557.353q.622,0,.622-1.187h1.28a2.9,2.9,0,0,1-.5,1.749,1.609,1.609,0,0,1-1.378.682,1.852,1.852,0,0,1-1.633-.946A.647.647,0,0,0,206.421,53.912Zm2.087,2.366a3.718,3.718,0,0,1,2.635.858,3.182,3.182,0,0,1,.918,2.445V66H209.38V60.155a1.661,1.661,0,0,0-.478-1.317,1.8,1.8,0,0,0-1.229-.417,2.511,2.511,0,0,0-.8.121,2.05,2.05,0,0,0-.668.376,1.661,1.661,0,0,0-.478.719,3.325,3.325,0,0,0-.181,1.1V66h-2.672V56.463h2.672v1.058A3.675,3.675,0,0,1,208.508,56.277Zm10.585,9.908a6,6,0,0,1-2.7-.584,4.368,4.368,0,0,1-1.851-1.716,5.115,5.115,0,0,1-.673-2.663,4.665,4.665,0,0,1,1.447-3.618,6.05,6.05,0,0,1,7.561,0,5.264,5.264,0,0,1,0,7.25A5.371,5.371,0,0,1,219.094,66.186Zm-.028-2.125a2.448,2.448,0,0,0,1.888-.779,3.309,3.309,0,0,0,0-4.119,2.448,2.448,0,0,0-1.888-.779,2.358,2.358,0,0,0-1.832.784,3.33,3.33,0,0,0,0,4.11A2.358,2.358,0,0,0,219.066,64.061Zm10.6,2.125a5.33,5.33,0,0,1-2.783-.668,2.823,2.823,0,0,1-1.364-1.985l2.236-.631a1.8,1.8,0,0,0,1.911,1.419,1.974,1.974,0,0,0,.974-.218.759.759,0,0,0,.38-.738.78.78,0,0,0-.158-.492,1.249,1.249,0,0,0-.487-.353,6.068,6.068,0,0,0-.649-.25q-.32-.1-.849-.246T228,61.751a5.9,5.9,0,0,1-.84-.357,3.582,3.582,0,0,1-.7-.492,1.982,1.982,0,0,1-.52-.747,2.694,2.694,0,0,1-.181-1.021A2.437,2.437,0,0,1,226.8,57a4.622,4.622,0,0,1,2.7-.724,4.739,4.739,0,0,1,2.5.612,2.771,2.771,0,0,1,1.28,1.911l-2.069.464a1.62,1.62,0,0,0-1.7-1.206,1.859,1.859,0,0,0-.937.213.686.686,0,0,0-.371.631.723.723,0,0,0,.056.288.569.569,0,0,0,.195.232,2.841,2.841,0,0,0,.269.176,2.03,2.03,0,0,0,.38.153q.25.079.417.121l.487.125.5.13q.51.139.9.278a5.244,5.244,0,0,1,.821.39,2.947,2.947,0,0,1,.719.561,2.5,2.5,0,0,1,.469.789,2.912,2.912,0,0,1,.186,1.062,2.869,2.869,0,0,1-.32,1.382,2.4,2.4,0,0,1-.877.932,4.267,4.267,0,0,1-1.239.5A6.425,6.425,0,0,1,229.67,66.186Zm7.44-7.533H235.2l1.16-6.067H239.1Zm4.286,0h-1.911l1.16-6.067h2.746Zm5.743,7.533a1.041,1.041,0,0,1-.756-.315,1.079,1.079,0,0,1,.756-1.837,1.049,1.049,0,0,1,.761.32,1.053,1.053,0,0,1,0,1.517A1.052,1.052,0,0,1,247.139,66.186ZM257.2,66V52.938h4.212a6.246,6.246,0,0,1,3.326.844,5.15,5.15,0,0,1,2.041,2.3,8.066,8.066,0,0,1,.663,3.382,8.555,8.555,0,0,1-.385,2.639,5.979,5.979,0,0,1-1.127,2.064,4.945,4.945,0,0,1-1.9,1.354,6.746,6.746,0,0,1-2.621.482Zm1.661-1.512h2.5a3.978,3.978,0,0,0,3.261-1.336,5.648,5.648,0,0,0,1.1-3.692,5.6,5.6,0,0,0-1.1-3.674,3.981,3.981,0,0,0-3.256-1.336h-2.5Zm12.209-9.75a1.093,1.093,0,0,1-1.085-1.085,1.029,1.029,0,0,1,.32-.761,1.052,1.052,0,0,1,.765-.315,1.041,1.041,0,0,1,.756.315,1.029,1.029,0,0,1,.32.761,1.044,1.044,0,0,1-.32.765A1.034,1.034,0,0,1,271.065,54.737ZM270.249,66V56.88h1.614V66Zm7.765.176a4.323,4.323,0,0,1-2.458-.659,2.724,2.724,0,0,1-1.2-1.874l1.4-.4a1.954,1.954,0,0,0,.747,1.266,2.423,2.423,0,0,0,1.5.45,2.99,2.99,0,0,0,.877-.121,1.405,1.405,0,0,0,.673-.45,1.255,1.255,0,0,0,.195-1.206,1.612,1.612,0,0,0-.148-.3.919.919,0,0,0-.26-.25,3.427,3.427,0,0,0-.315-.195,3.237,3.237,0,0,0-.413-.172q-.274-.1-.441-.148t-.51-.148q-.343-.1-.529-.153a9.894,9.894,0,0,1-.946-.334,4.15,4.15,0,0,1-.77-.441,1.773,1.773,0,0,1-.6-.719,2.433,2.433,0,0,1-.2-1.021,2.358,2.358,0,0,1,.445-1.457,2.506,2.506,0,0,1,1.155-.858,4.617,4.617,0,0,1,1.619-.264,3.963,3.963,0,0,1,2.222.594,2.534,2.534,0,0,1,1.109,1.781l-1.317.334a1.747,1.747,0,0,0-.7-1.155,2.215,2.215,0,0,0-1.308-.385,2.258,2.258,0,0,0-1.225.32,1.076,1.076,0,0,0-.51.979.974.974,0,0,0,.135.506,1.606,1.606,0,0,0,.274.357,1.682,1.682,0,0,0,.5.274q.362.144.538.195t.668.172q.093.028.139.037.538.139.877.246a5.388,5.388,0,0,1,.789.334,2.622,2.622,0,0,1,.71.5,2.3,2.3,0,0,1,.445.705,2.489,2.489,0,0,1,.186.983,2.656,2.656,0,0,1-.274,1.229,2.141,2.141,0,0,1-.747.84,3.612,3.612,0,0,1-1.062.459A5.061,5.061,0,0,1,278.014,66.176Zm10.7-9.472a4.148,4.148,0,0,1,1.651.334,4.062,4.062,0,0,1,1.354.937,4.379,4.379,0,0,1,.914,1.5,5.542,5.542,0,0,1,.339,1.967,4.822,4.822,0,0,1-1.229,3.442,3.992,3.992,0,0,1-3.029,1.308,3.61,3.61,0,0,1-1.906-.52,3.4,3.4,0,0,1-1.3-1.4v6.318h-1.6V56.88h1.549l.037,1.772a3.338,3.338,0,0,1,1.3-1.424A3.643,3.643,0,0,1,288.711,56.7Zm-.315,8.1a2.769,2.769,0,0,0,2.111-.923,3.878,3.878,0,0,0,0-4.866,2.878,2.878,0,0,0-4.254.042,3.721,3.721,0,0,0,0,4.787A2.783,2.783,0,0,0,288.4,64.8Zm10.947,1.373A4.807,4.807,0,0,1,297,65.61a4.121,4.121,0,0,1-1.647-1.656,5.087,5.087,0,0,1-.608-2.519A4.646,4.646,0,0,1,296.045,58a4.855,4.855,0,0,1,6.6,0,5.231,5.231,0,0,1,0,6.884A4.467,4.467,0,0,1,299.343,66.176Zm-.009-1.336a2.8,2.8,0,0,0,2.157-.937,3.964,3.964,0,0,0,0-4.926,2.8,2.8,0,0,0-2.157-.937,2.762,2.762,0,0,0-2.138.937,4,4,0,0,0,0,4.926A2.762,2.762,0,0,0,299.333,64.84Zm11.42-8.136a3.172,3.172,0,0,1,2.3.826,3.08,3.08,0,0,1,.858,2.329V66h-1.6V60.22a2.156,2.156,0,0,0-.557-1.633,1.99,1.99,0,0,0-1.429-.529,2.206,2.206,0,0,0-1.624.626,2.541,2.541,0,0,0-.64,1.86V66h-1.6V56.88h1.6v1.169A3.046,3.046,0,0,1,310.754,56.7Zm7.069-1.967a1.093,1.093,0,0,1-1.085-1.085,1.029,1.029,0,0,1,.32-.761,1.052,1.052,0,0,1,.765-.315,1.041,1.041,0,0,1,.756.315,1.029,1.029,0,0,1,.32.761,1.044,1.044,0,0,1-.32.765A1.034,1.034,0,0,1,317.823,54.737ZM317.007,66V56.88h1.614V66Zm9.713-9.3a3.973,3.973,0,0,1,3.015,1.317,5.394,5.394,0,0,1,.009,6.856,3.965,3.965,0,0,1-3.024,1.317,3.66,3.66,0,0,1-1.944-.529,3.347,3.347,0,0,1-1.3-1.438L323.436,66h-1.549V51.75h1.6l.009,6.875a3.361,3.361,0,0,1,1.3-1.406A3.669,3.669,0,0,1,326.72,56.7Zm-.353,8.1a2.791,2.791,0,0,0,2.134-.932,3.842,3.842,0,0,0,0-4.852,2.791,2.791,0,0,0-2.134-.932,2.729,2.729,0,0,0-2.115.965,3.766,3.766,0,0,0,0,4.792A2.731,2.731,0,0,0,326.368,64.8Zm7.125,1.2V51.75h1.624V66Zm12.868-4.741-.019.436h-7.125a3.223,3.223,0,0,0,.872,2.333,2.863,2.863,0,0,0,2.078.812,2.734,2.734,0,0,0,1.512-.436,2.829,2.829,0,0,0,1.039-1.206l1.447.306a4.114,4.114,0,0,1-1.559,1.958,4.252,4.252,0,0,1-2.421.714,4.406,4.406,0,0,1-3.284-1.271,5.412,5.412,0,0,1,0-6.93,4.351,4.351,0,0,1,3.233-1.271,4.117,4.117,0,0,1,3.066,1.169A4.619,4.619,0,0,1,346.36,61.259Zm-4.221-3.321a2.844,2.844,0,0,0-1.9.645,2.954,2.954,0,0,0-.96,1.879h5.464a2.71,2.71,0,0,0-.8-1.879A2.577,2.577,0,0,0,342.139,57.938Zm19.649,3.321-.019.436h-7.125a3.223,3.223,0,0,0,.872,2.333,2.863,2.863,0,0,0,2.078.812,2.734,2.734,0,0,0,1.512-.436,2.829,2.829,0,0,0,1.039-1.206l1.447.306a4.114,4.114,0,0,1-1.559,1.958,4.252,4.252,0,0,1-2.421.714,4.406,4.406,0,0,1-3.284-1.271,5.412,5.412,0,0,1,0-6.93,4.351,4.351,0,0,1,3.233-1.271,4.117,4.117,0,0,1,3.066,1.169A4.619,4.619,0,0,1,361.789,61.259Zm-4.221-3.321a2.844,2.844,0,0,0-1.9.645,2.954,2.954,0,0,0-.96,1.879h5.464a2.71,2.71,0,0,0-.8-1.879A2.577,2.577,0,0,0,357.567,57.938Zm11.04-1.234a3.172,3.172,0,0,1,2.3.826,3.08,3.08,0,0,1,.858,2.329V66h-1.6V60.22a2.156,2.156,0,0,0-.557-1.633,1.99,1.99,0,0,0-1.429-.529,2.206,2.206,0,0,0-1.624.626,2.541,2.541,0,0,0-.64,1.86V66h-1.6V56.88h1.6v1.169A3.046,3.046,0,0,1,368.607,56.7ZM3.2,82.485a2.757,2.757,0,0,1,1.132-1.225,3.409,3.409,0,0,1,1.753-.482v1.512a3,3,0,0,0-2.12.677,2.829,2.829,0,0,0-.728,2.162V90h-1.6V80.88H3.2Zm12.636,2.774-.019.436H8.693a3.223,3.223,0,0,0,.872,2.333,2.863,2.863,0,0,0,2.078.812,2.734,2.734,0,0,0,1.512-.436A2.829,2.829,0,0,0,14.194,87.2l1.447.306a4.114,4.114,0,0,1-1.559,1.958,4.252,4.252,0,0,1-2.421.714,4.406,4.406,0,0,1-3.284-1.271,5.412,5.412,0,0,1,0-6.93A4.351,4.351,0,0,1,11.615,80.7a4.117,4.117,0,0,1,3.066,1.169A4.619,4.619,0,0,1,15.836,85.259Zm-4.221-3.321a2.844,2.844,0,0,0-1.9.645,2.954,2.954,0,0,0-.96,1.879h5.464a2.71,2.71,0,0,0-.8-1.879A2.577,2.577,0,0,0,11.615,81.938ZM23.166,80.7a4.148,4.148,0,0,1,1.651.334,4.062,4.062,0,0,1,1.354.937,4.379,4.379,0,0,1,.914,1.5,5.542,5.542,0,0,1,.339,1.967,4.822,4.822,0,0,1-1.229,3.442,3.992,3.992,0,0,1-3.029,1.308,3.61,3.61,0,0,1-1.906-.52,3.4,3.4,0,0,1-1.3-1.4v6.318h-1.6V80.88H19.9l.037,1.772a3.338,3.338,0,0,1,1.3-1.424A3.643,3.643,0,0,1,23.166,80.7Zm-.315,8.1a2.769,2.769,0,0,0,2.111-.923,3.878,3.878,0,0,0,0-4.866,2.878,2.878,0,0,0-4.254.042,3.721,3.721,0,0,0,0,4.787A2.783,2.783,0,0,0,22.85,88.8ZM33.8,90.176a4.807,4.807,0,0,1-2.338-.566,4.121,4.121,0,0,1-1.647-1.656,5.087,5.087,0,0,1-.608-2.519A4.646,4.646,0,0,1,30.5,82a4.855,4.855,0,0,1,6.6,0,5.231,5.231,0,0,1,0,6.884A4.467,4.467,0,0,1,33.8,90.176Zm-.009-1.336a2.8,2.8,0,0,0,2.157-.937,3.964,3.964,0,0,0,0-4.926,2.8,2.8,0,0,0-2.157-.937,2.762,2.762,0,0,0-2.138.937,4,4,0,0,0,0,4.926A2.762,2.762,0,0,0,33.788,88.84Zm10,1.336a4.323,4.323,0,0,1-2.458-.659,2.724,2.724,0,0,1-1.2-1.874l1.4-.4a1.954,1.954,0,0,0,.747,1.266,2.423,2.423,0,0,0,1.5.45,2.99,2.99,0,0,0,.877-.121,1.405,1.405,0,0,0,.673-.45,1.255,1.255,0,0,0,.195-1.206,1.611,1.611,0,0,0-.148-.3.919.919,0,0,0-.26-.25,3.424,3.424,0,0,0-.315-.195,3.238,3.238,0,0,0-.413-.172q-.274-.1-.441-.148t-.51-.148q-.343-.1-.529-.153a9.894,9.894,0,0,1-.946-.334,4.15,4.15,0,0,1-.77-.441,1.773,1.773,0,0,1-.6-.719,2.433,2.433,0,0,1-.2-1.021,2.358,2.358,0,0,1,.445-1.457,2.506,2.506,0,0,1,1.155-.858,4.617,4.617,0,0,1,1.619-.264,3.963,3.963,0,0,1,2.222.594A2.534,2.534,0,0,1,46.943,83.1l-1.317.334a1.747,1.747,0,0,0-.7-1.155,2.215,2.215,0,0,0-1.308-.385,2.258,2.258,0,0,0-1.225.32,1.076,1.076,0,0,0-.51.979.974.974,0,0,0,.135.506,1.606,1.606,0,0,0,.274.357,1.682,1.682,0,0,0,.5.274q.362.144.538.195t.668.172q.093.028.139.037.538.139.877.246a5.389,5.389,0,0,1,.789.334,2.622,2.622,0,0,1,.71.5,2.3,2.3,0,0,1,.445.705,2.489,2.489,0,0,1,.186.983,2.656,2.656,0,0,1-.274,1.229,2.141,2.141,0,0,1-.747.84,3.612,3.612,0,0,1-1.062.459A5.061,5.061,0,0,1,43.789,90.176Zm6.7-11.439A1.093,1.093,0,0,1,49.4,77.652a1.029,1.029,0,0,1,.32-.761,1.052,1.052,0,0,1,.765-.315,1.041,1.041,0,0,1,.756.315,1.029,1.029,0,0,1,.32.761,1.044,1.044,0,0,1-.32.765A1.034,1.034,0,0,1,50.487,78.737ZM49.671,90V80.88h1.614V90Zm7.793,0a2.4,2.4,0,0,1-1.781-.654,2.474,2.474,0,0,1-.649-1.823V82.161H53.168V80.88h.687a1.318,1.318,0,0,0,1.007-.32,1.575,1.575,0,0,0,.292-1.072V77.837h1.494V80.88h2.1v1.28h-2.1v5.2A1.383,1.383,0,0,0,57,88.363a1.218,1.218,0,0,0,.914.357h.835V90Zm7.329.176a4.807,4.807,0,0,1-2.338-.566,4.121,4.121,0,0,1-1.647-1.656,5.087,5.087,0,0,1-.608-2.519A4.646,4.646,0,0,1,61.495,82a4.855,4.855,0,0,1,6.6,0,5.231,5.231,0,0,1,0,6.884A4.467,4.467,0,0,1,64.793,90.176Zm-.009-1.336a2.8,2.8,0,0,0,2.157-.937,3.964,3.964,0,0,0,0-4.926,2.8,2.8,0,0,0-2.157-.937,2.762,2.762,0,0,0-2.138.937,4,4,0,0,0,0,4.926A2.762,2.762,0,0,0,64.784,88.84Zm8.684-6.355A2.757,2.757,0,0,1,74.6,81.261a3.409,3.409,0,0,1,1.753-.482v1.512a3,3,0,0,0-2.12.677,2.829,2.829,0,0,0-.728,2.162V90H71.9V80.88h1.568Zm5.585-3.748a1.093,1.093,0,0,1-1.085-1.085,1.029,1.029,0,0,1,.32-.761,1.052,1.052,0,0,1,.765-.315,1.041,1.041,0,0,1,.756.315,1.029,1.029,0,0,1,.32.761,1.044,1.044,0,0,1-.32.765A1.034,1.034,0,0,1,79.052,78.737ZM78.236,90V80.88H79.85V90Zm8.721.176a4.807,4.807,0,0,1-2.338-.566,4.121,4.121,0,0,1-1.647-1.656,5.087,5.087,0,0,1-.608-2.519A4.646,4.646,0,0,1,83.658,82a4.855,4.855,0,0,1,6.6,0,5.231,5.231,0,0,1,0,6.884A4.467,4.467,0,0,1,86.957,90.176Zm-.009-1.336A2.8,2.8,0,0,0,89.1,87.9a3.964,3.964,0,0,0,0-4.926,2.8,2.8,0,0,0-2.157-.937,2.762,2.762,0,0,0-2.138.937,4,4,0,0,0,0,4.926A2.762,2.762,0,0,0,86.947,88.84Zm12.868-10.1a1.093,1.093,0,0,1-1.085-1.085,1.029,1.029,0,0,1,.32-.761,1.052,1.052,0,0,1,.765-.315,1.041,1.041,0,0,1,.756.315,1.029,1.029,0,0,1,.32.761,1.044,1.044,0,0,1-.32.765A1.034,1.034,0,0,1,99.815,78.737ZM99,90V80.88h1.614V90Zm9.185-9.3a3.172,3.172,0,0,1,2.3.826,3.08,3.08,0,0,1,.858,2.329V90h-1.6V84.22a2.156,2.156,0,0,0-.557-1.633,1.99,1.99,0,0,0-1.429-.529,2.206,2.206,0,0,0-1.624.626,2.541,2.541,0,0,0-.64,1.86V90h-1.6V80.88h1.6v1.169A3.046,3.046,0,0,1,108.183,80.7Zm9.138,9.472a4.323,4.323,0,0,1-2.458-.659,2.724,2.724,0,0,1-1.2-1.874l1.4-.4a1.954,1.954,0,0,0,.747,1.266,2.423,2.423,0,0,0,1.5.45,2.99,2.99,0,0,0,.877-.121,1.405,1.405,0,0,0,.673-.45,1.255,1.255,0,0,0,.195-1.206,1.611,1.611,0,0,0-.148-.3.919.919,0,0,0-.26-.25,3.424,3.424,0,0,0-.315-.195,3.238,3.238,0,0,0-.413-.172q-.274-.1-.441-.148t-.51-.148q-.343-.1-.529-.153a9.894,9.894,0,0,1-.946-.334,4.15,4.15,0,0,1-.77-.441,1.773,1.773,0,0,1-.6-.719,2.433,2.433,0,0,1-.2-1.021,2.358,2.358,0,0,1,.445-1.457,2.506,2.506,0,0,1,1.155-.858,4.617,4.617,0,0,1,1.619-.264,3.963,3.963,0,0,1,2.222.594,2.534,2.534,0,0,1,1.109,1.781l-1.317.334a1.747,1.747,0,0,0-.7-1.155,2.215,2.215,0,0,0-1.308-.385,2.258,2.258,0,0,0-1.225.32,1.076,1.076,0,0,0-.51.979.974.974,0,0,0,.135.506,1.606,1.606,0,0,0,.274.357,1.682,1.682,0,0,0,.5.274q.362.144.538.195t.668.172q.093.028.139.037.538.139.877.246a5.389,5.389,0,0,1,.789.334,2.622,2.622,0,0,1,.71.5,2.3,2.3,0,0,1,.445.705,2.489,2.489,0,0,1,.186.983,2.656,2.656,0,0,1-.274,1.229,2.141,2.141,0,0,1-.747.84,3.612,3.612,0,0,1-1.062.459A5.061,5.061,0,0,1,117.321,90.176ZM126.116,90a2.4,2.4,0,0,1-1.781-.654,2.474,2.474,0,0,1-.649-1.823V82.161h-1.865V80.88h.687a1.318,1.318,0,0,0,1.007-.32,1.575,1.575,0,0,0,.292-1.072V77.837H125.3V80.88h2.1v1.28h-2.1v5.2a1.383,1.383,0,0,0,.348,1.007,1.218,1.218,0,0,0,.914.357h.835V90Zm4.416-11.263a1.093,1.093,0,0,1-1.085-1.085,1.029,1.029,0,0,1,.32-.761,1.052,1.052,0,0,1,.765-.315,1.041,1.041,0,0,1,.756.315,1.029,1.029,0,0,1,.32.761,1.044,1.044,0,0,1-.32.765A1.034,1.034,0,0,1,130.532,78.737ZM129.716,90V80.88h1.614V90Zm7.793,0a2.4,2.4,0,0,1-1.781-.654,2.474,2.474,0,0,1-.649-1.823V82.161h-1.865V80.88h.687a1.318,1.318,0,0,0,1.007-.32,1.575,1.575,0,0,0,.292-1.072V77.837h1.494V80.88h2.1v1.28h-2.1v5.2a1.383,1.383,0,0,0,.348,1.007,1.218,1.218,0,0,0,.914.357h.835V90Zm9.277-9.12h1.6V90h-1.54l-.037-1.206a2.847,2.847,0,0,1-1.132,1.025,3.481,3.481,0,0,1-1.6.357,3.172,3.172,0,0,1-2.3-.826,3.08,3.08,0,0,1-.858-2.329V80.88h1.6v5.78a2.164,2.164,0,0,0,.561,1.633,1.987,1.987,0,0,0,1.433.538,2.182,2.182,0,0,0,1.619-.631,2.57,2.57,0,0,0,.635-1.865Zm8.656,9.287a4.392,4.392,0,0,1-3.266-1.308,5.2,5.2,0,0,1,0-6.847,4.752,4.752,0,0,1,5.91-.51,4.026,4.026,0,0,1,1.535,2.217l-1.5.241a2.776,2.776,0,0,0-1.03-1.419,2.8,2.8,0,0,0-1.651-.5,2.7,2.7,0,0,0-2.111.937,4.048,4.048,0,0,0,0,4.912,2.7,2.7,0,0,0,2.111.932,2.8,2.8,0,0,0,1.651-.5,2.776,2.776,0,0,0,1.03-1.419l1.5.25a4.031,4.031,0,0,1-1.545,2.213A4.418,4.418,0,0,1,155.442,90.167Zm7.357-11.43a1.093,1.093,0,0,1-1.085-1.085,1.029,1.029,0,0,1,.32-.761,1.052,1.052,0,0,1,.765-.315,1.041,1.041,0,0,1,.756.315,1.029,1.029,0,0,1,.32.761,1.044,1.044,0,0,1-.32.765A1.034,1.034,0,0,1,162.8,78.737ZM161.982,90V80.88H163.6V90Zm8.721.176a4.807,4.807,0,0,1-2.338-.566,4.121,4.121,0,0,1-1.647-1.656,5.087,5.087,0,0,1-.608-2.519A4.646,4.646,0,0,1,167.405,82a4.855,4.855,0,0,1,6.6,0,5.231,5.231,0,0,1,0,6.884A4.467,4.467,0,0,1,170.7,90.176Zm-.009-1.336a2.8,2.8,0,0,0,2.157-.937,3.964,3.964,0,0,0,0-4.926,2.8,2.8,0,0,0-2.157-.937,2.762,2.762,0,0,0-2.138.937,4,4,0,0,0,0,4.926A2.762,2.762,0,0,0,170.694,88.84Zm11.42-8.136a3.172,3.172,0,0,1,2.3.826,3.08,3.08,0,0,1,.858,2.329V90h-1.6V84.22a2.156,2.156,0,0,0-.557-1.633,1.99,1.99,0,0,0-1.429-.529,2.206,2.206,0,0,0-1.624.626,2.541,2.541,0,0,0-.64,1.86V90h-1.6V80.88h1.6v1.169A3.046,3.046,0,0,1,182.114,80.7Zm8.359,9.472a3.1,3.1,0,0,1-2-.626,2.249,2.249,0,0,1-.784-1.869,2.656,2.656,0,0,1,.25-1.192,2.1,2.1,0,0,1,.742-.83,4.453,4.453,0,0,1,1.072-.515,9.9,9.9,0,0,1,1.387-.329l1.475-.241q.807-.148.807-.844a1.594,1.594,0,0,0-.571-1.359,2.325,2.325,0,0,0-1.443-.431,2.368,2.368,0,0,0-1.429.417,1.747,1.747,0,0,0-.677,1.28l-1.447-.306A2.785,2.785,0,0,1,189,81.377a4.263,4.263,0,0,1,2.486-.654,5.043,5.043,0,0,1,1.322.162,3.593,3.593,0,0,1,1.1.51,2.288,2.288,0,0,1,.789.983,3.659,3.659,0,0,1,.283,1.5v3.767a1.541,1.541,0,0,0,.209.951.9.9,0,0,0,.719.246h.148V90h-.8a1.522,1.522,0,0,1-1.726-1.234h-.074A3.485,3.485,0,0,1,190.473,90.176Zm.371-1.3A2.433,2.433,0,0,0,192.8,88a3.628,3.628,0,0,0,.742-2.412l-2.412.464a3.247,3.247,0,0,0-1.415.506,1.176,1.176,0,0,0-.459,1,1.162,1.162,0,0,0,.441,1A1.884,1.884,0,0,0,190.844,88.877ZM198.322,90V75.75h1.624V90Zm16.56-14.25h1.6V90h-1.549l-.037-1.772a3.356,3.356,0,0,1-1.3,1.438,3.619,3.619,0,0,1-1.93.529,4.144,4.144,0,0,1-3.01-1.285,4.392,4.392,0,0,1-.918-1.508,5.515,5.515,0,0,1-.339-1.958,4.8,4.8,0,0,1,1.239-3.423,4,4,0,0,1,3.029-1.317,3.635,3.635,0,0,1,1.906.515,3.375,3.375,0,0,1,1.3,1.4ZM212.006,88.8a2.731,2.731,0,0,0,2.12-.96,3.766,3.766,0,0,0,0-4.792,2.729,2.729,0,0,0-2.115-.965,2.791,2.791,0,0,0-2.134.932,3.842,3.842,0,0,0,0,4.852A2.791,2.791,0,0,0,212.006,88.8Zm15.725-3.544-.019.436h-7.125a3.223,3.223,0,0,0,.872,2.333,2.863,2.863,0,0,0,2.078.812,2.734,2.734,0,0,0,1.512-.436,2.829,2.829,0,0,0,1.039-1.206l1.447.306a4.114,4.114,0,0,1-1.559,1.958,4.252,4.252,0,0,1-2.421.714,4.406,4.406,0,0,1-3.284-1.271,5.412,5.412,0,0,1,0-6.93A4.351,4.351,0,0,1,223.51,80.7a4.117,4.117,0,0,1,3.066,1.169A4.619,4.619,0,0,1,227.731,85.259Zm-4.221-3.321a2.844,2.844,0,0,0-1.9.645,2.954,2.954,0,0,0-.96,1.879h5.464a2.71,2.71,0,0,0-.8-1.879A2.577,2.577,0,0,0,223.51,81.938Zm16.5-1.234a3.973,3.973,0,0,1,3.015,1.317,5.394,5.394,0,0,1,.009,6.856,3.965,3.965,0,0,1-3.024,1.317,3.66,3.66,0,0,1-1.944-.529,3.347,3.347,0,0,1-1.3-1.438L236.73,90h-1.549V75.75h1.6l.009,6.875a3.361,3.361,0,0,1,1.3-1.406A3.669,3.669,0,0,1,240.014,80.7Zm-.353,8.1a2.791,2.791,0,0,0,2.134-.932,3.842,3.842,0,0,0,0-4.852,2.791,2.791,0,0,0-2.134-.932,2.729,2.729,0,0,0-2.115.965,3.766,3.766,0,0,0,0,4.792A2.731,2.731,0,0,0,239.662,88.8ZM247.6,78.737a1.093,1.093,0,0,1-1.085-1.085,1.029,1.029,0,0,1,.32-.761,1.052,1.052,0,0,1,.765-.315,1.041,1.041,0,0,1,.756.315,1.029,1.029,0,0,1,.32.761,1.044,1.044,0,0,1-.32.765A1.034,1.034,0,0,1,247.6,78.737ZM246.787,90V80.88H248.4V90Zm9.713-9.3a3.973,3.973,0,0,1,3.015,1.317,5.394,5.394,0,0,1,.009,6.856,3.965,3.965,0,0,1-3.024,1.317,3.66,3.66,0,0,1-1.944-.529,3.347,3.347,0,0,1-1.3-1.438L253.216,90h-1.549V75.75h1.6l.009,6.875a3.361,3.361,0,0,1,1.3-1.406A3.669,3.669,0,0,1,256.5,80.7Zm-.353,8.1a2.791,2.791,0,0,0,2.134-.932,3.842,3.842,0,0,0,0-4.852,2.791,2.791,0,0,0-2.134-.932,2.729,2.729,0,0,0-2.115.965,3.766,3.766,0,0,0,0,4.792A2.731,2.731,0,0,0,256.147,88.8Zm7.125,1.2V75.75H264.9V90Zm5.706-11.263a1.093,1.093,0,0,1-1.085-1.085,1.029,1.029,0,0,1,.32-.761,1.052,1.052,0,0,1,.765-.315,1.041,1.041,0,0,1,.756.315,1.029,1.029,0,0,1,.32.761,1.044,1.044,0,0,1-.32.765A1.034,1.034,0,0,1,268.978,78.737ZM268.162,90V80.88h1.614V90Zm8.721.176a4.807,4.807,0,0,1-2.338-.566,4.121,4.121,0,0,1-1.647-1.656,5.087,5.087,0,0,1-.608-2.519A4.646,4.646,0,0,1,273.584,82a4.855,4.855,0,0,1,6.6,0,5.231,5.231,0,0,1,0,6.884A4.467,4.467,0,0,1,276.882,90.176Zm-.009-1.336a2.8,2.8,0,0,0,2.157-.937,3.964,3.964,0,0,0,0-4.926,2.8,2.8,0,0,0-2.157-.937,2.762,2.762,0,0,0-2.138.937,4,4,0,0,0,0,4.926A2.762,2.762,0,0,0,276.873,88.84ZM286.9,90a2.4,2.4,0,0,1-1.781-.654,2.474,2.474,0,0,1-.649-1.823V82.161h-1.865V80.88h.687a1.318,1.318,0,0,0,1.007-.32,1.575,1.575,0,0,0,.292-1.072V77.837h1.494V80.88h2.1v1.28h-2.1v5.2a1.383,1.383,0,0,0,.348,1.007,1.218,1.218,0,0,0,.914.357h.835V90Zm11.467-4.741-.019.436h-7.125a3.223,3.223,0,0,0,.872,2.333,2.863,2.863,0,0,0,2.078.812,2.734,2.734,0,0,0,1.512-.436,2.829,2.829,0,0,0,1.039-1.206l1.447.306a4.114,4.114,0,0,1-1.559,1.958,4.252,4.252,0,0,1-2.421.714,4.406,4.406,0,0,1-3.284-1.271,5.412,5.412,0,0,1,0-6.93,4.351,4.351,0,0,1,3.233-1.271,4.117,4.117,0,0,1,3.066,1.169A4.619,4.619,0,0,1,298.369,85.259Zm-4.221-3.321a2.844,2.844,0,0,0-1.9.645,2.954,2.954,0,0,0-.96,1.879h5.464a2.71,2.71,0,0,0-.8-1.879A2.577,2.577,0,0,0,294.147,81.938Zm10.521,8.229a4.392,4.392,0,0,1-3.266-1.308,5.2,5.2,0,0,1,0-6.847,4.752,4.752,0,0,1,5.91-.51,4.026,4.026,0,0,1,1.535,2.217l-1.5.241a2.776,2.776,0,0,0-1.03-1.419,2.8,2.8,0,0,0-1.651-.5,2.7,2.7,0,0,0-2.111.937,4.048,4.048,0,0,0,0,4.912,2.7,2.7,0,0,0,2.111.932,2.8,2.8,0,0,0,1.651-.5,2.776,2.776,0,0,0,1.03-1.419l1.5.25a4.031,4.031,0,0,1-1.545,2.213A4.418,4.418,0,0,1,304.668,90.167Zm8.646.009a3.1,3.1,0,0,1-2-.626,2.249,2.249,0,0,1-.784-1.869,2.656,2.656,0,0,1,.25-1.192,2.1,2.1,0,0,1,.742-.83,4.452,4.452,0,0,1,1.072-.515,9.9,9.9,0,0,1,1.387-.329l1.475-.241q.807-.148.807-.844a1.594,1.594,0,0,0-.571-1.359,2.325,2.325,0,0,0-1.443-.431,2.368,2.368,0,0,0-1.429.417,1.747,1.747,0,0,0-.677,1.28L310.7,83.33a2.785,2.785,0,0,1,1.141-1.953,4.263,4.263,0,0,1,2.486-.654,5.043,5.043,0,0,1,1.322.162,3.593,3.593,0,0,1,1.1.51,2.288,2.288,0,0,1,.789.983,3.659,3.659,0,0,1,.283,1.5v3.767a1.541,1.541,0,0,0,.209.951.9.9,0,0,0,.719.246h.148V90h-.8a1.522,1.522,0,0,1-1.726-1.234H316.3A3.485,3.485,0,0,1,313.314,90.176Zm.371-1.3A2.433,2.433,0,0,0,315.643,88a3.629,3.629,0,0,0,.742-2.412l-2.412.464a3.247,3.247,0,0,0-1.415.506,1.176,1.176,0,0,0-.459,1,1.162,1.162,0,0,0,.441,1A1.884,1.884,0,0,0,313.686,88.877Zm10.363,1.3a4.323,4.323,0,0,1-2.458-.659,2.724,2.724,0,0,1-1.2-1.874l1.4-.4a1.954,1.954,0,0,0,.747,1.266,2.423,2.423,0,0,0,1.5.45,2.99,2.99,0,0,0,.877-.121,1.405,1.405,0,0,0,.673-.45,1.255,1.255,0,0,0,.195-1.206,1.612,1.612,0,0,0-.148-.3.919.919,0,0,0-.26-.25,3.426,3.426,0,0,0-.315-.195,3.237,3.237,0,0,0-.413-.172q-.274-.1-.441-.148t-.51-.148q-.343-.1-.529-.153a9.9,9.9,0,0,1-.946-.334,4.15,4.15,0,0,1-.77-.441,1.773,1.773,0,0,1-.6-.719,2.433,2.433,0,0,1-.2-1.021,2.358,2.358,0,0,1,.445-1.457,2.506,2.506,0,0,1,1.155-.858,4.617,4.617,0,0,1,1.619-.264,3.963,3.963,0,0,1,2.222.594A2.534,2.534,0,0,1,327.2,83.1l-1.317.334a1.747,1.747,0,0,0-.7-1.155,2.215,2.215,0,0,0-1.308-.385,2.258,2.258,0,0,0-1.225.32,1.076,1.076,0,0,0-.51.979.974.974,0,0,0,.135.506,1.606,1.606,0,0,0,.274.357,1.682,1.682,0,0,0,.5.274q.362.144.538.195t.668.172q.093.028.139.037.538.139.877.246a5.389,5.389,0,0,1,.789.334,2.622,2.622,0,0,1,.71.5,2.3,2.3,0,0,1,.445.705,2.489,2.489,0,0,1,.186.983,2.656,2.656,0,0,1-.274,1.229,2.141,2.141,0,0,1-.747.84,3.612,3.612,0,0,1-1.062.459A5.061,5.061,0,0,1,324.048,90.176Zm15.271,0a5.962,5.962,0,0,1-3.409-.923,3.908,3.908,0,0,1-1.7-2.537l1.679-.4a2.754,2.754,0,0,0,1.178,1.781,3.984,3.984,0,0,0,2.31.649,4.819,4.819,0,0,0,.863-.074,3.3,3.3,0,0,0,.784-.246,2.4,2.4,0,0,0,.645-.422,1.762,1.762,0,0,0,.427-.64,2.191,2.191,0,0,0,.148-.872,1.886,1.886,0,0,0-.116-.617,1.959,1.959,0,0,0-.26-.487,1.749,1.749,0,0,0-.441-.394,5.908,5.908,0,0,0-.529-.315,4.779,4.779,0,0,0-.654-.264q-.413-.139-.691-.218t-.751-.209q-.093-.028-.139-.037-.538-.139-.877-.241t-.812-.283a5.341,5.341,0,0,1-.775-.357,5.244,5.244,0,0,1-.635-.445,2.281,2.281,0,0,1-.524-.58,3.06,3.06,0,0,1-.315-.738,3.574,3.574,0,0,1,.482-2.932,3.555,3.555,0,0,1,1.568-1.225,5.691,5.691,0,0,1,2.157-.39,5.906,5.906,0,0,1,3.14.8,3.576,3.576,0,0,1,1.665,2.37l-1.614.408a2.457,2.457,0,0,0-1.085-1.6,3.719,3.719,0,0,0-2.041-.538,4.043,4.043,0,0,0-1,.121,2.977,2.977,0,0,0-.867.371,1.8,1.8,0,0,0-.626.682,2.074,2.074,0,0,0-.232,1,1.6,1.6,0,0,0,.093.552,1.7,1.7,0,0,0,.232.441,1.651,1.651,0,0,0,.4.362,4.053,4.053,0,0,0,.487.288,4.936,4.936,0,0,0,.608.237q.38.125.649.2t.714.19a15.114,15.114,0,0,1,2.514.835,3.182,3.182,0,0,1,1.939,2.4,4.141,4.141,0,0,1,.037.566,3.65,3.65,0,0,1-.376,1.688,3.046,3.046,0,0,1-1.03,1.169,4.923,4.923,0,0,1-1.466.654A6.722,6.722,0,0,1,339.319,90.176Zm14.76-11.727h-5.307v4.277h4.676V84.22h-4.676v4.268h5.307V90h-7V76.938h7Zm11.958-1.512h1.651V90h-1.753l-7.042-10.567V90h-1.633V76.938H359l7.042,10.521ZM380.176,90l-1.123-3.126h-5.91L372.031,90H370.3l4.815-13.062H377.1L381.911,90Zm-6.5-4.592h4.861l-2.431-6.8Zm11.838,4.778a1.041,1.041,0,0,1-.756-.315,1.079,1.079,0,0,1,.756-1.837,1.049,1.049,0,0,1,.761.32,1.053,1.053,0,0,1,0,1.517A1.052,1.052,0,0,1,385.511,90.186Z" transform="translate(2584 -3971)" fill="#00223d"/>
    <path id="Trazado_19694" data-name="Trazado 19694" d="M9.691.234A9.452,9.452,0,0,1,6.24-.387,8.116,8.116,0,0,1,3.492-2.121a7.818,7.818,0,0,1-1.8-2.754,9.6,9.6,0,0,1-.656-3.6,9.172,9.172,0,0,1,1.125-4.6,7.659,7.659,0,0,1,3.088-3.041,9.246,9.246,0,0,1,4.447-1.055A8.986,8.986,0,0,1,14.66-15.8,7.506,7.506,0,0,1,17.7-12.023l-3.281,1.2A4.639,4.639,0,0,0,12.6-13.113a5.188,5.188,0,0,0-2.906-.82,4.974,4.974,0,0,0-3.7,1.477A5.433,5.433,0,0,0,4.535-8.473a5.441,5.441,0,0,0,1.459,3.99A4.968,4.968,0,0,0,9.691-3a5.169,5.169,0,0,0,2.9-.826,4.66,4.66,0,0,0,1.822-2.291l3.281,1.2A7.536,7.536,0,0,1,14.66-1.143,8.957,8.957,0,0,1,9.691.234Zm16.055,0A7.575,7.575,0,0,1,22.336-.5,5.518,5.518,0,0,1,20-2.672a6.461,6.461,0,0,1-.85-3.363,5.893,5.893,0,0,1,1.828-4.57,6.782,6.782,0,0,1,4.77-1.676,6.8,6.8,0,0,1,4.781,1.676,5.893,5.893,0,0,1,1.828,4.57,5.926,5.926,0,0,1-1.828,4.588A6.784,6.784,0,0,1,25.746.234Zm-.035-2.684A3.092,3.092,0,0,0,28.1-3.434,3.685,3.685,0,0,0,29-6.035a3.685,3.685,0,0,0-.908-2.6,3.092,3.092,0,0,0-2.385-.984,2.979,2.979,0,0,0-2.314.99,3.719,3.719,0,0,0-.9,2.6,3.719,3.719,0,0,0,.9,2.6A2.979,2.979,0,0,0,25.711-2.449Zm16.266-9.832A4.7,4.7,0,0,1,45.3-11.2a4.019,4.019,0,0,1,1.16,3.088V0H43.078V-7.383a2.1,2.1,0,0,0-.6-1.664,2.274,2.274,0,0,0-1.553-.527,3.172,3.172,0,0,0-1.008.152,2.589,2.589,0,0,0-.844.475,2.1,2.1,0,0,0-.6.908,4.2,4.2,0,0,0-.229,1.395V0H34.863V-12.047h3.375v1.336A4.642,4.642,0,0,1,41.977-12.281Zm12,12.516a6.732,6.732,0,0,1-3.516-.844,3.566,3.566,0,0,1-1.723-2.508l2.824-.8a2.269,2.269,0,0,0,2.414,1.793,2.493,2.493,0,0,0,1.23-.275.959.959,0,0,0,.48-.932.985.985,0,0,0-.2-.621,1.578,1.578,0,0,0-.615-.445,7.665,7.665,0,0,0-.82-.316q-.4-.129-1.072-.311t-1.113-.346a7.458,7.458,0,0,1-1.061-.451,4.524,4.524,0,0,1-.879-.621,2.5,2.5,0,0,1-.656-.943,3.4,3.4,0,0,1-.229-1.289,3.078,3.078,0,0,1,1.307-2.7,5.838,5.838,0,0,1,3.416-.914,5.986,5.986,0,0,1,3.152.773,3.5,3.5,0,0,1,1.617,2.414l-2.613.586a2.047,2.047,0,0,0-2.145-1.523,2.348,2.348,0,0,0-1.184.27.866.866,0,0,0-.469.8.913.913,0,0,0,.07.363.719.719,0,0,0,.246.293,3.589,3.589,0,0,0,.34.223,2.564,2.564,0,0,0,.48.193q.316.1.527.152t.615.158l.627.164q.645.176,1.131.352a6.623,6.623,0,0,1,1.037.492,3.722,3.722,0,0,1,.908.709,3.162,3.162,0,0,1,.592,1,3.679,3.679,0,0,1,.234,1.342,3.624,3.624,0,0,1-.4,1.746A3.035,3.035,0,0,1,57.422-.6a5.39,5.39,0,0,1-1.564.633A8.116,8.116,0,0,1,53.977.234ZM69.34-12.047h3.375V0h-3.2l-.082-1.453A4.6,4.6,0,0,1,65.6.234,4.7,4.7,0,0,1,62.273-.85a4.019,4.019,0,0,1-1.16-3.088v-8.109H64.5v7.383a2.082,2.082,0,0,0,.6,1.652,2.291,2.291,0,0,0,1.564.527,2.717,2.717,0,0,0,1.916-.686A2.945,2.945,0,0,0,69.34-5.4ZM76.207,0V-18h3.41V0ZM87.6,0a3.638,3.638,0,0,1-2.719-.979,3.806,3.806,0,0,1-.961-2.783v-5.7H81.551v-2.59h.762a1.988,1.988,0,0,0,1.5-.5,2.6,2.6,0,0,0,.48-1.793v-1.594H87.34v3.891h2.484v2.59H87.34v5.332q0,1.559,1.395,1.559h1.09V0ZM102.27-3.27a11.27,11.27,0,0,0,.293,2.941V0H99.41l-.27-1.312a3.917,3.917,0,0,1-1.687,1.16,6.219,6.219,0,0,1-2.18.387A5.732,5.732,0,0,1,94.148.129a3.824,3.824,0,0,1-1.014-.357A3.076,3.076,0,0,1,92.3-.855a2.749,2.749,0,0,1-.562-.955,3.8,3.8,0,0,1-.211-1.307,3.623,3.623,0,0,1,.223-1.307,3.063,3.063,0,0,1,.586-.979,3.554,3.554,0,0,1,.949-.715,7.263,7.263,0,0,1,1.2-.516,14.282,14.282,0,0,1,1.43-.375l1.98-.445a2.184,2.184,0,0,0,.9-.381.76.76,0,0,0,.264-.6,1.243,1.243,0,0,0-.592-1.16,2.763,2.763,0,0,0-1.436-.352,2.066,2.066,0,0,0-2.355,1.84l-2.988-.539A4.045,4.045,0,0,1,93.422-11.4a6.94,6.94,0,0,1,3.785-.885q5.063,0,5.063,4.348ZM96.328-2.051a2.714,2.714,0,0,0,2.086-.873,3.679,3.679,0,0,0,.809-2.584L96.363-4.7a3.379,3.379,0,0,0-1.2.492,1.011,1.011,0,0,0-.416.867,1.122,1.122,0,0,0,.445.955A1.843,1.843,0,0,0,96.328-2.051Zm22.535-10.23a5.829,5.829,0,0,1,2.238.434,5.585,5.585,0,0,1,1.846,1.225A5.582,5.582,0,0,1,124.2-8.637,7.327,7.327,0,0,1,124.652-6a7.327,7.327,0,0,1-.457,2.637,5.582,5.582,0,0,1-1.248,1.986A5.585,5.585,0,0,1,121.1-.152a5.829,5.829,0,0,1-2.238.434,5.2,5.2,0,0,1-2.279-.486,3.369,3.369,0,0,1-1.518-1.365L114.984,0h-3.2V-18h3.375v7.418a3.363,3.363,0,0,1,1.506-1.254A5.3,5.3,0,0,1,118.863-12.281Zm-.785,9.762a3.036,3.036,0,0,0,2.291-.949A3.509,3.509,0,0,0,121.277-6a3.525,3.525,0,0,0-.908-2.543,3.036,3.036,0,0,0-2.291-.949,3,3,0,0,0-2.273.967A3.526,3.526,0,0,0,114.891-6a3.518,3.518,0,0,0,.908,2.52A3,3,0,0,0,118.078-2.52Zm10.84-11.332a1.9,1.9,0,0,1-1.383-.568,1.866,1.866,0,0,1-.574-1.377,1.843,1.843,0,0,1,.58-1.365,1.9,1.9,0,0,1,1.377-.568,1.868,1.868,0,0,1,1.359.568,1.852,1.852,0,0,1,.574,1.365,1.866,1.866,0,0,1-.574,1.377A1.868,1.868,0,0,1,128.918-13.852ZM127.2,0V-12.047h3.4V0Zm13.969-12.281a5.829,5.829,0,0,1,2.238.434,5.585,5.585,0,0,1,1.846,1.225A5.582,5.582,0,0,1,146.5-8.637,7.327,7.327,0,0,1,146.953-6a7.327,7.327,0,0,1-.457,2.637,5.582,5.582,0,0,1-1.248,1.986A5.585,5.585,0,0,1,143.4-.152a5.829,5.829,0,0,1-2.238.434,5.2,5.2,0,0,1-2.279-.486,3.369,3.369,0,0,1-1.518-1.365L137.285,0h-3.2V-18h3.375v7.418a3.363,3.363,0,0,1,1.506-1.254A5.3,5.3,0,0,1,141.164-12.281Zm-.785,9.762a3.036,3.036,0,0,0,2.291-.949A3.509,3.509,0,0,0,143.578-6a3.525,3.525,0,0,0-.908-2.543,3.036,3.036,0,0,0-2.291-.949,3,3,0,0,0-2.273.967A3.526,3.526,0,0,0,137.191-6a3.518,3.518,0,0,0,.908,2.52A3,3,0,0,0,140.379-2.52ZM149.5,0V-18h3.41V0Zm8.625-13.852a1.9,1.9,0,0,1-1.383-.568,1.866,1.866,0,0,1-.574-1.377,1.843,1.843,0,0,1,.58-1.365,1.9,1.9,0,0,1,1.377-.568,1.868,1.868,0,0,1,1.359.568,1.852,1.852,0,0,1,.574,1.365,1.866,1.866,0,0,1-.574,1.377A1.868,1.868,0,0,1,158.121-13.852ZM156.4,0V-12.047h3.4V0Zm12.5.234a7.575,7.575,0,0,1-3.41-.738,5.518,5.518,0,0,1-2.338-2.168,6.461,6.461,0,0,1-.85-3.363,5.893,5.893,0,0,1,1.828-4.57,6.782,6.782,0,0,1,4.77-1.676,6.8,6.8,0,0,1,4.781,1.676,5.893,5.893,0,0,1,1.828,4.57,5.926,5.926,0,0,1-1.828,4.588A6.784,6.784,0,0,1,168.9.234Zm-.035-2.684a3.092,3.092,0,0,0,2.385-.984,3.685,3.685,0,0,0,.908-2.6,3.685,3.685,0,0,0-.908-2.6,3.092,3.092,0,0,0-2.385-.984,2.979,2.979,0,0,0-2.314.99,3.719,3.719,0,0,0-.9,2.6,3.719,3.719,0,0,0,.9,2.6A2.979,2.979,0,0,0,168.867-2.449Zm17.449-9.6h3.211V-.9a9.012,9.012,0,0,1-.451,3,4.948,4.948,0,0,1-1.307,2.057,5.446,5.446,0,0,1-2,1.154,8.448,8.448,0,0,1-2.625.375q-4.77,0-6.211-3.738l2.8-1.2a4.087,4.087,0,0,0,1.3,1.746,3.316,3.316,0,0,0,1.98.563q3.129,0,3.129-3.715V-2.062a3.8,3.8,0,0,1-1.518,1.189,5.045,5.045,0,0,1-2.139.451,5.331,5.331,0,0,1-2.115-.428,5.373,5.373,0,0,1-1.752-1.2,5.565,5.565,0,0,1-1.189-1.893,6.641,6.641,0,0,1-.439-2.437,6.628,6.628,0,0,1,.439-2.443,5.341,5.341,0,0,1,1.2-1.869,5.5,5.5,0,0,1,1.758-1.172,5.425,5.425,0,0,1,2.127-.422,4.9,4.9,0,0,1,2.232.5,3.56,3.56,0,0,1,1.494,1.33Zm-5.174,7.969a2.954,2.954,0,0,0,2.209.926,2.954,2.954,0,0,0,2.215-.937,3.172,3.172,0,0,0,.9-2.285,3.2,3.2,0,0,0-.9-2.3,2.949,2.949,0,0,0-2.221-.937,2.953,2.953,0,0,0-2.221.92,3.2,3.2,0,0,0-.885,2.314A3.172,3.172,0,0,0,181.143-4.078Zm15.123-6.059a3.911,3.911,0,0,1,1.582-1.447,4.827,4.827,0,0,1,2.355-.6v3.012a4.564,4.564,0,0,0-2.883.727,3.172,3.172,0,0,0-.891,2.578V0h-3.4V-12.047h3.234Zm14.414-6.7L208.02-13.7h-2.074l3.07-4.312Zm1.313,13.57a11.27,11.27,0,0,0,.293,2.941V0h-3.152l-.27-1.312a3.917,3.917,0,0,1-1.687,1.16A6.219,6.219,0,0,1,205,.234a5.732,5.732,0,0,1-1.125-.105,3.824,3.824,0,0,1-1.014-.357,3.076,3.076,0,0,1-.838-.627,2.749,2.749,0,0,1-.562-.955,3.8,3.8,0,0,1-.211-1.307,3.623,3.623,0,0,1,.223-1.307,3.063,3.063,0,0,1,.586-.979A3.554,3.554,0,0,1,203-6.117a7.263,7.263,0,0,1,1.2-.516,14.282,14.282,0,0,1,1.43-.375l1.98-.445a2.184,2.184,0,0,0,.9-.381.76.76,0,0,0,.264-.6,1.243,1.243,0,0,0-.592-1.16,2.763,2.763,0,0,0-1.436-.352,2.066,2.066,0,0,0-2.355,1.84L201.4-8.648a4.045,4.045,0,0,1,1.746-2.748,6.94,6.94,0,0,1,3.785-.885q5.063,0,5.063,4.348Zm-5.941,1.219a2.714,2.714,0,0,0,2.086-.873,3.679,3.679,0,0,0,.809-2.584l-2.859.809a3.379,3.379,0,0,0-1.2.492,1.011,1.011,0,0,0-.416.867,1.122,1.122,0,0,0,.445.955A1.843,1.843,0,0,0,206.051-2.051Zm10.066-11.3a7.045,7.045,0,0,1,.152-1.535,4.672,4.672,0,0,1,.41-1.166,2.729,2.729,0,0,1,.686-.838,4.045,4.045,0,0,1,.891-.562,5.089,5.089,0,0,1,1.107-.34,9.714,9.714,0,0,1,1.271-.17Q221.262-18,222.07-18v2.7H222q-.328,0-.5.006t-.48.041a1.945,1.945,0,0,0-.486.105,2.478,2.478,0,0,0-.4.217,1.079,1.079,0,0,0-.352.352,2.124,2.124,0,0,0-.211.521,2.722,2.722,0,0,0-.088.727v1.289h2.59v2.59h-2.59V0h-3.363V-9.457h-2.355v-2.59h2.355Zm9.586-.5a1.9,1.9,0,0,1-1.383-.568,1.866,1.866,0,0,1-.574-1.377,1.843,1.843,0,0,1,.58-1.365,1.9,1.9,0,0,1,1.377-.568,1.868,1.868,0,0,1,1.359.568,1.852,1.852,0,0,1,.574,1.365,1.866,1.866,0,0,1-.574,1.377A1.868,1.868,0,0,1,225.7-13.852ZM223.98,0V-12.047h3.4V0Zm12.34.223a6.436,6.436,0,0,1-4.652-1.734,5.99,5.99,0,0,1-1.8-4.523,5.977,5.977,0,0,1,1.8-4.523,6.456,6.456,0,0,1,4.658-1.723,6.419,6.419,0,0,1,3.9,1.16,5.18,5.18,0,0,1,2.016,3.27l-3.117.34a2.671,2.671,0,0,0-1.008-1.582,3.064,3.064,0,0,0-1.828-.527,2.763,2.763,0,0,0-2.2.984,3.859,3.859,0,0,0-.844,2.6,3.864,3.864,0,0,0,.844,2.6,2.756,2.756,0,0,0,2.2.99,3.038,3.038,0,0,0,1.822-.527,2.733,2.733,0,0,0,1.014-1.582l3.117.34a5.194,5.194,0,0,1-2.033,3.27A6.393,6.393,0,0,1,236.32.223Zm18.2-3.492a11.27,11.27,0,0,0,.293,2.941V0H251.66l-.27-1.312A3.917,3.917,0,0,1,249.7-.152a6.219,6.219,0,0,1-2.18.387A5.732,5.732,0,0,1,246.4.129a3.824,3.824,0,0,1-1.014-.357,3.076,3.076,0,0,1-.838-.627,2.749,2.749,0,0,1-.562-.955,3.8,3.8,0,0,1-.211-1.307A3.623,3.623,0,0,1,244-4.424a3.063,3.063,0,0,1,.586-.979,3.554,3.554,0,0,1,.949-.715,7.263,7.263,0,0,1,1.2-.516,14.282,14.282,0,0,1,1.43-.375l1.98-.445a2.184,2.184,0,0,0,.9-.381.76.76,0,0,0,.264-.6,1.243,1.243,0,0,0-.592-1.16,2.763,2.763,0,0,0-1.436-.352,2.066,2.066,0,0,0-2.355,1.84l-2.988-.539a4.045,4.045,0,0,1,1.746-2.748,6.94,6.94,0,0,1,3.785-.885q5.063,0,5.063,4.348Zm-5.941,1.219a2.714,2.714,0,0,0,2.086-.873,3.679,3.679,0,0,0,.809-2.584l-2.859.809a3.379,3.379,0,0,0-1.2.492A1.011,1.011,0,0,0,247-3.34a1.122,1.122,0,0,0,.445.955A1.843,1.843,0,0,0,248.578-2.051Z" transform="translate(2584 -3992)" fill="#002b45"/>
  </g>
</svg>
