<svg xmlns="http://www.w3.org/2000/svg" xmlns:xlink="http://www.w3.org/1999/xlink" width="292.1" height="274.519" viewBox="0 0 292.1 274.519">
  <defs>
    <linearGradient id="linear-gradient" y1="0.5" x2="1" y2="0.5" gradientUnits="objectBoundingBox">
      <stop offset="0" stop-color="#d9d9d9"/>
      <stop offset="0.243" stop-color="#e4e4e4"/>
      <stop offset="0.643" stop-color="#f2f2f2"/>
      <stop offset="1" stop-color="#f7f7f7"/>
    </linearGradient>
  </defs>
  <g id="Grupo_13302" data-name="Grupo 13302" transform="translate(-7207.265 5744.309)">
    <path id="Trazado_19556" data-name="Trazado 19556" d="M935.514,686.029c-1.443,0-2.907-.023-4.354-.069l.068-2.188c2.885.089,5.807.086,8.661,0l.07,2.188C938.49,686,936.995,686.028,935.514,686.029Zm-13.132-.62c-2.907-.276-5.843-.649-8.727-1.111l.346-2.161c2.837.454,5.727.822,8.588,1.093Zm26.357-.009-.208-2.179c2.864-.274,5.754-.644,8.589-1.1l.348,2.161C954.587,684.746,951.65,685.122,948.739,685.4Zm-43.722-2.77c-2.854-.647-5.718-1.394-8.513-2.222l.622-2.1c2.75.814,5.568,1.55,8.375,2.187Zm61.089-.023-.486-2.135c2.8-.637,5.618-1.375,8.374-2.193l.623,2.1C971.816,681.208,968.952,681.958,966.106,682.606Zm-77.954-4.966c-2.743-1.008-5.491-2.12-8.168-3.3l.886-2c2.635,1.166,5.339,2.26,8.038,3.252Zm94.815-.036-.757-2.054c2.694-.992,5.393-2.087,8.023-3.254l.888,2C988.448,675.483,985.7,676.6,982.967,677.6Zm-110.919-7.09c-2.593-1.354-5.173-2.809-7.671-4.325l1.135-1.871c2.458,1.491,5,2.922,7.549,4.255Zm127-.042-1.014-1.94c2.547-1.332,5.085-2.765,7.539-4.258l1.137,1.872C1004.212,667.662,1001.634,669.118,999.045,670.471ZM857,661.381c-2.392-1.67-4.765-3.442-7.052-5.266l1.365-1.711c2.252,1.8,4.587,3.539,6.942,5.183Zm157.076-.044-1.254-1.794c2.359-1.65,4.692-3.4,6.934-5.187l1.367,1.71C1018.844,657.887,1016.473,659.66,1014.076,661.337Zm-170.83-10.928c-2.165-1.966-4.292-4.025-6.323-6.119l1.572-1.524c2,2.061,4.091,4.087,6.223,6.022Zm184.573-.053-1.472-1.621c2.126-1.932,4.219-3.961,6.218-6.027l1.573,1.522C1032.107,646.331,1029.981,648.392,1027.82,650.357ZM831.005,637.783c-1.893-2.219-3.74-4.531-5.492-6.869l1.752-1.313c1.724,2.3,3.542,4.577,5.4,6.761Zm209.048-.065-1.668-1.42c1.864-2.19,3.681-4.467,5.4-6.77l1.754,1.31C1043.793,633.177,1041.946,635.492,1040.053,637.718ZM820.472,623.707c-1.6-2.444-3.134-4.971-4.569-7.511l1.905-1.077c1.412,2.5,2.925,4.985,4.5,7.391Zm230.106-.086-1.834-1.2c1.568-2.406,3.079-4.9,4.491-7.4l1.907,1.075C1053.707,618.643,1052.171,621.175,1050.578,623.621ZM811.826,608.41c-1.27-2.627-2.471-5.328-3.568-8.029l2.029-.824c1.079,2.657,2.261,5.315,3.511,7.9Zm247.4-.112-1.971-.954c1.248-2.582,2.431-5.244,3.514-7.914l2.029.824C1061.692,602.966,1060.49,605.672,1059.221,608.3Zm-254.01-16.172c-.922-2.771-1.766-5.608-2.507-8.434l2.118-.555c.73,2.779,1.559,5.571,2.467,8.3Zm260.625-.134-2.078-.69c.906-2.73,1.734-5.523,2.461-8.3l2.118.553C1067.6,586.379,1066.756,589.218,1065.836,591.993ZM800.745,575.116c-.557-2.862-1.03-5.784-1.4-8.685l2.172-.279c.368,2.855.832,5.73,1.38,8.546Zm269.541-.143-2.149-.416c.546-2.82,1.007-5.7,1.371-8.551l2.172.276C1071.311,569.184,1070.841,572.107,1070.287,574.973ZM798.5,557.675c-.187-2.911-.283-5.87-.286-8.794l2.189,0c0,2.879.1,5.791.282,8.656Zm274.017-.154-2.185-.137c.181-2.868.272-5.781.272-8.658v-.264h2.189v.264C1072.792,551.648,1072.7,554.608,1072.515,557.521Zm-271.851-17.3-2.185-.135c.181-2.919.459-5.867.825-8.759l2.172.275C801.115,534.453,800.843,537.353,800.664,540.226Zm269.649-.417c-.187-2.881-.47-5.781-.838-8.621l2.171-.281c.374,2.885.66,5.832.852,8.759ZM802.837,523.058l-2.15-.414c.552-2.866,1.2-5.754,1.94-8.581l2.118.551C804.021,517.4,803.379,520.237,802.837,523.058Zm265.251-.417c-.552-2.818-1.2-5.657-1.937-8.439l2.117-.559c.745,2.827,1.408,5.713,1.968,8.578ZM807.2,506.311l-2.079-.687c.919-2.78,1.94-5.564,3.035-8.273l2.03.82C809.1,500.836,808.1,503.576,807.2,506.311Zm256.478-.4c-.914-2.733-1.928-5.464-3.011-8.12l2.026-.827c1.1,2.7,2.131,5.476,3.061,8.252ZM813.685,490.241l-1.972-.949c1.267-2.632,2.637-5.26,4.073-7.81l1.907,1.075C816.28,485.065,814.932,487.651,813.685,490.241Zm243.445-.36c-.914-1.881-1.886-3.768-2.89-5.611q-.564-1.032-1.141-2.056l1.905-1.077q.587,1.038,1.157,2.085c1.02,1.871,2.009,3.789,2.938,5.7ZM822.184,475.147l-1.835-1.195c1.592-2.446,3.286-4.875,5.036-7.22l1.754,1.308C825.418,470.349,823.751,472.74,822.184,475.147Zm226.408-.328c-1.568-2.4-3.24-4.782-4.97-7.09l1.752-1.313c1.758,2.345,3.457,4.769,5.051,7.206ZM832.538,461.266l-1.667-1.418c1.9-2.228,3.884-4.422,5.911-6.518l1.574,1.522C836.36,456.915,834.4,459.072,832.538,461.266Zm205.672-.295c-1.865-2.183-3.829-4.337-5.834-6.4l1.57-1.527c2.038,2.1,4.033,4.285,5.929,6.5Zm-193.641-12.15-1.474-1.618c2.157-1.965,4.408-3.887,6.69-5.711l1.367,1.708C848.907,445,846.692,446.887,844.569,448.821Zm181.576-.265c-2.138-1.935-4.359-3.821-6.6-5.606l1.362-1.713c2.28,1.813,4.536,3.729,6.709,5.7ZM858.078,438.01l-1.255-1.793c2.4-1.68,4.874-3.3,7.359-4.812l1.138,1.87C862.875,434.765,860.438,436.358,858.078,438.01Zm154.519-.233c-2.358-1.642-4.8-3.23-7.261-4.718l1.132-1.873c2.5,1.513,4.983,3.126,7.38,4.794Zm-139.748-8.764-1.017-1.938c2.583-1.355,5.244-2.643,7.91-3.829l.89,2C878.009,426.413,875.39,427.681,872.849,429.014Zm124.938-.2c-2.549-1.326-5.175-2.587-7.806-3.748l.884-2c2.674,1.18,5.343,2.461,7.933,3.808Zm-109.148-6.828-.76-2.053c2.734-1.011,5.541-1.948,8.346-2.785l.626,2.1C894.091,420.071,891.328,420.992,888.639,421.988Zm93.309-.158c-2.7-.988-5.469-1.9-8.225-2.713l.619-2.1c2.8.825,5.612,1.752,8.359,2.758Zm-76.725-4.785-.489-2.134c2.844-.652,5.749-1.219,8.634-1.687l.351,2.161C910.88,415.845,908.021,416.4,905.222,417.045Zm60.117-.1c-2.8-.63-5.658-1.179-8.5-1.63l.343-2.162c2.892.459,5.8,1.016,8.643,1.657ZM922.3,414.275l-.212-2.18c2.9-.281,5.854-.473,8.777-.57l.072,2.188C928.065,413.809,925.158,414,922.3,414.275Zm25.944-.046c-2.858-.267-5.765-.446-8.644-.531l.066-2.188c2.924.086,5.878.268,8.782.54Z" transform="translate(6426.573 -6155.818)"/>
    <path id="Trazado_19746" data-name="Trazado 19746" d="M1063.173,554.365a121.988,121.988,0,1,1-14.778-58.212A121.265,121.265,0,0,1,1063.173,554.365Z" transform="translate(6420.913 -6161.455)" fill="url(#linear-gradient)"/>
    <path id="Trazado_19751" data-name="Trazado 19751" d="M11.459,16.148a3.641,3.641,0,0,1-2.07-.555,2.294,2.294,0,0,1-1.008-1.578l1.18-.336a1.645,1.645,0,0,0,.629,1.066,2.04,2.04,0,0,0,1.262.379,2.518,2.518,0,0,0,.738-.1,1.184,1.184,0,0,0,.566-.379,1.057,1.057,0,0,0,.164-1.016,1.357,1.357,0,0,0-.125-.254.774.774,0,0,0-.219-.211A2.885,2.885,0,0,0,12.31,13a2.726,2.726,0,0,0-.348-.145q-.23-.082-.371-.125t-.43-.125q-.289-.082-.445-.129a8.33,8.33,0,0,1-.8-.281,3.5,3.5,0,0,1-.648-.371,1.493,1.493,0,0,1-.5-.605,2.049,2.049,0,0,1-.168-.859,1.986,1.986,0,0,1,.375-1.227,2.11,2.11,0,0,1,.973-.723,3.888,3.888,0,0,1,1.363-.223,3.337,3.337,0,0,1,1.871.5,2.134,2.134,0,0,1,.934,1.5l-1.109.281A1.471,1.471,0,0,0,12.42,9.5a1.865,1.865,0,0,0-1.1-.324,1.9,1.9,0,0,0-1.031.27.906.906,0,0,0-.43.824.82.82,0,0,0,.113.426,1.352,1.352,0,0,0,.23.3,1.417,1.417,0,0,0,.422.23q.3.121.453.164t.563.145q.078.023.117.031.453.117.738.207a4.538,4.538,0,0,1,.664.281,2.208,2.208,0,0,1,.6.418,1.936,1.936,0,0,1,.375.594,2.1,2.1,0,0,1,.156.828,2.237,2.237,0,0,1-.23,1.035,1.8,1.8,0,0,1-.629.707,3.042,3.042,0,0,1-.895.387A4.262,4.262,0,0,1,11.459,16.148Zm11.672-4.141-.016.367h-6a2.714,2.714,0,0,0,.734,1.965,2.411,2.411,0,0,0,1.75.684,2.3,2.3,0,0,0,1.273-.367,2.383,2.383,0,0,0,.875-1.016l1.219.258a3.464,3.464,0,0,1-1.312,1.648,3.581,3.581,0,0,1-2.039.6,3.71,3.71,0,0,1-2.766-1.07,3.982,3.982,0,0,1-1.055-2.922,3.962,3.962,0,0,1,1.059-2.914,3.664,3.664,0,0,1,2.723-1.07,3.467,3.467,0,0,1,2.582.984A3.889,3.889,0,0,1,23.131,12.008Zm-3.555-2.8a2.4,2.4,0,0,0-1.6.543,2.488,2.488,0,0,0-.809,1.582h4.6A2.282,2.282,0,0,0,21.1,9.754,2.17,2.17,0,0,0,19.576,9.211ZM34.185,8.32h1.352V16h-1.3l-.031-1.016a2.4,2.4,0,0,1-.953.863,2.932,2.932,0,0,1-1.344.3,2.671,2.671,0,0,1-1.934-.7,2.594,2.594,0,0,1-.723-1.961V8.32h1.352v4.867a1.822,1.822,0,0,0,.473,1.375,1.673,1.673,0,0,0,1.207.453,1.837,1.837,0,0,0,1.363-.531,2.164,2.164,0,0,0,.535-1.57Zm7.727-.148a2.671,2.671,0,0,1,1.934.7,2.594,2.594,0,0,1,.723,1.961V16H43.216V11.133a1.816,1.816,0,0,0-.469-1.375,1.676,1.676,0,0,0-1.2-.445,1.858,1.858,0,0,0-1.367.527,2.14,2.14,0,0,0-.539,1.566V16H38.287V8.32h1.352V9.3A2.565,2.565,0,0,1,41.912,8.172ZM53.9,12.008l-.016.367h-6a2.714,2.714,0,0,0,.734,1.965,2.411,2.411,0,0,0,1.75.684,2.3,2.3,0,0,0,1.273-.367,2.383,2.383,0,0,0,.875-1.016l1.219.258a3.464,3.464,0,0,1-1.312,1.648,3.581,3.581,0,0,1-2.039.6,3.71,3.71,0,0,1-2.766-1.07,3.982,3.982,0,0,1-1.055-2.922,3.962,3.962,0,0,1,1.059-2.914,3.664,3.664,0,0,1,2.723-1.07,3.467,3.467,0,0,1,2.582.984A3.889,3.889,0,0,1,53.9,12.008Zm-3.555-2.8a2.4,2.4,0,0,0-1.6.543,2.488,2.488,0,0,0-.809,1.582h4.6a2.282,2.282,0,0,0-.672-1.582A2.17,2.17,0,0,0,50.341,9.211Zm9.3-1.039a2.671,2.671,0,0,1,1.934.7,2.594,2.594,0,0,1,.723,1.961V16H60.943V11.133a1.816,1.816,0,0,0-.469-1.375,1.676,1.676,0,0,0-1.2-.445A1.858,1.858,0,0,0,57.9,9.84a2.14,2.14,0,0,0-.539,1.566V16H56.013V8.32h1.352V9.3A2.565,2.565,0,0,1,59.638,8.172Zm12.609,7.969a3.7,3.7,0,0,1-2.75-1.1,3.929,3.929,0,0,1-1.086-2.883,3.937,3.937,0,0,1,1.082-2.883,4,4,0,0,1,4.977-.43,3.391,3.391,0,0,1,1.293,1.867l-1.266.2a2.337,2.337,0,0,0-.867-1.2A2.361,2.361,0,0,0,72.24,9.3a2.27,2.27,0,0,0-1.777.789,3.006,3.006,0,0,0-.7,2.07,2.991,2.991,0,0,0,.7,2.066,2.275,2.275,0,0,0,1.777.785,2.361,2.361,0,0,0,1.391-.422,2.337,2.337,0,0,0,.867-1.2l1.266.211a3.4,3.4,0,0,1-1.3,1.863A3.72,3.72,0,0,1,72.248,16.141Zm7.281.008a2.613,2.613,0,0,1-1.684-.527,1.894,1.894,0,0,1-.66-1.574,2.237,2.237,0,0,1,.211-1,1.77,1.77,0,0,1,.625-.7,3.749,3.749,0,0,1,.9-.434,8.341,8.341,0,0,1,1.168-.277l1.242-.2q.68-.125.68-.711a1.342,1.342,0,0,0-.48-1.145,1.958,1.958,0,0,0-1.215-.363,1.994,1.994,0,0,0-1.2.352,1.471,1.471,0,0,0-.57,1.078l-1.219-.258a2.346,2.346,0,0,1,.961-1.645,3.59,3.59,0,0,1,2.094-.551,4.247,4.247,0,0,1,1.113.137,3.025,3.025,0,0,1,.93.43,1.927,1.927,0,0,1,.664.828,3.081,3.081,0,0,1,.238,1.262v3.172a1.3,1.3,0,0,0,.176.8.759.759,0,0,0,.605.207h.125V16H83.56a1.281,1.281,0,0,1-1.453-1.039h-.062A2.935,2.935,0,0,1,79.529,16.148Zm.313-1.094a2.049,2.049,0,0,0,1.648-.742,3.056,3.056,0,0,0,.625-2.031l-2.031.391a2.734,2.734,0,0,0-1.191.426.99.99,0,0,0-.387.84.979.979,0,0,0,.371.844A1.586,1.586,0,0,0,79.841,15.055ZM91.654,4h1.352V16H91.7l-.031-1.492a2.826,2.826,0,0,1-1.094,1.211,3.048,3.048,0,0,1-1.625.445,3.49,3.49,0,0,1-2.535-1.082,3.7,3.7,0,0,1-.773-1.27,4.644,4.644,0,0,1-.285-1.648A4.038,4.038,0,0,1,86.4,9.281a3.367,3.367,0,0,1,2.551-1.109,3.061,3.061,0,0,1,1.605.434,2.842,2.842,0,0,1,1.1,1.176ZM89.232,14.992a2.3,2.3,0,0,0,1.785-.809,2.919,2.919,0,0,0,.723-2.02,2.913,2.913,0,0,0-.727-2.016,2.3,2.3,0,0,0-1.781-.812,2.35,2.35,0,0,0-1.8.785,2.889,2.889,0,0,0-.727,2.043,2.889,2.889,0,0,0,.727,2.043A2.35,2.35,0,0,0,89.232,14.992Zm8.3,1.156a2.613,2.613,0,0,1-1.684-.527,1.894,1.894,0,0,1-.66-1.574,2.237,2.237,0,0,1,.211-1,1.77,1.77,0,0,1,.625-.7,3.749,3.749,0,0,1,.9-.434,8.341,8.341,0,0,1,1.168-.277l1.242-.2q.68-.125.68-.711a1.342,1.342,0,0,0-.48-1.145,1.958,1.958,0,0,0-1.215-.363,1.994,1.994,0,0,0-1.2.352,1.471,1.471,0,0,0-.57,1.078l-1.219-.258a2.346,2.346,0,0,1,.961-1.645,3.59,3.59,0,0,1,2.094-.551,4.247,4.247,0,0,1,1.113.137,3.025,3.025,0,0,1,.93.43,1.927,1.927,0,0,1,.664.828,3.081,3.081,0,0,1,.238,1.262v3.172a1.3,1.3,0,0,0,.176.8.759.759,0,0,0,.605.207h.125V16h-.672a1.281,1.281,0,0,1-1.453-1.039h-.062A2.935,2.935,0,0,1,97.529,16.148Zm.313-1.094a2.049,2.049,0,0,0,1.648-.742,3.056,3.056,0,0,0,.625-2.031l-2.031.391a2.734,2.734,0,0,0-1.191.426.99.99,0,0,0-.387.84.979.979,0,0,0,.371.844A1.586,1.586,0,0,0,97.841,15.055ZM113.076,8.32h1.352V16h-1.3l-.031-1.016a2.4,2.4,0,0,1-.953.863,2.932,2.932,0,0,1-1.344.3,2.671,2.671,0,0,1-1.934-.7,2.594,2.594,0,0,1-.723-1.961V8.32H109.5v4.867a1.822,1.822,0,0,0,.473,1.375,1.673,1.673,0,0,0,1.207.453,1.837,1.837,0,0,0,1.363-.531,2.164,2.164,0,0,0,.535-1.57Zm7.727-.148a2.671,2.671,0,0,1,1.934.7,2.594,2.594,0,0,1,.723,1.961V16h-1.352V11.133a1.816,1.816,0,0,0-.469-1.375,1.676,1.676,0,0,0-1.2-.445,1.858,1.858,0,0,0-1.367.527,2.14,2.14,0,0,0-.539,1.566V16h-1.352V8.32h1.352V9.3A2.565,2.565,0,0,1,120.8,8.172Zm7.039,7.977a2.613,2.613,0,0,1-1.684-.527,1.894,1.894,0,0,1-.66-1.574,2.237,2.237,0,0,1,.211-1,1.77,1.77,0,0,1,.625-.7,3.749,3.749,0,0,1,.9-.434,8.341,8.341,0,0,1,1.168-.277l1.242-.2q.68-.125.68-.711a1.342,1.342,0,0,0-.48-1.145,1.958,1.958,0,0,0-1.215-.363,1.994,1.994,0,0,0-1.2.352,1.471,1.471,0,0,0-.57,1.078l-1.219-.258a2.346,2.346,0,0,1,.961-1.645,3.59,3.59,0,0,1,2.094-.551,4.247,4.247,0,0,1,1.113.137,3.026,3.026,0,0,1,.93.43,1.927,1.927,0,0,1,.664.828,3.081,3.081,0,0,1,.238,1.262v3.172a1.3,1.3,0,0,0,.176.8.759.759,0,0,0,.605.207h.125V16h-.672a1.281,1.281,0,0,1-1.453-1.039h-.062A2.935,2.935,0,0,1,127.841,16.148Zm.313-1.094a2.049,2.049,0,0,0,1.648-.742,3.056,3.056,0,0,0,.625-2.031l-2.031.391a2.734,2.734,0,0,0-1.191.426.99.99,0,0,0-.387.84.979.979,0,0,0,.371.844A1.586,1.586,0,0,0,128.154,15.055ZM144.279,4h1.352V16h-1.3l-.031-1.492a2.826,2.826,0,0,1-1.094,1.211,3.048,3.048,0,0,1-1.625.445,3.49,3.49,0,0,1-2.535-1.082,3.7,3.7,0,0,1-.773-1.27,4.644,4.644,0,0,1-.285-1.648,4.038,4.038,0,0,1,1.043-2.883,3.367,3.367,0,0,1,2.551-1.109,3.061,3.061,0,0,1,1.605.434,2.842,2.842,0,0,1,1.1,1.176Zm-2.422,10.992a2.3,2.3,0,0,0,1.785-.809,2.919,2.919,0,0,0,.723-2.02,2.913,2.913,0,0,0-.727-2.016,2.3,2.3,0,0,0-1.781-.812,2.35,2.35,0,0,0-1.8.785,2.889,2.889,0,0,0-.727,2.043,2.889,2.889,0,0,0,.727,2.043A2.35,2.35,0,0,0,141.857,14.992ZM155.1,12.008l-.016.367h-6a2.714,2.714,0,0,0,.734,1.965,2.411,2.411,0,0,0,1.75.684,2.3,2.3,0,0,0,1.273-.367,2.383,2.383,0,0,0,.875-1.016l1.219.258a3.464,3.464,0,0,1-1.312,1.648,3.581,3.581,0,0,1-2.039.6,3.71,3.71,0,0,1-2.766-1.07,3.982,3.982,0,0,1-1.055-2.922,3.962,3.962,0,0,1,1.059-2.914,3.664,3.664,0,0,1,2.723-1.07,3.467,3.467,0,0,1,2.582.984A3.889,3.889,0,0,1,155.1,12.008Zm-3.555-2.8a2.4,2.4,0,0,0-1.6.543,2.488,2.488,0,0,0-.809,1.582h4.6a2.282,2.282,0,0,0-.672-1.582A2.17,2.17,0,0,0,151.545,9.211ZM161.373,16V4h1.367V16Zm5.891.148a2.613,2.613,0,0,1-1.684-.527,1.894,1.894,0,0,1-.66-1.574,2.237,2.237,0,0,1,.211-1,1.77,1.77,0,0,1,.625-.7,3.749,3.749,0,0,1,.9-.434,8.341,8.341,0,0,1,1.168-.277l1.242-.2q.68-.125.68-.711a1.342,1.342,0,0,0-.48-1.145,1.958,1.958,0,0,0-1.215-.363,1.994,1.994,0,0,0-1.2.352,1.471,1.471,0,0,0-.57,1.078l-1.219-.258a2.346,2.346,0,0,1,.961-1.645,3.59,3.59,0,0,1,2.094-.551,4.247,4.247,0,0,1,1.113.137,3.026,3.026,0,0,1,.93.43,1.927,1.927,0,0,1,.664.828,3.081,3.081,0,0,1,.238,1.262v3.172a1.3,1.3,0,0,0,.176.8.759.759,0,0,0,.605.207h.125V16h-.672a1.281,1.281,0,0,1-1.453-1.039h-.062A2.935,2.935,0,0,1,167.263,16.148Zm.313-1.094a2.049,2.049,0,0,0,1.648-.742,3.056,3.056,0,0,0,.625-2.031l-2.031.391a2.734,2.734,0,0,0-1.191.426.99.99,0,0,0-.387.84.979.979,0,0,0,.371.844A1.586,1.586,0,0,0,167.576,15.055Zm8.727,1.094a3.641,3.641,0,0,1-2.07-.555,2.294,2.294,0,0,1-1.008-1.578l1.18-.336a1.645,1.645,0,0,0,.629,1.066,2.04,2.04,0,0,0,1.262.379,2.518,2.518,0,0,0,.738-.1,1.183,1.183,0,0,0,.566-.379,1.057,1.057,0,0,0,.164-1.016,1.356,1.356,0,0,0-.125-.254.774.774,0,0,0-.219-.211,2.884,2.884,0,0,0-.266-.164,2.727,2.727,0,0,0-.348-.145q-.23-.082-.371-.125t-.43-.125q-.289-.082-.445-.129a8.329,8.329,0,0,1-.8-.281,3.5,3.5,0,0,1-.648-.371,1.493,1.493,0,0,1-.5-.605,2.048,2.048,0,0,1-.168-.859,1.986,1.986,0,0,1,.375-1.227,2.11,2.11,0,0,1,.973-.723,3.888,3.888,0,0,1,1.363-.223,3.337,3.337,0,0,1,1.871.5,2.134,2.134,0,0,1,.934,1.5l-1.109.281a1.471,1.471,0,0,0-.586-.973,1.866,1.866,0,0,0-1.1-.324,1.9,1.9,0,0,0-1.031.27.906.906,0,0,0-.43.824.82.82,0,0,0,.113.426,1.352,1.352,0,0,0,.23.3,1.417,1.417,0,0,0,.422.23q.3.121.453.164t.563.145q.078.023.117.031.453.117.738.207a4.538,4.538,0,0,1,.664.281,2.208,2.208,0,0,1,.6.418,1.937,1.937,0,0,1,.375.594,2.1,2.1,0,0,1,.156.828,2.237,2.237,0,0,1-.23,1.035,1.8,1.8,0,0,1-.629.707,3.042,3.042,0,0,1-.895.387A4.262,4.262,0,0,1,176.3,16.148ZM18.384,32.172a3.493,3.493,0,0,1,1.391.281,3.421,3.421,0,0,1,1.141.789,3.688,3.688,0,0,1,.77,1.266,4.667,4.667,0,0,1,.285,1.656,4.061,4.061,0,0,1-1.035,2.9,3.362,3.362,0,0,1-2.551,1.1,3.04,3.04,0,0,1-1.605-.437,2.867,2.867,0,0,1-1.1-1.18v5.32H14.33V32.32h1.3l.031,1.492a2.811,2.811,0,0,1,1.094-1.2A3.068,3.068,0,0,1,18.384,32.172Zm-.266,6.82a2.332,2.332,0,0,0,1.777-.777,3.266,3.266,0,0,0,0-4.1,2.423,2.423,0,0,0-3.582.035,3.133,3.133,0,0,0,0,4.031A2.343,2.343,0,0,0,18.119,38.992Zm6.672-8.477a.92.92,0,0,1-.914-.914.867.867,0,0,1,.27-.641.886.886,0,0,1,.645-.266.877.877,0,0,1,.637.266.867.867,0,0,1,.27.641.88.88,0,0,1-.27.645A.871.871,0,0,1,24.791,30.516ZM24.1,40V32.32h1.359V40Zm10.828-3.992-.016.367h-6a2.714,2.714,0,0,0,.734,1.965,2.411,2.411,0,0,0,1.75.684,2.3,2.3,0,0,0,1.273-.367,2.383,2.383,0,0,0,.875-1.016l1.219.258a3.464,3.464,0,0,1-1.312,1.648,3.581,3.581,0,0,1-2.039.6,3.71,3.71,0,0,1-2.766-1.07A3.982,3.982,0,0,1,27.6,36.156a3.962,3.962,0,0,1,1.059-2.914,3.664,3.664,0,0,1,2.723-1.07,3.467,3.467,0,0,1,2.582.984A3.889,3.889,0,0,1,34.931,36.008Zm-3.555-2.8a2.4,2.4,0,0,0-1.6.543,2.488,2.488,0,0,0-.809,1.582h4.6a2.282,2.282,0,0,0-.672-1.582A2.17,2.17,0,0,0,31.377,33.211Zm6.508,5.7h4.094V40H35.853L39.9,33.422H36.088v-1.1H41.97Zm7.469,1.242a2.613,2.613,0,0,1-1.684-.527,1.894,1.894,0,0,1-.66-1.574,2.237,2.237,0,0,1,.211-1,1.77,1.77,0,0,1,.625-.7,3.749,3.749,0,0,1,.9-.434,8.341,8.341,0,0,1,1.168-.277l1.242-.2q.68-.125.68-.711a1.342,1.342,0,0,0-.48-1.145,1.958,1.958,0,0,0-1.215-.363,1.994,1.994,0,0,0-1.2.352,1.471,1.471,0,0,0-.57,1.078l-1.219-.258a2.346,2.346,0,0,1,.961-1.645,3.59,3.59,0,0,1,2.094-.551,4.247,4.247,0,0,1,1.113.137,3.025,3.025,0,0,1,.93.43,1.927,1.927,0,0,1,.664.828,3.081,3.081,0,0,1,.238,1.262v3.172a1.3,1.3,0,0,0,.176.8.759.759,0,0,0,.605.207h.125V40h-.672a1.281,1.281,0,0,1-1.453-1.039h-.062A2.935,2.935,0,0,1,45.353,40.148Zm.313-1.094a2.049,2.049,0,0,0,1.648-.742,3.056,3.056,0,0,0,.625-2.031l-2.031.391a2.734,2.734,0,0,0-1.191.426.99.99,0,0,0-.387.84.979.979,0,0,0,.371.844A1.586,1.586,0,0,0,45.666,39.055Zm8.727,1.094a3.641,3.641,0,0,1-2.07-.555,2.294,2.294,0,0,1-1.008-1.578l1.18-.336a1.645,1.645,0,0,0,.629,1.066,2.04,2.04,0,0,0,1.262.379,2.518,2.518,0,0,0,.738-.1,1.184,1.184,0,0,0,.566-.379,1.057,1.057,0,0,0,.164-1.016,1.356,1.356,0,0,0-.125-.254.774.774,0,0,0-.219-.211A2.885,2.885,0,0,0,55.244,37a2.726,2.726,0,0,0-.348-.145q-.23-.082-.371-.125t-.43-.125q-.289-.082-.445-.129a8.329,8.329,0,0,1-.8-.281,3.5,3.5,0,0,1-.648-.371,1.493,1.493,0,0,1-.5-.605,2.049,2.049,0,0,1-.168-.859,1.986,1.986,0,0,1,.375-1.227,2.11,2.11,0,0,1,.973-.723,3.888,3.888,0,0,1,1.363-.223,3.337,3.337,0,0,1,1.871.5,2.134,2.134,0,0,1,.934,1.5l-1.109.281a1.471,1.471,0,0,0-.586-.973,1.865,1.865,0,0,0-1.1-.324,1.9,1.9,0,0,0-1.031.27.906.906,0,0,0-.43.824.82.82,0,0,0,.113.426,1.352,1.352,0,0,0,.23.3,1.417,1.417,0,0,0,.422.23q.3.121.453.164t.563.145q.078.023.117.031.453.117.738.207a4.538,4.538,0,0,1,.664.281,2.208,2.208,0,0,1,.6.418,1.936,1.936,0,0,1,.375.594,2.1,2.1,0,0,1,.156.828,2.237,2.237,0,0,1-.23,1.035,1.8,1.8,0,0,1-.629.707,3.042,3.042,0,0,1-.895.387A4.262,4.262,0,0,1,54.392,40.148Zm13.164-7.977a3.493,3.493,0,0,1,1.391.281,3.421,3.421,0,0,1,1.141.789,3.688,3.688,0,0,1,.77,1.266,4.667,4.667,0,0,1,.285,1.656,4.061,4.061,0,0,1-1.035,2.9,3.362,3.362,0,0,1-2.551,1.1,3.04,3.04,0,0,1-1.605-.437,2.867,2.867,0,0,1-1.1-1.18v5.32H63.5V32.32h1.3l.031,1.492a2.811,2.811,0,0,1,1.094-1.2A3.068,3.068,0,0,1,67.556,32.172Zm-.266,6.82a2.332,2.332,0,0,0,1.777-.777,3.266,3.266,0,0,0,0-4.1,2.423,2.423,0,0,0-3.582.035,3.133,3.133,0,0,0,0,4.031A2.343,2.343,0,0,0,67.291,38.992Zm7.758,1.156a2.613,2.613,0,0,1-1.684-.527,1.894,1.894,0,0,1-.66-1.574,2.237,2.237,0,0,1,.211-1,1.77,1.77,0,0,1,.625-.7,3.749,3.749,0,0,1,.9-.434,8.342,8.342,0,0,1,1.168-.277l1.242-.2q.68-.125.68-.711a1.342,1.342,0,0,0-.48-1.145,1.958,1.958,0,0,0-1.215-.363,1.994,1.994,0,0,0-1.2.352,1.471,1.471,0,0,0-.57,1.078l-1.219-.258a2.346,2.346,0,0,1,.961-1.645,3.59,3.59,0,0,1,2.094-.551,4.247,4.247,0,0,1,1.113.137,3.025,3.025,0,0,1,.93.43,1.927,1.927,0,0,1,.664.828,3.081,3.081,0,0,1,.238,1.262v3.172a1.3,1.3,0,0,0,.176.8.759.759,0,0,0,.605.207h.125V40H79.08a1.281,1.281,0,0,1-1.453-1.039h-.062A2.935,2.935,0,0,1,75.048,40.148Zm.313-1.094a2.049,2.049,0,0,0,1.648-.742,3.056,3.056,0,0,0,.625-2.031l-2.031.391a2.734,2.734,0,0,0-1.191.426.99.99,0,0,0-.387.84.979.979,0,0,0,.371.844A1.586,1.586,0,0,0,75.361,39.055Zm7.617-5.383a2.322,2.322,0,0,1,.953-1.031,2.87,2.87,0,0,1,1.477-.406v1.273a2.53,2.53,0,0,0-1.785.57,2.382,2.382,0,0,0-.613,1.82V40H81.658V32.32h1.32Zm5.7,6.477a2.613,2.613,0,0,1-1.684-.527,1.894,1.894,0,0,1-.66-1.574,2.237,2.237,0,0,1,.211-1,1.77,1.77,0,0,1,.625-.7,3.749,3.749,0,0,1,.9-.434,8.342,8.342,0,0,1,1.168-.277l1.242-.2q.68-.125.68-.711a1.342,1.342,0,0,0-.48-1.145,1.958,1.958,0,0,0-1.215-.363,1.994,1.994,0,0,0-1.2.352,1.471,1.471,0,0,0-.57,1.078l-1.219-.258a2.346,2.346,0,0,1,.961-1.645,3.59,3.59,0,0,1,2.094-.551,4.247,4.247,0,0,1,1.113.137,3.025,3.025,0,0,1,.93.43,1.927,1.927,0,0,1,.664.828,3.081,3.081,0,0,1,.238,1.262v3.172a1.3,1.3,0,0,0,.176.8.759.759,0,0,0,.605.207h.125V40H92.7a1.281,1.281,0,0,1-1.453-1.039h-.062A2.935,2.935,0,0,1,88.673,40.148Zm.313-1.094a2.049,2.049,0,0,0,1.648-.742,3.056,3.056,0,0,0,.625-2.031l-2.031.391a2.734,2.734,0,0,0-1.191.426.99.99,0,0,0-.387.84.979.979,0,0,0,.371.844A1.586,1.586,0,0,0,88.986,39.055Zm13.977-9.922h-.293q-.09,0-.281.016a1.8,1.8,0,0,0-.281.039q-.09.023-.242.078a.618.618,0,0,0-.23.133q-.078.078-.18.2a.816.816,0,0,0-.152.281,2.689,2.689,0,0,0-.086.375,2.991,2.991,0,0,0-.035.48V32.32h1.781V33.4h-1.781V40H99.838V33.4H98.353V32.32h1.484V30.711a4.417,4.417,0,0,1,.082-.895,2.9,2.9,0,0,1,.219-.676,1.606,1.606,0,0,1,.363-.488,2.137,2.137,0,0,1,.473-.332,2.346,2.346,0,0,1,.582-.2,5.463,5.463,0,0,1,.66-.1q.324-.027.746-.027Zm4.7,11.016a4.048,4.048,0,0,1-1.969-.477,3.47,3.47,0,0,1-1.387-1.395,4.283,4.283,0,0,1-.512-2.121,3.912,3.912,0,0,1,1.09-2.895,4.089,4.089,0,0,1,5.559,0,3.92,3.92,0,0,1,1.086,2.895,3.923,3.923,0,0,1-1.09,2.9A3.762,3.762,0,0,1,107.666,40.148Zm-.008-1.125a2.359,2.359,0,0,0,1.816-.789,3.338,3.338,0,0,0,0-4.148,2.359,2.359,0,0,0-1.816-.789,2.326,2.326,0,0,0-1.8.789,3.367,3.367,0,0,0,0,4.148A2.326,2.326,0,0,0,107.658,39.023Zm7.313-5.352a2.322,2.322,0,0,1,.953-1.031,2.87,2.87,0,0,1,1.477-.406v1.273a2.53,2.53,0,0,0-1.785.57A2.382,2.382,0,0,0,115,35.9V40H113.65V32.32h1.32Zm11.867-1.5a2.476,2.476,0,0,1,1.789.652,2.42,2.42,0,0,1,.68,1.832V40h-1.352V35.008a1.735,1.735,0,0,0-.422-1.266,1.436,1.436,0,0,0-1.07-.43,1.517,1.517,0,0,0-1.172.484,2.083,2.083,0,0,0-.445,1.453V40H123.47V35.063a1.815,1.815,0,0,0-.426-1.309,1.448,1.448,0,0,0-1.09-.441,1.5,1.5,0,0,0-1.168.5,2.155,2.155,0,0,0-.449,1.488V40h-1.352V32.32h1.352v.992a2.333,2.333,0,0,1,.879-.844,2.506,2.506,0,0,1,1.223-.3,2.609,2.609,0,0,1,1.313.324,2.018,2.018,0,0,1,.852.934,2.39,2.39,0,0,1,.922-.934A2.637,2.637,0,0,1,126.838,32.172Zm6.859,7.977a2.613,2.613,0,0,1-1.684-.527,1.894,1.894,0,0,1-.66-1.574,2.237,2.237,0,0,1,.211-1,1.77,1.77,0,0,1,.625-.7,3.749,3.749,0,0,1,.9-.434,8.341,8.341,0,0,1,1.168-.277l1.242-.2q.68-.125.68-.711a1.342,1.342,0,0,0-.48-1.145,1.958,1.958,0,0,0-1.215-.363,1.994,1.994,0,0,0-1.2.352,1.471,1.471,0,0,0-.57,1.078l-1.219-.258a2.346,2.346,0,0,1,.961-1.645,3.59,3.59,0,0,1,2.094-.551,4.247,4.247,0,0,1,1.113.137,3.026,3.026,0,0,1,.93.43,1.927,1.927,0,0,1,.664.828,3.081,3.081,0,0,1,.238,1.262v3.172a1.3,1.3,0,0,0,.176.8.759.759,0,0,0,.605.207h.125V40h-.672a1.281,1.281,0,0,1-1.453-1.039h-.062A2.935,2.935,0,0,1,133.7,40.148Zm.313-1.094a2.049,2.049,0,0,0,1.648-.742,3.056,3.056,0,0,0,.625-2.031l-2.031.391a2.734,2.734,0,0,0-1.191.426.99.99,0,0,0-.387.84.979.979,0,0,0,.371.844A1.586,1.586,0,0,0,134.009,39.055Zm7.617-5.383a2.322,2.322,0,0,1,.953-1.031,2.87,2.87,0,0,1,1.477-.406v1.273a2.53,2.53,0,0,0-1.785.57,2.382,2.382,0,0,0-.613,1.82V40h-1.352V32.32h1.32ZM154.58,32.32h1.352V40h-1.3l-.031-1.016a2.4,2.4,0,0,1-.953.863,2.932,2.932,0,0,1-1.344.3,2.671,2.671,0,0,1-1.934-.7,2.594,2.594,0,0,1-.723-1.961V32.32H151v4.867a1.822,1.822,0,0,0,.473,1.375,1.673,1.673,0,0,0,1.207.453,1.837,1.837,0,0,0,1.363-.531,2.164,2.164,0,0,0,.535-1.57Zm7.727-.148a2.671,2.671,0,0,1,1.934.7,2.594,2.594,0,0,1,.723,1.961V40h-1.352V35.133a1.816,1.816,0,0,0-.469-1.375,1.676,1.676,0,0,0-1.2-.445,1.858,1.858,0,0,0-1.367.527,2.14,2.14,0,0,0-.539,1.566V40h-1.352V32.32h1.352V33.3A2.565,2.565,0,0,1,162.306,32.172Zm7.039,7.977a2.613,2.613,0,0,1-1.684-.527,1.894,1.894,0,0,1-.66-1.574,2.237,2.237,0,0,1,.211-1,1.77,1.77,0,0,1,.625-.7,3.749,3.749,0,0,1,.9-.434,8.341,8.341,0,0,1,1.168-.277l1.242-.2q.68-.125.68-.711a1.342,1.342,0,0,0-.48-1.145,1.958,1.958,0,0,0-1.215-.363,1.994,1.994,0,0,0-1.2.352,1.471,1.471,0,0,0-.57,1.078l-1.219-.258a2.346,2.346,0,0,1,.961-1.645,3.59,3.59,0,0,1,2.094-.551,4.247,4.247,0,0,1,1.113.137,3.026,3.026,0,0,1,.93.43,1.927,1.927,0,0,1,.664.828,3.081,3.081,0,0,1,.238,1.262v3.172a1.3,1.3,0,0,0,.176.8.759.759,0,0,0,.605.207h.125V40h-.672a1.281,1.281,0,0,1-1.453-1.039h-.062A2.935,2.935,0,0,1,169.345,40.148Zm.313-1.094a2.049,2.049,0,0,0,1.648-.742,3.056,3.056,0,0,0,.625-2.031l-2.031.391a2.734,2.734,0,0,0-1.191.426.99.99,0,0,0-.387.84.979.979,0,0,0,.371.844A1.586,1.586,0,0,0,169.658,39.055ZM35.42,56.172a3.493,3.493,0,0,1,1.391.281,3.421,3.421,0,0,1,1.141.789,3.688,3.688,0,0,1,.77,1.266,4.667,4.667,0,0,1,.285,1.656,4.061,4.061,0,0,1-1.035,2.9,3.362,3.362,0,0,1-2.551,1.1,3.04,3.04,0,0,1-1.605-.437,2.867,2.867,0,0,1-1.1-1.18v5.32H31.365V56.32h1.3l.031,1.492a2.811,2.811,0,0,1,1.094-1.2A3.068,3.068,0,0,1,35.42,56.172Zm-.266,6.82a2.332,2.332,0,0,0,1.777-.777,3.266,3.266,0,0,0,0-4.1,2.423,2.423,0,0,0-3.582.035,3.133,3.133,0,0,0,0,4.031A2.343,2.343,0,0,0,35.154,62.992Zm7.3-5.32a2.322,2.322,0,0,1,.953-1.031,2.87,2.87,0,0,1,1.477-.406v1.273a2.53,2.53,0,0,0-1.785.57,2.382,2.382,0,0,0-.613,1.82V64H41.138V56.32h1.32ZM53.1,60.008l-.016.367h-6a2.714,2.714,0,0,0,.734,1.965,2.411,2.411,0,0,0,1.75.684,2.3,2.3,0,0,0,1.273-.367,2.383,2.383,0,0,0,.875-1.016l1.219.258a3.464,3.464,0,0,1-1.312,1.648,3.581,3.581,0,0,1-2.039.6,3.71,3.71,0,0,1-2.766-1.07,4.557,4.557,0,0,1,0-5.836,3.664,3.664,0,0,1,2.723-1.07,3.467,3.467,0,0,1,2.582.984A3.889,3.889,0,0,1,53.1,60.008Zm-3.555-2.8a2.4,2.4,0,0,0-1.6.543,2.488,2.488,0,0,0-.809,1.582h4.6a2.282,2.282,0,0,0-.672-1.582A2.17,2.17,0,0,0,49.545,57.211Zm9.3-1.039a2.671,2.671,0,0,1,1.934.7,2.594,2.594,0,0,1,.723,1.961V64H60.146V59.133a1.816,1.816,0,0,0-.469-1.375,1.676,1.676,0,0,0-1.2-.445,1.858,1.858,0,0,0-1.367.527,2.14,2.14,0,0,0-.539,1.566V64H55.216V56.32h1.352V57.3A2.565,2.565,0,0,1,58.841,56.172ZM69.779,52h1.352V64h-1.3l-.031-1.492A2.826,2.826,0,0,1,68.7,63.719a3.048,3.048,0,0,1-1.625.445,3.49,3.49,0,0,1-2.535-1.082,3.7,3.7,0,0,1-.773-1.27,4.644,4.644,0,0,1-.285-1.648,4.038,4.038,0,0,1,1.043-2.883,3.367,3.367,0,0,1,2.551-1.109,3.061,3.061,0,0,1,1.605.434,2.842,2.842,0,0,1,1.1,1.176ZM67.357,62.992a2.3,2.3,0,0,0,1.785-.809,3.171,3.171,0,0,0,0-4.035,2.3,2.3,0,0,0-1.781-.812,2.35,2.35,0,0,0-1.8.785,3.236,3.236,0,0,0,0,4.086A2.35,2.35,0,0,0,67.357,62.992Zm8.3,1.156a2.613,2.613,0,0,1-1.684-.527,1.894,1.894,0,0,1-.66-1.574,2.237,2.237,0,0,1,.211-1,1.77,1.77,0,0,1,.625-.7,3.749,3.749,0,0,1,.9-.434,8.342,8.342,0,0,1,1.168-.277l1.242-.2q.68-.125.68-.711a1.342,1.342,0,0,0-.48-1.145,1.958,1.958,0,0,0-1.215-.363,1.994,1.994,0,0,0-1.2.352,1.471,1.471,0,0,0-.57,1.078l-1.219-.258a2.346,2.346,0,0,1,.961-1.645,3.59,3.59,0,0,1,2.094-.551,4.247,4.247,0,0,1,1.113.137,3.025,3.025,0,0,1,.93.43,1.927,1.927,0,0,1,.664.828,3.081,3.081,0,0,1,.238,1.262v3.172a1.3,1.3,0,0,0,.176.8.759.759,0,0,0,.605.207h.125V64h-.672a1.281,1.281,0,0,1-1.453-1.039H78.17A2.935,2.935,0,0,1,75.654,64.148Zm.313-1.094a2.049,2.049,0,0,0,1.648-.742,3.056,3.056,0,0,0,.625-2.031l-2.031.391a2.734,2.734,0,0,0-1.191.426.99.99,0,0,0-.387.84.979.979,0,0,0,.371.844A1.586,1.586,0,0,0,75.966,63.055Zm13.641,1.086a3.7,3.7,0,0,1-2.75-1.1,4.375,4.375,0,0,1,0-5.766,4,4,0,0,1,4.977-.43,3.391,3.391,0,0,1,1.293,1.867l-1.266.2a2.337,2.337,0,0,0-.867-1.2A2.361,2.361,0,0,0,89.6,57.3a2.27,2.27,0,0,0-1.777.789,3.409,3.409,0,0,0,0,4.137,2.275,2.275,0,0,0,1.777.785,2.361,2.361,0,0,0,1.391-.422,2.337,2.337,0,0,0,.867-1.2l1.266.211a3.4,3.4,0,0,1-1.3,1.863A3.72,3.72,0,0,1,89.607,64.141Zm8.742.008a4.048,4.048,0,0,1-1.969-.477,3.47,3.47,0,0,1-1.387-1.395,4.283,4.283,0,0,1-.512-2.121,3.912,3.912,0,0,1,1.09-2.895,4.089,4.089,0,0,1,5.559,0,4.405,4.405,0,0,1,0,5.8A3.762,3.762,0,0,1,98.349,64.148Zm-.008-1.125a2.359,2.359,0,0,0,1.816-.789,3.338,3.338,0,0,0,0-4.148,2.359,2.359,0,0,0-1.816-.789,2.326,2.326,0,0,0-1.8.789,3.367,3.367,0,0,0,0,4.148A2.326,2.326,0,0,0,98.341,63.023Zm13.844-6.852a2.476,2.476,0,0,1,1.789.652,2.42,2.42,0,0,1,.68,1.832V64H113.3V59.008a1.735,1.735,0,0,0-.422-1.266,1.436,1.436,0,0,0-1.07-.43,1.517,1.517,0,0,0-1.172.484,2.083,2.083,0,0,0-.445,1.453V64h-1.375V59.063a1.815,1.815,0,0,0-.426-1.309,1.448,1.448,0,0,0-1.09-.441,1.5,1.5,0,0,0-1.168.5,2.155,2.155,0,0,0-.449,1.488V64h-1.352V56.32h1.352v.992a2.333,2.333,0,0,1,.879-.844,2.506,2.506,0,0,1,1.223-.3,2.609,2.609,0,0,1,1.313.324,2.018,2.018,0,0,1,.852.934,2.39,2.39,0,0,1,.922-.934A2.637,2.637,0,0,1,112.185,56.172Zm9.141,0a3.493,3.493,0,0,1,1.391.281,3.421,3.421,0,0,1,1.141.789,3.688,3.688,0,0,1,.77,1.266,4.667,4.667,0,0,1,.285,1.656,4.061,4.061,0,0,1-1.035,2.9,3.362,3.362,0,0,1-2.551,1.1,3.04,3.04,0,0,1-1.605-.437,2.867,2.867,0,0,1-1.1-1.18v5.32h-1.352V56.32h1.3l.031,1.492a2.811,2.811,0,0,1,1.094-1.2A3.068,3.068,0,0,1,121.326,56.172Zm-.266,6.82a2.332,2.332,0,0,0,1.777-.777,3.266,3.266,0,0,0,0-4.1,2.423,2.423,0,0,0-3.582.035,3.133,3.133,0,0,0,0,4.031A2.343,2.343,0,0,0,121.06,62.992ZM127.045,64V52h1.367V64Zm10.836-3.992-.016.367h-6a2.714,2.714,0,0,0,.734,1.965,2.411,2.411,0,0,0,1.75.684,2.3,2.3,0,0,0,1.273-.367,2.383,2.383,0,0,0,.875-1.016l1.219.258a3.464,3.464,0,0,1-1.312,1.648,3.581,3.581,0,0,1-2.039.6,3.71,3.71,0,0,1-2.766-1.07,4.557,4.557,0,0,1,0-5.836,3.664,3.664,0,0,1,2.723-1.07,3.467,3.467,0,0,1,2.582.984A3.889,3.889,0,0,1,137.881,60.008Zm-3.555-2.8a2.4,2.4,0,0,0-1.6.543,2.488,2.488,0,0,0-.809,1.582h4.6a2.282,2.282,0,0,0-.672-1.582A2.17,2.17,0,0,0,134.326,57.211ZM142.451,64a2.019,2.019,0,0,1-1.5-.551,2.084,2.084,0,0,1-.547-1.535V57.4h-1.57V56.32h.578a1.11,1.11,0,0,0,.848-.27,1.326,1.326,0,0,0,.246-.9V53.758h1.258V56.32h1.766V57.4h-1.766v4.375a1.164,1.164,0,0,0,.293.848,1.026,1.026,0,0,0,.77.3h.7V64Zm4.711.148a2.613,2.613,0,0,1-1.684-.527,1.894,1.894,0,0,1-.66-1.574,2.237,2.237,0,0,1,.211-1,1.77,1.77,0,0,1,.625-.7,3.749,3.749,0,0,1,.9-.434,8.341,8.341,0,0,1,1.168-.277l1.242-.2q.68-.125.68-.711a1.342,1.342,0,0,0-.48-1.145,1.958,1.958,0,0,0-1.215-.363,1.994,1.994,0,0,0-1.2.352,1.471,1.471,0,0,0-.57,1.078l-1.219-.258a2.346,2.346,0,0,1,.961-1.645,3.59,3.59,0,0,1,2.094-.551,4.247,4.247,0,0,1,1.113.137,3.026,3.026,0,0,1,.93.43,1.927,1.927,0,0,1,.664.828,3.081,3.081,0,0,1,.238,1.262v3.172a1.3,1.3,0,0,0,.176.8.759.759,0,0,0,.605.207h.125V64h-.672a1.281,1.281,0,0,1-1.453-1.039h-.062A2.935,2.935,0,0,1,147.162,64.148Zm.313-1.094a2.049,2.049,0,0,0,1.648-.742,3.056,3.056,0,0,0,.625-2.031l-2.031.391a2.734,2.734,0,0,0-1.191.426.99.99,0,0,0-.387.84.979.979,0,0,0,.371.844A1.586,1.586,0,0,0,147.474,63.055Zm7.484,1.1a.877.877,0,0,1-.637-.266.908.908,0,0,1,.637-1.547.884.884,0,0,1,.641.27.887.887,0,0,1,0,1.277A.886.886,0,0,1,154.959,64.156Z" transform="translate(7274.039 -5625.464)" fill="#00223d"/>
    <path id="Trazado_19563" data-name="Trazado 19563" d="M1036.472,642.948a3.685,3.685,0,0,1-.78-.635A105.655,105.655,0,0,1,847.709,548.2h-2.1a107.625,107.625,0,0,0,191.781,95.113A3.643,3.643,0,0,1,1036.472,642.948Z" transform="translate(6415.583 -6192.767)" fill="#6dc0e2"/>
    <rect id="Rectángulo_3176" data-name="Rectángulo 3176" width="249.208" height="68.955" rx="34" transform="translate(7226.876 -5713.52)" fill="#6dc0e2"/>
    <path id="Trazado_19750" data-name="Trazado 19750" d="M-48.12-12.687h-5.758v3.523h5.1v2.8h-5.1v3.513h5.758V0h-9V-15.522h9ZM-34.2-15.522h3.212V0h-3.728l-6.875-11.1V0H-44.8V-15.522h3.685L-34.2-4.49ZM-21.812.215A7.5,7.5,0,0,1-26.12-.972,4.761,4.761,0,0,1-28.214-4.3l3.33-.763A2.828,2.828,0,0,0-23.858-3.1a3.4,3.4,0,0,0,2.175.682,2.81,2.81,0,0,0,1.7-.478,1.612,1.612,0,0,0,.645-1.413,1.506,1.506,0,0,0-.548-1.149,3.58,3.58,0,0,0-1.09-.7q-.542-.209-1.746-.575-.161-.054-.236-.075-.612-.193-.988-.322t-.929-.36a6.188,6.188,0,0,1-.9-.451,6.606,6.606,0,0,1-.747-.559,2.926,2.926,0,0,1-.623-.714,3.8,3.8,0,0,1-.376-.892,3.935,3.935,0,0,1-.15-1.106,4.155,4.155,0,0,1,.725-2.444A4.441,4.441,0,0,1-25-15.216a7.116,7.116,0,0,1,2.8-.521,8.84,8.84,0,0,1,2.025.226,7.093,7.093,0,0,1,1.81.693,4.434,4.434,0,0,1,1.445,1.278,4.807,4.807,0,0,1,.822,1.885l-3.115.773a2.524,2.524,0,0,0-2.793-2.224,3.058,3.058,0,0,0-1.729.451,1.529,1.529,0,0,0-.677,1.364q0,.849,1.128,1.375a16.808,16.808,0,0,0,2.159.741q.634.193,1.031.322t1,.376A6.942,6.942,0,0,1-18.117-8a7.234,7.234,0,0,1,.816.6,3.211,3.211,0,0,1,.693.773,4.182,4.182,0,0,1,.424.961,4.018,4.018,0,0,1,.172,1.2,4.706,4.706,0,0,1-.312,1.751A3.811,3.811,0,0,1-17.177-1.4a4.959,4.959,0,0,1-1.284.908A6.228,6.228,0,0,1-20.04.048,9.082,9.082,0,0,1-21.812.215ZM-2.648,0-3.776-3.2H-10.3L-11.424,0h-3.3l5.715-15.522h3.942L.65,0Zm-6.7-5.9h4.63l-2.31-6.585ZM20.77,0H17.558L16.538-11.7,12.606,0H10.522L6.59-11.7,5.559,0H2.336l1.3-15.522h4.6l3.309,9.743,3.352-9.743h4.6ZM32.479-8.2A3.631,3.631,0,0,1,35.4-4.351a4.168,4.168,0,0,1-1.235,3.185A5.1,5.1,0,0,1,30.535,0H24.143V-15.522H29.17a5.7,5.7,0,0,1,3.8,1.123,3.894,3.894,0,0,1,1.316,3.131,3.652,3.652,0,0,1-.457,1.842A3.007,3.007,0,0,1,32.479-8.2ZM29.2-12.848H27.248V-9.2h2.095a1.962,1.962,0,0,0,1.482-.516,1.875,1.875,0,0,0,.494-1.354,1.666,1.666,0,0,0-.537-1.294A2.273,2.273,0,0,0,29.2-12.848Zm.73,10.087a2.475,2.475,0,0,0,1.778-.548,1.863,1.863,0,0,0,.564-1.4,1.951,1.951,0,0,0-.569-1.439,2.519,2.519,0,0,0-1.837-.569H27.248v3.953Zm11.559-.086h4.866V0H38.269V-15.522h3.223Zm16.328-9.84H52.062v3.523h5.1v2.8h-5.1v3.513H57.82V0h-9V-15.522h9Z" transform="translate(7376.375 -5669.109)" fill="#fff"/>
    <g id="Grupo_13202" data-name="Grupo 13202" transform="translate(7207.264 -5723.211)">
      <circle id="Elipse_505" data-name="Elipse 505" cx="40.023" cy="40.023" r="40.023" transform="translate(1.965 1.966)" fill="#6dc0e2"/>
      <path id="Trazado_19569" data-name="Trazado 19569" d="M816.188,524.4a41.989,41.989,0,1,1,41.99-41.989A42.036,42.036,0,0,1,816.188,524.4Zm0-80.046a38.057,38.057,0,1,0,38.058,38.057A38.1,38.1,0,0,0,816.188,444.354Z" transform="translate(-774.201 -440.422)" fill="#fff"/>
    </g>
    <g id="Grupo_13204" data-name="Grupo 13204" transform="translate(7223.881 -5702.039)">
      <g id="Grupo_13203" data-name="Grupo 13203">
        <path id="Trazado_19570" data-name="Trazado 19570" d="M840.284,474.662h-.5v-3.738a1.487,1.487,0,0,0-1.487-1.486h-4.955a1.487,1.487,0,0,0-1.487,1.486v3.738h-3.022v-3.738a1.486,1.486,0,0,0-1.486-1.486H822.4a1.487,1.487,0,0,0-1.487,1.486v3.738H810.4v-3.738a1.487,1.487,0,0,0-2.974,0v3.738h-3.022a7.442,7.442,0,0,0-7.433,7.433v13.974a1.486,1.486,0,0,0,1.486,1.486h4.014v3.469a1.486,1.486,0,0,0,1.486,1.486h3.469v.622a1.487,1.487,0,0,0,2.974,0v-.622h3.468a1.486,1.486,0,0,0,1.486-1.486v-3.469h4.014a1.486,1.486,0,0,0,1.486-1.486v-.716a4.014,4.014,0,0,1,8.028,0v9.96H798.46a1.486,1.486,0,0,0-1.486,1.486v6.419h50.742V482.09A7.442,7.442,0,0,0,840.284,474.662Zm.743,27.849h-5.451a1.486,1.486,0,0,1,0-2.973h5.451a1.486,1.486,0,1,1,0,2.973ZM838.3,490.079a4.46,4.46,0,1,1,4.46-4.46A4.464,4.464,0,0,1,838.3,490.079Z" transform="translate(-796.974 -469.437)"/>
      </g>
    </g>
  </g>
</svg>
