<svg xmlns="http://www.w3.org/2000/svg" width="230" height="113" viewBox="0 0 230 113">
  <g id="Grupo_13314" data-name="Grupo 13314" transform="translate(-7103 4032)">
    <rect id="Rectángulo_3314" data-name="Rectángulo 3314" width="196" height="113" transform="translate(7137 -4032)" fill="#e8eef3"/>
    <path id="Trazado_19756" data-name="Trazado 19756" d="M39.2,17H36.773V7.594h-3.1V5.578H42.3V7.594H39.2Zm4.57-10.992q0-1.164,1.3-1.164t1.3,1.164a1.135,1.135,0,0,1-.324.863,1.363,1.363,0,0,1-.973.309Q43.766,7.18,43.766,6.008ZM46.25,17H43.867V8.266H46.25Zm6.117-7.2a1.511,1.511,0,0,0-1.187.48,2.224,2.224,0,0,0-.492,1.363h3.344a1.986,1.986,0,0,0-.461-1.363A1.561,1.561,0,0,0,52.367,9.8Zm.336,7.359a4.508,4.508,0,0,1-3.3-1.164,4.408,4.408,0,0,1-1.187-3.3,4.848,4.848,0,0,1,1.1-3.395,3.908,3.908,0,0,1,3.035-1.2,3.847,3.847,0,0,1,2.883,1.055,3.99,3.99,0,0,1,1.031,2.914v1.156H50.633a2.294,2.294,0,0,0,.6,1.586,2.117,2.117,0,0,0,1.578.57,6.551,6.551,0,0,0,1.492-.164,7.466,7.466,0,0,0,1.469-.523v1.844A5.6,5.6,0,0,1,54.438,17,8.423,8.423,0,0,1,52.7,17.156ZM66.023,17H63.641V11.9a2.57,2.57,0,0,0-.316-1.418,1.113,1.113,0,0,0-1-.473A1.443,1.443,0,0,0,61,10.68a4.407,4.407,0,0,0-.414,2.211V17H58.2V8.266h1.82l.32,1.117h.133a2.421,2.421,0,0,1,1.016-.941,3.3,3.3,0,0,1,1.523-.34,2.744,2.744,0,0,1,2.656,1.281h.211a2.36,2.36,0,0,1,1.035-.945A3.452,3.452,0,0,1,68.461,8.1a3.046,3.046,0,0,1,2.246.762,3.345,3.345,0,0,1,.762,2.441V17H69.078V11.9a2.57,2.57,0,0,0-.316-1.418,1.113,1.113,0,0,0-1-.473,1.486,1.486,0,0,0-1.309.625,3.546,3.546,0,0,0-.434,1.984Zm12.688.156A2.9,2.9,0,0,1,76.3,16.039h-.125q.125,1.094.125,1.266v3.539H73.914V8.266h1.938L76.188,9.4H76.3a2.757,2.757,0,0,1,2.477-1.3A2.834,2.834,0,0,1,81.2,9.3a5.528,5.528,0,0,1,.875,3.32,6.556,6.556,0,0,1-.41,2.43,3.408,3.408,0,0,1-1.168,1.57A2.993,2.993,0,0,1,78.711,17.156Zm-.7-7.148a1.5,1.5,0,0,0-1.289.543,3.117,3.117,0,0,0-.422,1.793V12.6a3.68,3.68,0,0,0,.418,2.016,1.492,1.492,0,0,0,1.324.609q1.6,0,1.6-2.641a3.771,3.771,0,0,0-.395-1.934A1.347,1.347,0,0,0,78.008,10.008Zm7.93,2.609a3.666,3.666,0,0,0,.426,1.961,1.523,1.523,0,0,0,1.387.664,1.5,1.5,0,0,0,1.371-.66,3.719,3.719,0,0,0,.418-1.965,3.608,3.608,0,0,0-.422-1.945,1.794,1.794,0,0,0-2.758,0A3.6,3.6,0,0,0,85.938,12.617Zm6.039,0a4.694,4.694,0,0,1-1.125,3.336,4.079,4.079,0,0,1-3.133,1.2,4.382,4.382,0,0,1-2.219-.551,3.665,3.665,0,0,1-1.477-1.582,5.316,5.316,0,0,1-.516-2.406,4.668,4.668,0,0,1,1.117-3.328A4.1,4.1,0,0,1,87.766,8.1a4.407,4.407,0,0,1,2.219.547,3.65,3.65,0,0,1,1.477,1.57A5.267,5.267,0,0,1,91.977,12.617Zm8.063,1.789a2.4,2.4,0,0,1-.934,2.047,4.613,4.613,0,0,1-2.793.7,8.772,8.772,0,0,1-1.625-.129,6.147,6.147,0,0,1-1.258-.379V14.68a8.307,8.307,0,0,0,1.5.523,6.058,6.058,0,0,0,1.465.211q1.3,0,1.3-.75a.626.626,0,0,0-.172-.457,2.492,2.492,0,0,0-.594-.4q-.422-.223-1.125-.52a7.067,7.067,0,0,1-1.48-.781,2.2,2.2,0,0,1-.687-.824,2.721,2.721,0,0,1-.215-1.145,2.075,2.075,0,0,1,.9-1.8A4.4,4.4,0,0,1,96.875,8.1a7.262,7.262,0,0,1,3.07.688l-.719,1.719q-.656-.281-1.227-.461a3.852,3.852,0,0,0-1.164-.18q-1.055,0-1.055.57a.67.67,0,0,0,.34.555,9.242,9.242,0,0,0,1.488.7,6.914,6.914,0,0,1,1.5.773,2.287,2.287,0,0,1,.7.828A2.545,2.545,0,0,1,100.039,14.406Zm-61.91,24.75a2.9,2.9,0,0,1-2.414-1.117H35.59q.125,1.094.125,1.266v3.539H33.332V30.266H35.27l.336,1.133h.109a2.757,2.757,0,0,1,2.477-1.3,2.834,2.834,0,0,1,2.422,1.2,5.528,5.528,0,0,1,.875,3.32,6.556,6.556,0,0,1-.41,2.43,3.408,3.408,0,0,1-1.168,1.57A2.993,2.993,0,0,1,38.129,39.156Zm-.7-7.148a1.5,1.5,0,0,0-1.289.543,3.118,3.118,0,0,0-.422,1.793V34.6a3.68,3.68,0,0,0,.418,2.016,1.492,1.492,0,0,0,1.324.609q1.6,0,1.6-2.641a3.771,3.771,0,0,0-.395-1.934A1.347,1.347,0,0,0,37.426,32.008Zm9.648-.211a1.511,1.511,0,0,0-1.187.48,2.224,2.224,0,0,0-.492,1.363h3.344a1.986,1.986,0,0,0-.461-1.363A1.561,1.561,0,0,0,47.074,31.8Zm.336,7.359a4.508,4.508,0,0,1-3.3-1.164,4.408,4.408,0,0,1-1.187-3.3,4.848,4.848,0,0,1,1.1-3.395,3.908,3.908,0,0,1,3.035-1.2,3.847,3.847,0,0,1,2.883,1.055,3.99,3.99,0,0,1,1.031,2.914v1.156H45.34a2.294,2.294,0,0,0,.6,1.586,2.117,2.117,0,0,0,1.578.57,6.551,6.551,0,0,0,1.492-.164A7.467,7.467,0,0,0,50.48,36.7v1.844A5.6,5.6,0,0,1,49.145,39,8.423,8.423,0,0,1,47.41,39.156ZM57.785,30.1a3.843,3.843,0,0,1,.8.07l-.18,2.234a2.73,2.73,0,0,0-.7-.078,2.527,2.527,0,0,0-1.777.586,2.118,2.118,0,0,0-.637,1.641V39H52.91V30.266h1.8l.352,1.469h.117a3.283,3.283,0,0,1,1.1-1.184A2.707,2.707,0,0,1,57.785,30.1Zm5.156,9.055a2.837,2.837,0,0,1-2.418-1.2,5.5,5.5,0,0,1-.879-3.312,5.5,5.5,0,0,1,.895-3.348A2.905,2.905,0,0,1,63,30.1a2.849,2.849,0,0,1,2.516,1.281H65.6a9.742,9.742,0,0,1-.18-1.742v-2.8h2.391V39H65.98l-.461-1.133h-.1A2.727,2.727,0,0,1,62.941,39.156Zm.836-1.9a1.615,1.615,0,0,0,1.34-.531,3.09,3.09,0,0,0,.465-1.8v-.258a3.571,3.571,0,0,0-.434-2.016,1.61,1.61,0,0,0-1.41-.609,1.4,1.4,0,0,0-1.238.676,3.605,3.605,0,0,0-.441,1.965,3.417,3.417,0,0,0,.445,1.934A1.455,1.455,0,0,0,63.777,37.258Zm6.422-9.25q0-1.164,1.3-1.164t1.3,1.164a1.135,1.135,0,0,1-.324.863,1.363,1.363,0,0,1-.973.309Q70.2,29.18,70.2,28.008ZM72.684,39H70.3V30.266h2.383Zm5.266.156a2.837,2.837,0,0,1-2.418-1.2,5.5,5.5,0,0,1-.879-3.312,5.5,5.5,0,0,1,.895-3.348,2.905,2.905,0,0,1,2.465-1.2,2.849,2.849,0,0,1,2.516,1.281h.078a9.742,9.742,0,0,1-.18-1.742v-2.8h2.391V39H80.988l-.461-1.133h-.1A2.727,2.727,0,0,1,77.949,39.156Zm.836-1.9a1.615,1.615,0,0,0,1.34-.531,3.09,3.09,0,0,0,.465-1.8v-.258a3.571,3.571,0,0,0-.434-2.016,1.61,1.61,0,0,0-1.41-.609,1.4,1.4,0,0,0-1.238.676,3.605,3.605,0,0,0-.441,1.965,3.417,3.417,0,0,0,.445,1.934A1.455,1.455,0,0,0,78.785,37.258Zm8.422-2.641a3.666,3.666,0,0,0,.426,1.961,1.523,1.523,0,0,0,1.387.664,1.5,1.5,0,0,0,1.371-.66,3.719,3.719,0,0,0,.418-1.965,3.608,3.608,0,0,0-.422-1.945,1.794,1.794,0,0,0-2.758,0A3.6,3.6,0,0,0,87.207,34.617Zm6.039,0a4.694,4.694,0,0,1-1.125,3.336,4.079,4.079,0,0,1-3.133,1.2,4.382,4.382,0,0,1-2.219-.551,3.665,3.665,0,0,1-1.477-1.582,5.316,5.316,0,0,1-.516-2.406,4.668,4.668,0,0,1,1.117-3.328A4.1,4.1,0,0,1,89.035,30.1a4.407,4.407,0,0,1,2.219.547,3.65,3.65,0,0,1,1.477,1.57A5.267,5.267,0,0,1,93.246,34.617Zm8.063,1.789a2.4,2.4,0,0,1-.934,2.047,4.613,4.613,0,0,1-2.793.7,8.772,8.772,0,0,1-1.625-.129,6.146,6.146,0,0,1-1.258-.379V36.68a8.307,8.307,0,0,0,1.5.523,6.058,6.058,0,0,0,1.465.211q1.3,0,1.3-.75a.626.626,0,0,0-.172-.457,2.492,2.492,0,0,0-.594-.4q-.422-.223-1.125-.52a7.067,7.067,0,0,1-1.48-.781,2.2,2.2,0,0,1-.687-.824,2.721,2.721,0,0,1-.215-1.145,2.075,2.075,0,0,1,.9-1.8,4.4,4.4,0,0,1,2.559-.637,7.262,7.262,0,0,1,3.07.688l-.719,1.719q-.656-.281-1.227-.461a3.852,3.852,0,0,0-1.164-.18q-1.055,0-1.055.57a.67.67,0,0,0,.34.555,9.242,9.242,0,0,0,1.488.7,6.914,6.914,0,0,1,1.5.773,2.287,2.287,0,0,1,.7.828A2.545,2.545,0,0,1,101.309,36.406Z" transform="translate(7170 -3997)" fill="#00223d"/>
    <g id="Elipse_516" data-name="Elipse 516" transform="translate(7103 -4007)" fill="#fff" stroke="#ff9100" stroke-width="5">
      <ellipse cx="33.5" cy="32" rx="33.5" ry="32" stroke="none"/>
      <ellipse cx="33.5" cy="32" rx="31" ry="29.5" fill="none"/>
    </g>
    <path id="Trazado_19761" data-name="Trazado 19761" d="M15.459-17.529l6.674-7.6v-4.435H1.436v5.491H14.023L7.941-17.191v4.519h3.126c3.886,0,5.533,1.394,5.533,3.632,0,2.408-2.112,3.8-5.533,3.8A14.359,14.359,0,0,1,2.619-7.9L-.042-2.661A20.329,20.329,0,0,0,11.235.507c8.405,0,12.249-4.562,12.249-9.546C23.484-13.389,20.781-16.684,15.459-17.529Z" transform="translate(7125.347 -3959.586)" fill="#868988"/>
  </g>
</svg>
