<svg xmlns="http://www.w3.org/2000/svg" width="230" height="113" viewBox="0 0 230 113">
  <g id="Grupo_13312" data-name="Grupo 13312" transform="translate(-6587 4032)">
    <rect id="Rectángulo_3316" data-name="Rectángulo 3316" width="196" height="113" transform="translate(6621 -4032)" fill="#e8eef3"/>
    <path id="Trazado_19754" data-name="Trazado 19754" d="M32.215,11.273a6.2,6.2,0,0,1-1.406,4.359,5.213,5.213,0,0,1-4.031,1.523,5.213,5.213,0,0,1-4.031-1.523,6.222,6.222,0,0,1-1.406-4.375A6.137,6.137,0,0,1,22.75,6.9a5.273,5.273,0,0,1,4.043-1.5A5.2,5.2,0,0,1,30.82,6.914,6.214,6.214,0,0,1,32.215,11.273Zm-8.336,0a4.771,4.771,0,0,0,.727,2.883,2.542,2.542,0,0,0,2.172.969q2.9,0,2.9-3.852T26.793,7.414a2.559,2.559,0,0,0-2.18.973A4.751,4.751,0,0,0,23.879,11.273Zm15.313,5.883a2.9,2.9,0,0,1-2.414-1.117h-.125q.125,1.094.125,1.266v3.539H34.395V8.266h1.938L36.668,9.4h.109a2.757,2.757,0,0,1,2.477-1.3,2.834,2.834,0,0,1,2.422,1.2,5.528,5.528,0,0,1,.875,3.32,6.556,6.556,0,0,1-.41,2.43,3.408,3.408,0,0,1-1.168,1.57A2.993,2.993,0,0,1,39.191,17.156Zm-.7-7.148a1.5,1.5,0,0,0-1.289.543,3.118,3.118,0,0,0-.422,1.793V12.6a3.68,3.68,0,0,0,.418,2.016,1.492,1.492,0,0,0,1.324.609q1.6,0,1.6-2.641a3.771,3.771,0,0,0-.395-1.934A1.347,1.347,0,0,0,38.488,10.008ZM48.137,9.8a1.511,1.511,0,0,0-1.187.48,2.224,2.224,0,0,0-.492,1.363H49.8a1.986,1.986,0,0,0-.461-1.363A1.561,1.561,0,0,0,48.137,9.8Zm.336,7.359a4.508,4.508,0,0,1-3.3-1.164,4.408,4.408,0,0,1-1.187-3.3,4.848,4.848,0,0,1,1.1-3.395,3.908,3.908,0,0,1,3.035-1.2A3.847,3.847,0,0,1,51,9.156a3.99,3.99,0,0,1,1.031,2.914v1.156H46.4a2.294,2.294,0,0,0,.6,1.586,2.117,2.117,0,0,0,1.578.57,6.551,6.551,0,0,0,1.492-.164,7.466,7.466,0,0,0,1.469-.523v1.844A5.6,5.6,0,0,1,50.207,17,8.423,8.423,0,0,1,48.473,17.156ZM58.848,8.1a3.843,3.843,0,0,1,.8.07l-.18,2.234a2.73,2.73,0,0,0-.7-.078,2.527,2.527,0,0,0-1.777.586,2.118,2.118,0,0,0-.637,1.641V17H53.973V8.266h1.8l.352,1.469h.117a3.283,3.283,0,0,1,1.1-1.184A2.707,2.707,0,0,1,58.848,8.1ZM66.785,17l-.461-1.187h-.062a3.519,3.519,0,0,1-1.238,1.051,4,4,0,0,1-1.66.293,2.685,2.685,0,0,1-1.98-.719,2.76,2.76,0,0,1-.723-2.047,2.3,2.3,0,0,1,.973-2.051,5.636,5.636,0,0,1,2.934-.73l1.516-.047V11.18a1.188,1.188,0,0,0-1.359-1.328,6.2,6.2,0,0,0-2.461.633l-.789-1.609a7.1,7.1,0,0,1,3.344-.789,4.165,4.165,0,0,1,2.7.766,2.83,2.83,0,0,1,.938,2.328V17Zm-.7-4.047-.922.031a2.952,2.952,0,0,0-1.547.375,1.178,1.178,0,0,0-.508,1.047q0,1.008,1.156,1.008a1.831,1.831,0,0,0,1.324-.477,1.674,1.674,0,0,0,.5-1.266Zm8.367,4.2q-4.078,0-4.078-4.477a4.775,4.775,0,0,1,1.109-3.4A4.162,4.162,0,0,1,74.66,8.1a6.062,6.062,0,0,1,2.719.594l-.7,1.844q-.562-.227-1.047-.371a3.373,3.373,0,0,0-.969-.145q-1.859,0-1.859,2.641,0,2.562,1.859,2.563a4.239,4.239,0,0,0,1.273-.184,4.6,4.6,0,0,0,1.172-.574v2.039a3.84,3.84,0,0,1-1.168.508A6.568,6.568,0,0,1,74.449,17.156ZM79.027,6.008q0-1.164,1.3-1.164t1.3,1.164a1.135,1.135,0,0,1-.324.863,1.363,1.363,0,0,1-.973.309Q79.027,7.18,79.027,6.008ZM81.512,17H79.129V8.266h2.383Zm4.4-4.383a3.666,3.666,0,0,0,.426,1.961,1.523,1.523,0,0,0,1.387.664,1.5,1.5,0,0,0,1.371-.66,3.719,3.719,0,0,0,.418-1.965,3.608,3.608,0,0,0-.422-1.945,1.794,1.794,0,0,0-2.758,0A3.6,3.6,0,0,0,85.91,12.617Zm6.039,0a4.694,4.694,0,0,1-1.125,3.336,4.079,4.079,0,0,1-3.133,1.2,4.382,4.382,0,0,1-2.219-.551A3.665,3.665,0,0,1,84,15.023a5.316,5.316,0,0,1-.516-2.406A4.668,4.668,0,0,1,84.6,9.289,4.1,4.1,0,0,1,87.738,8.1a4.407,4.407,0,0,1,2.219.547,3.65,3.65,0,0,1,1.477,1.57A5.267,5.267,0,0,1,91.949,12.617ZM101.98,17H99.6V11.9a2.45,2.45,0,0,0-.336-1.418,1.222,1.222,0,0,0-1.07-.473,1.609,1.609,0,0,0-1.445.668,4.143,4.143,0,0,0-.445,2.215V17H93.918V8.266h1.82l.32,1.117h.133a2.518,2.518,0,0,1,1.1-.957,3.738,3.738,0,0,1,1.59-.324,3.055,3.055,0,0,1,2.313.824,3.308,3.308,0,0,1,.789,2.379Zm6.07-7.2a1.511,1.511,0,0,0-1.187.48,2.224,2.224,0,0,0-.492,1.363h3.344a1.986,1.986,0,0,0-.461-1.363A1.561,1.561,0,0,0,108.051,9.8Zm.336,7.359a4.508,4.508,0,0,1-3.3-1.164,4.408,4.408,0,0,1-1.187-3.3A4.848,4.848,0,0,1,105,9.3a3.909,3.909,0,0,1,3.035-1.2,3.847,3.847,0,0,1,2.883,1.055,3.99,3.99,0,0,1,1.031,2.914v1.156h-5.633a2.294,2.294,0,0,0,.6,1.586,2.117,2.117,0,0,0,1.578.57,6.551,6.551,0,0,0,1.492-.164,7.466,7.466,0,0,0,1.469-.523v1.844a5.6,5.6,0,0,1-1.336.465A8.423,8.423,0,0,1,108.387,17.156Zm11.594-2.75a2.4,2.4,0,0,1-.934,2.047,4.613,4.613,0,0,1-2.793.7,8.772,8.772,0,0,1-1.625-.129,6.147,6.147,0,0,1-1.258-.379V14.68a8.307,8.307,0,0,0,1.5.523,6.058,6.058,0,0,0,1.465.211q1.3,0,1.3-.75a.626.626,0,0,0-.172-.457,2.492,2.492,0,0,0-.594-.4q-.422-.223-1.125-.52a7.067,7.067,0,0,1-1.48-.781,2.2,2.2,0,0,1-.687-.824,2.721,2.721,0,0,1-.215-1.145,2.075,2.075,0,0,1,.9-1.8,4.4,4.4,0,0,1,2.559-.637,7.262,7.262,0,0,1,3.07.688l-.719,1.719q-.656-.281-1.227-.461a3.852,3.852,0,0,0-1.164-.18q-1.055,0-1.055.57a.67.67,0,0,0,.34.555,9.242,9.242,0,0,0,1.488.7,6.914,6.914,0,0,1,1.5.773,2.287,2.287,0,0,1,.7.828A2.545,2.545,0,0,1,119.98,14.406ZM24.723,39.156a2.837,2.837,0,0,1-2.418-1.2,5.5,5.5,0,0,1-.879-3.312A5.5,5.5,0,0,1,22.32,31.3a2.905,2.905,0,0,1,2.465-1.2A2.849,2.849,0,0,1,27.3,31.383h.078a9.741,9.741,0,0,1-.18-1.742v-2.8H29.59V39H27.762L27.3,37.867h-.1A2.727,2.727,0,0,1,24.723,39.156Zm.836-1.9a1.615,1.615,0,0,0,1.34-.531,3.09,3.09,0,0,0,.465-1.8v-.258a3.571,3.571,0,0,0-.434-2.016,1.61,1.61,0,0,0-1.41-.609,1.4,1.4,0,0,0-1.238.676,3.605,3.605,0,0,0-.441,1.965,3.417,3.417,0,0,0,.445,1.934A1.455,1.455,0,0,0,25.559,37.258ZM35.7,31.8a1.511,1.511,0,0,0-1.187.48,2.224,2.224,0,0,0-.492,1.363h3.344a1.986,1.986,0,0,0-.461-1.363A1.561,1.561,0,0,0,35.7,31.8Zm.336,7.359a4.508,4.508,0,0,1-3.3-1.164,4.408,4.408,0,0,1-1.187-3.3,4.848,4.848,0,0,1,1.1-3.395,3.908,3.908,0,0,1,3.035-1.2,3.847,3.847,0,0,1,2.883,1.055A3.99,3.99,0,0,1,39.6,34.07v1.156H33.965a2.294,2.294,0,0,0,.6,1.586,2.117,2.117,0,0,0,1.578.57,6.551,6.551,0,0,0,1.492-.164,7.467,7.467,0,0,0,1.469-.523v1.844A5.6,5.6,0,0,1,37.77,39,8.423,8.423,0,0,1,36.035,39.156ZM48.074,39H45.691V26.844h2.383Zm8.047,0-.461-1.187H55.6a3.519,3.519,0,0,1-1.238,1.051,4,4,0,0,1-1.66.293,2.685,2.685,0,0,1-1.98-.719A2.76,2.76,0,0,1,50,36.391a2.3,2.3,0,0,1,.973-2.051,5.636,5.636,0,0,1,2.934-.73l1.516-.047V33.18a1.188,1.188,0,0,0-1.359-1.328,6.2,6.2,0,0,0-2.461.633l-.789-1.609a7.1,7.1,0,0,1,3.344-.789,4.165,4.165,0,0,1,2.7.766,2.83,2.83,0,0,1,.938,2.328V39Zm-.7-4.047-.922.031a2.952,2.952,0,0,0-1.547.375,1.178,1.178,0,0,0-.508,1.047q0,1.008,1.156,1.008a1.831,1.831,0,0,0,1.324-.477,1.674,1.674,0,0,0,.5-1.266Zm13.773,4.2a2.9,2.9,0,0,1-2.414-1.117h-.125q.125,1.094.125,1.266v3.539H64.395V30.266h1.938l.336,1.133h.109a2.757,2.757,0,0,1,2.477-1.3,2.834,2.834,0,0,1,2.422,1.2,5.528,5.528,0,0,1,.875,3.32,6.556,6.556,0,0,1-.41,2.43,3.408,3.408,0,0,1-1.168,1.57A2.993,2.993,0,0,1,69.191,39.156Zm-.7-7.148a1.5,1.5,0,0,0-1.289.543,3.117,3.117,0,0,0-.422,1.793V34.6a3.68,3.68,0,0,0,.418,2.016,1.492,1.492,0,0,0,1.324.609q1.6,0,1.6-2.641a3.771,3.771,0,0,0-.395-1.934A1.347,1.347,0,0,0,68.488,32.008ZM79.395,30.1a3.843,3.843,0,0,1,.8.07l-.18,2.234a2.73,2.73,0,0,0-.7-.078,2.527,2.527,0,0,0-1.777.586,2.118,2.118,0,0,0-.637,1.641V39H74.52V30.266h1.8l.352,1.469h.117a3.283,3.283,0,0,1,1.1-1.184A2.707,2.707,0,0,1,79.395,30.1ZM85.4,31.8a1.511,1.511,0,0,0-1.187.48,2.224,2.224,0,0,0-.492,1.363h3.344a1.986,1.986,0,0,0-.461-1.363A1.561,1.561,0,0,0,85.4,31.8Zm.336,7.359a4.508,4.508,0,0,1-3.3-1.164,4.408,4.408,0,0,1-1.187-3.3,4.848,4.848,0,0,1,1.1-3.395,3.909,3.909,0,0,1,3.035-1.2,3.847,3.847,0,0,1,2.883,1.055A3.99,3.99,0,0,1,89.3,34.07v1.156H83.668a2.294,2.294,0,0,0,.6,1.586,2.117,2.117,0,0,0,1.578.57,6.551,6.551,0,0,0,1.492-.164,7.466,7.466,0,0,0,1.469-.523v1.844A5.6,5.6,0,0,1,87.473,39,8.423,8.423,0,0,1,85.738,39.156ZM99.3,39H96.918V33.9a2.45,2.45,0,0,0-.336-1.418,1.222,1.222,0,0,0-1.07-.473,1.609,1.609,0,0,0-1.445.668,4.143,4.143,0,0,0-.445,2.215V39H91.238V30.266h1.82l.32,1.117h.133a2.518,2.518,0,0,1,1.1-.957A3.738,3.738,0,0,1,96.2,30.1a3.055,3.055,0,0,1,2.313.824A3.308,3.308,0,0,1,99.3,33.3Zm5.219.156a2.837,2.837,0,0,1-2.418-1.2,5.5,5.5,0,0,1-.879-3.312,5.5,5.5,0,0,1,.895-3.348,2.905,2.905,0,0,1,2.465-1.2,2.849,2.849,0,0,1,2.516,1.281h.078a9.742,9.742,0,0,1-.18-1.742v-2.8h2.391V39h-1.828l-.461-1.133H107A2.727,2.727,0,0,1,104.52,39.156Zm.836-1.9a1.615,1.615,0,0,0,1.34-.531,3.09,3.09,0,0,0,.465-1.8v-.258a3.571,3.571,0,0,0-.434-2.016,1.61,1.61,0,0,0-1.41-.609,1.4,1.4,0,0,0-1.238.676,3.605,3.605,0,0,0-.441,1.965,3.417,3.417,0,0,0,.445,1.934A1.455,1.455,0,0,0,105.355,37.258ZM117.426,39l-.461-1.187H116.9a3.519,3.519,0,0,1-1.238,1.051,4,4,0,0,1-1.66.293,2.685,2.685,0,0,1-1.98-.719,2.76,2.76,0,0,1-.723-2.047,2.3,2.3,0,0,1,.973-2.051,5.636,5.636,0,0,1,2.934-.73l1.516-.047V33.18a1.188,1.188,0,0,0-1.359-1.328,6.2,6.2,0,0,0-2.461.633l-.789-1.609a7.1,7.1,0,0,1,3.344-.789,4.165,4.165,0,0,1,2.7.766,2.83,2.83,0,0,1,.938,2.328V39Zm-.7-4.047-.922.031a2.952,2.952,0,0,0-1.547.375,1.178,1.178,0,0,0-.508,1.047q0,1.008,1.156,1.008a1.831,1.831,0,0,0,1.324-.477,1.674,1.674,0,0,0,.5-1.266Z" transform="translate(6654 -3997)" fill="#00223d"/>
    <g id="Elipse_516" data-name="Elipse 516" transform="translate(6587 -4007)" fill="#fff" stroke="#ff9100" stroke-width="5">
      <ellipse cx="33.5" cy="32" rx="33.5" ry="32" stroke="none"/>
      <ellipse cx="33.5" cy="32" rx="31" ry="29.5" fill="none"/>
    </g>
    <path id="Trazado_19763" data-name="Trazado 19763" d="M.3-29.566v5.491H6.209V0h6.842V-29.566Z" transform="translate(6612.347 -3959.586)" fill="#868988"/>
  </g>
</svg>
