<svg xmlns="http://www.w3.org/2000/svg" width="466" height="365.743" viewBox="0 0 466 365.743">
  <g id="Grupo_13221" data-name="Grupo 13221" transform="translate(-794 -146.475)">
    <g id="Grupo_13122" data-name="Grupo 13122" transform="translate(-547.704 -21.308)">
      <path id="Trazado_19156" data-name="Trazado 19156" d="M1779.245,189.041c29.763,35.633-45.819,262.225-96.165,286.227-35.172,16.767-291.159-84.119-293.645-143.949C1385.713,241.8,1742.016,144.47,1779.245,189.041Z" transform="translate(16.155 3.418)" fill="#f4f3e4"/>
      <g id="Grupo_13108" data-name="Grupo 13108" transform="translate(1365.626 167.783)">
        <g id="Grupo_13101" data-name="Grupo 13101" transform="translate(89.372)">
          <g id="Grupo_13086" data-name="Grupo 13086" transform="translate(133.503)">
            <path id="Trazado_19157" data-name="Trazado 19157" d="M1681.874,305.653a1.7,1.7,0,0,1-1.071,1.695l-9.7,3.438c-1.618-8.322-4.87-16.7-7.7-23.983a.532.532,0,1,0-1.007.339c2.3,8.306,2.881,16.886,3.916,25.342-.85.316-1.711.605-2.561.921-.754-4.363-2.48-8.488-3.533-12.356-.208-.78-.7-.584-.528.178a112.7,112.7,0,0,1,1.981,12.906l-16.424,5.787c-1.5-7.815-3.509-15.582-5.506-23.078-.217-.809-.713-.641-.522.175,1.984,7.865,2.68,15.859,3.8,23.681-27.155,9.48-54.432,18.758-81.826,27.529-1.368-3.913-2.86-7.784-4.078-11.657-.084-.336-.494-.167-.418.141.874,3.988,1.58,8.123,2.457,12.2-1.483.467-2.957.963-4.474,1.411-.284-.846-.568-1.692-.827-2.546-1.984-6.317-2.887-12.753-5.446-18.908-.082-.245-.4-.138-.344.115,1.75,7.49,2.377,14.9,3.685,22.294L1542,354.368a1.618,1.618,0,0,1-1.962-1.041c-5.428-17.882-15.4-39.675-11.365-58.607,1.787-8.433,5.7-15.334,10.6-21.836,7.539-10.029-22.861-40.972-3.383-83.58,3.547-7.749,13.872-15.156,21.279-17.68,42.045-14.322,63.512,14.271,72.638,38.684a89.245,89.245,0,0,1,5.265,25.861c1.1,18.029,20,22.463,25.832,25.576C1676.676,270.144,1681.47,288.817,1681.874,305.653Z" transform="translate(-1525.501 -167.783)" fill="#1a2c6d"/>
            <path id="Trazado_19158" data-name="Trazado 19158" d="M1653.25,265c-9.919-10.175-25.777-10.712-31.07-25.847-2.359-6.743-3.539-13.755-6.16-20.448a102.293,102.293,0,0,0-8.649-17.238,99.247,99.247,0,0,0-27.344-28.481c-.047-.033-.079.047-.033.079a103.377,103.377,0,0,1,28.06,32.3,107.909,107.909,0,0,1,8.6,19.441c2.033,6.249,2.861,13.214,5.926,19.066,4.687,8.953,13.6,10.362,21.169,14.745,12.911,7.478,20.951,21.524,23.112,36.857.046.321.48.319.45-.008A51.336,51.336,0,0,0,1653.25,265Z" transform="translate(-1507.813 -166.025)" fill="#1a2c6d"/>
            <path id="Trazado_19159" data-name="Trazado 19159" d="M1533.577,193.123a87.409,87.409,0,0,0-1.79,37.89c1.078,6.558,2.993,12.982,3.932,19.56,1.23,8.628-.153,15.5-3.535,22.991-10.48,23.2-6.621,48.891,4.975,72.4.266.538,1.1.118.859-.44-5.882-13.555-10.811-27.529-11.038-42.379a60.289,60.289,0,0,1,3.479-22.01c1.995-5.3,5.167-9.984,6.577-15.582,2.485-9.867-.94-20.244-3.016-30.122a112.212,112.212,0,0,1-.361-42.285A.042.042,0,1,0,1533.577,193.123Z" transform="translate(-1526.067 -159.212)" fill="#1a2c6d"/>
          </g>
          <g id="Grupo_13088" data-name="Grupo 13088" transform="translate(0 113.664)">
            <g id="Grupo_13087" data-name="Grupo 13087" transform="translate(57.932 7.601)">
              <path id="Trazado_19160" data-name="Trazado 19160" d="M1483.721,420.065c13.1-.1,62.761-20.635,82.474-34.873,16.435-11.865,35.9-52.9,44.115-78.937a102.054,102.054,0,0,0,3.573-14.149c5.834-37.149-19.559-39.475-31.243-26.749-5.533,6.015-10.59,14.274-15.169,23.283-13.1,25.794-22.128,57.7-25.852,60.511-5,3.755-61.515,42.161-68.682,48.393C1465.745,403.772,1470.627,420.143,1483.721,420.065Z" transform="translate(-1469.614 -258.371)" fill="#c88e6a"/>
              <path id="Trazado_19161" data-name="Trazado 19161" d="M1542.715,288.639a103.289,103.289,0,0,1,42.839,17.615,102.054,102.054,0,0,0,3.573-14.149c5.834-37.149-19.559-39.475-31.243-26.749C1552.352,271.371,1547.294,279.63,1542.715,288.639Z" transform="translate(-1444.858 -258.371)" fill="#976572"/>
            </g>
            <path id="Trazado_19162" data-name="Trazado 19162" d="M1543.554,282.916c.629,2.194,28.129.206,44.349,28.2,1.506,2.6,10.657-25.232,8.835-40.526s-13.685-22.056-27.232-15.259S1542.671,279.841,1543.554,282.916Z" transform="translate(-1386.656 -252.693)" fill="#4c60ad"/>
            <path id="Trazado_19163" data-name="Trazado 19163" d="M1499.914,356.237s-28.611,13.835-31.863,14.947-18.943-2.916-24.669-.68-20.809,14.846-16.174,18.131,16.412,3.725,18.473,2.218,20.506-1.379,20.506-1.379c15.058,3.9,48.258-6.6,48.258-6.6S1513.946,368.048,1499.914,356.237Z" transform="translate(-1426.338 -217.627)" fill="#c88e6a"/>
          </g>
          <g id="Grupo_13089" data-name="Grupo 13089" transform="translate(168.946 253.346)">
            <path id="Trazado_19164" data-name="Trazado 19164" d="M1719.64,455.2l-91.96-.032v.032h-75.136c9.341-41.581,27.956-76.382,27.956-76.382l81.628-21.783S1708.861,388.607,1719.64,455.2Z" transform="translate(-1552.544 -357.038)" fill="#1a2c6d"/>
            <path id="Trazado_19165" data-name="Trazado 19165" d="M1613.335,440.4h-3.167c-.864-7.261-1.216-15.161-1.568-23.125-11.29-.992-21.3-8.029-29.362-15.449-.608-.577.288-1.44.9-.928,8.859,7.452,18.967,10.33,29.555,14.17a1.226,1.226,0,0,1,.416.288.635.635,0,0,1,.351.447C1612.182,423.129,1612.854,432.149,1613.335,440.4Z" transform="translate(-1543.572 -342.237)" fill="#15244c"/>
          </g>
          <g id="Grupo_13091" data-name="Grupo 13091" transform="translate(158.264 110.607)">
            <path id="Trazado_19166" data-name="Trazado 19166" d="M1587.7,253.066c-12.258,3.474-20.029,16.415-25.734,29.393s-18.689,39.686-17.294,59.194c1.079,15.084,23.394,29.085,23.394,29.085s10.258,36.58,15.14,44.193c7.323,11.419,55.592,24.592,82.767-18.969,2.806-4.5-2.352-89.252-18.054-117.347C1635.529,256.452,1616.795,244.816,1587.7,253.066Z" transform="translate(-1544.564 -250.409)" fill="#4c60ad"/>
            <g id="Grupo_13090" data-name="Grupo 13090" transform="translate(24.723 108.191)">
              <path id="Trazado_19167" data-name="Trazado 19167" d="M1615.664,331.268c-8.241,3.7-14.8,8.9-24.279,9.259-8.183.312-16.064-2.507-23.568-5.44-.333-.13-.515.38-.236.558,7.488,4.752,15.953,7.7,24.927,7.13,9.238-.582,16.269-5.6,23.5-10.922A.339.339,0,0,0,1615.664,331.268Z" transform="translate(-1561.539 -331.23)" fill="#1a2c6d"/>
              <path id="Trazado_19168" data-name="Trazado 19168" d="M1575.872,338.635a14.8,14.8,0,0,0-12.685-.821c-.285.126-.143.613.161.589a36.816,36.816,0,0,1,5.8-.305,30.953,30.953,0,0,1,6.3,1.553A.558.558,0,0,0,1575.872,338.635Z" transform="translate(-1563.033 -329.357)" fill="#1a2c6d"/>
            </g>
          </g>
          <g id="Grupo_13100" data-name="Grupo 13100" transform="translate(139.851 3.841)">
            <path id="Trazado_19169" data-name="Trazado 19169" d="M1598.776,250.417c4.535.655,8.28,10.553,8.115,13.231-.4,6.539-29.895,35.707-38.09,35.706-6.937,0-3.616-34.036.81-37.256S1595.158,249.894,1598.776,250.417Z" transform="translate(-1519.295 -143.647)" fill="#c88e6a"/>
            <path id="Trazado_19170" data-name="Trazado 19170" d="M1611.826,426.688c-5.489-25.649-8.844-53.618-6.646-79.838,1.132-13.516,2.806-26.972,4.424-40.433,1.482-12.313,3.558-24.924,3.743-37.348.135-9.187-2.021-19.285-9.76-24.2-7.148-4.545-15.03-.78-21.2,4.146-8.5,6.782-13.017,16.579-17.086,26.893-4.534,11.494-9.092,23.085-11.838,35.263-6.43,28.523-5.74,54.214-1.821,82.532.136.988,5.66,3.055,5.529,2.07-3.044-22.77-5.3-46.664-2.523-69.659a153.5,153.5,0,0,1,8.413-33.557c3.752-10.439,7.361-22.167,13.452-31.291,5.858-8.774,19.258-20.413,28.132-10.093,7.263,8.447,4.771,22.117,3.7,32.584-2.343,22.844-5.775,45.566-7.416,68.488-1.756,24.513-1.42,49.665,4.715,73.39C1606.167,427.681,1612.281,428.815,1611.826,426.688Z" transform="translate(-1524.766 -146.213)" fill="#deb74a"/>
            <g id="Grupo_13092" data-name="Grupo 13092" transform="translate(41.713 64.898)">
              <path id="Trazado_19171" data-name="Trazado 19171" d="M1572.217,278.758s2.582,7.372,9.348,6.328c11.709-1.81,18.706-14.048,19.234-16.939.208-1.245-.517-11.709-2.056-21.782q-.243-1.51-.487-3.02c-.163-1.007-.332-1.965-.522-2.918-.232-1.277-.478-2.526-.723-3.775-1.846-9.448-3.493-17.519-3.493-17.519l-3.992,2.605-27.556,19.572,6.484,23.706.383,1.451.138.473,1.985,7.142.021.06Z" transform="translate(-1561.97 -219.132)" fill="#c88e6a"/>
              <path id="Trazado_19172" data-name="Trazado 19172" d="M1568.837,266.467a25.592,25.592,0,0,0,12.2-1.452c8.9-3.242,14.066-10.495,17.7-18.65q-.243-1.51-.487-3.02c-.163-1.007-.332-1.965-.522-2.918-.232-1.277-.478-2.526-.723-3.775-1.846-9.448-3.493-17.519-3.493-17.519l-3.992,2.605-27.556,19.572,6.484,23.706Z" transform="translate(-1561.97 -219.132)" fill="#976572"/>
            </g>
            <g id="Grupo_13099" data-name="Grupo 13099">
              <path id="Trazado_19173" data-name="Trazado 19173" d="M1536.365,236.2c12.167,41.81,36.249,37.305,43.706,36.426,8.466-1,39.627-11.388,31.844-54.231s-31.069-50.4-50.071-45.925S1524.2,194.392,1536.365,236.2Z" transform="translate(-1530.243 -170.418)" fill="#c88e6a"/>
              <g id="Grupo_13097" data-name="Grupo 13097" transform="translate(11.6 40.272)">
                <g id="Grupo_13093" data-name="Grupo 13093" transform="translate(29.336 10.169)">
                  <path id="Trazado_19174" data-name="Trazado 19174" d="M1561.39,212.731c0-.115.253.1.272.216.452,2.932,1.464,6.213,4.282,6.687.087.015.106.163.005.167C1562.649,219.951,1561.349,215.581,1561.39,212.731Z" transform="translate(-1561.389 -206.855)" fill="#1a2c6d"/>
                  <path id="Trazado_19175" data-name="Trazado 19175" d="M1563.422,210.114c4.621-1.233,6.747,8.1,2.466,9.241C1561.676,220.479,1559.55,211.148,1563.422,210.114Z" transform="translate(-1561.389 -207.767)" fill="#1a2c6d"/>
                  <path id="Trazado_19176" data-name="Trazado 19176" d="M1564.106,210.65c.9.145,1.948.643,2.831.351,1.023-.337,1.389-1.506,1.671-2.6.029-.114.13-.074.179.032.706,1.53.813,3.373-.738,4.335-1.414.877-3.1-.008-4.17-1.387C1563.682,211.125,1563.744,210.593,1564.106,210.65Z" transform="translate(-1560.583 -208.333)" fill="#1a2c6d"/>
                </g>
                <g id="Grupo_13094" data-name="Grupo 13094" transform="translate(0 17.895)">
                  <path id="Trazado_19177" data-name="Trazado 19177" d="M1547.107,215.73c-.058-.1-.175.206-.134.32,1.031,2.782,1.743,6.14-.489,7.926-.068.055-.013.194.076.149C1549.518,222.65,1548.529,218.2,1547.107,215.73Z" transform="translate(-1537.111 -213.561)" fill="#1a2c6d"/>
                  <path id="Trazado_19178" data-name="Trazado 19178" d="M1544.947,214.178c-4.637,1.171-1.955,10.358,2.341,9.274C1551.516,222.383,1548.833,213.2,1544.947,214.178Z" transform="translate(-1538.445 -214.104)" fill="#1a2c6d"/>
                  <path id="Trazado_19179" data-name="Trazado 19179" d="M1544.586,214.771c-.659.635-1.23,1.64-2.122,1.9-1.032.308-2-.442-2.857-1.179-.09-.076-.15.015-.128.129.3,1.66,1.26,3.233,3.08,3.136,1.661-.087,2.539-1.776,2.632-3.519C1545.207,214.919,1544.852,214.517,1544.586,214.771Z" transform="translate(-1539.475 -213.906)" fill="#1a2c6d"/>
                </g>
                <path id="Trazado_19180" data-name="Trazado 19180" d="M1567.577,228.4c-.419.9-.746,2.044-1.72,2.509a7.819,7.819,0,0,1-3.245.427.1.1,0,0,0-.067.187,4,4,0,0,0,4.089.178,3.153,3.153,0,0,0,1.256-3.277C1567.873,228.252,1567.639,228.273,1567.577,228.4Z" transform="translate(-1531.677 -191.401)" fill="#976572"/>
                <path id="Trazado_19181" data-name="Trazado 19181" d="M1541.977,210.405a28.416,28.416,0,0,0,2.628-1.462,4.856,4.856,0,0,0,2.4-2,1.551,1.551,0,0,0-.561-1.807c-1.246-.774-2.648-.379-3.882.261a5.642,5.642,0,0,0-2.8,2.953A1.652,1.652,0,0,0,1541.977,210.405Z" transform="translate(-1539.42 -199.391)" fill="#1a2c6d"/>
                <path id="Trazado_19182" data-name="Trazado 19182" d="M1565.606,204.834a28.507,28.507,0,0,1-3.007,0,4.855,4.855,0,0,1-3.068-.584,1.548,1.548,0,0,1-.388-1.851c.712-1.282,2.13-1.618,3.52-1.66a5.641,5.641,0,0,1,3.878,1.219A1.652,1.652,0,0,1,1565.606,204.834Z" transform="translate(-1532.866 -200.736)" fill="#1a2c6d"/>
                <g id="Grupo_13095" data-name="Grupo 13095" transform="translate(23.295 30.169)">
                  <path id="Trazado_19183" data-name="Trazado 19183" d="M1556.877,228.807a12.163,12.163,0,0,0,5.57,2.618,5.465,5.465,0,0,0,3.286-.522c2.2-1.139,1.783-3.3.942-5.048a13.089,13.089,0,0,0-1.68-2.582A15.739,15.739,0,0,1,1556.877,228.807Z" transform="translate(-1556.877 -223.273)" fill="#1a2c6d"/>
                  <path id="Trazado_19184" data-name="Trazado 19184" d="M1561.047,230.772a5.465,5.465,0,0,0,3.286-.522c2.2-1.139,1.783-3.3.942-5.048C1562.82,226.021,1560.715,228.282,1561.047,230.772Z" transform="translate(-1555.477 -222.62)" fill="#c27c88"/>
                </g>
                <g id="Grupo_13096" data-name="Grupo 13096" transform="translate(13.183 2.538)">
                  <path id="Trazado_19185" data-name="Trazado 19185" d="M1557.007,230.575s.74,4.41,1.364,6.4c.059.186.569.125,1.258-.048.036,0,.058.007.079-.023a9.928,9.928,0,0,0,8.094-6.422.216.216,0,0,0-.383-.183c-2.022,2.752-4.772,4.161-7.875,5.19-.315-.507-1.016-7.593-1.34-7.518-1.119.249-3.032,1.663-4.2,2.443-1.807-9.138-2.137-18.492-4.072-27.564a.285.285,0,0,0-.561.033c-.351,9.828,1.5,20.39,3.124,29.876C1552.68,233.947,1556.315,231.165,1557.007,230.575Z" transform="translate(-1549.323 -202.632)" fill="#976572"/>
                </g>
              </g>
              <path id="Trazado_19186" data-name="Trazado 19186" d="M1581.736,171.576s-23.7-4.207-35.374,5.339c-11.452,9.365-17.807,22.185-14.817,44.179.439,3.232,13.755-7.012,19.315-13.012s11.122-20.487,11.122-20.487-5.122,19.317-3.952,19.609,9.512-7.9,11.707-15.95c0,0,6.585,10.536,12,15.511s8.1,6.515,9.172,6.7-7.124-13.574-7.416-14.452,11.413,13.779,17.267,17.352,10.719,3.826,12.292,3.427,5.055-24.576-7.17-37.607C1594.552,170.106,1581.736,171.576,1581.736,171.576Z" transform="translate(-1530.81 -170.652)" fill="#1a2c6d"/>
              <g id="Grupo_13098" data-name="Grupo 13098" transform="translate(76.355 39.672)">
                <path id="Trazado_19187" data-name="Trazado 19187" d="M1587.848,215.5s3.949-16.108,10.925-15.178,7.432,21.884,1.656,27.014a7.365,7.365,0,0,1-10.632-.124Z" transform="translate(-1587.848 -200.288)" fill="#c88e6a"/>
                <path id="Trazado_19188" data-name="Trazado 19188" d="M1597.6,204.81c.106-.054.185.091.106.166-3.99,3.752-4.78,9.108-4.762,14.336.728-2.3,2.273-4,5.269-3.236.158.041.114.28-.03.3a4.529,4.529,0,0,0-4.077,3.274,21.837,21.837,0,0,0-.768,4.624c-.058.509-.91.578-.937.028,0-.04,0-.083,0-.125C1589.939,218.192,1591.355,207.928,1597.6,204.81Z" transform="translate(-1586.694 -198.761)" fill="#976572"/>
              </g>
            </g>
          </g>
        </g>
        <g id="Grupo_13107" data-name="Grupo 13107" transform="translate(0 94.372)">
          <line id="Línea_195" data-name="Línea 195" y2="27.382" transform="translate(188.61 131.189)" fill="none" stroke="#4c60ad" stroke-miterlimit="10" stroke-width="1.749"/>
          <path id="Trazado_19189" data-name="Trazado 19189" d="M1396.7,240.882c33.4,18.018,70.745,2.448,106.166,7.172,7.022.937,17.8,2.368,22.835,7.977,4.866,5.426,6.4,14.289,7.21,21.286,1.064,9.172.553,18.432.8,27.64a103.681,103.681,0,0,0,5.562,29.9c6.084,18.708,7.455,37.641.122,56.262-.166.422-.771.127-.632-.288,6.246-18.72,5.428-36.916-.626-55.534-2.525-7.763-4.672-15.357-5.313-23.529-.7-8.918-.189-17.872-.565-26.8-.38-9.018-1.218-20.882-7.479-27.955-6.051-6.834-20-7.814-28.64-8.4-17.617-1.2-35.118,1.846-52.7,2.359-16.227.474-32.845-1.071-46.9-9.826C1396.39,241.048,1396.544,240.8,1396.7,240.882Z" transform="translate(-1347.077 -237.405)" fill="#fff"/>
          <path id="Trazado_19190" data-name="Trazado 19190" d="M1499.154,270.871s1.376-18.666.728-19.683-9.7-1.734-10.728-1.086-1.05,21.888-1.05,21.888Z" transform="translate(-1316.048 -234.362)" fill="#d691a1"/>
          <g id="Grupo_13102" data-name="Grupo 13102" transform="translate(171.364 117.843)">
            <path id="Trazado_19191" data-name="Trazado 19191" d="M1487.587,329.707s1.146,5.479,2.434,9.952c.821,2.786,1.663,5.174,2.318,5.6,1.685,1.1,24.022-1.218,26.2-2.388.913-.493,1.5-3.582,1.85-6.977.469-4.542.562-9.577.562-9.577Z" transform="translate(-1487.587 -326.312)" fill="#d691a1"/>
            <path id="Trazado_19192" data-name="Trazado 19192" d="M1487.587,329.707s1.146,5.479,2.434,9.952q15.208-1.687,30.367-3.77c.469-4.542.562-9.577.562-9.577Z" transform="translate(-1487.587 -326.312)" fill="#d691a1" opacity="0.5" style="mix-blend-mode: multiply;isolation: isolate"/>
          </g>
          <g id="Grupo_13103" data-name="Grupo 13103" transform="translate(0 49.242)">
            <path id="Trazado_19193" data-name="Trazado 19193" d="M1365.267,321.682c.89.656,3.325,1.053,5.9,1.288,3.721.375,7.7.422,7.7.422l-4.894-48.325a81.24,81.24,0,0,0-8.1,1.64c-2.926.8-5.62,1.85-6.111,3.067C1358.594,282.605,1363.113,320.09,1365.267,321.682Z" transform="translate(-1359.574 -275.066)" fill="#d691a1"/>
            <path id="Trazado_19194" data-name="Trazado 19194" d="M1364.282,276.706c1.639,15.429,3.043,30.881,5.292,46.264,3.721.375,7.7.422,7.7.422l-4.894-48.325A81.234,81.234,0,0,0,1364.282,276.706Z" transform="translate(-1357.98 -275.066)" fill="#d691a1" opacity="0.5" style="mix-blend-mode: multiply;isolation: isolate"/>
          </g>
          <g id="Grupo_13104" data-name="Grupo 13104" transform="translate(9.9 31.332)">
            <path id="Trazado_19195" data-name="Trazado 19195" d="M1367.07,282.759c1.218,12.034,1.9,22.148,5.2,42.307,3.324,20.183,11.238,19.574,15.429,23.319s5.667,7.423,6.368,16.342c.328,4.144.493,9.155.562,14.095.163,11.5-.165,22.781-.165,22.781l41.583-1.8s-.328-9.81-.585-22.242c-.212-9.53-.352-20.627-.281-29.992.141-17.186,1.007-20.6,15.57-23.717s43.173-2.013,53.826-.866c10.63,1.17,11.075,8.99,14.8,20.766,3.745,11.777,10.981,11.519,24.444,10.138,13.485-1.357,24.068-1.614,25.847-8.334,1.756-6.7,4.754-52.539,4.707-64.55-.07-18.684-10.887-17.958-21.306-18.708-10.441-.772-137.5-.772-157.406-.21S1365.853,270.724,1367.07,282.759Z" transform="translate(-1366.97 -261.686)" fill="#d691a1"/>
            <path id="Trazado_19196" data-name="Trazado 19196" d="M1387.508,372.29l41.583-1.8s-.328-9.81-.585-22.242c-13.627.21-27.229.585-40.833,1.264C1387.836,361.005,1387.508,372.29,1387.508,372.29Z" transform="translate(-1360.015 -232.373)" fill="#d691a1" opacity="0.5" style="mix-blend-mode: multiply;isolation: isolate"/>
          </g>
          <g id="Grupo_13105" data-name="Grupo 13105" transform="translate(21.295 166.389)">
            <path id="Trazado_19197" data-name="Trazado 19197" d="M1376.949,382.772c.188,1.1.375,2.178.609,3.254,1.453,7.352,3.442,13.86,5.035,14.61,3.746,1.756,173.326-.094,176.674-2.107,1.522-.913,3.209-7.095,4.262-13.72.047-.281.094-.539.116-.819,1.147-7.586,1.4-15.547-.375-16.764-7.539-5.175-171.852-5.667-186.484-3.254C1374.726,364.3,1375.358,373.617,1376.949,382.772Z" transform="translate(-1375.482 -362.577)" fill="#d691a1"/>
            <path id="Trazado_19198" data-name="Trazado 19198" d="M1376.578,377.663c.188,1.1.375,2.178.609,3.254,10.747-.094,21.518-.328,32.24-.328q30.379-.034,60.733-.07c31-.047,62-.469,93-.819.047-.281.094-.539.116-.819-31.022-.375-62.068-.8-93.114-.843q-30.941-.07-61.9-.071C1397.743,377.967,1387.161,377.734,1376.578,377.663Z" transform="translate(-1375.111 -357.468)" fill="#d691a1" opacity="0.5" style="mix-blend-mode: multiply;isolation: isolate"/>
          </g>
          <g id="Grupo_13106" data-name="Grupo 13106" transform="translate(37.33)">
            <path id="Trazado_19199" data-name="Trazado 19199" d="M1409.65,238.55c1.337.574,1.672,29.042.936,28.94s-16.1.548-16.855.261-3.539-27.776-2.875-28.387S1407.942,237.815,1409.65,238.55Z" transform="translate(-1386.345 -238.281)" fill="#fff"/>
            <line id="Línea_196" data-name="Línea 196" x1="28.561" y2="1.163" transform="translate(0 0.19)" fill="none" stroke="#deb74a" stroke-miterlimit="10" stroke-width="3.498"/>
            <line id="Línea_197" data-name="Línea 197" x1="28.561" y2="1.163" transform="translate(1.791 29.456)" fill="none" stroke="#deb74a" stroke-miterlimit="10" stroke-width="3.498"/>
          </g>
          <path id="Trazado_19200" data-name="Trazado 19200" d="M1501.07,356.737a.271.271,0,0,1,.055.539A.271.271,0,0,1,1501.07,356.737Z" transform="translate(-1311.736 -198.166)" fill="#9c9c9c"/>
          <path id="Trazado_19201" data-name="Trazado 19201" d="M1397.758,286.424c5.159,0,5.167,8.017,0,8.017S1392.589,286.424,1397.758,286.424Z" transform="translate(-1347.955 -221.977)" fill="#d691a1" opacity="0.5" style="mix-blend-mode: multiply;isolation: isolate"/>
          <path id="Trazado_19202" data-name="Trazado 19202" d="M1500.724,310.952c5.159,0,5.167,8.018,0,8.018S1495.555,310.952,1500.724,310.952Z" transform="translate(-1313.086 -213.671)" fill="#d691a1" opacity="0.5" style="mix-blend-mode: multiply;isolation: isolate"/>
          <path id="Trazado_19203" data-name="Trazado 19203" d="M1404.149,333.287c5.159,0,5.167,8.017,0,8.017S1398.98,333.287,1404.149,333.287Z" transform="translate(-1345.791 -206.107)" fill="#d691a1" opacity="0.5" style="mix-blend-mode: multiply;isolation: isolate"/>
        </g>
      </g>
      <g id="Grupo_13111" data-name="Grupo 13111" transform="translate(1380.169 397.804)">
        <rect id="Rectángulo_3130" data-name="Rectángulo 3130" width="8.39" height="67.092" transform="translate(16.819 0)" fill="#fff"/>
        <g id="Grupo_13110" data-name="Grupo 13110" transform="translate(0 5.937)">
          <path id="Trazado_19204" data-name="Trazado 19204" d="M1409.125,405.2h-35.354a3.316,3.316,0,0,1-3.277-3.91l.257-1.427.047-.352,1.241-6.93.071-.444,1.217-6.861.094-.491,1.218-6.883.094-.538,1.194-6.814.116-.609,1.217-6.836.094-.609,1.218-6.812.116-.679,1.194-6.814.141-.7.118-.7a3.317,3.317,0,0,1,3.277-2.74h16.061a3.318,3.318,0,0,1,3.278,2.74l.328,1.873.187.983,1.357,7.7.165.96,1.357,7.7.165.937,1.357,7.678.163.913,1.381,7.7.141.889,1.359,7.68.163.843,1.359,7.725.141.8.023.116A3.316,3.316,0,0,1,1409.125,405.2Z" transform="translate(-1370.438 -344.049)" fill="#deb74a"/>
          <g id="Grupo_13109" data-name="Grupo 13109" transform="translate(0.313)">
            <path id="Trazado_19205" data-name="Trazado 19205" d="M1398.934,349.645a79.125,79.125,0,0,1-15.686-5.6h2.13a91.879,91.879,0,0,0,13.369,4.613Z" transform="translate(-1366.413 -344.049)" fill="#c18c2f"/>
            <path id="Trazado_19206" data-name="Trazado 19206" d="M1402.405,357.437a82.777,82.777,0,0,1-24.912-10.115l.141-.7a92.583,92.583,0,0,0,24.607,9.857Z" transform="translate(-1368.362 -343.178)" fill="#c18c2f"/>
            <path id="Trazado_19207" data-name="Trazado 19207" d="M1404.259,364.176a82.725,82.725,0,0,1-27.745-11.262l.116-.679a93.174,93.174,0,0,0,27.464,11Z" transform="translate(-1368.694 -341.277)" fill="#c18c2f"/>
            <path id="Trazado_19208" data-name="Trazado 19208" d="M1406.111,370.872a82.4,82.4,0,0,1-30.577-12.432l.094-.609a93.412,93.412,0,0,0,30.32,12.128Z" transform="translate(-1369.026 -339.382)" fill="#c18c2f"/>
            <path id="Trazado_19209" data-name="Trazado 19209" d="M1407.971,377.581A83.674,83.674,0,0,1,1374.538,364l.116-.609a92.752,92.752,0,0,0,33.176,13.3Z" transform="translate(-1369.363 -337.498)" fill="#c18c2f"/>
            <path id="Trazado_19210" data-name="Trazado 19210" d="M1409.819,384.227a82.856,82.856,0,0,1-36.243-14.751l.094-.538a93.259,93.259,0,0,0,35.985,14.445Z" transform="translate(-1369.688 -335.62)" fill="#c18c2f"/>
            <path id="Trazado_19211" data-name="Trazado 19211" d="M1411.65,390.871a83.176,83.176,0,0,1-39.054-15.9l.094-.491a93.405,93.405,0,0,0,38.82,15.593Z" transform="translate(-1370.021 -333.743)" fill="#c18c2f"/>
            <path id="Trazado_19212" data-name="Trazado 19212" d="M1397.435,393.038h-2.95a83.939,83.939,0,0,1-22.851-12.619l.071-.444A92.314,92.314,0,0,0,1397.435,393.038Z" transform="translate(-1370.346 -331.883)" fill="#c18c2f"/>
            <path id="Trazado_19213" data-name="Trazado 19213" d="M1379.242,391.172h-1.194a81.888,81.888,0,0,1-7.376-5.337l.047-.352A96.169,96.169,0,0,0,1379.242,391.172Z" transform="translate(-1370.672 -330.017)" fill="#c18c2f"/>
          </g>
        </g>
      </g>
      <g id="Grupo_13116" data-name="Grupo 13116" transform="translate(1341.704 462.555)">
        <g id="Grupo_13112" data-name="Grupo 13112">
          <rect id="Rectángulo_3131" data-name="Rectángulo 3131" width="466" height="15.091" fill="#976572"/>
        </g>
        <g id="Grupo_13115" data-name="Grupo 13115" transform="translate(15.797 15.091)">
          <g id="Grupo_13113" data-name="Grupo 13113">
            <rect id="Rectángulo_3132" data-name="Rectángulo 3132" width="434.407" height="55.88" fill="#976572"/>
          </g>
          <g id="Grupo_13114" data-name="Grupo 13114" opacity="0.5" style="mix-blend-mode: multiply;isolation: isolate">
            <rect id="Rectángulo_3133" data-name="Rectángulo 3133" width="434.407" height="21.819" fill="#976572"/>
          </g>
        </g>
      </g>
      <g id="Grupo_13121" data-name="Grupo 13121" transform="translate(1506.53 280.326)">
        <g id="Grupo_13118" data-name="Grupo 13118" transform="translate(0 140.8)">
          <path id="Trazado_19214" data-name="Trazado 19214" d="M1493.388,381.659a32.486,32.486,0,0,0-7.233,7.913c-2.12,3.538-3.329,7.566-5.856,10.859-3.221,4.2-9.966,6.048-12.271-.281a23.935,23.935,0,0,1-1.189-7.794c-.093-5.729,1.612-10.66,3.673-15.9.173-.443-.558-.75-.77-.324-3.068,6.15-5.459,13.352-4.8,20.313.365,3.842,1.743,9.265,5.822,10.855,4.593,1.792,8.824-2.272,11.164-5.755,1.835-2.728,2.945-5.865,4.349-8.816a43.639,43.639,0,0,1,7.614-10.566A.357.357,0,0,0,1493.388,381.659Z" transform="translate(-1464.833 -350.638)" fill="#fff"/>
          <path id="Trazado_19215" data-name="Trazado 19215" d="M1509.662,357.039c-3.123.218-27.307,2.059-32.379,7.913s-11.712,20.148-10.155,21.325,24,4.819,25.95,5.135,13.108-13.649,16.2-17.186,15.581-7.472,16.863-8.838S1512.291,356.855,1509.662,357.039Z" transform="translate(-1464.134 -357.035)" fill="#fff"/>
          <g id="Grupo_13117" data-name="Grupo 13117" transform="translate(6.958 0.774)">
            <path id="Trazado_19216" data-name="Trazado 19216" d="M1509.1,357.614c-7.693.527-16.805,2.079-23.924,5.13-7.731,3.313-11.61,10.63-15.139,17.823-.047.1.088.177.142.083,4.444-7.827,9.083-15.009,18.088-17.863,6.828-2.165,13.973-2.969,20.9-4.688C1509.434,358.033,1509.385,357.594,1509.1,357.614Z" transform="translate(-1470.031 -357.613)" fill="#f4f3e4"/>
            <path id="Trazado_19217" data-name="Trazado 19217" d="M1516.576,362.917c-13.713,3.7-22.195,8.317-30.039,23.669a.109.109,0,0,0,.189.11c3.409-5.039,7.325-10.562,11.891-14.673,5.138-4.624,11.807-6.527,18.156-8.832C1517.165,363.047,1516.991,362.8,1516.576,362.917Z" transform="translate(-1464.446 -355.827)" fill="#f4f3e4"/>
            <path id="Trazado_19218" data-name="Trazado 19218" d="M1512.118,361.936c-5.74,2.008-12.3,3.8-17.141,7.657-4.954,3.944-8.681,9.792-11.911,15.145-.112.186.161.331.285.166,3.454-4.573,6.452-9.814,10.748-13.66,5.082-4.55,11.965-6.282,18.136-8.886C1512.487,362.253,1512.391,361.841,1512.118,361.936Z" transform="translate(-1465.625 -356.155)" fill="#f4f3e4"/>
            <path id="Trazado_19219" data-name="Trazado 19219" d="M1510.806,360.357c-6.877,2.2-14.773,4.375-20.473,9-4.7,3.814-8.091,9.16-10.887,14.447a.046.046,0,0,0,.079.046c3.747-5.31,7.128-11.19,12.566-14.99,5.578-3.9,12.532-5.7,18.812-8.147C1511.117,360.626,1511.034,360.283,1510.806,360.357Z" transform="translate(-1466.844 -356.688)" fill="#f4f3e4"/>
            <path id="Trazado_19220" data-name="Trazado 19220" d="M1509.129,358.89c-7.835,1.847-17.2,3.6-24.039,8.13-5.089,3.371-8.494,10.047-10.747,15.489-.06.146.177.238.252.106,3.328-5.863,6.691-12.884,12.965-16.014,6.855-3.42,14.332-5.3,21.653-7.411A.156.156,0,0,0,1509.129,358.89Z" transform="translate(-1468.574 -357.183)" fill="#f4f3e4"/>
          </g>
        </g>
        <g id="Grupo_13120" data-name="Grupo 13120" transform="translate(46.734)">
          <g id="Grupo_13119" data-name="Grupo 13119" transform="translate(54.781 1.156)">
            <path id="Trazado_19221" data-name="Trazado 19221" d="M1554.651,407.127c13.065-.869,92.246-3.692,111.089-19.094,17.663-14.439,5.394-58.744-2.892-88.271-.618-2.272-1.229-4.321-1.815-6.1-12.923-39.94-36.322-48.8-46.208-34.617-6.668,9.562-3.858,33.434.766,57.045,5.566,28.421,7.5,35.082,4.883,37.307-4.781,4.04-69.9,24.278-76.678,30.926C1536.992,390.992,1541.58,408.018,1554.651,407.127Z" transform="translate(-1540.666 -252.719)" fill="#c88e6a"/>
            <path id="Trazado_19222" data-name="Trazado 19222" d="M1597.831,316.093c14.579-9.084,30.275-17.548,47.257-16.332-.618-2.272-1.229-4.321-1.815-6.1-12.923-39.94-36.322-48.8-46.208-34.617C1590.4,268.61,1593.207,292.482,1597.831,316.093Z" transform="translate(-1522.906 -252.719)" fill="#976572"/>
          </g>
          <path id="Trazado_19223" data-name="Trazado 19223" d="M1643.85,287.231c-.944,2.079-27.856-3.913-48,21.406-1.869,2.351-6.848-26.519-2.807-41.382s16.765-19.815,29.172-11.109S1645.173,284.319,1643.85,287.231Z" transform="translate(-1468.67 -251.855)" fill="#4c60ad"/>
          <path id="Trazado_19224" data-name="Trazado 19224" d="M1575.032,344.754s-29.389,12.095-32.7,13.01-18.734-4.047-24.583-2.159-21.662,13.573-17.231,17.129,15.95,4.305,18.307,3.323c6.119-2.55,20.551-.149,20.551-.149,14.8,4.792,48.566-3.7,48.566-3.7S1588.331,357.385,1575.032,344.754Z" transform="translate(-1499.744 -220.395)" fill="#c88e6a"/>
          <path id="Trazado_19225" data-name="Trazado 19225" d="M1628.928,345.779c1.759-1.454,4.636-1.489,6.048.466a3.221,3.221,0,0,1-1.853,5.059c-1.821.439-3.578-1.8-1.989-3.309.246-.233.569.175.375.474-.688,1.064.762,1.847,1.594,1.349a1.837,1.837,0,0,0,.834-1.918,2.143,2.143,0,0,0-2.384-1.562,3.155,3.155,0,0,0-2.559,1.751,4.256,4.256,0,0,0,.229,3.379c.092.248-.256.5-.424.337A4.268,4.268,0,0,1,1628.928,345.779Z" transform="translate(-1456.439 -220.404)" fill="#976572"/>
          <path id="Trazado_19226" data-name="Trazado 19226" d="M1561.783,348.626c-5.472,1.616-20.386,7.392-22.39,7.47-4.66.178-9.139-1.822-14.227-2.459-8.609-1.08-15.376,2.948-21.5,8.727-.17.161.056.471.254.331,4.969-3.53,9.458-7.517,15.87-7.966,5.807-.407,11.5,1.713,17.21,2.335,3.328.363,5.663-.711,8.841-1.886,5.363-1.984,10.826-3.791,16.1-6C1562.258,349.037,1562.144,348.519,1561.783,348.626Z" transform="translate(-1498.437 -219.089)" fill="#976572"/>
        </g>
      </g>
    </g>
  </g>
</svg>
