<svg xmlns="http://www.w3.org/2000/svg" xmlns:xlink="http://www.w3.org/1999/xlink" width="292.101" height="274.519" viewBox="0 0 292.101 274.519">
  <defs>
    <linearGradient id="linear-gradient" y1="0.5" x2="1" y2="0.5" gradientUnits="objectBoundingBox">
      <stop offset="0" stop-color="#d9d9d9"/>
      <stop offset="0.243" stop-color="#e4e4e4"/>
      <stop offset="0.643" stop-color="#f2f2f2"/>
      <stop offset="1" stop-color="#f7f7f7"/>
    </linearGradient>
  </defs>
  <g id="Grupo_13303" data-name="Grupo 13303" transform="translate(-7569.899 5744.309)">
    <path id="Trazado_19557" data-name="Trazado 19557" d="M1358.478,686.029c-1.442,0-2.906-.023-4.353-.069l.069-2.188c2.878.089,5.785.088,8.66,0l.07,2.188C1361.447,686,1359.951,686.029,1358.478,686.029Zm-13.131-.62c-2.908-.276-5.843-.649-8.727-1.111l.346-2.161c2.837.454,5.727.822,8.588,1.093Zm26.356-.009-.208-2.179c2.864-.274,5.754-.644,8.589-1.1l.348,2.162C1377.55,684.745,1374.613,685.121,1371.7,685.4Zm-43.721-2.769c-2.854-.647-5.718-1.4-8.513-2.222l.621-2.1c2.75.814,5.568,1.549,8.377,2.187Zm61.089-.023-.486-2.135c2.8-.637,5.618-1.375,8.374-2.193l.623,2.1C1394.78,681.208,1391.916,681.958,1389.07,682.606Zm-77.954-4.966c-2.745-1.008-5.494-2.121-8.168-3.3l.887-2c2.632,1.165,5.336,2.259,8.037,3.252Zm94.814-.036-.757-2.054c2.693-.992,5.393-2.087,8.023-3.254l.888,2C1411.411,675.483,1408.668,676.6,1405.93,677.6Zm-110.918-7.09c-2.591-1.353-5.172-2.808-7.671-4.325l1.135-1.871c2.459,1.493,5,2.924,7.549,4.255Zm127-.042-1.014-1.94c2.547-1.332,5.084-2.765,7.539-4.258l1.137,1.872C1427.176,667.662,1424.6,669.118,1422.009,670.471Zm-142.045-9.091c-2.391-1.669-4.763-3.441-7.052-5.266l1.365-1.711c2.253,1.8,4.588,3.54,6.94,5.183Zm157.076-.044-1.254-1.794c2.359-1.65,4.692-3.4,6.934-5.187l1.367,1.71C1441.809,657.887,1439.438,659.66,1437.041,661.337Zm-170.83-10.928c-2.166-1.966-4.293-4.026-6.322-6.119l1.572-1.524c2,2.061,4.09,4.086,6.222,6.022Zm184.573-.053-1.472-1.621c2.124-1.931,4.217-3.959,6.219-6.027l1.573,1.522C1455.069,646.333,1452.943,648.394,1450.784,650.357Zm-196.815-12.574c-1.894-2.22-3.741-4.532-5.491-6.87l1.753-1.311c1.722,2.3,3.541,4.576,5.4,6.761Zm209.049-.066-1.667-1.42c1.863-2.187,3.68-4.465,5.4-6.769l1.754,1.31C1466.756,633.18,1464.909,635.494,1463.017,637.717Zm-219.581-14.011c-1.6-2.444-3.134-4.971-4.569-7.511l1.905-1.077c1.413,2.5,2.925,4.985,4.5,7.391Zm230.106-.085-1.834-1.2c1.568-2.406,3.079-4.9,4.491-7.4l1.907,1.075C1476.671,618.643,1475.135,621.175,1473.542,623.621ZM1234.79,608.409c-1.27-2.628-2.471-5.329-3.568-8.028l2.029-.824c1.079,2.655,2.259,5.314,3.51,7.9Zm247.4-.111-1.971-.952c1.251-2.589,2.434-5.252,3.513-7.915l2.029.822C1484.661,602.959,1483.459,605.667,1482.187,608.3Zm-254.011-16.172c-.921-2.766-1.765-5.6-2.51-8.434l2.118-.555c.732,2.784,1.562,5.576,2.468,8.3Zm260.624-.133-2.078-.69c.9-2.726,1.734-5.52,2.461-8.3l2.117.555C1490.562,586.382,1489.72,589.222,1488.8,591.993Zm-265.092-16.877c-.557-2.863-1.029-5.786-1.4-8.685l2.17-.279c.368,2.853.832,5.728,1.38,8.546Zm269.543-.143-2.149-.416c.546-2.82,1.007-5.7,1.371-8.551l2.172.276C1494.274,569.184,1493.806,572.107,1493.251,574.973Zm-271.789-17.3c-.186-2.9-.282-5.863-.286-8.793l2.189,0c0,2.884.1,5.8.282,8.656Zm274.018-.153-2.185-.137c.18-2.868.272-5.781.272-8.658v-.264h2.189v.256C1495.757,551.648,1495.663,554.608,1495.48,557.521Zm-271.852-17.3-2.185-.135c.182-2.919.459-5.867.824-8.758l2.172.275C1224.079,534.453,1223.807,537.352,1223.628,540.225Zm269.65-.416c-.188-2.881-.47-5.781-.838-8.62l2.17-.281c.374,2.885.661,5.831.852,8.758ZM1225.8,523.058l-2.15-.414c.551-2.865,1.2-5.752,1.94-8.581l2.118.551C1226.986,517.4,1226.344,520.238,1225.8,523.058Zm265.252-.416c-.552-2.822-1.2-5.661-1.937-8.439l2.117-.559c.744,2.823,1.407,5.71,1.969,8.578ZM1230.159,506.31l-2.078-.687c.917-2.774,1.938-5.557,3.034-8.273l2.029.819C1232.067,500.841,1231.063,503.581,1230.159,506.31Zm256.478-.4c-.912-2.728-1.926-5.461-3.011-8.119l2.026-.827c1.1,2.7,2.133,5.479,3.06,8.253ZM1236.65,490.24l-1.972-.949c1.265-2.629,2.635-5.257,4.071-7.809l1.908,1.073C1239.243,485.068,1237.895,487.653,1236.65,490.24Zm243.445-.36c-.914-1.881-1.886-3.768-2.89-5.611q-.564-1.032-1.141-2.054l1.906-1.078q.587,1.038,1.157,2.085c1.02,1.871,2.009,3.789,2.938,5.7Zm-234.947-14.734-1.834-1.195c1.593-2.449,3.287-4.878,5.035-7.22l1.754,1.308C1248.383,470.346,1246.717,472.737,1245.148,475.147Zm226.41-.327c-1.567-2.4-3.24-4.782-4.97-7.09l1.751-1.313c1.759,2.345,3.458,4.769,5.051,7.206ZM1255.5,461.266l-1.667-1.418c1.9-2.228,3.884-4.422,5.911-6.518l1.573,1.522C1259.325,456.915,1257.367,459.072,1255.5,461.266Zm205.672-.295c-1.866-2.183-3.829-4.337-5.834-6.4l1.569-1.527c2.038,2.1,4.034,4.285,5.929,6.5Zm-193.641-12.15-1.473-1.618c2.158-1.965,4.408-3.887,6.689-5.711l1.368,1.708C1271.872,445,1269.657,446.887,1267.534,448.821Zm181.576-.264c-2.138-1.935-4.359-3.821-6.6-5.606l1.362-1.713c2.28,1.813,4.537,3.729,6.709,5.695ZM1281.044,438.01l-1.256-1.793c2.395-1.678,4.871-3.3,7.359-4.812l1.139,1.87C1285.837,434.766,1283.4,436.358,1281.044,438.01Zm154.518-.231c-2.358-1.642-4.8-3.23-7.262-4.718l1.133-1.873c2.5,1.513,4.983,3.126,7.379,4.794Zm-139.748-8.764-1.016-1.938c2.58-1.354,5.242-2.642,7.908-3.829l.891,2C1300.972,426.415,1298.353,427.682,1295.814,429.014Zm124.938-.2c-2.549-1.326-5.175-2.587-7.807-3.748l.884-2c2.674,1.18,5.344,2.461,7.933,3.808ZM1311.6,421.989l-.76-2.054c2.736-1.011,5.544-1.948,8.346-2.784l.625,2.1C1317.058,420.071,1314.3,420.993,1311.6,421.989Zm93.309-.16c-2.7-.988-5.47-1.9-8.225-2.713l.619-2.1c2.8.825,5.612,1.752,8.359,2.758Zm-76.725-4.784-.489-2.134c2.844-.652,5.749-1.219,8.635-1.687l.351,2.161C1333.845,415.846,1330.986,416.4,1328.187,417.045Zm60.118-.1c-2.8-.63-5.658-1.179-8.5-1.63l.343-2.162c2.892.459,5.8,1.016,8.642,1.657Zm-43.037-2.666-.211-2.18c2.9-.281,5.854-.473,8.777-.57l.072,2.188C1351.03,413.809,1348.123,414,1345.268,414.275Zm25.944-.046c-2.857-.267-5.765-.446-8.644-.531l.066-2.188c2.924.086,5.879.268,8.782.54Z" transform="translate(6366.243 -6155.818)"/>
    <path id="Trazado_19747" data-name="Trazado 19747" d="M1486.137,554.365a121.988,121.988,0,1,1-14.779-58.212A121.255,121.255,0,0,1,1486.137,554.365Z" transform="translate(6360.583 -6161.455)" fill="url(#linear-gradient)"/>
    <path id="Trazado_19748" data-name="Trazado 19748" d="M26.728,12.008l-.016.367h-6a2.714,2.714,0,0,0,.734,1.965,2.411,2.411,0,0,0,1.75.684,2.3,2.3,0,0,0,1.273-.367,2.383,2.383,0,0,0,.875-1.016l1.219.258a3.464,3.464,0,0,1-1.312,1.648,3.581,3.581,0,0,1-2.039.6,3.71,3.71,0,0,1-2.766-1.07,3.982,3.982,0,0,1-1.055-2.922,3.962,3.962,0,0,1,1.059-2.914,3.664,3.664,0,0,1,2.723-1.07,3.467,3.467,0,0,1,2.582.984A3.889,3.889,0,0,1,26.728,12.008Zm-3.555-2.8a2.4,2.4,0,0,0-1.6.543,2.488,2.488,0,0,0-.809,1.582h4.6A2.282,2.282,0,0,0,24.7,9.754,2.17,2.17,0,0,0,23.173,9.211Zm9.3-1.039a2.671,2.671,0,0,1,1.934.7,2.594,2.594,0,0,1,.723,1.961V16H33.775V11.133a1.816,1.816,0,0,0-.469-1.375,1.676,1.676,0,0,0-1.2-.445,1.858,1.858,0,0,0-1.367.527,2.14,2.14,0,0,0-.539,1.566V16H28.845V8.32H30.2V9.3A2.565,2.565,0,0,1,32.47,8.172Zm16.141,3.836-.016.367h-6a2.714,2.714,0,0,0,.734,1.965,2.411,2.411,0,0,0,1.75.684,2.3,2.3,0,0,0,1.273-.367,2.383,2.383,0,0,0,.875-1.016l1.219.258a3.464,3.464,0,0,1-1.312,1.648,3.581,3.581,0,0,1-2.039.6,3.71,3.71,0,0,1-2.766-1.07,3.982,3.982,0,0,1-1.055-2.922,3.962,3.962,0,0,1,1.059-2.914,3.664,3.664,0,0,1,2.723-1.07,3.467,3.467,0,0,1,2.582.984A3.889,3.889,0,0,1,48.611,12.008Zm-3.555-2.8a2.4,2.4,0,0,0-1.6.543,2.488,2.488,0,0,0-.809,1.582h4.6a2.282,2.282,0,0,0-.672-1.582A2.17,2.17,0,0,0,45.056,9.211Zm8.1,6.938a3.641,3.641,0,0,1-2.07-.555,2.294,2.294,0,0,1-1.008-1.578l1.18-.336a1.645,1.645,0,0,0,.629,1.066,2.04,2.04,0,0,0,1.262.379,2.518,2.518,0,0,0,.738-.1,1.184,1.184,0,0,0,.566-.379,1.057,1.057,0,0,0,.164-1.016,1.356,1.356,0,0,0-.125-.254.774.774,0,0,0-.219-.211A2.884,2.884,0,0,0,54.009,13a2.726,2.726,0,0,0-.348-.145q-.23-.082-.371-.125t-.43-.125q-.289-.082-.445-.129a8.33,8.33,0,0,1-.8-.281,3.5,3.5,0,0,1-.648-.371,1.493,1.493,0,0,1-.5-.605,2.049,2.049,0,0,1-.168-.859,1.986,1.986,0,0,1,.375-1.227,2.11,2.11,0,0,1,.973-.723,3.888,3.888,0,0,1,1.363-.223,3.337,3.337,0,0,1,1.871.5,2.134,2.134,0,0,1,.934,1.5l-1.109.281a1.471,1.471,0,0,0-.586-.973,1.865,1.865,0,0,0-1.1-.324,1.9,1.9,0,0,0-1.031.27.906.906,0,0,0-.43.824.82.82,0,0,0,.113.426,1.352,1.352,0,0,0,.23.3,1.417,1.417,0,0,0,.422.23q.3.121.453.164t.563.145q.078.023.117.031.453.117.738.207a4.538,4.538,0,0,1,.664.281,2.208,2.208,0,0,1,.6.418,1.936,1.936,0,0,1,.375.594,2.1,2.1,0,0,1,.156.828,2.237,2.237,0,0,1-.23,1.035,1.8,1.8,0,0,1-.629.707,3.042,3.042,0,0,1-.895.387A4.262,4.262,0,0,1,53.158,16.148ZM60.564,16a2.019,2.019,0,0,1-1.5-.551,2.084,2.084,0,0,1-.547-1.535V9.4h-1.57V8.32h.578a1.11,1.11,0,0,0,.848-.27,1.326,1.326,0,0,0,.246-.9V5.758h1.258V8.32h1.766V9.4H59.877v4.375a1.164,1.164,0,0,0,.293.848,1.026,1.026,0,0,0,.77.3h.7V16Zm4.711.148a2.613,2.613,0,0,1-1.684-.527,1.894,1.894,0,0,1-.66-1.574,2.237,2.237,0,0,1,.211-1,1.77,1.77,0,0,1,.625-.7,3.749,3.749,0,0,1,.9-.434,8.341,8.341,0,0,1,1.168-.277l1.242-.2q.68-.125.68-.711a1.342,1.342,0,0,0-.48-1.145,1.958,1.958,0,0,0-1.215-.363,1.994,1.994,0,0,0-1.2.352,1.471,1.471,0,0,0-.57,1.078l-1.219-.258a2.346,2.346,0,0,1,.961-1.645,3.59,3.59,0,0,1,2.094-.551,4.247,4.247,0,0,1,1.113.137,3.025,3.025,0,0,1,.93.43,1.927,1.927,0,0,1,.664.828,3.081,3.081,0,0,1,.238,1.262v3.172a1.3,1.3,0,0,0,.176.8.759.759,0,0,0,.605.207h.125V16h-.672a1.281,1.281,0,0,1-1.453-1.039h-.062A2.935,2.935,0,0,1,65.275,16.148Zm.313-1.094a2.049,2.049,0,0,0,1.648-.742,3.056,3.056,0,0,0,.625-2.031l-2.031.391a2.734,2.734,0,0,0-1.191.426.99.99,0,0,0-.387.84.979.979,0,0,0,.371.844A1.586,1.586,0,0,0,65.588,15.055Zm17.172-3.047-.016.367h-6a2.714,2.714,0,0,0,.734,1.965,2.411,2.411,0,0,0,1.75.684,2.3,2.3,0,0,0,1.273-.367,2.383,2.383,0,0,0,.875-1.016L82.6,13.9a3.464,3.464,0,0,1-1.312,1.648,3.581,3.581,0,0,1-2.039.6,3.71,3.71,0,0,1-2.766-1.07,3.982,3.982,0,0,1-1.055-2.922,3.962,3.962,0,0,1,1.059-2.914A3.664,3.664,0,0,1,79.2,8.172a3.467,3.467,0,0,1,2.582.984A3.889,3.889,0,0,1,82.759,12.008ZM79.2,9.211a2.4,2.4,0,0,0-1.6.543,2.488,2.488,0,0,0-.809,1.582h4.6a2.282,2.282,0,0,0-.672-1.582A2.17,2.17,0,0,0,79.2,9.211Zm8.1,6.938a3.641,3.641,0,0,1-2.07-.555,2.294,2.294,0,0,1-1.008-1.578l1.18-.336a1.645,1.645,0,0,0,.629,1.066,2.04,2.04,0,0,0,1.262.379,2.518,2.518,0,0,0,.738-.1,1.184,1.184,0,0,0,.566-.379,1.057,1.057,0,0,0,.164-1.016,1.357,1.357,0,0,0-.125-.254.774.774,0,0,0-.219-.211A2.885,2.885,0,0,0,88.158,13a2.726,2.726,0,0,0-.348-.145q-.23-.082-.371-.125t-.43-.125q-.289-.082-.445-.129a8.331,8.331,0,0,1-.8-.281,3.5,3.5,0,0,1-.648-.371,1.493,1.493,0,0,1-.5-.605,2.049,2.049,0,0,1-.168-.859,1.986,1.986,0,0,1,.375-1.227,2.11,2.11,0,0,1,.973-.723,3.888,3.888,0,0,1,1.363-.223,3.337,3.337,0,0,1,1.871.5,2.134,2.134,0,0,1,.934,1.5l-1.109.281a1.471,1.471,0,0,0-.586-.973,1.865,1.865,0,0,0-1.1-.324,1.9,1.9,0,0,0-1.031.27.906.906,0,0,0-.43.824.82.82,0,0,0,.113.426,1.352,1.352,0,0,0,.23.3,1.417,1.417,0,0,0,.422.23q.3.121.453.164t.563.145q.078.023.117.031.453.117.738.207a4.538,4.538,0,0,1,.664.281,2.208,2.208,0,0,1,.6.418,1.936,1.936,0,0,1,.375.594,2.1,2.1,0,0,1,.156.828,2.237,2.237,0,0,1-.23,1.035,1.8,1.8,0,0,1-.629.707,3.042,3.042,0,0,1-.895.387A4.262,4.262,0,0,1,87.306,16.148ZM94.713,16a2.019,2.019,0,0,1-1.5-.551,2.084,2.084,0,0,1-.547-1.535V9.4H91.1V8.32h.578a1.11,1.11,0,0,0,.848-.27,1.326,1.326,0,0,0,.246-.9V5.758h1.258V8.32h1.766V9.4H94.025v4.375a1.164,1.164,0,0,0,.293.848,1.026,1.026,0,0,0,.77.3h.7V16Zm4.711.148a2.613,2.613,0,0,1-1.684-.527,1.894,1.894,0,0,1-.66-1.574,2.237,2.237,0,0,1,.211-1,1.77,1.77,0,0,1,.625-.7,3.749,3.749,0,0,1,.9-.434,8.341,8.341,0,0,1,1.168-.277l1.242-.2q.68-.125.68-.711a1.342,1.342,0,0,0-.48-1.145,1.958,1.958,0,0,0-1.215-.363,1.994,1.994,0,0,0-1.2.352,1.471,1.471,0,0,0-.57,1.078l-1.219-.258a2.346,2.346,0,0,1,.961-1.645,3.59,3.59,0,0,1,2.094-.551,4.247,4.247,0,0,1,1.113.137,3.025,3.025,0,0,1,.93.43,1.927,1.927,0,0,1,.664.828,3.081,3.081,0,0,1,.238,1.262v3.172a1.3,1.3,0,0,0,.176.8.759.759,0,0,0,.605.207h.125V16h-.672A1.281,1.281,0,0,1,102,14.961h-.062A2.935,2.935,0,0,1,99.423,16.148Zm.313-1.094a2.049,2.049,0,0,0,1.648-.742,3.056,3.056,0,0,0,.625-2.031l-2.031.391a2.734,2.734,0,0,0-1.191.426.99.99,0,0,0-.387.84.979.979,0,0,0,.371.844A1.586,1.586,0,0,0,99.736,15.055Zm9.328,1.086a3.7,3.7,0,0,1-2.75-1.1,3.929,3.929,0,0,1-1.086-2.883,3.937,3.937,0,0,1,1.082-2.883,4,4,0,0,1,4.977-.43,3.391,3.391,0,0,1,1.293,1.867l-1.266.2a2.337,2.337,0,0,0-.867-1.2,2.361,2.361,0,0,0-1.391-.422,2.27,2.27,0,0,0-1.777.789,3.006,3.006,0,0,0-.7,2.07,2.991,2.991,0,0,0,.7,2.066,2.275,2.275,0,0,0,1.777.785,2.361,2.361,0,0,0,1.391-.422,2.337,2.337,0,0,0,.867-1.2l1.266.211a3.4,3.4,0,0,1-1.3,1.863A3.72,3.72,0,0,1,109.064,16.141Zm6.2-9.625a.92.92,0,0,1-.914-.914.867.867,0,0,1,.27-.641.886.886,0,0,1,.645-.266.877.877,0,0,1,.637.266.867.867,0,0,1,.27.641.88.88,0,0,1-.27.645A.871.871,0,0,1,115.259,6.516ZM114.572,16V8.32h1.359V16ZM121.4,7l1.961-2.547.719.523L122.33,7Zm.516,9.148a4.048,4.048,0,0,1-1.969-.477,3.47,3.47,0,0,1-1.387-1.395,4.283,4.283,0,0,1-.512-2.121,3.912,3.912,0,0,1,1.09-2.895,4.089,4.089,0,0,1,5.559,0,3.92,3.92,0,0,1,1.086,2.895,3.923,3.923,0,0,1-1.09,2.9A3.762,3.762,0,0,1,121.916,16.148Zm-.008-1.125a2.359,2.359,0,0,0,1.816-.789,2.957,2.957,0,0,0,.723-2.078,2.945,2.945,0,0,0-.723-2.07,2.359,2.359,0,0,0-1.816-.789,2.326,2.326,0,0,0-1.8.789,2.965,2.965,0,0,0-.715,2.07,2.976,2.976,0,0,0,.715,2.078A2.326,2.326,0,0,0,121.908,15.023Zm9.617-6.852a2.671,2.671,0,0,1,1.934.7,2.594,2.594,0,0,1,.723,1.961V16H132.83V11.133a1.816,1.816,0,0,0-.469-1.375,1.676,1.676,0,0,0-1.2-.445,1.858,1.858,0,0,0-1.367.527,2.14,2.14,0,0,0-.539,1.566V16H127.9V8.32h1.352V9.3A2.565,2.565,0,0,1,131.525,8.172Zm11.852,7.977a3.641,3.641,0,0,1-2.07-.555,2.294,2.294,0,0,1-1.008-1.578l1.18-.336a1.645,1.645,0,0,0,.629,1.066,2.04,2.04,0,0,0,1.262.379,2.518,2.518,0,0,0,.738-.1,1.183,1.183,0,0,0,.566-.379,1.057,1.057,0,0,0,.164-1.016,1.356,1.356,0,0,0-.125-.254.774.774,0,0,0-.219-.211,2.884,2.884,0,0,0-.266-.164,2.727,2.727,0,0,0-.348-.145q-.23-.082-.371-.125t-.43-.125q-.289-.082-.445-.129a8.329,8.329,0,0,1-.8-.281,3.5,3.5,0,0,1-.648-.371,1.493,1.493,0,0,1-.5-.605,2.048,2.048,0,0,1-.168-.859,1.986,1.986,0,0,1,.375-1.227,2.11,2.11,0,0,1,.973-.723,3.888,3.888,0,0,1,1.363-.223,3.337,3.337,0,0,1,1.871.5,2.134,2.134,0,0,1,.934,1.5l-1.109.281a1.471,1.471,0,0,0-.586-.973,1.866,1.866,0,0,0-1.1-.324,1.9,1.9,0,0,0-1.031.27.906.906,0,0,0-.43.824.82.82,0,0,0,.113.426,1.352,1.352,0,0,0,.23.3,1.417,1.417,0,0,0,.422.23q.3.121.453.164t.563.145q.078.023.117.031.453.117.738.207a4.538,4.538,0,0,1,.664.281,2.208,2.208,0,0,1,.6.418,1.937,1.937,0,0,1,.375.594,2.1,2.1,0,0,1,.156.828,2.237,2.237,0,0,1-.23,1.035,1.8,1.8,0,0,1-.629.707,3.042,3.042,0,0,1-.895.387A4.262,4.262,0,0,1,143.377,16.148Zm11.672-4.141-.016.367h-6a2.714,2.714,0,0,0,.734,1.965,2.411,2.411,0,0,0,1.75.684,2.3,2.3,0,0,0,1.273-.367,2.383,2.383,0,0,0,.875-1.016l1.219.258a3.464,3.464,0,0,1-1.312,1.648,3.581,3.581,0,0,1-2.039.6,3.71,3.71,0,0,1-2.766-1.07,3.982,3.982,0,0,1-1.055-2.922,3.962,3.962,0,0,1,1.059-2.914,3.664,3.664,0,0,1,2.723-1.07,3.467,3.467,0,0,1,2.582.984A3.889,3.889,0,0,1,155.048,12.008Zm-3.555-2.8a2.4,2.4,0,0,0-1.6.543,2.488,2.488,0,0,0-.809,1.582h4.6a2.282,2.282,0,0,0-.672-1.582A2.17,2.17,0,0,0,151.494,9.211ZM161.322,16V4h1.367V16Zm10.836-3.992-.016.367h-6a2.714,2.714,0,0,0,.734,1.965,2.411,2.411,0,0,0,1.75.684,2.3,2.3,0,0,0,1.273-.367,2.383,2.383,0,0,0,.875-1.016l1.219.258a3.464,3.464,0,0,1-1.312,1.648,3.581,3.581,0,0,1-2.039.6,3.71,3.71,0,0,1-2.766-1.07,3.982,3.982,0,0,1-1.055-2.922,3.962,3.962,0,0,1,1.059-2.914,3.664,3.664,0,0,1,2.723-1.07,3.467,3.467,0,0,1,2.582.984A3.889,3.889,0,0,1,172.158,12.008Zm-3.555-2.8a2.4,2.4,0,0,0-1.6.543,2.488,2.488,0,0,0-.809,1.582h4.6a2.282,2.282,0,0,0-.672-1.582A2.17,2.17,0,0,0,168.6,9.211ZM28.314,28h1.352V40h-1.3l-.031-1.492a2.826,2.826,0,0,1-1.094,1.211,3.048,3.048,0,0,1-1.625.445,3.49,3.49,0,0,1-2.535-1.082,3.7,3.7,0,0,1-.773-1.27,4.644,4.644,0,0,1-.285-1.648,4.038,4.038,0,0,1,1.043-2.883,3.367,3.367,0,0,1,2.551-1.109,3.061,3.061,0,0,1,1.605.434,2.842,2.842,0,0,1,1.1,1.176ZM25.892,38.992a2.3,2.3,0,0,0,1.785-.809,3.171,3.171,0,0,0,0-4.035,2.3,2.3,0,0,0-1.781-.812,2.35,2.35,0,0,0-1.8.785,3.236,3.236,0,0,0,0,4.086A2.35,2.35,0,0,0,25.892,38.992Zm8.3,1.156a2.613,2.613,0,0,1-1.684-.527,1.894,1.894,0,0,1-.66-1.574,2.237,2.237,0,0,1,.211-1,1.77,1.77,0,0,1,.625-.7,3.749,3.749,0,0,1,.9-.434,8.341,8.341,0,0,1,1.168-.277l1.242-.2q.68-.125.68-.711a1.342,1.342,0,0,0-.48-1.145,1.958,1.958,0,0,0-1.215-.363,1.994,1.994,0,0,0-1.2.352,1.471,1.471,0,0,0-.57,1.078l-1.219-.258a2.346,2.346,0,0,1,.961-1.645,3.59,3.59,0,0,1,2.094-.551,4.247,4.247,0,0,1,1.113.137,3.025,3.025,0,0,1,.93.43,1.927,1.927,0,0,1,.664.828,3.081,3.081,0,0,1,.238,1.262v3.172a1.3,1.3,0,0,0,.176.8.759.759,0,0,0,.605.207h.125V40H38.22a1.281,1.281,0,0,1-1.453-1.039H36.7A2.935,2.935,0,0,1,34.189,40.148Zm.313-1.094a2.049,2.049,0,0,0,1.648-.742,3.056,3.056,0,0,0,.625-2.031l-2.031.391a2.734,2.734,0,0,0-1.191.426.99.99,0,0,0-.387.84.979.979,0,0,0,.371.844A1.586,1.586,0,0,0,34.5,39.055Zm17.172-3.047-.016.367h-6a2.714,2.714,0,0,0,.734,1.965,2.411,2.411,0,0,0,1.75.684,2.3,2.3,0,0,0,1.273-.367,2.383,2.383,0,0,0,.875-1.016l1.219.258A3.464,3.464,0,0,1,50.2,39.547a3.581,3.581,0,0,1-2.039.6,3.71,3.71,0,0,1-2.766-1.07,3.982,3.982,0,0,1-1.055-2.922A3.962,3.962,0,0,1,45.4,33.242a3.664,3.664,0,0,1,2.723-1.07,3.467,3.467,0,0,1,2.582.984A3.889,3.889,0,0,1,51.673,36.008Zm-3.555-2.8a2.4,2.4,0,0,0-1.6.543,2.488,2.488,0,0,0-.809,1.582h4.6a2.282,2.282,0,0,0-.672-1.582A2.17,2.17,0,0,0,48.119,33.211ZM53.791,40V28h1.367V40Zm10.047.148a2.613,2.613,0,0,1-1.684-.527,1.894,1.894,0,0,1-.66-1.574,2.237,2.237,0,0,1,.211-1,1.77,1.77,0,0,1,.625-.7,3.749,3.749,0,0,1,.9-.434,8.341,8.341,0,0,1,1.168-.277l1.242-.2q.68-.125.68-.711a1.342,1.342,0,0,0-.48-1.145,1.958,1.958,0,0,0-1.215-.363,1.994,1.994,0,0,0-1.2.352,1.471,1.471,0,0,0-.57,1.078l-1.219-.258a2.346,2.346,0,0,1,.961-1.645,3.59,3.59,0,0,1,2.094-.551,4.247,4.247,0,0,1,1.113.137,3.025,3.025,0,0,1,.93.43,1.927,1.927,0,0,1,.664.828,3.081,3.081,0,0,1,.238,1.262v3.172a1.3,1.3,0,0,0,.176.8.759.759,0,0,0,.605.207h.125V40h-.672a1.281,1.281,0,0,1-1.453-1.039h-.062A2.935,2.935,0,0,1,63.838,40.148Zm.312-1.094a2.049,2.049,0,0,0,1.648-.742,3.056,3.056,0,0,0,.625-2.031l-2.031.391A2.734,2.734,0,0,0,63.2,37.1a.99.99,0,0,0-.387.84.979.979,0,0,0,.371.844A1.586,1.586,0,0,0,64.15,39.055Zm9.328,1.086a3.7,3.7,0,0,1-2.75-1.1,4.375,4.375,0,0,1,0-5.766,4,4,0,0,1,4.977-.43,3.391,3.391,0,0,1,1.293,1.867l-1.266.2a2.337,2.337,0,0,0-.867-1.2A2.361,2.361,0,0,0,73.47,33.3a2.27,2.27,0,0,0-1.777.789,3.409,3.409,0,0,0,0,4.137,2.275,2.275,0,0,0,1.777.785,2.361,2.361,0,0,0,1.391-.422,2.337,2.337,0,0,0,.867-1.2l1.266.211a3.4,3.4,0,0,1-1.3,1.863A3.72,3.72,0,0,1,73.478,40.141Zm7.281.008a2.613,2.613,0,0,1-1.684-.527,1.894,1.894,0,0,1-.66-1.574,2.237,2.237,0,0,1,.211-1,1.77,1.77,0,0,1,.625-.7,3.749,3.749,0,0,1,.9-.434,8.342,8.342,0,0,1,1.168-.277l1.242-.2q.68-.125.68-.711a1.342,1.342,0,0,0-.48-1.145,1.958,1.958,0,0,0-1.215-.363,1.994,1.994,0,0,0-1.2.352,1.471,1.471,0,0,0-.57,1.078l-1.219-.258a2.346,2.346,0,0,1,.961-1.645,3.59,3.59,0,0,1,2.094-.551,4.247,4.247,0,0,1,1.113.137,3.025,3.025,0,0,1,.93.43,1.927,1.927,0,0,1,.664.828,3.081,3.081,0,0,1,.238,1.262v3.172a1.3,1.3,0,0,0,.176.8.759.759,0,0,0,.605.207h.125V40h-.672a1.281,1.281,0,0,1-1.453-1.039h-.062A2.935,2.935,0,0,1,80.759,40.148Zm.313-1.094a2.049,2.049,0,0,0,1.648-.742,3.056,3.056,0,0,0,.625-2.031l-2.031.391a2.734,2.734,0,0,0-1.191.426.99.99,0,0,0-.387.84.979.979,0,0,0,.371.844A1.586,1.586,0,0,0,81.072,39.055Zm10.367-6.883a3.346,3.346,0,0,1,2.539,1.109,4.543,4.543,0,0,1,.008,5.773,3.339,3.339,0,0,1-2.547,1.109,3.082,3.082,0,0,1-1.637-.445,2.818,2.818,0,0,1-1.1-1.211L88.673,40h-1.3V28h1.344l.008,5.789a2.83,2.83,0,0,1,1.1-1.184A3.09,3.09,0,0,1,91.439,32.172Zm-.3,6.82a2.35,2.35,0,0,0,1.8-.785,3.236,3.236,0,0,0,0-4.086,2.35,2.35,0,0,0-1.8-.785,2.3,2.3,0,0,0-1.781.813,3.171,3.171,0,0,0,0,4.035A2.3,2.3,0,0,0,91.142,38.992Zm7.773,1.156a2.613,2.613,0,0,1-1.684-.527,1.894,1.894,0,0,1-.66-1.574,2.237,2.237,0,0,1,.211-1,1.77,1.77,0,0,1,.625-.7,3.749,3.749,0,0,1,.9-.434,8.342,8.342,0,0,1,1.168-.277l1.242-.2q.68-.125.68-.711a1.342,1.342,0,0,0-.48-1.145,1.958,1.958,0,0,0-1.215-.363,1.994,1.994,0,0,0-1.2.352,1.471,1.471,0,0,0-.57,1.078l-1.219-.258a2.346,2.346,0,0,1,.961-1.645,3.59,3.59,0,0,1,2.094-.551,4.247,4.247,0,0,1,1.113.137,3.025,3.025,0,0,1,.93.43,1.927,1.927,0,0,1,.664.828,3.081,3.081,0,0,1,.238,1.262v3.172a1.3,1.3,0,0,0,.176.8.759.759,0,0,0,.605.207h.125V40h-.672a1.281,1.281,0,0,1-1.453-1.039h-.062A2.935,2.935,0,0,1,98.916,40.148Zm.313-1.094a2.049,2.049,0,0,0,1.648-.742,3.056,3.056,0,0,0,.625-2.031l-2.031.391a2.734,2.734,0,0,0-1.191.426.99.99,0,0,0-.387.84.979.979,0,0,0,.371.844A1.586,1.586,0,0,0,99.228,39.055ZM111.041,28h1.352V40h-1.3l-.031-1.492a2.826,2.826,0,0,1-1.094,1.211,3.048,3.048,0,0,1-1.625.445,3.49,3.49,0,0,1-2.535-1.082,3.7,3.7,0,0,1-.773-1.27,4.644,4.644,0,0,1-.285-1.648,4.038,4.038,0,0,1,1.043-2.883,3.367,3.367,0,0,1,2.551-1.109,3.061,3.061,0,0,1,1.605.434,2.842,2.842,0,0,1,1.1,1.176Zm-2.422,10.992a2.3,2.3,0,0,0,1.785-.809,3.171,3.171,0,0,0,0-4.035,2.3,2.3,0,0,0-1.781-.812,2.35,2.35,0,0,0-1.8.785,3.236,3.236,0,0,0,0,4.086A2.35,2.35,0,0,0,108.619,38.992Zm9.758,1.156a4.048,4.048,0,0,1-1.969-.477,3.47,3.47,0,0,1-1.387-1.395,4.283,4.283,0,0,1-.512-2.121,3.912,3.912,0,0,1,1.09-2.895,4.089,4.089,0,0,1,5.559,0,3.92,3.92,0,0,1,1.086,2.895,3.923,3.923,0,0,1-1.09,2.9A3.762,3.762,0,0,1,118.377,40.148Zm-.008-1.125a2.359,2.359,0,0,0,1.816-.789,3.338,3.338,0,0,0,0-4.148,2.359,2.359,0,0,0-1.816-.789,2.326,2.326,0,0,0-1.8.789,3.367,3.367,0,0,0,0,4.148A2.326,2.326,0,0,0,118.369,39.023Zm10.547-8.312a4.417,4.417,0,0,1,.082-.895,2.9,2.9,0,0,1,.219-.676,1.606,1.606,0,0,1,.363-.488,2.138,2.138,0,0,1,.473-.332,2.346,2.346,0,0,1,.582-.2,5.463,5.463,0,0,1,.66-.1q.324-.027.746-.027v1.133h-.293q-.09,0-.281.016a1.8,1.8,0,0,0-.281.039q-.09.023-.242.078a.618.618,0,0,0-.23.133q-.078.078-.18.2a.817.817,0,0,0-.152.281,2.688,2.688,0,0,0-.086.375,2.991,2.991,0,0,0-.035.48V32.32h1.781V33.4h-1.781V40h-1.344V33.4h-1.484V32.32h1.484Zm5.375-.2a.92.92,0,0,1-.914-.914.867.867,0,0,1,.27-.641.886.886,0,0,1,.645-.266.877.877,0,0,1,.637.266.867.867,0,0,1,.27.641.88.88,0,0,1-.27.645A.871.871,0,0,1,134.291,30.516ZM133.6,40V32.32h1.359V40Zm7.734-7.828a2.671,2.671,0,0,1,1.934.7,2.594,2.594,0,0,1,.723,1.961V40h-1.352V35.133a1.816,1.816,0,0,0-.469-1.375,1.676,1.676,0,0,0-1.2-.445,1.858,1.858,0,0,0-1.367.527,2.14,2.14,0,0,0-.539,1.566V40h-1.352V32.32h1.352V33.3A2.565,2.565,0,0,1,141.338,32.172Zm7.039,7.977a2.613,2.613,0,0,1-1.684-.527,1.894,1.894,0,0,1-.66-1.574,2.237,2.237,0,0,1,.211-1,1.77,1.77,0,0,1,.625-.7,3.749,3.749,0,0,1,.9-.434,8.341,8.341,0,0,1,1.168-.277l1.242-.2q.68-.125.68-.711a1.342,1.342,0,0,0-.48-1.145,1.958,1.958,0,0,0-1.215-.363,1.994,1.994,0,0,0-1.2.352,1.471,1.471,0,0,0-.57,1.078l-1.219-.258a2.346,2.346,0,0,1,.961-1.645,3.59,3.59,0,0,1,2.094-.551,4.247,4.247,0,0,1,1.113.137,3.026,3.026,0,0,1,.93.43,1.927,1.927,0,0,1,.664.828,3.081,3.081,0,0,1,.238,1.262v3.172a1.3,1.3,0,0,0,.176.8.759.759,0,0,0,.605.207h.125V40h-.672a1.281,1.281,0,0,1-1.453-1.039h-.062A2.935,2.935,0,0,1,148.377,40.148Zm.313-1.094a2.049,2.049,0,0,0,1.648-.742,3.056,3.056,0,0,0,.625-2.031l-2.031.391a2.734,2.734,0,0,0-1.191.426.99.99,0,0,0-.387.84.979.979,0,0,0,.371.844A1.586,1.586,0,0,0,148.689,39.055Zm6.3.945V28h1.367V40Zm10.047.148a2.613,2.613,0,0,1-1.684-.527,1.894,1.894,0,0,1-.66-1.574,2.237,2.237,0,0,1,.211-1,1.77,1.77,0,0,1,.625-.7,3.749,3.749,0,0,1,.9-.434,8.341,8.341,0,0,1,1.168-.277l1.242-.2q.68-.125.68-.711a1.342,1.342,0,0,0-.48-1.145,1.958,1.958,0,0,0-1.215-.363,1.994,1.994,0,0,0-1.2.352,1.471,1.471,0,0,0-.57,1.078l-1.219-.258a2.346,2.346,0,0,1,.961-1.645,3.59,3.59,0,0,1,2.094-.551,4.247,4.247,0,0,1,1.113.137,3.026,3.026,0,0,1,.93.43,1.927,1.927,0,0,1,.664.828,3.081,3.081,0,0,1,.238,1.262v3.172a1.3,1.3,0,0,0,.176.8.759.759,0,0,0,.605.207h.125V40h-.672a1.281,1.281,0,0,1-1.453-1.039h-.062A2.935,2.935,0,0,1,165.033,40.148Zm.313-1.094a2.049,2.049,0,0,0,1.648-.742,3.056,3.056,0,0,0,.625-2.031l-2.031.391a2.734,2.734,0,0,0-1.191.426.99.99,0,0,0-.387.84.979.979,0,0,0,.371.844A1.586,1.586,0,0,0,165.345,39.055ZM37.263,64V52h1.367V64Zm5.891.148a2.613,2.613,0,0,1-1.684-.527,1.894,1.894,0,0,1-.66-1.574,2.237,2.237,0,0,1,.211-1,1.77,1.77,0,0,1,.625-.7,3.749,3.749,0,0,1,.9-.434,8.341,8.341,0,0,1,1.168-.277l1.242-.2q.68-.125.68-.711a1.342,1.342,0,0,0-.48-1.145,1.958,1.958,0,0,0-1.215-.363,1.994,1.994,0,0,0-1.2.352,1.471,1.471,0,0,0-.57,1.078l-1.219-.258a2.346,2.346,0,0,1,.961-1.645,3.59,3.59,0,0,1,2.094-.551,4.247,4.247,0,0,1,1.113.137,3.025,3.025,0,0,1,.93.43,1.927,1.927,0,0,1,.664.828,3.081,3.081,0,0,1,.238,1.262v3.172a1.3,1.3,0,0,0,.176.8.759.759,0,0,0,.605.207h.125V64h-.672a1.281,1.281,0,0,1-1.453-1.039H45.67A2.935,2.935,0,0,1,43.154,64.148Zm.313-1.094a2.049,2.049,0,0,0,1.648-.742,3.056,3.056,0,0,0,.625-2.031l-2.031.391a2.734,2.734,0,0,0-1.191.426.99.99,0,0,0-.387.84.979.979,0,0,0,.371.844A1.586,1.586,0,0,0,43.466,63.055Zm14.508-6.883a3.493,3.493,0,0,1,1.391.281,3.421,3.421,0,0,1,1.141.789,3.688,3.688,0,0,1,.77,1.266,4.667,4.667,0,0,1,.285,1.656,4.061,4.061,0,0,1-1.035,2.9,3.362,3.362,0,0,1-2.551,1.1,3.04,3.04,0,0,1-1.605-.437,2.867,2.867,0,0,1-1.1-1.18v5.32H53.92V56.32h1.3l.031,1.492a2.811,2.811,0,0,1,1.094-1.2A3.068,3.068,0,0,1,57.974,56.172Zm-.266,6.82a2.332,2.332,0,0,0,1.777-.777,3.266,3.266,0,0,0,0-4.1,2.423,2.423,0,0,0-3.582.035,3.133,3.133,0,0,0,0,4.031A2.343,2.343,0,0,0,57.709,62.992Zm7.3-5.32a2.322,2.322,0,0,1,.953-1.031,2.87,2.87,0,0,1,1.477-.406v1.273a2.53,2.53,0,0,0-1.785.57,2.382,2.382,0,0,0-.613,1.82V64H63.693V56.32h1.32Zm10.641,2.336-.016.367h-6a2.714,2.714,0,0,0,.734,1.965,2.411,2.411,0,0,0,1.75.684,2.3,2.3,0,0,0,1.273-.367,2.383,2.383,0,0,0,.875-1.016l1.219.258a3.464,3.464,0,0,1-1.312,1.648,3.581,3.581,0,0,1-2.039.6,3.71,3.71,0,0,1-2.766-1.07,4.557,4.557,0,0,1,0-5.836,3.664,3.664,0,0,1,2.723-1.07,3.467,3.467,0,0,1,2.582.984A3.889,3.889,0,0,1,75.654,60.008Zm-3.555-2.8a2.4,2.4,0,0,0-1.6.543,2.488,2.488,0,0,0-.809,1.582h4.6a2.282,2.282,0,0,0-.672-1.582A2.17,2.17,0,0,0,72.1,57.211Zm9.3-1.039a2.671,2.671,0,0,1,1.934.7,2.594,2.594,0,0,1,.723,1.961V64H82.7V59.133a1.816,1.816,0,0,0-.469-1.375,1.676,1.676,0,0,0-1.2-.445,1.858,1.858,0,0,0-1.367.527,2.14,2.14,0,0,0-.539,1.566V64H77.771V56.32h1.352V57.3A2.565,2.565,0,0,1,81.4,56.172ZM92.334,52h1.352V64h-1.3l-.031-1.492a2.826,2.826,0,0,1-1.094,1.211,3.048,3.048,0,0,1-1.625.445A3.49,3.49,0,0,1,87.1,63.082a3.7,3.7,0,0,1-.773-1.27,4.644,4.644,0,0,1-.285-1.648,4.038,4.038,0,0,1,1.043-2.883,3.367,3.367,0,0,1,2.551-1.109,3.061,3.061,0,0,1,1.605.434,2.842,2.842,0,0,1,1.1,1.176ZM89.912,62.992a2.3,2.3,0,0,0,1.785-.809,3.171,3.171,0,0,0,0-4.035,2.3,2.3,0,0,0-1.781-.812,2.35,2.35,0,0,0-1.8.785,3.236,3.236,0,0,0,0,4.086A2.35,2.35,0,0,0,89.912,62.992Zm8.3,1.156a2.613,2.613,0,0,1-1.684-.527,1.894,1.894,0,0,1-.66-1.574,2.237,2.237,0,0,1,.211-1,1.77,1.77,0,0,1,.625-.7,3.749,3.749,0,0,1,.9-.434,8.342,8.342,0,0,1,1.168-.277l1.242-.2q.68-.125.68-.711a1.342,1.342,0,0,0-.48-1.145A1.958,1.958,0,0,0,99,57.211a1.994,1.994,0,0,0-1.2.352,1.471,1.471,0,0,0-.57,1.078l-1.219-.258a2.346,2.346,0,0,1,.961-1.645,3.59,3.59,0,0,1,2.094-.551,4.247,4.247,0,0,1,1.113.137,3.025,3.025,0,0,1,.93.43,1.927,1.927,0,0,1,.664.828,3.081,3.081,0,0,1,.238,1.262v3.172a1.3,1.3,0,0,0,.176.8.759.759,0,0,0,.605.207h.125V64h-.672a1.281,1.281,0,0,1-1.453-1.039h-.062A2.935,2.935,0,0,1,98.209,64.148Zm.313-1.094a2.049,2.049,0,0,0,1.648-.742,3.056,3.056,0,0,0,.625-2.031l-2.031.391a2.734,2.734,0,0,0-1.191.426.99.99,0,0,0-.387.84.979.979,0,0,0,.371.844A1.586,1.586,0,0,0,98.521,63.055Zm14.508-6.883a3.493,3.493,0,0,1,1.391.281,3.421,3.421,0,0,1,1.141.789,3.688,3.688,0,0,1,.77,1.266,4.667,4.667,0,0,1,.285,1.656,4.061,4.061,0,0,1-1.035,2.9,3.362,3.362,0,0,1-2.551,1.1,3.04,3.04,0,0,1-1.605-.437,2.867,2.867,0,0,1-1.1-1.18v5.32h-1.352V56.32h1.3l.031,1.492a2.811,2.811,0,0,1,1.094-1.2A3.068,3.068,0,0,1,113.029,56.172Zm-.266,6.82a2.332,2.332,0,0,0,1.777-.777,3.266,3.266,0,0,0,0-4.1,2.423,2.423,0,0,0-3.582.035,3.133,3.133,0,0,0,0,4.031A2.343,2.343,0,0,0,112.763,62.992Zm7.758,1.156a2.613,2.613,0,0,1-1.684-.527,1.894,1.894,0,0,1-.66-1.574,2.237,2.237,0,0,1,.211-1,1.77,1.77,0,0,1,.625-.7,3.749,3.749,0,0,1,.9-.434,8.342,8.342,0,0,1,1.168-.277l1.242-.2q.68-.125.68-.711a1.342,1.342,0,0,0-.48-1.145,1.958,1.958,0,0,0-1.215-.363,1.994,1.994,0,0,0-1.2.352,1.471,1.471,0,0,0-.57,1.078l-1.219-.258a2.346,2.346,0,0,1,.961-1.645,3.59,3.59,0,0,1,2.094-.551,4.247,4.247,0,0,1,1.113.137,3.025,3.025,0,0,1,.93.43,1.927,1.927,0,0,1,.664.828,3.081,3.081,0,0,1,.238,1.262v3.172a1.3,1.3,0,0,0,.176.8.759.759,0,0,0,.605.207h.125V64h-.672a1.281,1.281,0,0,1-1.453-1.039h-.062A2.935,2.935,0,0,1,120.521,64.148Zm.313-1.094a2.049,2.049,0,0,0,1.648-.742,3.056,3.056,0,0,0,.625-2.031l-2.031.391a2.734,2.734,0,0,0-1.191.426.99.99,0,0,0-.387.84.979.979,0,0,0,.371.844A1.586,1.586,0,0,0,120.834,63.055Zm7.617-5.383a2.322,2.322,0,0,1,.953-1.031,2.87,2.87,0,0,1,1.477-.406v1.273a2.53,2.53,0,0,0-1.785.57,2.382,2.382,0,0,0-.613,1.82V64h-1.352V56.32h1.32Zm5.7,6.477a2.613,2.613,0,0,1-1.684-.527,1.894,1.894,0,0,1-.66-1.574,2.237,2.237,0,0,1,.211-1,1.77,1.77,0,0,1,.625-.7,3.749,3.749,0,0,1,.9-.434,8.341,8.341,0,0,1,1.168-.277l1.242-.2q.68-.125.68-.711a1.342,1.342,0,0,0-.48-1.145,1.958,1.958,0,0,0-1.215-.363,1.994,1.994,0,0,0-1.2.352,1.471,1.471,0,0,0-.57,1.078l-1.219-.258a2.346,2.346,0,0,1,.961-1.645A3.59,3.59,0,0,1,135,56.188a4.247,4.247,0,0,1,1.113.137,3.026,3.026,0,0,1,.93.43,1.927,1.927,0,0,1,.664.828,3.081,3.081,0,0,1,.238,1.262v3.172a1.3,1.3,0,0,0,.176.8.759.759,0,0,0,.605.207h.125V64h-.672a1.281,1.281,0,0,1-1.453-1.039h-.062A2.935,2.935,0,0,1,134.146,64.148Zm.313-1.094a2.049,2.049,0,0,0,1.648-.742,3.056,3.056,0,0,0,.625-2.031l-2.031.391a2.734,2.734,0,0,0-1.191.426.99.99,0,0,0-.387.84.979.979,0,0,0,.371.844A1.586,1.586,0,0,0,134.459,63.055Zm12.883,1.094a3.641,3.641,0,0,1-2.07-.555,2.294,2.294,0,0,1-1.008-1.578l1.18-.336a1.645,1.645,0,0,0,.629,1.066,2.04,2.04,0,0,0,1.262.379,2.518,2.518,0,0,0,.738-.1,1.183,1.183,0,0,0,.566-.379,1.057,1.057,0,0,0,.164-1.016,1.356,1.356,0,0,0-.125-.254.774.774,0,0,0-.219-.211,2.884,2.884,0,0,0-.266-.164,2.727,2.727,0,0,0-.348-.145q-.23-.082-.371-.125t-.43-.125q-.289-.082-.445-.129a8.329,8.329,0,0,1-.8-.281,3.5,3.5,0,0,1-.648-.371,1.493,1.493,0,0,1-.5-.605,2.048,2.048,0,0,1-.168-.859,1.986,1.986,0,0,1,.375-1.227,2.11,2.11,0,0,1,.973-.723,3.888,3.888,0,0,1,1.363-.223,3.337,3.337,0,0,1,1.871.5,2.134,2.134,0,0,1,.934,1.5l-1.109.281a1.471,1.471,0,0,0-.586-.973,1.866,1.866,0,0,0-1.1-.324,1.9,1.9,0,0,0-1.031.27.906.906,0,0,0-.43.824.82.82,0,0,0,.113.426,1.352,1.352,0,0,0,.23.3,1.417,1.417,0,0,0,.422.23q.3.121.453.164t.563.145q.078.023.117.031.453.117.738.207a4.538,4.538,0,0,1,.664.281,2.208,2.208,0,0,1,.6.418,1.937,1.937,0,0,1,.375.594,2.1,2.1,0,0,1,.156.828,2.237,2.237,0,0,1-.23,1.035,1.8,1.8,0,0,1-.629.707,3.042,3.042,0,0,1-.895.387A4.262,4.262,0,0,1,147.341,64.148Zm9.734-7.828h1.352V64h-1.3l-.031-1.016a2.4,2.4,0,0,1-.953.863,2.932,2.932,0,0,1-1.344.3,2.671,2.671,0,0,1-1.934-.7,2.594,2.594,0,0,1-.723-1.961V56.32H153.5v4.867a1.822,1.822,0,0,0,.473,1.375,1.673,1.673,0,0,0,1.207.453,1.837,1.837,0,0,0,1.363-.531,2.164,2.164,0,0,0,.535-1.57ZM31.1,80.172a3.493,3.493,0,0,1,1.391.281,3.421,3.421,0,0,1,1.141.789,3.688,3.688,0,0,1,.77,1.266,4.667,4.667,0,0,1,.285,1.656,4.061,4.061,0,0,1-1.035,2.9,3.362,3.362,0,0,1-2.551,1.1,3.04,3.04,0,0,1-1.605-.437,2.867,2.867,0,0,1-1.1-1.18v5.32H27.041V80.32h1.3l.031,1.492a2.811,2.811,0,0,1,1.094-1.2A3.068,3.068,0,0,1,31.1,80.172Zm-.266,6.82a2.332,2.332,0,0,0,1.777-.777,3.266,3.266,0,0,0,0-4.1,2.423,2.423,0,0,0-3.582.035,3.133,3.133,0,0,0,0,4.031A2.343,2.343,0,0,0,30.83,86.992Zm9.219,1.156a4.048,4.048,0,0,1-1.969-.477,3.47,3.47,0,0,1-1.387-1.395,4.283,4.283,0,0,1-.512-2.121,3.912,3.912,0,0,1,1.09-2.895,4.089,4.089,0,0,1,5.559,0,4.405,4.405,0,0,1,0,5.8A3.762,3.762,0,0,1,40.048,88.148Zm-.008-1.125a2.359,2.359,0,0,0,1.816-.789,3.338,3.338,0,0,0,0-4.148,2.359,2.359,0,0,0-1.816-.789,2.326,2.326,0,0,0-1.8.789,3.367,3.367,0,0,0,0,4.148A2.326,2.326,0,0,0,40.041,87.023Zm8.422,1.125a3.641,3.641,0,0,1-2.07-.555,2.294,2.294,0,0,1-1.008-1.578l1.18-.336a1.645,1.645,0,0,0,.629,1.066,2.04,2.04,0,0,0,1.262.379,2.518,2.518,0,0,0,.738-.1,1.184,1.184,0,0,0,.566-.379,1.057,1.057,0,0,0,.164-1.016,1.356,1.356,0,0,0-.125-.254.774.774,0,0,0-.219-.211A2.883,2.883,0,0,0,49.314,85a2.727,2.727,0,0,0-.348-.145q-.23-.082-.371-.125t-.43-.125q-.289-.082-.445-.129a8.332,8.332,0,0,1-.8-.281,3.5,3.5,0,0,1-.648-.371,1.493,1.493,0,0,1-.5-.605,2.049,2.049,0,0,1-.168-.859,1.986,1.986,0,0,1,.375-1.227,2.11,2.11,0,0,1,.973-.723,3.888,3.888,0,0,1,1.363-.223,3.337,3.337,0,0,1,1.871.5,2.134,2.134,0,0,1,.934,1.5l-1.109.281a1.471,1.471,0,0,0-.586-.973,1.865,1.865,0,0,0-1.1-.324,1.9,1.9,0,0,0-1.031.27.906.906,0,0,0-.43.824.82.82,0,0,0,.113.426,1.352,1.352,0,0,0,.23.3,1.417,1.417,0,0,0,.422.23q.3.121.453.164t.563.145q.078.023.117.031.453.117.738.207a4.538,4.538,0,0,1,.664.281,2.208,2.208,0,0,1,.6.418,1.936,1.936,0,0,1,.375.594,2.1,2.1,0,0,1,.156.828,2.237,2.237,0,0,1-.23,1.035,1.8,1.8,0,0,1-.629.707,3.042,3.042,0,0,1-.895.387A4.262,4.262,0,0,1,48.463,88.148ZM55.869,88a2.019,2.019,0,0,1-1.5-.551,2.084,2.084,0,0,1-.547-1.535V81.4h-1.57V80.32h.578a1.11,1.11,0,0,0,.848-.27,1.326,1.326,0,0,0,.246-.9V77.758h1.258V80.32h1.766V81.4H55.181v4.375a1.164,1.164,0,0,0,.293.848,1.026,1.026,0,0,0,.77.3h.7V88Zm9.656-3.992-.016.367h-6a2.714,2.714,0,0,0,.734,1.965,2.411,2.411,0,0,0,1.75.684,2.3,2.3,0,0,0,1.273-.367,2.383,2.383,0,0,0,.875-1.016l1.219.258a3.464,3.464,0,0,1-1.312,1.648,3.581,3.581,0,0,1-2.039.6,3.71,3.71,0,0,1-2.766-1.07,4.557,4.557,0,0,1,0-5.836,3.664,3.664,0,0,1,2.723-1.07,3.467,3.467,0,0,1,2.582.984A3.889,3.889,0,0,1,65.525,84.008Zm-3.555-2.8a2.4,2.4,0,0,0-1.6.543,2.488,2.488,0,0,0-.809,1.582h4.6a2.282,2.282,0,0,0-.672-1.582A2.17,2.17,0,0,0,61.97,81.211Zm6.992.461a2.322,2.322,0,0,1,.953-1.031,2.87,2.87,0,0,1,1.477-.406v1.273a2.53,2.53,0,0,0-1.785.57,2.382,2.382,0,0,0-.613,1.82V88H67.642V80.32h1.32Zm4.7-3.156a.92.92,0,0,1-.914-.914.867.867,0,0,1,.27-.641.886.886,0,0,1,.645-.266.877.877,0,0,1,.637.266.867.867,0,0,1,.27.641.88.88,0,0,1-.27.645A.871.871,0,0,1,73.666,78.516ZM72.978,88V80.32h1.359V88Zm7.344.148a4.048,4.048,0,0,1-1.969-.477,3.47,3.47,0,0,1-1.387-1.395,4.283,4.283,0,0,1-.512-2.121,3.912,3.912,0,0,1,1.09-2.895,4.089,4.089,0,0,1,5.559,0,4.405,4.405,0,0,1,0,5.8A3.762,3.762,0,0,1,80.322,88.148Zm-.008-1.125a2.359,2.359,0,0,0,1.816-.789,3.338,3.338,0,0,0,0-4.148,2.359,2.359,0,0,0-1.816-.789,2.326,2.326,0,0,0-1.8.789,3.367,3.367,0,0,0,0,4.148A2.326,2.326,0,0,0,80.314,87.023Zm7.313-5.352a2.322,2.322,0,0,1,.953-1.031,2.87,2.87,0,0,1,1.477-.406v1.273a2.53,2.53,0,0,0-1.785.57,2.382,2.382,0,0,0-.613,1.82V88H86.306V80.32h1.32ZM101.47,76h1.352V88h-1.3l-.031-1.492a2.826,2.826,0,0,1-1.094,1.211,3.048,3.048,0,0,1-1.625.445,3.49,3.49,0,0,1-2.535-1.082,3.7,3.7,0,0,1-.773-1.27,4.644,4.644,0,0,1-.285-1.648,4.038,4.038,0,0,1,1.043-2.883,3.367,3.367,0,0,1,2.551-1.109,3.061,3.061,0,0,1,1.605.434,2.842,2.842,0,0,1,1.1,1.176ZM99.048,86.992a2.3,2.3,0,0,0,1.785-.809,3.171,3.171,0,0,0,0-4.035,2.3,2.3,0,0,0-1.781-.812,2.35,2.35,0,0,0-1.8.785,3.236,3.236,0,0,0,0,4.086A2.35,2.35,0,0,0,99.048,86.992Zm13.242-2.984-.016.367h-6a2.714,2.714,0,0,0,.734,1.965,2.411,2.411,0,0,0,1.75.684,2.3,2.3,0,0,0,1.273-.367,2.383,2.383,0,0,0,.875-1.016l1.219.258a3.464,3.464,0,0,1-1.312,1.648,3.581,3.581,0,0,1-2.039.6,3.71,3.71,0,0,1-2.766-1.07,4.557,4.557,0,0,1,0-5.836,3.664,3.664,0,0,1,2.723-1.07,3.467,3.467,0,0,1,2.582.984A3.889,3.889,0,0,1,112.291,84.008Zm-3.555-2.8a2.4,2.4,0,0,0-1.6.543,2.488,2.488,0,0,0-.809,1.582h4.6a2.282,2.282,0,0,0-.672-1.582A2.17,2.17,0,0,0,108.736,81.211Zm8.1,6.938a3.641,3.641,0,0,1-2.07-.555,2.294,2.294,0,0,1-1.008-1.578l1.18-.336a1.645,1.645,0,0,0,.629,1.066,2.04,2.04,0,0,0,1.262.379,2.518,2.518,0,0,0,.738-.1,1.184,1.184,0,0,0,.566-.379,1.057,1.057,0,0,0,.164-1.016,1.357,1.357,0,0,0-.125-.254.774.774,0,0,0-.219-.211,2.884,2.884,0,0,0-.266-.164,2.727,2.727,0,0,0-.348-.145q-.23-.082-.371-.125t-.43-.125q-.289-.082-.445-.129a8.332,8.332,0,0,1-.8-.281,3.5,3.5,0,0,1-.648-.371,1.493,1.493,0,0,1-.5-.605,2.049,2.049,0,0,1-.168-.859,1.986,1.986,0,0,1,.375-1.227,2.11,2.11,0,0,1,.973-.723,3.888,3.888,0,0,1,1.363-.223,3.337,3.337,0,0,1,1.871.5,2.134,2.134,0,0,1,.934,1.5l-1.109.281a1.471,1.471,0,0,0-.586-.973,1.865,1.865,0,0,0-1.1-.324,1.9,1.9,0,0,0-1.031.27.906.906,0,0,0-.43.824.82.82,0,0,0,.113.426,1.352,1.352,0,0,0,.23.3,1.417,1.417,0,0,0,.422.23q.3.121.453.164t.563.145q.078.023.117.031.453.117.738.207a4.538,4.538,0,0,1,.664.281,2.208,2.208,0,0,1,.6.418,1.936,1.936,0,0,1,.375.594,2.1,2.1,0,0,1,.156.828,2.237,2.237,0,0,1-.23,1.035,1.8,1.8,0,0,1-.629.707,3.042,3.042,0,0,1-.895.387A4.262,4.262,0,0,1,116.838,88.148Zm9.008-7.977a3.493,3.493,0,0,1,1.391.281,3.421,3.421,0,0,1,1.141.789,3.688,3.688,0,0,1,.77,1.266,4.667,4.667,0,0,1,.285,1.656,4.061,4.061,0,0,1-1.035,2.9,3.362,3.362,0,0,1-2.551,1.1,3.04,3.04,0,0,1-1.605-.437,2.867,2.867,0,0,1-1.1-1.18v5.32h-1.352V80.32h1.3l.031,1.492a2.811,2.811,0,0,1,1.094-1.2A3.068,3.068,0,0,1,125.845,80.172Zm-.266,6.82a2.332,2.332,0,0,0,1.777-.777,3.266,3.266,0,0,0,0-4.1,2.423,2.423,0,0,0-3.582.035,3.133,3.133,0,0,0,0,4.031A2.343,2.343,0,0,0,125.58,86.992Zm7.758,1.156a2.613,2.613,0,0,1-1.684-.527,1.894,1.894,0,0,1-.66-1.574,2.237,2.237,0,0,1,.211-1,1.77,1.77,0,0,1,.625-.7,3.75,3.75,0,0,1,.9-.434,8.341,8.341,0,0,1,1.168-.277l1.242-.2q.68-.125.68-.711a1.342,1.342,0,0,0-.48-1.145,1.958,1.958,0,0,0-1.215-.363,1.994,1.994,0,0,0-1.2.352,1.471,1.471,0,0,0-.57,1.078l-1.219-.258a2.346,2.346,0,0,1,.961-1.645,3.59,3.59,0,0,1,2.094-.551,4.246,4.246,0,0,1,1.113.137,3.026,3.026,0,0,1,.93.43,1.927,1.927,0,0,1,.664.828,3.081,3.081,0,0,1,.238,1.262v3.172a1.3,1.3,0,0,0,.176.8.759.759,0,0,0,.605.207h.125V88h-.672a1.281,1.281,0,0,1-1.453-1.039h-.062A2.935,2.935,0,0,1,133.338,88.148Zm.313-1.094a2.049,2.049,0,0,0,1.648-.742,3.056,3.056,0,0,0,.625-2.031l-2.031.391a2.734,2.734,0,0,0-1.191.426.99.99,0,0,0-.387.84.979.979,0,0,0,.371.844A1.586,1.586,0,0,0,133.65,87.055Zm9.328,1.086a3.7,3.7,0,0,1-2.75-1.1,4.375,4.375,0,0,1,0-5.766,4,4,0,0,1,4.977-.43,3.391,3.391,0,0,1,1.293,1.867l-1.266.2a2.337,2.337,0,0,0-.867-1.2,2.361,2.361,0,0,0-1.391-.422,2.27,2.27,0,0,0-1.777.789,3.409,3.409,0,0,0,0,4.137,2.275,2.275,0,0,0,1.777.785,2.361,2.361,0,0,0,1.391-.422,2.337,2.337,0,0,0,.867-1.2l1.266.211a3.4,3.4,0,0,1-1.3,1.863A3.72,3.72,0,0,1,142.978,88.141Zm9.18-7.969a2.566,2.566,0,0,1,1.9.711,2.76,2.76,0,0,1,.711,2.039V88h-1.352V83.18a1.889,1.889,0,0,0-.469-1.414,1.67,1.67,0,0,0-1.211-.453,1.859,1.859,0,0,0-1.355.523,2.128,2.128,0,0,0-.543,1.57V88h-1.352V76h1.352v5.336a2.5,2.5,0,0,1,.965-.859A2.942,2.942,0,0,1,152.158,80.172Zm8.445,7.977a4.048,4.048,0,0,1-1.969-.477,3.47,3.47,0,0,1-1.387-1.395,4.284,4.284,0,0,1-.512-2.121,3.912,3.912,0,0,1,1.09-2.895,4.089,4.089,0,0,1,5.559,0,4.405,4.405,0,0,1,0,5.8A3.762,3.762,0,0,1,160.6,88.148Zm-.008-1.125a2.359,2.359,0,0,0,1.816-.789,3.338,3.338,0,0,0,0-4.148A2.359,2.359,0,0,0,160.6,81.3a2.326,2.326,0,0,0-1.8.789,3.367,3.367,0,0,0,0,4.148A2.326,2.326,0,0,0,160.6,87.023Zm6.844,1.133a.877.877,0,0,1-.637-.266.908.908,0,0,1,.637-1.547.884.884,0,0,1,.641.27.887.887,0,0,1,0,1.277A.886.886,0,0,1,167.439,88.156Z" transform="translate(7629.673 -5634.464)" fill="#00223d"/>
    <path id="Trazado_19566" data-name="Trazado 19566" d="M1459.436,642.948a3.678,3.678,0,0,1-.779-.635A105.656,105.656,0,0,1,1270.673,548.2h-2.1a107.625,107.625,0,0,0,191.781,95.113A3.643,3.643,0,0,1,1459.436,642.948Z" transform="translate(6355.254 -6192.767)" fill="#da3954"/>
    <rect id="Rectángulo_3177" data-name="Rectángulo 3177" width="272.208" height="68.955" rx="34" transform="translate(7589.511 -5713.52)" fill="#da3954"/>
    <path id="Trazado_19749" data-name="Trazado 19749" d="M-68.632-15.522v2.836h-3.685V0h-3.19V-12.687h-3.706v-2.836Zm11.44,2.836h-5.758v3.523h5.1v2.8h-5.1v3.513h5.758V0h-9V-15.522h9ZM-45.676,0l-4.039-6.832h-.935V0h-3.223V-15.522h5.629a6.511,6.511,0,0,1,2.256.36,3.9,3.9,0,0,1,1.563,1,4.278,4.278,0,0,1,.881,1.466,5.363,5.363,0,0,1,.3,1.815A3.791,3.791,0,0,1-44.1-8.331a4.277,4.277,0,0,1-2.438,1.337L-41.862,0Zm-4.974-12.848v3.706h1.9q2.417,0,2.417-1.848a1.682,1.682,0,0,0-.591-1.364,2.809,2.809,0,0,0-1.826-.494ZM-21.71,0h-3.212l-1.021-11.7L-29.874,0h-2.084L-35.89-11.7-36.921,0h-3.223l1.3-15.522h4.6l3.309,9.743,3.352-9.743h4.6Zm3.373,0V-15.522h3.223V0ZM-.5-15.522H2.707V0H-1.021L-7.9-11.1V0h-3.212V-15.522h3.685L-.5-4.49ZM17.112,0,15.984-3.2H9.464L8.336,0h-3.3l5.715-15.522H14.7L20.41,0Zm-6.7-5.9h4.63l-2.31-6.585ZM28.843.215a8.664,8.664,0,0,1-3.164-.569,7.439,7.439,0,0,1-2.519-1.59,7.167,7.167,0,0,1-1.654-2.524,8.8,8.8,0,0,1-.6-3.3,8.408,8.408,0,0,1,1.031-4.216,7.021,7.021,0,0,1,2.831-2.788,8.476,8.476,0,0,1,4.077-.967A8.237,8.237,0,0,1,33.4-14.48a6.88,6.88,0,0,1,2.782,3.459l-3.008,1.1a4.252,4.252,0,0,0-1.665-2.095,4.756,4.756,0,0,0-2.664-.752,4.559,4.559,0,0,0-3.395,1.354,4.98,4.98,0,0,0-1.332,3.652,4.988,4.988,0,0,0,1.337,3.658A4.554,4.554,0,0,0,28.843-2.75,4.738,4.738,0,0,0,31.5-3.507a4.271,4.271,0,0,0,1.67-2.1l3.008,1.1A6.908,6.908,0,0,1,33.4-1.047,8.211,8.211,0,0,1,28.843.215ZM38.822,0V-15.522h3.223V0ZM51.971-16.973l2.814-3.953,1.525,1.085-2.438,2.868ZM52.927.215A8.438,8.438,0,0,1,48.85-.757a7.047,7.047,0,0,1-2.831-2.8,8.416,8.416,0,0,1-1.031-4.211,8.408,8.408,0,0,1,1.031-4.216,7.021,7.021,0,0,1,2.831-2.788,8.476,8.476,0,0,1,4.077-.967A8.444,8.444,0,0,1,57-14.771a7.03,7.03,0,0,1,2.825,2.788,8.408,8.408,0,0,1,1.031,4.216,8.416,8.416,0,0,1-1.031,4.211,7.047,7.047,0,0,1-2.831,2.8A8.415,8.415,0,0,1,52.927.215ZM49.532-4.1a4.55,4.55,0,0,0,3.395,1.359A4.55,4.55,0,0,0,56.321-4.1a5.014,5.014,0,0,0,1.332-3.668,4.98,4.98,0,0,0-1.332-3.652,4.559,4.559,0,0,0-3.395-1.354,4.559,4.559,0,0,0-3.395,1.354A4.98,4.98,0,0,0,48.2-7.767,5.014,5.014,0,0,0,49.532-4.1Zm24.89-11.424h3.212V0H73.906L67.031-11.1V0H63.819V-15.522H67.5L74.422-4.49Z" transform="translate(7752.876 -5669.109)" fill="#fff"/>
    <circle id="Elipse_507" data-name="Elipse 507" cx="40.023" cy="40.023" r="40.023" transform="translate(7571.864 -5721.246)" fill="#da3954"/>
    <path id="Trazado_19571" data-name="Trazado 19571" d="M1239.153,524.4a41.989,41.989,0,1,1,41.989-41.989A42.035,42.035,0,0,1,1239.153,524.4Zm0-80.046a38.057,38.057,0,1,0,38.057,38.057A38.1,38.1,0,0,0,1239.153,444.354Z" transform="translate(6372.733 -6163.633)" fill="#fff"/>
    <path id="Trazado_19572" data-name="Trazado 19572" d="M1225.282,481.21c12.508-6.817,24.985-6.815,37.537.047.129-.336.279-.784.47-1.214a5.475,5.475,0,0,1,3.641-3.435,4.1,4.1,0,0,1,5,2.249,10.151,10.151,0,0,1,.857,5.654c-.513,5.315-2.86,9.846-6.064,14-.752.976-1.5,1.958-2.284,2.9a5.134,5.134,0,0,1-1.073.938A32.522,32.522,0,0,1,1250,507.521a37.014,37.014,0,0,1-17.807-1.436,31.013,31.013,0,0,1-7.873-3.945,3.072,3.072,0,0,1-.7-.646c-1.33-1.76-2.716-3.484-3.945-5.313a25.537,25.537,0,0,1-4.281-10.6,12.083,12.083,0,0,1,.431-6.015,4.191,4.191,0,0,1,4.909-3.031,4.744,4.744,0,0,1,3.527,2.5C1224.675,479.758,1224.972,480.543,1225.282,481.21Zm39.925,16.123a25.11,25.11,0,0,0,5.693-12.088,9.5,9.5,0,0,0-.452-5.344,2.4,2.4,0,0,0-3.033-1.56,2.642,2.642,0,0,0-1.843,1.315,23.63,23.63,0,0,0-1.138,2.67.7.7,0,0,0,.118.533,4.043,4.043,0,0,1,.66,2.314c-.011,3.843-.005,7.685-.005,11.528Zm-42.546-.06.133-.031v-.623q0-5.674,0-11.348a4.087,4.087,0,0,1,.713-2.479.681.681,0,0,0,.129-.477,6.731,6.731,0,0,0-1.3-2.912,2.953,2.953,0,0,0-2.98-1.092c-1.087.2-1.553,1.03-1.883,1.958a10.309,10.309,0,0,0-.276,5.19,25.934,25.934,0,0,0,4.871,11.029C1222.253,496.755,1222.46,497.011,1222.661,497.272Zm21.367-6.081q-4.18,0-8.361,0a2.949,2.949,0,0,0-.653.047.727.727,0,0,0-.642.859,1.831,1.831,0,0,0,.639.814c.121.1.383.055.582.055q8.421,0,16.842,0a3.79,3.79,0,0,0,.417-.017.828.828,0,0,0,.813-.866.814.814,0,0,0-.8-.874,5.241,5.241,0,0,0-.6-.019Zm-3.268,7.375c1.794,0,3.587,0,5.381,0a.914.914,0,0,0,.966-.551c.262-.644-.2-1.216-1.008-1.219q-5.351-.013-10.7,0c-.68,0-1.051.333-1.057.879-.006.568.376.884,1.1.887C1237.213,498.57,1238.987,498.567,1240.76,498.566Zm6.574-11.2q2.506,0,5.012,0a3.29,3.29,0,0,0,.594-.033.871.871,0,0,0-.1-1.729c-.118-.01-.239-.007-.358-.007h-10.264a2.929,2.929,0,0,0-.417.015.868.868,0,0,0-.077,1.707,2.889,2.889,0,0,0,.652.046Q1244.857,487.367,1247.334,487.364Zm-11.372-1.767c-.258,0-.517-.013-.774,0a.81.81,0,0,0-.839.827.785.785,0,0,0,.754.9,9.376,9.376,0,0,0,1.663,0,.8.8,0,0,0,.757-.9.813.813,0,0,0-.846-.825C1236.439,485.588,1236.2,485.6,1235.962,485.6Zm16.3,12.961v.007c.16,0,.319.007.478,0a.878.878,0,1,0,.069-1.753,5.75,5.75,0,0,0-1.132.018.87.87,0,0,0,.047,1.727C1251.9,498.572,1252.081,498.558,1252.26,498.558Z" transform="translate(6367.857 -6173.278)"/>
  </g>
</svg>
