<svg xmlns="http://www.w3.org/2000/svg" xmlns:xlink="http://www.w3.org/1999/xlink" width="292.1" height="274.519" viewBox="0 0 292.1 274.519">
  <defs>
    <linearGradient id="linear-gradient" y1="0.5" x2="1" y2="0.5" gradientUnits="objectBoundingBox">
      <stop offset="0" stop-color="#d9d9d9"/>
      <stop offset="0.243" stop-color="#e4e4e4"/>
      <stop offset="0.643" stop-color="#f2f2f2"/>
      <stop offset="1" stop-color="#f7f7f7"/>
    </linearGradient>
  </defs>
  <g id="Grupo_13301" data-name="Grupo 13301" transform="translate(-6860.629 5744.309)">
    <g id="Grupo_13298" data-name="Grupo 13298" transform="translate(6878.15 -5744.309)">
      <path id="Trazado_19555" data-name="Trazado 19555" d="M512.55,686.029c-1.443,0-2.907-.023-4.353-.069l.069-2.188c2.887.09,5.805.087,8.661,0l.069,2.188C515.525,686,514.029,686.028,512.55,686.029Zm-13.132-.62c-2.907-.276-5.843-.649-8.727-1.111l.346-2.161c2.837.454,5.727.822,8.588,1.093Zm26.357-.009-.209-2.179c2.865-.274,5.754-.644,8.589-1.1l.347,2.161C531.623,684.746,528.686,685.121,525.775,685.4Zm-43.723-2.77c-2.853-.647-5.718-1.394-8.513-2.222l.622-2.1c2.75.814,5.568,1.55,8.375,2.187Zm61.089-.023-.486-2.135c2.8-.637,5.617-1.375,8.374-2.193l.623,2.1C548.85,681.208,545.987,681.958,543.141,682.606Zm-77.954-4.966c-2.742-1.008-5.49-2.12-8.167-3.3l.886-2c2.634,1.166,5.338,2.26,8.038,3.252ZM560,677.6l-.757-2.054c2.695-.992,5.394-2.088,8.023-3.254l.887,2C565.485,675.482,562.741,676.6,560,677.6Zm-110.919-7.09c-2.593-1.354-5.174-2.809-7.671-4.325l1.136-1.871c2.458,1.491,5,2.922,7.549,4.255Zm127-.042-1.014-1.94c2.547-1.332,5.084-2.764,7.54-4.258l1.138,1.872C581.246,667.663,578.668,669.119,576.08,670.471Zm-142.044-9.091c-2.392-1.67-4.765-3.442-7.052-5.266l1.365-1.711c2.251,1.8,4.586,3.539,6.941,5.183Zm157.077-.044-1.255-1.794c2.356-1.648,4.69-3.393,6.935-5.187l1.366,1.71C595.877,657.889,593.506,659.662,591.113,661.337Zm-170.83-10.928c-2.165-1.966-4.292-4.025-6.323-6.119l1.572-1.524c2,2.061,4.091,4.087,6.222,6.022Zm184.572-.053-1.472-1.621c2.125-1.932,4.217-3.96,6.218-6.027l1.573,1.522C609.141,646.332,607.015,648.392,604.855,650.357ZM408.04,637.783c-1.893-2.219-3.74-4.531-5.491-6.869L404.3,629.6c1.724,2.3,3.542,4.577,5.4,6.761Zm209.048-.066-1.667-1.42c1.863-2.188,3.681-4.466,5.4-6.769l1.753,1.31C620.828,633.178,618.982,635.493,617.089,637.717Zm-219.58-14.011c-1.6-2.444-3.134-4.971-4.569-7.511l1.906-1.077c1.412,2.5,2.925,4.985,4.5,7.391Zm230.1-.085-1.834-1.194c1.57-2.41,3.082-4.9,4.491-7.4l1.907,1.075C630.744,618.64,629.209,621.171,627.613,623.621ZM388.861,608.409c-1.27-2.627-2.47-5.328-3.567-8.029l2.028-.824c1.08,2.657,2.261,5.315,3.511,7.9Zm247.4-.112-1.971-.952c1.252-2.592,2.434-5.256,3.513-7.915l2.029.822C638.733,602.956,637.531,605.663,636.258,608.3ZM382.246,592.126c-.922-2.771-1.766-5.608-2.507-8.434l2.118-.555c.73,2.779,1.559,5.571,2.467,8.3Zm260.625-.133-2.078-.69c.906-2.728,1.734-5.522,2.461-8.3l2.118.555C644.633,586.381,643.792,589.22,642.872,591.993ZM377.781,575.116c-.557-2.862-1.029-5.784-1.4-8.685l2.171-.279c.368,2.855.833,5.73,1.381,8.546Zm269.542-.143-2.149-.416c.546-2.821,1.007-5.7,1.371-8.551l2.172.276C648.347,569.182,647.878,572.106,647.323,574.973Zm-271.789-17.3c-.187-2.911-.284-5.87-.286-8.794h2.189c0,2.878.1,5.79.282,8.655Zm274.016-.152-2.185-.138c.181-2.866.273-5.779.273-8.658v-.264h2.189v.261C649.828,551.65,649.734,554.61,649.551,557.522ZM377.7,540.225l-2.185-.135c.181-2.919.458-5.867.825-8.758l2.172.275C378.151,534.453,377.879,537.352,377.7,540.225Zm269.649-.416c-.187-2.874-.469-5.773-.838-8.62l2.171-.281c.375,2.891.662,5.838.852,8.758ZM379.872,523.058l-2.15-.414c.552-2.866,1.2-5.754,1.94-8.581l2.119.551C381.057,517.4,380.415,520.237,379.872,523.058Zm265.25-.416c-.553-2.824-1.2-5.662-1.937-8.439l2.117-.559c.744,2.822,1.407,5.708,1.969,8.578ZM384.231,506.31l-2.079-.687c.919-2.78,1.94-5.564,3.036-8.273l2.029.819C386.14,500.836,385.135,503.575,384.231,506.31Zm256.475-.4c-.91-2.723-1.923-5.454-3.01-8.119l2.026-.828c1.106,2.709,2.135,5.486,3.06,8.253ZM390.721,490.24l-1.972-.949c1.267-2.632,2.636-5.26,4.072-7.81l1.907,1.075C393.316,485.065,391.967,487.65,390.721,490.24Zm243.445-.36c-.914-1.881-1.886-3.768-2.891-5.61q-.561-1.037-1.14-2.056l1.905-1.078q.588,1.038,1.157,2.088c1.02,1.869,2.009,3.788,2.937,5.7ZM399.22,475.147l-1.835-1.195c1.592-2.446,3.287-4.875,5.036-7.22l1.755,1.308C402.454,470.348,400.787,472.739,399.22,475.147Zm226.409-.326c-1.571-2.4-3.244-4.788-4.97-7.091l1.751-1.312c1.755,2.339,3.454,4.763,5.051,7.205ZM409.574,461.266l-1.668-1.418c1.9-2.228,3.885-4.422,5.912-6.518l1.573,1.522C413.4,456.915,411.439,459.072,409.574,461.266Zm205.672-.294c-1.867-2.184-3.829-4.337-5.834-6.4l1.57-1.527c2.037,2.1,4.032,4.284,5.928,6.5ZM421.6,448.821l-1.474-1.618c2.158-1.965,4.408-3.887,6.69-5.711l1.367,1.708C425.943,445,423.728,446.887,421.6,448.821Zm181.576-.264c-2.13-1.929-4.351-3.814-6.6-5.606l1.364-1.713c2.286,1.819,4.542,3.736,6.707,5.7ZM435.115,438.01l-1.256-1.793c2.4-1.68,4.874-3.3,7.359-4.812l1.138,1.87C439.911,434.765,437.474,436.357,435.115,438.01Zm154.52-.231c-2.361-1.643-4.8-3.23-7.263-4.718l1.133-1.873c2.5,1.512,4.982,3.125,7.38,4.794Zm-139.75-8.764-1.016-1.938c2.582-1.355,5.244-2.643,7.91-3.829l.89,2C455.045,426.413,452.426,427.681,449.885,429.014Zm124.938-.2c-2.55-1.327-5.176-2.588-7.806-3.748l.884-2c2.673,1.179,5.342,2.461,7.933,3.808Zm-109.149-6.828-.76-2.054c2.734-1.011,5.543-1.948,8.346-2.784l.626,2.1C471.128,420.072,468.364,420.994,465.674,421.989Zm93.31-.16c-2.7-.988-5.468-1.9-8.224-2.713l.619-2.1c2.8.825,5.613,1.753,8.359,2.758Zm-76.726-4.784-.488-2.134c2.844-.652,5.749-1.219,8.634-1.687l.35,2.161C487.915,415.846,485.056,416.4,482.258,417.045Zm60.119-.1c-2.8-.63-5.659-1.179-8.5-1.63l.343-2.162c2.89.458,5.8,1.016,8.642,1.657Zm-43.037-2.666-.212-2.18c2.9-.281,5.855-.473,8.778-.57l.072,2.188C505.1,413.809,502.194,414,499.339,414.275Zm25.943-.046c-2.858-.267-5.765-.446-8.643-.531l.064-2.188c2.924.086,5.879.268,8.782.54Z" transform="translate(-375.248 -411.51)"/>
    </g>
    <path id="Trazado_19745" data-name="Trazado 19745" d="M640.208,554.365a121.988,121.988,0,1,1-14.779-58.212A121.256,121.256,0,0,1,640.208,554.365Z" transform="translate(6497.242 -6161.455)" fill="url(#linear-gradient)"/>
    <path id="Trazado_19753" data-name="Trazado 19753" d="M29.451,16.148a3.641,3.641,0,0,1-2.07-.555,2.294,2.294,0,0,1-1.008-1.578l1.18-.336a1.645,1.645,0,0,0,.629,1.066,2.04,2.04,0,0,0,1.262.379,2.518,2.518,0,0,0,.738-.1,1.184,1.184,0,0,0,.566-.379,1.057,1.057,0,0,0,.164-1.016,1.357,1.357,0,0,0-.125-.254.774.774,0,0,0-.219-.211A2.885,2.885,0,0,0,30.3,13a2.726,2.726,0,0,0-.348-.145q-.23-.082-.371-.125t-.43-.125q-.289-.082-.445-.129a8.33,8.33,0,0,1-.8-.281,3.5,3.5,0,0,1-.648-.371,1.493,1.493,0,0,1-.5-.605,2.049,2.049,0,0,1-.168-.859,1.986,1.986,0,0,1,.375-1.227,2.11,2.11,0,0,1,.973-.723A3.888,3.888,0,0,1,29.3,8.188a3.337,3.337,0,0,1,1.871.5,2.134,2.134,0,0,1,.934,1.5L31,10.469a1.471,1.471,0,0,0-.586-.973,1.865,1.865,0,0,0-1.1-.324,1.9,1.9,0,0,0-1.031.27.906.906,0,0,0-.43.824.82.82,0,0,0,.113.426,1.352,1.352,0,0,0,.23.3,1.417,1.417,0,0,0,.422.23q.3.121.453.164t.563.145q.078.023.117.031.453.117.738.207a4.538,4.538,0,0,1,.664.281,2.208,2.208,0,0,1,.6.418,1.936,1.936,0,0,1,.375.594,2.1,2.1,0,0,1,.156.828,2.237,2.237,0,0,1-.23,1.035,1.8,1.8,0,0,1-.629.707,3.042,3.042,0,0,1-.895.387A4.262,4.262,0,0,1,29.451,16.148Zm11.672-4.141-.016.367h-6a2.714,2.714,0,0,0,.734,1.965,2.411,2.411,0,0,0,1.75.684,2.3,2.3,0,0,0,1.273-.367,2.383,2.383,0,0,0,.875-1.016l1.219.258a3.464,3.464,0,0,1-1.312,1.648,3.581,3.581,0,0,1-2.039.6,3.71,3.71,0,0,1-2.766-1.07,3.982,3.982,0,0,1-1.055-2.922,3.962,3.962,0,0,1,1.059-2.914,3.664,3.664,0,0,1,2.723-1.07,3.467,3.467,0,0,1,2.582.984A3.889,3.889,0,0,1,41.123,12.008Zm-3.555-2.8a2.4,2.4,0,0,0-1.6.543,2.488,2.488,0,0,0-.809,1.582h4.6a2.282,2.282,0,0,0-.672-1.582A2.17,2.17,0,0,0,37.568,9.211Zm11.6,6.938a2.613,2.613,0,0,1-1.684-.527,1.894,1.894,0,0,1-.66-1.574,2.237,2.237,0,0,1,.211-1,1.77,1.77,0,0,1,.625-.7,3.749,3.749,0,0,1,.9-.434,8.341,8.341,0,0,1,1.168-.277l1.242-.2q.68-.125.68-.711a1.342,1.342,0,0,0-.48-1.145,1.958,1.958,0,0,0-1.215-.363,1.994,1.994,0,0,0-1.2.352,1.471,1.471,0,0,0-.57,1.078l-1.219-.258a2.346,2.346,0,0,1,.961-1.645,3.59,3.59,0,0,1,2.094-.551,4.247,4.247,0,0,1,1.113.137,3.025,3.025,0,0,1,.93.43,1.927,1.927,0,0,1,.664.828,3.081,3.081,0,0,1,.238,1.262v3.172a1.3,1.3,0,0,0,.176.8.759.759,0,0,0,.605.207h.125V16H53.2a1.281,1.281,0,0,1-1.453-1.039h-.062A2.935,2.935,0,0,1,49.17,16.148Zm.313-1.094a2.049,2.049,0,0,0,1.648-.742,3.056,3.056,0,0,0,.625-2.031l-2.031.391a2.734,2.734,0,0,0-1.191.426.99.99,0,0,0-.387.84.979.979,0,0,0,.371.844A1.586,1.586,0,0,0,49.482,15.055Zm6.3.945V4h1.367V16Zm4.8-9.484A.92.92,0,0,1,59.67,5.6a.867.867,0,0,1,.27-.641.886.886,0,0,1,.645-.266.877.877,0,0,1,.637.266.867.867,0,0,1,.27.641.88.88,0,0,1-.27.645A.871.871,0,0,1,60.584,6.516ZM59.9,16V8.32h1.359V16Zm6.539.148a3.641,3.641,0,0,1-2.07-.555,2.294,2.294,0,0,1-1.008-1.578l1.18-.336a1.645,1.645,0,0,0,.629,1.066,2.04,2.04,0,0,0,1.262.379,2.518,2.518,0,0,0,.738-.1,1.184,1.184,0,0,0,.566-.379,1.057,1.057,0,0,0,.164-1.016,1.357,1.357,0,0,0-.125-.254.774.774,0,0,0-.219-.211A2.885,2.885,0,0,0,67.287,13a2.726,2.726,0,0,0-.348-.145q-.23-.082-.371-.125t-.43-.125q-.289-.082-.445-.129a8.331,8.331,0,0,1-.8-.281,3.5,3.5,0,0,1-.648-.371,1.493,1.493,0,0,1-.5-.605,2.049,2.049,0,0,1-.168-.859,1.986,1.986,0,0,1,.375-1.227,2.11,2.11,0,0,1,.973-.723,3.888,3.888,0,0,1,1.363-.223,3.337,3.337,0,0,1,1.871.5,2.134,2.134,0,0,1,.934,1.5l-1.109.281A1.471,1.471,0,0,0,67.4,9.5a1.865,1.865,0,0,0-1.1-.324,1.9,1.9,0,0,0-1.031.27.906.906,0,0,0-.43.824.82.82,0,0,0,.113.426,1.352,1.352,0,0,0,.23.3,1.417,1.417,0,0,0,.422.23q.3.121.453.164t.563.145q.078.023.117.031.453.117.738.207a4.538,4.538,0,0,1,.664.281,2.208,2.208,0,0,1,.6.418,1.936,1.936,0,0,1,.375.594,2.1,2.1,0,0,1,.156.828,2.237,2.237,0,0,1-.23,1.035,1.8,1.8,0,0,1-.629.707,3.042,3.042,0,0,1-.895.387A4.262,4.262,0,0,1,66.435,16.148ZM73.841,16a2.019,2.019,0,0,1-1.5-.551,2.084,2.084,0,0,1-.547-1.535V9.4h-1.57V8.32H70.8a1.11,1.11,0,0,0,.848-.27,1.326,1.326,0,0,0,.246-.9V5.758h1.258V8.32H74.92V9.4H73.154v4.375a1.164,1.164,0,0,0,.293.848,1.026,1.026,0,0,0,.77.3h.7V16Zm4.711.148a2.613,2.613,0,0,1-1.684-.527,1.894,1.894,0,0,1-.66-1.574,2.237,2.237,0,0,1,.211-1,1.77,1.77,0,0,1,.625-.7,3.749,3.749,0,0,1,.9-.434,8.341,8.341,0,0,1,1.168-.277l1.242-.2q.68-.125.68-.711a1.342,1.342,0,0,0-.48-1.145,1.958,1.958,0,0,0-1.215-.363,1.994,1.994,0,0,0-1.2.352,1.471,1.471,0,0,0-.57,1.078l-1.219-.258a2.346,2.346,0,0,1,.961-1.645A3.59,3.59,0,0,1,79.4,8.188a4.247,4.247,0,0,1,1.113.137,3.025,3.025,0,0,1,.93.43,1.927,1.927,0,0,1,.664.828,3.081,3.081,0,0,1,.238,1.262v3.172a1.3,1.3,0,0,0,.176.8.759.759,0,0,0,.605.207h.125V16h-.672a1.281,1.281,0,0,1-1.453-1.039h-.062A2.935,2.935,0,0,1,78.552,16.148Zm.313-1.094a2.049,2.049,0,0,0,1.648-.742,3.056,3.056,0,0,0,.625-2.031l-2.031.391a2.734,2.734,0,0,0-1.191.426.99.99,0,0,0-.387.84.979.979,0,0,0,.371.844A1.586,1.586,0,0,0,78.865,15.055Zm9.922-6.883a2.671,2.671,0,0,1,1.934.7,2.594,2.594,0,0,1,.723,1.961V16H90.091V11.133a1.816,1.816,0,0,0-.469-1.375,1.676,1.676,0,0,0-1.2-.445,1.858,1.858,0,0,0-1.367.527,2.14,2.14,0,0,0-.539,1.566V16H85.162V8.32h1.352V9.3A2.565,2.565,0,0,1,88.787,8.172ZM98.209,16V4h1.367V16Zm5.891.148a2.613,2.613,0,0,1-1.684-.527,1.894,1.894,0,0,1-.66-1.574,2.237,2.237,0,0,1,.211-1,1.77,1.77,0,0,1,.625-.7,3.749,3.749,0,0,1,.9-.434,8.341,8.341,0,0,1,1.168-.277l1.242-.2q.68-.125.68-.711a1.342,1.342,0,0,0-.48-1.145,1.958,1.958,0,0,0-1.215-.363,1.994,1.994,0,0,0-1.2.352,1.471,1.471,0,0,0-.57,1.078l-1.219-.258a2.346,2.346,0,0,1,.961-1.645,3.59,3.59,0,0,1,2.094-.551,4.247,4.247,0,0,1,1.113.137,3.025,3.025,0,0,1,.93.43,1.927,1.927,0,0,1,.664.828,3.081,3.081,0,0,1,.238,1.262v3.172a1.3,1.3,0,0,0,.176.8.759.759,0,0,0,.605.207h.125V16h-.672a1.281,1.281,0,0,1-1.453-1.039h-.062A2.935,2.935,0,0,1,104.1,16.148Zm.313-1.094a2.049,2.049,0,0,0,1.648-.742,3.056,3.056,0,0,0,.625-2.031l-2.031.391a2.734,2.734,0,0,0-1.191.426.99.99,0,0,0-.387.84.979.979,0,0,0,.371.844A1.586,1.586,0,0,0,104.412,15.055Zm8.727,1.094a3.641,3.641,0,0,1-2.07-.555,2.294,2.294,0,0,1-1.008-1.578l1.18-.336a1.645,1.645,0,0,0,.629,1.066,2.04,2.04,0,0,0,1.262.379,2.518,2.518,0,0,0,.738-.1,1.184,1.184,0,0,0,.566-.379,1.057,1.057,0,0,0,.164-1.016,1.357,1.357,0,0,0-.125-.254.774.774,0,0,0-.219-.211A2.885,2.885,0,0,0,113.99,13a2.726,2.726,0,0,0-.348-.145q-.23-.082-.371-.125t-.43-.125q-.289-.082-.445-.129a8.331,8.331,0,0,1-.8-.281,3.5,3.5,0,0,1-.648-.371,1.493,1.493,0,0,1-.5-.605,2.049,2.049,0,0,1-.168-.859,1.986,1.986,0,0,1,.375-1.227,2.11,2.11,0,0,1,.973-.723,3.888,3.888,0,0,1,1.363-.223,3.337,3.337,0,0,1,1.871.5,2.134,2.134,0,0,1,.934,1.5l-1.109.281A1.471,1.471,0,0,0,114.1,9.5a1.865,1.865,0,0,0-1.1-.324,1.9,1.9,0,0,0-1.031.27.906.906,0,0,0-.43.824.82.82,0,0,0,.113.426,1.352,1.352,0,0,0,.23.3,1.417,1.417,0,0,0,.422.23q.3.121.453.164t.563.145q.078.023.117.031.453.117.738.207a4.538,4.538,0,0,1,.664.281,2.208,2.208,0,0,1,.6.418,1.936,1.936,0,0,1,.375.594,2.1,2.1,0,0,1,.156.828,2.237,2.237,0,0,1-.23,1.035,1.8,1.8,0,0,1-.629.707,3.042,3.042,0,0,1-.895.387A4.262,4.262,0,0,1,113.138,16.148ZM126.3,8.172a3.493,3.493,0,0,1,1.391.281,3.421,3.421,0,0,1,1.141.789,3.688,3.688,0,0,1,.77,1.266,4.667,4.667,0,0,1,.285,1.656,4.06,4.06,0,0,1-1.035,2.9,3.362,3.362,0,0,1-2.551,1.1,3.04,3.04,0,0,1-1.605-.437,2.867,2.867,0,0,1-1.1-1.18v5.32h-1.352V8.32h1.3l.031,1.492a2.811,2.811,0,0,1,1.094-1.2A3.068,3.068,0,0,1,126.3,8.172Zm-.266,6.82a2.332,2.332,0,0,0,1.777-.777,2.892,2.892,0,0,0,.723-2.051,2.877,2.877,0,0,0-.723-2.047,2.423,2.423,0,0,0-3.582.035,2.88,2.88,0,0,0-.734,2.012,2.891,2.891,0,0,0,.734,2.02A2.343,2.343,0,0,0,126.037,14.992Zm6.672-8.477a.92.92,0,0,1-.914-.914.867.867,0,0,1,.27-.641.886.886,0,0,1,.645-.266.877.877,0,0,1,.637.266.867.867,0,0,1,.27.641.88.88,0,0,1-.27.645A.871.871,0,0,1,132.709,6.516ZM132.021,16V8.32h1.359V16Zm10.828-3.992-.016.367h-6a2.714,2.714,0,0,0,.734,1.965,2.411,2.411,0,0,0,1.75.684,2.3,2.3,0,0,0,1.273-.367,2.383,2.383,0,0,0,.875-1.016l1.219.258a3.464,3.464,0,0,1-1.312,1.648,3.581,3.581,0,0,1-2.039.6,3.71,3.71,0,0,1-2.766-1.07,3.982,3.982,0,0,1-1.055-2.922,3.962,3.962,0,0,1,1.059-2.914,3.664,3.664,0,0,1,2.723-1.07,3.467,3.467,0,0,1,2.582.984A3.889,3.889,0,0,1,142.849,12.008Zm-3.555-2.8a2.4,2.4,0,0,0-1.6.543,2.488,2.488,0,0,0-.809,1.582h4.6a2.282,2.282,0,0,0-.672-1.582A2.17,2.17,0,0,0,139.295,9.211Zm6.508,5.7H149.9V16h-6.125l4.047-6.578h-3.812V8.32h5.883Zm7.469,1.242a2.613,2.613,0,0,1-1.684-.527,1.894,1.894,0,0,1-.66-1.574,2.237,2.237,0,0,1,.211-1,1.77,1.77,0,0,1,.625-.7,3.749,3.749,0,0,1,.9-.434,8.341,8.341,0,0,1,1.168-.277l1.242-.2q.68-.125.68-.711a1.342,1.342,0,0,0-.48-1.145,1.958,1.958,0,0,0-1.215-.363,1.994,1.994,0,0,0-1.2.352,1.471,1.471,0,0,0-.57,1.078l-1.219-.258a2.346,2.346,0,0,1,.961-1.645,3.59,3.59,0,0,1,2.094-.551,4.247,4.247,0,0,1,1.113.137,3.026,3.026,0,0,1,.93.43,1.927,1.927,0,0,1,.664.828,3.081,3.081,0,0,1,.238,1.262v3.172a1.3,1.3,0,0,0,.176.8.759.759,0,0,0,.605.207h.125V16H157.3a1.281,1.281,0,0,1-1.453-1.039h-.062A2.935,2.935,0,0,1,153.271,16.148Zm.313-1.094a2.049,2.049,0,0,0,1.648-.742,3.056,3.056,0,0,0,.625-2.031l-2.031.391a2.734,2.734,0,0,0-1.191.426.99.99,0,0,0-.387.84.979.979,0,0,0,.371.844A1.586,1.586,0,0,0,153.584,15.055Zm8.727,1.094a3.641,3.641,0,0,1-2.07-.555,2.294,2.294,0,0,1-1.008-1.578l1.18-.336a1.645,1.645,0,0,0,.629,1.066,2.04,2.04,0,0,0,1.262.379,2.518,2.518,0,0,0,.738-.1,1.183,1.183,0,0,0,.566-.379,1.057,1.057,0,0,0,.164-1.016,1.356,1.356,0,0,0-.125-.254.774.774,0,0,0-.219-.211,2.884,2.884,0,0,0-.266-.164,2.727,2.727,0,0,0-.348-.145q-.23-.082-.371-.125t-.43-.125q-.289-.082-.445-.129a8.329,8.329,0,0,1-.8-.281,3.5,3.5,0,0,1-.648-.371,1.493,1.493,0,0,1-.5-.605,2.048,2.048,0,0,1-.168-.859,1.986,1.986,0,0,1,.375-1.227,2.11,2.11,0,0,1,.973-.723,3.888,3.888,0,0,1,1.363-.223,3.337,3.337,0,0,1,1.871.5,2.134,2.134,0,0,1,.934,1.5l-1.109.281a1.471,1.471,0,0,0-.586-.973,1.866,1.866,0,0,0-1.1-.324,1.9,1.9,0,0,0-1.031.27.906.906,0,0,0-.43.824.82.82,0,0,0,.113.426,1.352,1.352,0,0,0,.23.3,1.417,1.417,0,0,0,.422.23q.3.121.453.164t.563.145q.078.023.117.031.453.117.738.207a4.538,4.538,0,0,1,.664.281,2.208,2.208,0,0,1,.6.418,1.937,1.937,0,0,1,.375.594,2.1,2.1,0,0,1,.156.828,2.237,2.237,0,0,1-.23,1.035,1.8,1.8,0,0,1-.629.707,3.042,3.042,0,0,1-.895.387A4.262,4.262,0,0,1,162.31,16.148ZM54.439,32.172a3.493,3.493,0,0,1,1.391.281,3.421,3.421,0,0,1,1.141.789,3.688,3.688,0,0,1,.77,1.266,4.667,4.667,0,0,1,.285,1.656,4.061,4.061,0,0,1-1.035,2.9,3.362,3.362,0,0,1-2.551,1.1,3.04,3.04,0,0,1-1.605-.437,2.867,2.867,0,0,1-1.1-1.18v5.32H50.384V32.32h1.3l.031,1.492a2.811,2.811,0,0,1,1.094-1.2A3.068,3.068,0,0,1,54.439,32.172Zm-.266,6.82a2.332,2.332,0,0,0,1.777-.777,3.266,3.266,0,0,0,0-4.1,2.423,2.423,0,0,0-3.582.035,3.133,3.133,0,0,0,0,4.031A2.343,2.343,0,0,0,54.173,38.992Zm12.7-2.984-.016.367h-6A2.714,2.714,0,0,0,61.6,38.34a2.411,2.411,0,0,0,1.75.684,2.3,2.3,0,0,0,1.273-.367,2.383,2.383,0,0,0,.875-1.016l1.219.258A3.464,3.464,0,0,1,65.4,39.547a3.581,3.581,0,0,1-2.039.6,3.71,3.71,0,0,1-2.766-1.07,3.982,3.982,0,0,1-1.055-2.922A3.962,3.962,0,0,1,60.6,33.242a3.664,3.664,0,0,1,2.723-1.07,3.467,3.467,0,0,1,2.582.984A3.889,3.889,0,0,1,66.877,36.008Zm-3.555-2.8a2.4,2.4,0,0,0-1.6.543,2.488,2.488,0,0,0-.809,1.582h4.6a2.282,2.282,0,0,0-.672-1.582A2.17,2.17,0,0,0,63.322,33.211ZM74.7,32.32H76V43.867H74.65v-5.3a2.806,2.806,0,0,1-1.094,1.16,3.053,3.053,0,0,1-1.594.434,3.371,3.371,0,0,1-2.559-1.1,4.061,4.061,0,0,1-1.035-2.9,4.667,4.667,0,0,1,.285-1.656,3.655,3.655,0,0,1,.773-1.266,3.5,3.5,0,0,1,2.535-1.07,3.06,3.06,0,0,1,1.609.438,2.808,2.808,0,0,1,1.094,1.18ZM72.22,38.992a2.328,2.328,0,0,0,1.8-.809,3.153,3.153,0,0,0,0-4.031,2.419,2.419,0,0,0-3.578-.035,3.271,3.271,0,0,0,0,4.1A2.337,2.337,0,0,0,72.22,38.992Zm11.32-6.672h1.352V40H83.6l-.031-1.016a2.4,2.4,0,0,1-.953.863,2.932,2.932,0,0,1-1.344.3,2.671,2.671,0,0,1-1.934-.7,2.594,2.594,0,0,1-.723-1.961V32.32h1.352v4.867a1.822,1.822,0,0,0,.473,1.375,1.673,1.673,0,0,0,1.207.453,1.837,1.837,0,0,0,1.363-.531,2.164,2.164,0,0,0,.535-1.57Zm10.82,3.688-.016.367h-6a2.714,2.714,0,0,0,.734,1.965,2.411,2.411,0,0,0,1.75.684,2.3,2.3,0,0,0,1.273-.367,2.383,2.383,0,0,0,.875-1.016L94.2,37.9a3.464,3.464,0,0,1-1.312,1.648,3.581,3.581,0,0,1-2.039.6,3.71,3.71,0,0,1-2.766-1.07,3.982,3.982,0,0,1-1.055-2.922,3.962,3.962,0,0,1,1.059-2.914,3.664,3.664,0,0,1,2.723-1.07,3.467,3.467,0,0,1,2.582.984A3.889,3.889,0,0,1,94.361,36.008Zm-3.555-2.8a2.4,2.4,0,0,0-1.6.543,2.488,2.488,0,0,0-.809,1.582H93a2.282,2.282,0,0,0-.672-1.582A2.17,2.17,0,0,0,90.806,33.211Zm7.828-3.3a.569.569,0,0,0-.5.289,1.4,1.4,0,0,0-.184.758H97.2a2.061,2.061,0,0,1,.383-1.289,1.231,1.231,0,0,1,1.031-.5,1.416,1.416,0,0,1,1.266.766.72.72,0,0,0,.641.383.565.565,0,0,0,.5-.277,1.374,1.374,0,0,0,.18-.754h.758a2.052,2.052,0,0,1-.383,1.277,1.228,1.228,0,0,1-1.031.5,1.453,1.453,0,0,1-1.281-.758A.754.754,0,0,0,98.634,29.906Zm1.469,2.266a2.671,2.671,0,0,1,1.934.7,2.594,2.594,0,0,1,.723,1.961V40h-1.352V35.133a1.816,1.816,0,0,0-.469-1.375,1.676,1.676,0,0,0-1.2-.445,1.858,1.858,0,0,0-1.367.527,2.14,2.14,0,0,0-.539,1.566V40H96.478V32.32H97.83V33.3A2.565,2.565,0,0,1,100.1,32.172Zm7.039,7.977a2.613,2.613,0,0,1-1.684-.527,1.894,1.894,0,0,1-.66-1.574,2.237,2.237,0,0,1,.211-1,1.77,1.77,0,0,1,.625-.7,3.749,3.749,0,0,1,.9-.434,8.342,8.342,0,0,1,1.168-.277l1.242-.2q.68-.125.68-.711a1.342,1.342,0,0,0-.48-1.145,1.958,1.958,0,0,0-1.215-.363,1.994,1.994,0,0,0-1.2.352,1.471,1.471,0,0,0-.57,1.078l-1.219-.258a2.346,2.346,0,0,1,.961-1.645,3.59,3.59,0,0,1,2.094-.551,4.247,4.247,0,0,1,1.113.137,3.025,3.025,0,0,1,.93.43,1.927,1.927,0,0,1,.664.828,3.081,3.081,0,0,1,.238,1.262v3.172a1.3,1.3,0,0,0,.176.8.759.759,0,0,0,.605.207h.125V40h-.672a1.281,1.281,0,0,1-1.453-1.039h-.062A2.935,2.935,0,0,1,107.142,40.148Zm.313-1.094a2.049,2.049,0,0,0,1.648-.742,3.056,3.056,0,0,0,.625-2.031l-2.031.391a2.734,2.734,0,0,0-1.191.426.99.99,0,0,0-.387.84.979.979,0,0,0,.371.844A1.586,1.586,0,0,0,107.455,39.055Zm8.727,1.094a3.641,3.641,0,0,1-2.07-.555,2.294,2.294,0,0,1-1.008-1.578l1.18-.336a1.645,1.645,0,0,0,.629,1.066,2.04,2.04,0,0,0,1.262.379,2.518,2.518,0,0,0,.738-.1,1.184,1.184,0,0,0,.566-.379,1.057,1.057,0,0,0,.164-1.016,1.357,1.357,0,0,0-.125-.254.774.774,0,0,0-.219-.211,2.885,2.885,0,0,0-.266-.164,2.726,2.726,0,0,0-.348-.145q-.23-.082-.371-.125t-.43-.125q-.289-.082-.445-.129a8.33,8.33,0,0,1-.8-.281,3.5,3.5,0,0,1-.648-.371,1.493,1.493,0,0,1-.5-.605,2.049,2.049,0,0,1-.168-.859,1.986,1.986,0,0,1,.375-1.227,2.11,2.11,0,0,1,.973-.723,3.888,3.888,0,0,1,1.363-.223,3.337,3.337,0,0,1,1.871.5,2.134,2.134,0,0,1,.934,1.5l-1.109.281a1.471,1.471,0,0,0-.586-.973,1.865,1.865,0,0,0-1.1-.324,1.9,1.9,0,0,0-1.031.27.906.906,0,0,0-.43.824.82.82,0,0,0,.113.426,1.352,1.352,0,0,0,.23.3,1.417,1.417,0,0,0,.422.23q.3.121.453.164t.563.145q.078.023.117.031.453.117.738.207a4.538,4.538,0,0,1,.664.281,2.208,2.208,0,0,1,.6.418,1.936,1.936,0,0,1,.375.594,2.1,2.1,0,0,1,.156.828,2.237,2.237,0,0,1-.23,1.035,1.8,1.8,0,0,1-.629.707,3.042,3.042,0,0,1-.895.387A4.262,4.262,0,0,1,116.181,40.148ZM130.963,28h1.352V40h-1.3l-.031-1.492a2.826,2.826,0,0,1-1.094,1.211,3.048,3.048,0,0,1-1.625.445,3.49,3.49,0,0,1-2.535-1.082,3.7,3.7,0,0,1-.773-1.27,4.644,4.644,0,0,1-.285-1.648,4.038,4.038,0,0,1,1.043-2.883,3.367,3.367,0,0,1,2.551-1.109,3.061,3.061,0,0,1,1.605.434,2.842,2.842,0,0,1,1.1,1.176Zm-2.422,10.992a2.3,2.3,0,0,0,1.785-.809,3.171,3.171,0,0,0,0-4.035,2.3,2.3,0,0,0-1.781-.812,2.35,2.35,0,0,0-1.8.785,3.236,3.236,0,0,0,0,4.086A2.35,2.35,0,0,0,128.541,38.992Zm13.242-2.984-.016.367h-6a2.714,2.714,0,0,0,.734,1.965,2.411,2.411,0,0,0,1.75.684,2.3,2.3,0,0,0,1.273-.367,2.383,2.383,0,0,0,.875-1.016l1.219.258a3.464,3.464,0,0,1-1.312,1.648,3.581,3.581,0,0,1-2.039.6,3.71,3.71,0,0,1-2.766-1.07,3.982,3.982,0,0,1-1.055-2.922,3.962,3.962,0,0,1,1.059-2.914,3.664,3.664,0,0,1,2.723-1.07,3.467,3.467,0,0,1,2.582.984A3.889,3.889,0,0,1,141.783,36.008Zm-3.555-2.8a2.4,2.4,0,0,0-1.6.543,2.488,2.488,0,0,0-.809,1.582h4.6a2.282,2.282,0,0,0-.672-1.582A2.17,2.17,0,0,0,138.228,33.211ZM52.689,64.141a3.7,3.7,0,0,1-2.75-1.1,4.375,4.375,0,0,1,0-5.766,4,4,0,0,1,4.977-.43A3.391,3.391,0,0,1,56.2,58.711l-1.266.2a2.337,2.337,0,0,0-.867-1.2,2.361,2.361,0,0,0-1.391-.422,2.27,2.27,0,0,0-1.777.789,3.409,3.409,0,0,0,0,4.137,2.275,2.275,0,0,0,1.777.785,2.361,2.361,0,0,0,1.391-.422,2.337,2.337,0,0,0,.867-1.2L56.2,61.6a3.4,3.4,0,0,1-1.3,1.863A3.72,3.72,0,0,1,52.689,64.141Zm7.281.008a2.613,2.613,0,0,1-1.684-.527,1.894,1.894,0,0,1-.66-1.574,2.237,2.237,0,0,1,.211-1,1.77,1.77,0,0,1,.625-.7,3.749,3.749,0,0,1,.9-.434,8.341,8.341,0,0,1,1.168-.277l1.242-.2q.68-.125.68-.711a1.342,1.342,0,0,0-.48-1.145,1.958,1.958,0,0,0-1.215-.363,1.994,1.994,0,0,0-1.2.352,1.471,1.471,0,0,0-.57,1.078l-1.219-.258a2.346,2.346,0,0,1,.961-1.645,3.59,3.59,0,0,1,2.094-.551,4.247,4.247,0,0,1,1.113.137,3.025,3.025,0,0,1,.93.43,1.927,1.927,0,0,1,.664.828,3.081,3.081,0,0,1,.238,1.262v3.172a1.3,1.3,0,0,0,.176.8.759.759,0,0,0,.605.207h.125V64H64a1.281,1.281,0,0,1-1.453-1.039h-.062A2.935,2.935,0,0,1,59.97,64.148Zm.313-1.094a2.049,2.049,0,0,0,1.648-.742,3.056,3.056,0,0,0,.625-2.031l-2.031.391a2.734,2.734,0,0,0-1.191.426.99.99,0,0,0-.387.84.979.979,0,0,0,.371.844A1.586,1.586,0,0,0,60.283,63.055ZM72.1,52h1.352V64h-1.3l-.031-1.492a2.826,2.826,0,0,1-1.094,1.211,3.048,3.048,0,0,1-1.625.445,3.49,3.49,0,0,1-2.535-1.082,3.7,3.7,0,0,1-.773-1.27,4.644,4.644,0,0,1-.285-1.648,4.038,4.038,0,0,1,1.043-2.883,3.367,3.367,0,0,1,2.551-1.109A3.061,3.061,0,0,1,71,56.605a2.842,2.842,0,0,1,1.1,1.176ZM69.673,62.992a2.3,2.3,0,0,0,1.785-.809,3.171,3.171,0,0,0,0-4.035,2.3,2.3,0,0,0-1.781-.812,2.35,2.35,0,0,0-1.8.785,3.236,3.236,0,0,0,0,4.086A2.35,2.35,0,0,0,69.673,62.992Zm8.3,1.156a2.613,2.613,0,0,1-1.684-.527,1.894,1.894,0,0,1-.66-1.574,2.237,2.237,0,0,1,.211-1,1.77,1.77,0,0,1,.625-.7,3.749,3.749,0,0,1,.9-.434,8.342,8.342,0,0,1,1.168-.277l1.242-.2q.68-.125.68-.711a1.342,1.342,0,0,0-.48-1.145,1.958,1.958,0,0,0-1.215-.363,1.994,1.994,0,0,0-1.2.352,1.471,1.471,0,0,0-.57,1.078l-1.219-.258a2.346,2.346,0,0,1,.961-1.645,3.59,3.59,0,0,1,2.094-.551,4.247,4.247,0,0,1,1.113.137,3.025,3.025,0,0,1,.93.43,1.927,1.927,0,0,1,.664.828,3.081,3.081,0,0,1,.238,1.262v3.172a1.3,1.3,0,0,0,.176.8.759.759,0,0,0,.605.207h.125V64H82a1.281,1.281,0,0,1-1.453-1.039h-.062A2.935,2.935,0,0,1,77.97,64.148Zm.313-1.094a2.049,2.049,0,0,0,1.648-.742,3.056,3.056,0,0,0,.625-2.031l-2.031.391a2.734,2.734,0,0,0-1.191.426.99.99,0,0,0-.387.84.979.979,0,0,0,.371.844A1.586,1.586,0,0,0,78.283,63.055Zm14.508-6.883a3.493,3.493,0,0,1,1.391.281,3.421,3.421,0,0,1,1.141.789,3.688,3.688,0,0,1,.77,1.266,4.667,4.667,0,0,1,.285,1.656,4.061,4.061,0,0,1-1.035,2.9,3.362,3.362,0,0,1-2.551,1.1,3.04,3.04,0,0,1-1.605-.437,2.867,2.867,0,0,1-1.1-1.18v5.32H88.736V56.32h1.3l.031,1.492a2.811,2.811,0,0,1,1.094-1.2A3.068,3.068,0,0,1,92.791,56.172Zm-.266,6.82a2.332,2.332,0,0,0,1.777-.777,3.266,3.266,0,0,0,0-4.1,2.423,2.423,0,0,0-3.582.035,3.133,3.133,0,0,0,0,4.031A2.343,2.343,0,0,0,92.525,62.992Zm7.3-5.32a2.322,2.322,0,0,1,.953-1.031,2.87,2.87,0,0,1,1.477-.406v1.273a2.53,2.53,0,0,0-1.785.57,2.382,2.382,0,0,0-.613,1.82V64H98.509V56.32h1.32Zm10.641,2.336-.016.367h-6a2.714,2.714,0,0,0,.734,1.965,2.411,2.411,0,0,0,1.75.684,2.3,2.3,0,0,0,1.273-.367,2.383,2.383,0,0,0,.875-1.016l1.219.258a3.464,3.464,0,0,1-1.312,1.648,3.581,3.581,0,0,1-2.039.6,3.71,3.71,0,0,1-2.766-1.07,4.557,4.557,0,0,1,0-5.836,3.664,3.664,0,0,1,2.723-1.07,3.467,3.467,0,0,1,2.582.984A3.889,3.889,0,0,1,110.47,60.008Zm-3.555-2.8a2.4,2.4,0,0,0-1.6.543,2.488,2.488,0,0,0-.809,1.582h4.6a2.282,2.282,0,0,0-.672-1.582A2.17,2.17,0,0,0,106.916,57.211Zm9.3-1.039a2.671,2.671,0,0,1,1.934.7,2.594,2.594,0,0,1,.723,1.961V64h-1.352V59.133a1.816,1.816,0,0,0-.469-1.375,1.676,1.676,0,0,0-1.2-.445,1.858,1.858,0,0,0-1.367.527,2.14,2.14,0,0,0-.539,1.566V64h-1.352V56.32h1.352V57.3A2.565,2.565,0,0,1,116.213,56.172ZM127.15,52H128.5V64h-1.3l-.031-1.492a2.826,2.826,0,0,1-1.094,1.211,3.048,3.048,0,0,1-1.625.445,3.49,3.49,0,0,1-2.535-1.082,3.7,3.7,0,0,1-.773-1.27,4.644,4.644,0,0,1-.285-1.648,4.038,4.038,0,0,1,1.043-2.883,3.367,3.367,0,0,1,2.551-1.109,3.061,3.061,0,0,1,1.605.434,2.842,2.842,0,0,1,1.1,1.176Zm-2.422,10.992a2.3,2.3,0,0,0,1.785-.809,3.171,3.171,0,0,0,0-4.035,2.3,2.3,0,0,0-1.781-.812,2.35,2.35,0,0,0-1.8.785,3.236,3.236,0,0,0,0,4.086A2.35,2.35,0,0,0,124.728,62.992Zm8.3,1.156a2.613,2.613,0,0,1-1.684-.527,1.894,1.894,0,0,1-.66-1.574,2.237,2.237,0,0,1,.211-1,1.77,1.77,0,0,1,.625-.7,3.749,3.749,0,0,1,.9-.434,8.341,8.341,0,0,1,1.168-.277l1.242-.2q.68-.125.68-.711a1.342,1.342,0,0,0-.48-1.145,1.958,1.958,0,0,0-1.215-.363,1.994,1.994,0,0,0-1.2.352,1.471,1.471,0,0,0-.57,1.078l-1.219-.258a2.346,2.346,0,0,1,.961-1.645,3.59,3.59,0,0,1,2.094-.551,4.247,4.247,0,0,1,1.113.137,3.026,3.026,0,0,1,.93.43,1.927,1.927,0,0,1,.664.828,3.081,3.081,0,0,1,.238,1.262v3.172a1.3,1.3,0,0,0,.176.8.759.759,0,0,0,.605.207h.125V64h-.672a1.281,1.281,0,0,1-1.453-1.039h-.062A2.935,2.935,0,0,1,133.025,64.148Zm.313-1.094a2.049,2.049,0,0,0,1.648-.742,3.056,3.056,0,0,0,.625-2.031l-2.031.391a2.734,2.734,0,0,0-1.191.426.99.99,0,0,0-.387.84.979.979,0,0,0,.371.844A1.586,1.586,0,0,0,133.338,63.055Zm7.484,1.1a.877.877,0,0,1-.637-.266.908.908,0,0,1,.637-1.547.884.884,0,0,1,.641.27.887.887,0,0,1,0,1.277A.886.886,0,0,1,140.822,64.156Z" transform="translate(6920.403 -5625.464)" fill="#00223d"/>
    <g id="Grupo_13300" data-name="Grupo 13300" transform="translate(6907.816 -5644.565)">
      <path id="Trazado_19560" data-name="Trazado 19560" d="M613.508,642.948a3.668,3.668,0,0,1-.78-.635A105.656,105.656,0,0,1,424.744,548.2h-2.1a107.625,107.625,0,0,0,191.781,95.113A3.633,3.633,0,0,1,613.508,642.948Z" transform="translate(-415.904 -548.202)" fill="#e8a627"/>
    </g>
    <rect id="Rectángulo_3175" data-name="Rectángulo 3175" width="252.208" height="68.955" rx="34" transform="translate(6880.241 -5713.52)" fill="#e8a627"/>
    <path id="Trazado_19752" data-name="Trazado 19752" d="M-70.92-15.522a4.671,4.671,0,0,1,3.577,1.445,5.026,5.026,0,0,1,1.354,3.572,4.9,4.9,0,0,1-1.343,3.55A4.756,4.756,0,0,1-70.92-5.564h-3.233V0h-3.223V-15.522Zm-.537,7.262a2.368,2.368,0,0,0,1.772-.607,2.308,2.308,0,0,0,.591-1.681,2.289,2.289,0,0,0-.6-1.66,2.347,2.347,0,0,0-1.767-.618h-2.7v4.565ZM-55.086,0l-4.039-6.832h-.935V0h-3.223V-15.522h5.629a6.511,6.511,0,0,1,2.256.36,3.9,3.9,0,0,1,1.563,1,4.278,4.278,0,0,1,.881,1.466,5.363,5.363,0,0,1,.3,1.815,3.791,3.791,0,0,1-.849,2.551,4.277,4.277,0,0,1-2.438,1.337L-51.272,0ZM-60.06-12.848v3.706h1.9q2.417,0,2.417-1.848a1.682,1.682,0,0,0-.591-1.364,2.809,2.809,0,0,0-1.826-.494Zm20.152.161h-5.758v3.523h5.1v2.8h-5.1v3.513h5.758V0h-9V-15.522h9Zm9.775-2.836a4.671,4.671,0,0,1,3.577,1.445A5.026,5.026,0,0,1-25.2-10.506a4.9,4.9,0,0,1-1.343,3.55,4.756,4.756,0,0,1-3.588,1.391h-3.233V0h-3.223V-15.522Zm-.537,7.262A2.368,2.368,0,0,0-28.9-8.868a2.308,2.308,0,0,0,.591-1.681,2.289,2.289,0,0,0-.6-1.66,2.347,2.347,0,0,0-1.767-.618h-2.7v4.565Zm17,8.261-1.128-3.2h-6.521L-22.44,0h-3.3l5.715-15.522h3.942L-10.366,0Zm-6.7-5.9h4.63l-2.31-6.585ZM.161,0-3.878-6.832h-.935V0H-8.035V-15.522h5.629a6.511,6.511,0,0,1,2.256.36,3.9,3.9,0,0,1,1.563,1A4.278,4.278,0,0,1,2.293-12.7a5.363,5.363,0,0,1,.3,1.815A3.791,3.791,0,0,1,1.74-8.331,4.277,4.277,0,0,1-.7-6.993L3.975,0ZM-4.812-12.848v3.706h1.9q2.417,0,2.417-1.848a1.682,1.682,0,0,0-.591-1.364,2.809,2.809,0,0,0-1.826-.494ZM16.854,0,15.727-3.2H9.206L8.078,0H4.78L10.5-15.522h3.942L20.152,0Zm-6.7-5.9h4.63l-2.31-6.585ZM28.585.215a8.664,8.664,0,0,1-3.164-.569A7.439,7.439,0,0,1,22.9-1.944a7.167,7.167,0,0,1-1.654-2.524,8.8,8.8,0,0,1-.6-3.3,8.408,8.408,0,0,1,1.031-4.216,7.021,7.021,0,0,1,2.831-2.788,8.476,8.476,0,0,1,4.077-.967A8.237,8.237,0,0,1,33.14-14.48a6.88,6.88,0,0,1,2.782,3.459l-3.008,1.1a4.252,4.252,0,0,0-1.665-2.095,4.756,4.756,0,0,0-2.664-.752,4.559,4.559,0,0,0-3.395,1.354,4.98,4.98,0,0,0-1.332,3.652A4.988,4.988,0,0,0,25.2-4.109,4.554,4.554,0,0,0,28.585-2.75a4.738,4.738,0,0,0,2.659-.757,4.271,4.271,0,0,0,1.67-2.1l3.008,1.1A6.908,6.908,0,0,1,33.14-1.047,8.211,8.211,0,0,1,28.585.215ZM38.564,0V-15.522h3.223V0ZM51.713-16.973l2.814-3.953,1.525,1.085-2.438,2.868ZM52.669.215a8.438,8.438,0,0,1-4.077-.972,7.047,7.047,0,0,1-2.831-2.8A8.416,8.416,0,0,1,44.73-7.767a8.408,8.408,0,0,1,1.031-4.216,7.021,7.021,0,0,1,2.831-2.788,8.476,8.476,0,0,1,4.077-.967,8.444,8.444,0,0,1,4.071.967,7.03,7.03,0,0,1,2.825,2.788A8.408,8.408,0,0,1,60.6-7.767a8.416,8.416,0,0,1-1.031,4.211,7.047,7.047,0,0,1-2.831,2.8A8.415,8.415,0,0,1,52.669.215ZM49.274-4.1a4.55,4.55,0,0,0,3.395,1.359A4.55,4.55,0,0,0,56.063-4.1,5.014,5.014,0,0,0,57.4-7.767a4.98,4.98,0,0,0-1.332-3.652,4.559,4.559,0,0,0-3.395-1.354,4.559,4.559,0,0,0-3.395,1.354,4.98,4.98,0,0,0-1.332,3.652A5.014,5.014,0,0,0,49.274-4.1Zm24.89-11.424h3.212V0H73.648L66.773-11.1V0H63.562V-15.522h3.685L74.164-4.49Z" transform="translate(7035.146 -5669.109)" fill="#fff"/>
    <g id="Grupo_13197" data-name="Grupo 13197" transform="translate(6860.629 -5723.211)">
      <circle id="Elipse_503" data-name="Elipse 503" cx="40.023" cy="40.023" r="40.023" transform="translate(1.965 1.966)" fill="#e8a627"/>
      <path id="Trazado_19567" data-name="Trazado 19567" d="M393.224,524.4a41.989,41.989,0,1,1,41.99-41.989A42.035,42.035,0,0,1,393.224,524.4Zm0-80.046a38.057,38.057,0,1,0,38.057,38.057A38.1,38.1,0,0,0,393.224,444.354Z" transform="translate(-351.237 -440.422)" fill="#fff"/>
    </g>
    <g id="Grupo_13199" data-name="Grupo 13199" transform="translate(6877.982 -5702.038)">
      <g id="Grupo_13198" data-name="Grupo 13198">
        <path id="Trazado_19568" data-name="Trazado 19568" d="M424.289,477.017a7.256,7.256,0,0,0-10.055-1.832l-16.722,11.708-6.08-4.258a8.792,8.792,0,1,0-3.7,3.479l7.447,5.214-7.447,5.214a8.8,8.8,0,1,0,3.7,3.479l6.08-4.258,16.721,11.707a7.255,7.255,0,0,0,10.055-1.831L403.848,491.33Zm-40.454,5.8a4.561,4.561,0,1,1,4.561-4.561A4.56,4.56,0,0,1,383.836,482.816Zm0,26.148A4.561,4.561,0,1,1,388.4,504.4,4.56,4.56,0,0,1,383.836,508.964Z" transform="translate(-375.018 -469.438)"/>
      </g>
    </g>
  </g>
</svg>
