<svg xmlns="http://www.w3.org/2000/svg" width="648.77" height="255.183" viewBox="0 0 648.77 255.183">
  <g id="Grupo_13319" data-name="Grupo 13319" transform="translate(-1711 4157.049)">
    <path id="Trazado_19553" data-name="Trazado 19553" d="M194.271,174.161a64.49,64.49,0,0,1,48.756-62.532,31.3,31.3,0,0,0-3.057-13A30.129,30.129,0,0,0,214.6,81.389l-482.683-15.55c-19.1-1.11-34.37,16.051-31.519,35.43l26.383,179.336c2.332,15.852,16.119,27.239,31.738,26.214,0,0,413.467-3.984,423.664-4.342,17.234-.606,34.434-.307,40.822-20.9L229,231.356A64.448,64.448,0,0,1,194.271,174.161Z" transform="translate(2010.943 -4208.75)" fill="#ecd048"/>
    <circle id="Elipse_501" data-name="Elipse 501" cx="48.822" cy="48.822" r="48.822" transform="translate(2220.862 -4083.41)" fill="#ecd048"/>
    <path id="Trazado_19554" data-name="Trazado 19554" d="M157.784,60.657l89.275,2.827a30.582,30.582,0,0,1,28.806,32.433M145.933,60.282,136.911,60M-178.732,50l299.924,9.5M-190.06,49.646l-49.562-1.57a30.6,30.6,0,0,0-31.99,35.108l26.778,177.707a30.6,30.6,0,0,0,32.212,25.975s416.431-3.947,426.78-4.3c17.492-.6,34.949-.3,41.433-20.708,9.445-29.72-29.33-36.551-34.813-17.2-4.251,15,18.588,25.864,32.16,12.185,4.239-4.272,4.317-8.9,5.541-13.948s2.343-10.193,2.343-10.193a8.432,8.432,0,0,1,8.6-6.571,58.2,58.2,0,1,0-34.148-13.288,12.016,12.016,0,0,0,19.18-5.957l9.836-34.083c2.519-8.729-10.112-12.516-12.671-3.656-2.489,8.623,10.512,12.907,16.235,14.558s19.009,4.953,21.5-3.67c2.556-8.861-10.151-12.385-12.67-3.657s-12.454,42.39-12.454,42.39" transform="translate(2000.413 -4202.065)" fill="none" stroke="#2f2f2f" stroke-linecap="round" stroke-linejoin="round" stroke-width="6"/>
    <line id="Línea_200" data-name="Línea 200" x1="7.486" y2="15.125" transform="translate(2317.916 -4109.04)" fill="none" stroke="#2f2f2f" stroke-linecap="round" stroke-linejoin="round" stroke-width="6"/>
    <line id="Línea_201" data-name="Línea 201" x1="12.771" y2="11.032" transform="translate(2330.715 -4092.774)" fill="none" stroke="#2f2f2f" stroke-linecap="round" stroke-linejoin="round" stroke-width="6"/>
    <line id="Línea_202" data-name="Línea 202" x1="16.077" y2="5.13" transform="translate(2339.923 -4071.175)" fill="none" stroke="#2f2f2f" stroke-linecap="round" stroke-linejoin="round" stroke-width="6"/>
    <text id="Para_profundizar_en_este_tema_lo_invitamos_a_consultar_el_artículo_Estudio_del_trabajo_._" data-name="Para profundizar en este tema, lo invitamos a consultar el artículo “Estudio del trabajo”.
" transform="translate(1775 -4065)" fill="#00223d" font-size="18" font-family="CerebriSans-Regular, Cerebri Sans"><tspan x="0" y="17">Para profundizar en este tema, lo invitamos a </tspan><tspan x="0" y="41">consultar el artículo </tspan><tspan y="41" font-family="CerebriSans-Bold, Cerebri Sans" font-weight="700">“Estudio del trabajo”</tspan><tspan y="41">.</tspan></text>
    <text id="Disponible_en_el_sitio_web:_https:_www.ingenieriaindustrialonline.com" data-name="Disponible en el sitio web:
https:/www.ingenieriaindustrialonline.com" transform="translate(1775 -3998)" fill="#00223d" font-size="18" font-family="CerebriSans-Regular, Cerebri Sans"><tspan x="0" y="17">Disponible en el sitio web:</tspan><tspan x="0" y="41">https:/www.ingenieriaindustrialonline.com</tspan></text>
    <text id="Consulta_bibliográfica" data-name="Consulta bibliográfica" transform="translate(1775 -4086)" fill="#002b45" font-size="24" font-family="CerebriSans-Bold, Cerebri Sans" font-weight="700"><tspan x="0" y="0">Consulta bibliográfica</tspan></text>
  </g>
</svg>
