<svg xmlns="http://www.w3.org/2000/svg" width="230" height="113" viewBox="0 0 230 113">
  <g id="Grupo_13315" data-name="Grupo 13315" transform="translate(-7360 4032)">
    <rect id="Rectángulo_3315" data-name="Rectángulo 3315" width="196" height="113" transform="translate(7394 -4032)" fill="#e8eef3"/>
    <path id="Trazado_19757" data-name="Trazado 19757" d="M26.664,17V5.578h2.422V17Zm13.172,0H37.453V11.9a2.45,2.45,0,0,0-.336-1.418,1.222,1.222,0,0,0-1.07-.473,1.609,1.609,0,0,0-1.445.668,4.143,4.143,0,0,0-.445,2.215V17H31.773V8.266h1.82l.32,1.117h.133a2.518,2.518,0,0,1,1.1-.957,3.738,3.738,0,0,1,1.59-.324,3.055,3.055,0,0,1,2.313.824,3.308,3.308,0,0,1,.789,2.379Zm4.531,0L41.039,8.266h2.492l1.688,4.977a8.88,8.88,0,0,1,.352,1.789h.047a7.78,7.78,0,0,1,.352-1.789l1.68-4.977h2.492L46.813,17ZM55.008,9.8a1.511,1.511,0,0,0-1.187.48,2.224,2.224,0,0,0-.492,1.363h3.344a1.986,1.986,0,0,0-.461-1.363A1.561,1.561,0,0,0,55.008,9.8Zm.336,7.359a4.508,4.508,0,0,1-3.3-1.164,4.408,4.408,0,0,1-1.187-3.3,4.848,4.848,0,0,1,1.1-3.395,3.908,3.908,0,0,1,3.035-1.2,3.847,3.847,0,0,1,2.883,1.055,3.99,3.99,0,0,1,1.031,2.914v1.156H53.273a2.294,2.294,0,0,0,.6,1.586,2.117,2.117,0,0,0,1.578.57,6.551,6.551,0,0,0,1.492-.164,7.466,7.466,0,0,0,1.469-.523v1.844A5.6,5.6,0,0,1,57.078,17,8.423,8.423,0,0,1,55.344,17.156ZM68.906,17H66.523V11.9a2.45,2.45,0,0,0-.336-1.418,1.222,1.222,0,0,0-1.07-.473,1.609,1.609,0,0,0-1.445.668,4.143,4.143,0,0,0-.445,2.215V17H60.844V8.266h1.82l.32,1.117h.133a2.518,2.518,0,0,1,1.1-.957A3.738,3.738,0,0,1,65.8,8.1a3.055,3.055,0,0,1,2.313.824,3.308,3.308,0,0,1,.789,2.379Zm6.133-1.742a5.165,5.165,0,0,0,1.5-.273v1.773a5.348,5.348,0,0,1-2.187.4,2.677,2.677,0,0,1-2.082-.723,3.145,3.145,0,0,1-.652-2.168V10.055H70.477V9.047l1.313-.8.688-1.844H74V8.266h2.445v1.789H74v4.211a.93.93,0,0,0,.285.75A1.125,1.125,0,0,0,75.039,15.258ZM83.852,17l-.461-1.187h-.062a3.519,3.519,0,0,1-1.238,1.051,4,4,0,0,1-1.66.293,2.685,2.685,0,0,1-1.98-.719,2.76,2.76,0,0,1-.723-2.047A2.3,2.3,0,0,1,78.7,12.34a5.636,5.636,0,0,1,2.934-.73l1.516-.047V11.18a1.188,1.188,0,0,0-1.359-1.328,6.2,6.2,0,0,0-2.461.633l-.789-1.609a7.1,7.1,0,0,1,3.344-.789,4.165,4.165,0,0,1,2.7.766,2.83,2.83,0,0,1,.938,2.328V17Zm-.7-4.047-.922.031a2.952,2.952,0,0,0-1.547.375,1.178,1.178,0,0,0-.508,1.047q0,1.008,1.156,1.008a1.831,1.831,0,0,0,1.324-.477,1.674,1.674,0,0,0,.5-1.266Zm9.7-4.852a3.843,3.843,0,0,1,.8.07l-.18,2.234a2.73,2.73,0,0,0-.7-.078,2.527,2.527,0,0,0-1.777.586,2.118,2.118,0,0,0-.637,1.641V17H87.969V8.266h1.8l.352,1.469h.117a3.283,3.283,0,0,1,1.1-1.184A2.707,2.707,0,0,1,92.844,8.1Zm2.289-2.094q0-1.164,1.3-1.164t1.3,1.164a1.135,1.135,0,0,1-.324.863,1.363,1.363,0,0,1-.973.309Q95.133,7.18,95.133,6.008ZM97.617,17H95.234V8.266h2.383Zm4.4-4.383a3.666,3.666,0,0,0,.426,1.961,1.523,1.523,0,0,0,1.387.664,1.5,1.5,0,0,0,1.371-.66,3.719,3.719,0,0,0,.418-1.965,3.608,3.608,0,0,0-.422-1.945,1.794,1.794,0,0,0-2.758,0A3.6,3.6,0,0,0,102.016,12.617Zm6.039,0a4.694,4.694,0,0,1-1.125,3.336,4.079,4.079,0,0,1-3.133,1.2,4.382,4.382,0,0,1-2.219-.551,3.665,3.665,0,0,1-1.477-1.582,5.316,5.316,0,0,1-.516-2.406A4.668,4.668,0,0,1,100.7,9.289,4.1,4.1,0,0,1,103.844,8.1a4.407,4.407,0,0,1,2.219.547,3.65,3.65,0,0,1,1.477,1.57A5.267,5.267,0,0,1,108.055,12.617Z" transform="translate(7427 -3986)" fill="#00223d"/>
    <g id="Elipse_516" data-name="Elipse 516" transform="translate(7360 -4007)" fill="#fff" stroke="#ff9100" stroke-width="5">
      <ellipse cx="33.5" cy="32" rx="33.5" ry="32" stroke="none"/>
      <ellipse cx="33.5" cy="32" rx="31" ry="29.5" fill="none"/>
    </g>
    <text id="_4" data-name="4" transform="translate(7378.347 -3959.586)" fill="#868988" font-size="42.237" font-family="Montserrat-Bold, Montserrat" font-weight="700"><tspan x="0" y="0">4</tspan></text>
  </g>
</svg>
