<svg xmlns="http://www.w3.org/2000/svg" width="230" height="113" viewBox="0 0 230 113">
  <g id="Grupo_13317" data-name="Grupo 13317" transform="translate(-6845 3867)">
    <rect id="Rectángulo_3312" data-name="Rectángulo 3312" width="196" height="113" transform="translate(6879 -3867)" fill="#e8eef3"/>
    <path id="Trazado_19759" data-name="Trazado 19759" d="M20.594,11.18a5.625,5.625,0,0,1-1.605,4.32A6.547,6.547,0,0,1,14.352,17H11.117V5.578H14.7a6.039,6.039,0,0,1,4.344,1.477A5.431,5.431,0,0,1,20.594,11.18Zm-2.516.063q0-3.68-3.25-3.68H13.539V15h1.039Q18.078,15,18.078,11.242ZM26.391,9.8a1.511,1.511,0,0,0-1.187.48,2.224,2.224,0,0,0-.492,1.363h3.344a1.986,1.986,0,0,0-.461-1.363A1.561,1.561,0,0,0,26.391,9.8Zm.336,7.359a4.508,4.508,0,0,1-3.3-1.164,4.408,4.408,0,0,1-1.187-3.3A4.848,4.848,0,0,1,23.34,9.3a3.909,3.909,0,0,1,3.035-1.2,3.847,3.847,0,0,1,2.883,1.055,3.99,3.99,0,0,1,1.031,2.914v1.156H24.656a2.294,2.294,0,0,0,.6,1.586,2.117,2.117,0,0,0,1.578.57,6.551,6.551,0,0,0,1.492-.164A7.466,7.466,0,0,0,29.8,14.7v1.844A5.6,5.6,0,0,1,28.461,17,8.423,8.423,0,0,1,26.727,17.156ZM34.3,17,30.977,8.266h2.492l1.688,4.977a8.88,8.88,0,0,1,.352,1.789h.047a7.78,7.78,0,0,1,.352-1.789l1.68-4.977h2.492L36.75,17Zm8.922-4.383a3.666,3.666,0,0,0,.426,1.961,1.523,1.523,0,0,0,1.387.664,1.5,1.5,0,0,0,1.371-.66,3.719,3.719,0,0,0,.418-1.965,3.608,3.608,0,0,0-.422-1.945,1.794,1.794,0,0,0-2.758,0A3.6,3.6,0,0,0,43.227,12.617Zm6.039,0a4.694,4.694,0,0,1-1.125,3.336,4.079,4.079,0,0,1-3.133,1.2,4.382,4.382,0,0,1-2.219-.551,3.665,3.665,0,0,1-1.477-1.582,5.316,5.316,0,0,1-.516-2.406,4.668,4.668,0,0,1,1.117-3.328A4.1,4.1,0,0,1,45.055,8.1a4.407,4.407,0,0,1,2.219.547,3.65,3.65,0,0,1,1.477,1.57A5.267,5.267,0,0,1,49.266,12.617ZM53.617,17H51.234V4.844h2.383ZM62.3,17l-.32-1.117h-.125a2.514,2.514,0,0,1-1.086.941,3.708,3.708,0,0,1-1.6.332,3.05,3.05,0,0,1-2.32-.824,3.316,3.316,0,0,1-.781-2.371v-5.7h2.383v5.1a2.45,2.45,0,0,0,.336,1.418,1.222,1.222,0,0,0,1.07.473A1.609,1.609,0,0,0,61.3,14.59a4.143,4.143,0,0,0,.445-2.215V8.266h2.383V17Zm7.875.156q-4.078,0-4.078-4.477a4.775,4.775,0,0,1,1.109-3.4A4.162,4.162,0,0,1,70.391,8.1a6.062,6.062,0,0,1,2.719.594l-.7,1.844q-.562-.227-1.047-.371a3.373,3.373,0,0,0-.969-.145q-1.859,0-1.859,2.641,0,2.562,1.859,2.563a4.239,4.239,0,0,0,1.273-.184,4.6,4.6,0,0,0,1.172-.574v2.039a3.84,3.84,0,0,1-1.168.508A6.568,6.568,0,0,1,70.18,17.156ZM74.758,6.008q0-1.164,1.3-1.164t1.3,1.164a1.135,1.135,0,0,1-.324.863,1.363,1.363,0,0,1-.973.309Q74.758,7.18,74.758,6.008ZM77.242,17H74.859V8.266h2.383Zm4.4-4.383a3.666,3.666,0,0,0,.426,1.961,1.523,1.523,0,0,0,1.387.664,1.5,1.5,0,0,0,1.371-.66,3.719,3.719,0,0,0,.418-1.965,3.608,3.608,0,0,0-.422-1.945,1.794,1.794,0,0,0-2.758,0A3.6,3.6,0,0,0,81.641,12.617Zm6.039,0a4.694,4.694,0,0,1-1.125,3.336,4.079,4.079,0,0,1-3.133,1.2,4.382,4.382,0,0,1-2.219-.551,3.665,3.665,0,0,1-1.477-1.582,5.316,5.316,0,0,1-.516-2.406,4.668,4.668,0,0,1,1.117-3.328A4.1,4.1,0,0,1,83.469,8.1a4.407,4.407,0,0,1,2.219.547,3.65,3.65,0,0,1,1.477,1.57A5.267,5.267,0,0,1,87.68,12.617ZM97.711,17H95.328V11.9a2.45,2.45,0,0,0-.336-1.418,1.222,1.222,0,0,0-1.07-.473,1.609,1.609,0,0,0-1.445.668,4.143,4.143,0,0,0-.445,2.215V17H89.648V8.266h1.82l.32,1.117h.133a2.518,2.518,0,0,1,1.1-.957,3.738,3.738,0,0,1,1.59-.324,3.055,3.055,0,0,1,2.313.824,3.308,3.308,0,0,1,.789,2.379Zm6.07-7.2a1.511,1.511,0,0,0-1.187.48,2.224,2.224,0,0,0-.492,1.363h3.344a1.986,1.986,0,0,0-.461-1.363A1.561,1.561,0,0,0,103.781,9.8Zm.336,7.359a4.508,4.508,0,0,1-3.3-1.164,4.408,4.408,0,0,1-1.187-3.3,4.848,4.848,0,0,1,1.1-3.395,3.909,3.909,0,0,1,3.035-1.2,3.847,3.847,0,0,1,2.883,1.055,3.99,3.99,0,0,1,1.031,2.914v1.156h-5.633a2.294,2.294,0,0,0,.6,1.586,2.117,2.117,0,0,0,1.578.57,6.551,6.551,0,0,0,1.492-.164,7.466,7.466,0,0,0,1.469-.523v1.844a5.6,5.6,0,0,1-1.336.465A8.423,8.423,0,0,1,104.117,17.156Zm11.594-2.75a2.4,2.4,0,0,1-.934,2.047,4.613,4.613,0,0,1-2.793.7,8.772,8.772,0,0,1-1.625-.129,6.147,6.147,0,0,1-1.258-.379V14.68a8.307,8.307,0,0,0,1.5.523,6.058,6.058,0,0,0,1.465.211q1.3,0,1.3-.75a.626.626,0,0,0-.172-.457,2.492,2.492,0,0,0-.594-.4q-.422-.223-1.125-.52a7.067,7.067,0,0,1-1.48-.781,2.2,2.2,0,0,1-.687-.824,2.721,2.721,0,0,1-.215-1.145,2.075,2.075,0,0,1,.9-1.8,4.4,4.4,0,0,1,2.559-.637,7.262,7.262,0,0,1,3.07.688l-.719,1.719q-.656-.281-1.227-.461a3.852,3.852,0,0,0-1.164-.18q-1.055,0-1.055.57a.67.67,0,0,0,.34.555,9.242,9.242,0,0,0,1.488.7,6.914,6.914,0,0,1,1.5.773,2.287,2.287,0,0,1,.7.828A2.545,2.545,0,0,1,115.711,14.406Z" transform="translate(6921 -3821)" fill="#00223d"/>
    <g id="Elipse_516" data-name="Elipse 516" transform="translate(6845 -3842)" fill="#fff" stroke="#ff9100" stroke-width="5">
      <ellipse cx="33.5" cy="32" rx="33.5" ry="32" stroke="none"/>
      <ellipse cx="33.5" cy="32" rx="31" ry="29.5" fill="none"/>
    </g>
    <path id="Trazado_19765" data-name="Trazado 19765" d="M15.881-18.542a9.979,9.979,0,0,0-7.307,2.619c.211-5.66,3.379-8.574,8.321-8.574a9.738,9.738,0,0,1,5.533,1.478l2.534-5.026a15.964,15.964,0,0,0-8.236-2.027c-8.912,0-15.079,5.7-15.079,15.924C1.647-4.6,6.716.507,14.868.507c6.251,0,11.193-3.8,11.193-9.841C26.061-14.91,21.583-18.542,15.881-18.542ZM14.487-4.6c-3.295,0-5.2-1.858-5.2-4.393,0-2.576,2.112-4.435,5.111-4.435,3.041,0,5.026,1.732,5.026,4.435S17.4-4.6,14.487-4.6Z" transform="translate(6864.347 -3794.586)" fill="#868988"/>
  </g>
</svg>
