<svg xmlns="http://www.w3.org/2000/svg" width="230" height="113" viewBox="0 0 230 113">
  <g id="Grupo_13313" data-name="Grupo 13313" transform="translate(-6845 4032)">
    <rect id="Rectángulo_3313" data-name="Rectángulo 3313" width="196" height="113" transform="translate(6879 -4032)" fill="#e8eef3"/>
    <path id="Trazado_19755" data-name="Trazado 19755" d="M33.074,17H26.5V5.578h6.578V7.563H28.918V10.07h3.867v1.984H28.918V15h4.156ZM40.1,10.055H38.035V17H35.652V10.055H34.34V8.906l1.313-.641V7.625a2.862,2.862,0,0,1,.734-2.18,3.365,3.365,0,0,1,2.352-.687,6.12,6.12,0,0,1,2.2.367l-.609,1.75A4.441,4.441,0,0,0,39,6.648a.86.86,0,0,0-.734.3,1.244,1.244,0,0,0-.227.77v.547H40.1Zm1.266-4.047q0-1.164,1.3-1.164t1.3,1.164a1.135,1.135,0,0,1-.324.863,1.363,1.363,0,0,1-.973.309Q41.363,7.18,41.363,6.008ZM43.848,17H41.465V8.266h2.383Zm6.039.156q-4.078,0-4.078-4.477a4.775,4.775,0,0,1,1.109-3.4A4.162,4.162,0,0,1,50.1,8.1a6.062,6.062,0,0,1,2.719.594l-.7,1.844q-.562-.227-1.047-.371a3.373,3.373,0,0,0-.969-.145q-1.859,0-1.859,2.641,0,2.562,1.859,2.563a4.239,4.239,0,0,0,1.273-.184,4.6,4.6,0,0,0,1.172-.574v2.039a3.84,3.84,0,0,1-1.168.508A6.568,6.568,0,0,1,49.887,17.156ZM54.465,6.008q0-1.164,1.3-1.164t1.3,1.164a1.135,1.135,0,0,1-.324.863,1.363,1.363,0,0,1-.973.309Q54.465,7.18,54.465,6.008ZM56.949,17H54.566V8.266h2.383Zm6.117-7.2a1.511,1.511,0,0,0-1.187.48,2.224,2.224,0,0,0-.492,1.363H64.73a1.986,1.986,0,0,0-.461-1.363A1.561,1.561,0,0,0,63.066,9.8Zm.336,7.359a4.508,4.508,0,0,1-3.3-1.164,4.408,4.408,0,0,1-1.187-3.3,4.848,4.848,0,0,1,1.1-3.395,3.908,3.908,0,0,1,3.035-1.2,3.847,3.847,0,0,1,2.883,1.055,3.99,3.99,0,0,1,1.031,2.914v1.156H61.332a2.294,2.294,0,0,0,.6,1.586,2.117,2.117,0,0,0,1.578.57A6.551,6.551,0,0,0,65,15.219a7.466,7.466,0,0,0,1.469-.523v1.844A5.6,5.6,0,0,1,65.137,17,8.423,8.423,0,0,1,63.4,17.156ZM76.965,17H74.582V11.9a2.45,2.45,0,0,0-.336-1.418,1.222,1.222,0,0,0-1.07-.473,1.609,1.609,0,0,0-1.445.668,4.143,4.143,0,0,0-.445,2.215V17H68.9V8.266h1.82l.32,1.117h.133a2.518,2.518,0,0,1,1.1-.957,3.738,3.738,0,0,1,1.59-.324,3.055,3.055,0,0,1,2.313.824,3.308,3.308,0,0,1,.789,2.379Zm6,.156q-4.078,0-4.078-4.477A4.775,4.775,0,0,1,80,9.277,4.162,4.162,0,0,1,83.176,8.1a6.062,6.062,0,0,1,2.719.594l-.7,1.844q-.562-.227-1.047-.371a3.373,3.373,0,0,0-.969-.145q-1.859,0-1.859,2.641,0,2.562,1.859,2.563a4.239,4.239,0,0,0,1.273-.184,4.6,4.6,0,0,0,1.172-.574v2.039a3.84,3.84,0,0,1-1.168.508A6.568,6.568,0,0,1,82.965,17.156ZM87.543,6.008q0-1.164,1.3-1.164t1.3,1.164a1.135,1.135,0,0,1-.324.863,1.363,1.363,0,0,1-.973.309Q87.543,7.18,87.543,6.008ZM90.027,17H87.645V8.266h2.383Zm8.047,0-.461-1.187h-.062a3.519,3.519,0,0,1-1.238,1.051,4,4,0,0,1-1.66.293,2.685,2.685,0,0,1-1.98-.719,2.76,2.76,0,0,1-.723-2.047,2.3,2.3,0,0,1,.973-2.051,5.636,5.636,0,0,1,2.934-.73l1.516-.047V11.18a1.188,1.188,0,0,0-1.359-1.328,6.2,6.2,0,0,0-2.461.633l-.789-1.609a7.1,7.1,0,0,1,3.344-.789,4.165,4.165,0,0,1,2.7.766,2.83,2.83,0,0,1,.938,2.328V17Zm-.7-4.047-.922.031a2.952,2.952,0,0,0-1.547.375,1.178,1.178,0,0,0-.508,1.047q0,1.008,1.156,1.008a1.831,1.831,0,0,0,1.324-.477,1.674,1.674,0,0,0,.5-1.266Z" transform="translate(6921 -3986)" fill="#00223d"/>
    <g id="Elipse_516" data-name="Elipse 516" transform="translate(6845 -4007)" fill="#fff" stroke="#ff9100" stroke-width="5">
      <ellipse cx="33.5" cy="32" rx="33.5" ry="32" stroke="none"/>
      <ellipse cx="33.5" cy="32" rx="31" ry="29.5" fill="none"/>
    </g>
    <path id="Trazado_19762" data-name="Trazado 19762" d="M11.024-5.575l6.8-6.42c4.139-3.844,4.942-6.462,4.942-9.334,0-5.364-4.393-8.743-10.982-8.743-5.322,0-9.461,2.154-11.742,5.491l4.984,3.21a7.23,7.23,0,0,1,6.124-2.957c3.126,0,4.731,1.352,4.731,3.675,0,1.436-.465,2.957-3.083,5.449L1.394-4.435V0H23.737V-5.575Z" transform="translate(6866.347 -3959.586)" fill="#868988"/>
  </g>
</svg>
