<svg xmlns="http://www.w3.org/2000/svg" width="230" height="113" viewBox="0 0 230 113">
  <g id="Grupo_13318" data-name="Grupo 13318" transform="translate(-7103 3867)">
    <rect id="Rectángulo_3311" data-name="Rectángulo 3311" width="196" height="113" transform="translate(7137 -3867)" fill="#e8eef3"/>
    <path id="Trazado_19758" data-name="Trazado 19758" d="M29.09,10.648h.781a2.989,2.989,0,0,0,1.7-.383,1.366,1.366,0,0,0,.547-1.2,1.25,1.25,0,0,0-.559-1.156,3.39,3.39,0,0,0-1.73-.344H29.09Zm0,1.969V17H26.668V5.578H30a5.7,5.7,0,0,1,3.445.848A3.025,3.025,0,0,1,34.559,9,3.03,3.03,0,0,1,34,10.793a3.67,3.67,0,0,1-1.57,1.23Q35.012,15.875,35.793,17H33.105l-2.727-4.383ZM40.66,9.8a1.511,1.511,0,0,0-1.187.48,2.224,2.224,0,0,0-.492,1.363h3.344a1.986,1.986,0,0,0-.461-1.363A1.561,1.561,0,0,0,40.66,9.8ZM41,17.156a4.508,4.508,0,0,1-3.3-1.164,4.408,4.408,0,0,1-1.187-3.3,4.848,4.848,0,0,1,1.1-3.395,3.908,3.908,0,0,1,3.035-1.2,3.847,3.847,0,0,1,2.883,1.055,3.99,3.99,0,0,1,1.031,2.914v1.156H38.926a2.294,2.294,0,0,0,.6,1.586,2.117,2.117,0,0,0,1.578.57,6.551,6.551,0,0,0,1.492-.164,7.466,7.466,0,0,0,1.469-.523v1.844A5.6,5.6,0,0,1,42.73,17,8.423,8.423,0,0,1,41,17.156Zm10.3,0a2.9,2.9,0,0,1-2.414-1.117h-.125q.125,1.094.125,1.266v3.539H46.5V8.266h1.938L48.77,9.4h.109a2.757,2.757,0,0,1,2.477-1.3,2.834,2.834,0,0,1,2.422,1.2,5.528,5.528,0,0,1,.875,3.32,6.556,6.556,0,0,1-.41,2.43,3.408,3.408,0,0,1-1.168,1.57A2.993,2.993,0,0,1,51.293,17.156Zm-.7-7.148a1.5,1.5,0,0,0-1.289.543,3.118,3.118,0,0,0-.422,1.793V12.6a3.68,3.68,0,0,0,.418,2.016,1.492,1.492,0,0,0,1.324.609q1.6,0,1.6-2.641a3.771,3.771,0,0,0-.395-1.934A1.347,1.347,0,0,0,50.59,10.008Zm7.93,2.609a3.666,3.666,0,0,0,.426,1.961,1.523,1.523,0,0,0,1.387.664,1.5,1.5,0,0,0,1.371-.66,3.719,3.719,0,0,0,.418-1.965,3.608,3.608,0,0,0-.422-1.945,1.794,1.794,0,0,0-2.758,0A3.6,3.6,0,0,0,58.52,12.617Zm6.039,0a4.694,4.694,0,0,1-1.125,3.336,4.079,4.079,0,0,1-3.133,1.2,4.382,4.382,0,0,1-2.219-.551,3.665,3.665,0,0,1-1.477-1.582,5.316,5.316,0,0,1-.516-2.406,4.668,4.668,0,0,1,1.117-3.328A4.1,4.1,0,0,1,60.348,8.1a4.407,4.407,0,0,1,2.219.547,3.65,3.65,0,0,1,1.477,1.57A5.267,5.267,0,0,1,64.559,12.617Zm5.516,4.539Q66,17.156,66,12.68a4.775,4.775,0,0,1,1.109-3.4A4.162,4.162,0,0,1,70.285,8.1,6.062,6.062,0,0,1,73,8.7l-.7,1.844q-.562-.227-1.047-.371a3.373,3.373,0,0,0-.969-.145q-1.859,0-1.859,2.641,0,2.562,1.859,2.563a4.239,4.239,0,0,0,1.273-.184,4.6,4.6,0,0,0,1.172-.574v2.039a3.84,3.84,0,0,1-1.168.508A6.568,6.568,0,0,1,70.074,17.156Zm8.3-7.359a1.511,1.511,0,0,0-1.187.48,2.224,2.224,0,0,0-.492,1.363h3.344a1.986,1.986,0,0,0-.461-1.363A1.561,1.561,0,0,0,78.371,9.8Zm.336,7.359a4.508,4.508,0,0,1-3.3-1.164,4.408,4.408,0,0,1-1.187-3.3A4.848,4.848,0,0,1,75.32,9.3a3.909,3.909,0,0,1,3.035-1.2,3.847,3.847,0,0,1,2.883,1.055A3.99,3.99,0,0,1,82.27,12.07v1.156H76.637a2.294,2.294,0,0,0,.6,1.586,2.117,2.117,0,0,0,1.578.57,6.551,6.551,0,0,0,1.492-.164,7.466,7.466,0,0,0,1.469-.523v1.844A5.6,5.6,0,0,1,80.441,17,8.423,8.423,0,0,1,78.707,17.156ZM90.3,14.406a2.4,2.4,0,0,1-.934,2.047,4.613,4.613,0,0,1-2.793.7,8.772,8.772,0,0,1-1.625-.129,6.147,6.147,0,0,1-1.258-.379V14.68a8.307,8.307,0,0,0,1.5.523,6.058,6.058,0,0,0,1.465.211q1.3,0,1.3-.75a.626.626,0,0,0-.172-.457,2.492,2.492,0,0,0-.594-.4q-.422-.223-1.125-.52a7.067,7.067,0,0,1-1.48-.781,2.2,2.2,0,0,1-.687-.824,2.721,2.721,0,0,1-.215-1.145,2.075,2.075,0,0,1,.9-1.8A4.4,4.4,0,0,1,87.137,8.1a7.262,7.262,0,0,1,3.07.688l-.719,1.719q-.656-.281-1.227-.461a3.852,3.852,0,0,0-1.164-.18q-1.055,0-1.055.57a.67.67,0,0,0,.34.555,9.242,9.242,0,0,0,1.488.7,6.914,6.914,0,0,1,1.5.773,2.287,2.287,0,0,1,.7.828A2.545,2.545,0,0,1,90.3,14.406Zm3.758-1.789a3.666,3.666,0,0,0,.426,1.961,1.523,1.523,0,0,0,1.387.664,1.5,1.5,0,0,0,1.371-.66,3.719,3.719,0,0,0,.418-1.965,3.608,3.608,0,0,0-.422-1.945,1.794,1.794,0,0,0-2.758,0A3.6,3.6,0,0,0,94.059,12.617Zm6.039,0a4.694,4.694,0,0,1-1.125,3.336,4.079,4.079,0,0,1-3.133,1.2,4.382,4.382,0,0,1-2.219-.551,3.665,3.665,0,0,1-1.477-1.582,5.316,5.316,0,0,1-.516-2.406,4.668,4.668,0,0,1,1.117-3.328A4.1,4.1,0,0,1,95.887,8.1a4.407,4.407,0,0,1,2.219.547,3.65,3.65,0,0,1,1.477,1.57A5.267,5.267,0,0,1,100.1,12.617Zm8.063,1.789a2.4,2.4,0,0,1-.934,2.047,4.613,4.613,0,0,1-2.793.7,8.772,8.772,0,0,1-1.625-.129,6.147,6.147,0,0,1-1.258-.379V14.68a8.307,8.307,0,0,0,1.5.523,6.058,6.058,0,0,0,1.465.211q1.3,0,1.3-.75a.626.626,0,0,0-.172-.457,2.492,2.492,0,0,0-.594-.4q-.422-.223-1.125-.52a7.067,7.067,0,0,1-1.48-.781,2.2,2.2,0,0,1-.687-.824,2.721,2.721,0,0,1-.215-1.145,2.075,2.075,0,0,1,.9-1.8A4.4,4.4,0,0,1,105,8.1a7.262,7.262,0,0,1,3.07.688l-.719,1.719q-.656-.281-1.227-.461a3.852,3.852,0,0,0-1.164-.18q-1.055,0-1.055.57a.67.67,0,0,0,.34.555,9.242,9.242,0,0,0,1.488.7,6.914,6.914,0,0,1,1.5.773,2.287,2.287,0,0,1,.7.828A2.545,2.545,0,0,1,108.16,14.406Z" transform="translate(7170 -3821)" fill="#00223d"/>
    <g id="Elipse_516" data-name="Elipse 516" transform="translate(7103 -3842)" fill="#fff" stroke="#ff9100" stroke-width="5">
      <ellipse cx="33.5" cy="32" rx="33.5" ry="32" stroke="none"/>
      <ellipse cx="33.5" cy="32" rx="31" ry="29.5" fill="none"/>
    </g>
    <path id="Trazado_19766" data-name="Trazado 19766" d="M1.1-29.566v10.39H7.18v-4.815h9.8L6.378,0h7.434L24.793-25.131v-4.435Z" transform="translate(7123.347 -3794.586)" fill="#868988"/>
  </g>
</svg>
